<svg width="2285" height="503" viewBox="0 0 2285 503" fill="none" xmlns="http://www.w3.org/2000/svg">
<path d="M2278.5 501.773L2278.5 502.773L2279.5 502.773L2279.5 501.773L2278.5 501.773ZM2278.5 346.773L2272.73 356.773L2284.27 356.774L2278.5 346.773ZM0.000116265 5.77353L10.0001 11.547L10.0001 1.88166e-05L0.000116265 5.77353ZM123.499 5.77339L124.499 5.77339L124.499 4.77339L123.499 4.77339L123.499 5.77339ZM123.499 501.773L122.499 501.773L122.499 502.773L123.499 502.773L123.499 501.773ZM2278.5 501.773L2279.5 501.773L2279.5 355.773L2278.5 355.773L2277.5 355.773L2277.5 501.773L2278.5 501.773ZM9.00012 5.77352L9.00012 6.77352L123.499 6.77339L123.499 5.77339L123.499 4.77339L9.00011 4.77352L9.00012 5.77352ZM123.499 5.77339L122.499 5.77339L122.499 501.773L123.499 501.773L124.499 501.773L124.499 5.77339L123.499 5.77339ZM123.499 501.773L123.499 502.773L2278.5 502.773L2278.5 501.773L2278.5 500.773L123.499 500.773L123.499 501.773Z" fill="black"/>
</svg>
