<svg width="285" height="247" viewBox="0 0 285 247" fill="none" xmlns="http://www.w3.org/2000/svg">
<rect x="1" y="1" width="283" height="48" rx="9" stroke="black" stroke-width="2"/>
<path d="M12.7455 69.9785H8.41937L8.47797 69.4512H11.9643C12.6609 69.4447 13.3152 69.3405 13.9272 69.1387C14.5392 68.9368 15.06 68.6146 15.4897 68.1719C15.9194 67.7227 16.2026 67.127 16.3393 66.3848C16.4825 65.623 16.4011 65.0208 16.0952 64.5781C15.7892 64.1289 15.3497 63.8066 14.7768 63.6113C14.2104 63.416 13.5984 63.3151 12.9409 63.3086H9.78656L7.41352 77H6.88617L9.34711 62.7812H12.9311C13.504 62.7878 14.0509 62.8594 14.5717 62.9961C15.0926 63.1328 15.5418 63.3444 15.9194 63.6309C16.3035 63.9173 16.5834 64.2917 16.7592 64.7539C16.9415 65.2096 16.9773 65.7663 16.8666 66.4238C16.769 67.0488 16.5737 67.5794 16.2807 68.0156C15.9877 68.4453 15.6134 68.7969 15.1577 69.0703C14.7084 69.3372 14.1909 69.5423 13.6049 69.6855L12.7455 69.9785ZM11.437 77H7.17914L7.41352 76.4824L11.4272 76.4727C12.1368 76.4596 12.7976 76.3262 13.4096 76.0723C14.0281 75.8118 14.5489 75.4342 14.9721 74.9395C15.3953 74.4382 15.6752 73.8262 15.812 73.1035C15.9357 72.4329 15.864 71.8698 15.5971 71.4141C15.3302 70.9518 14.9396 70.6003 14.4252 70.3594C13.9174 70.1185 13.3575 69.9915 12.7455 69.9785H10.4702L10.558 69.4512H13.81L13.8198 69.6367C14.3797 69.7344 14.8647 69.9492 15.2748 70.2812C15.685 70.6068 15.9877 71.0137 16.183 71.502C16.3784 71.9837 16.4304 72.5111 16.3393 73.084C16.2091 73.9108 15.9064 74.6139 15.4311 75.1934C14.9623 75.7728 14.3797 76.2188 13.683 76.5312C12.9864 76.8372 12.2377 76.9935 11.437 77ZM24.8191 75.0176L25.7566 69.5586C25.8607 68.9596 25.8119 68.4518 25.6101 68.0352C25.4148 67.6185 25.1055 67.3027 24.6823 67.0879C24.2592 66.873 23.7546 66.7656 23.1687 66.7656C22.6283 66.7656 22.0945 66.8665 21.5671 67.0684C21.0463 67.2637 20.5905 67.5534 20.1999 67.9375C19.8093 68.3151 19.5489 68.7806 19.4187 69.334L18.8913 69.3145C18.989 68.8262 19.1745 68.3932 19.448 68.0156C19.7279 67.6315 20.0665 67.3092 20.4636 67.0488C20.8607 66.7884 21.2904 66.5898 21.7527 66.4531C22.2214 66.3099 22.6934 66.2383 23.1687 66.2383C23.8458 66.2383 24.4382 66.3717 24.946 66.6387C25.4538 66.8991 25.8282 67.2799 26.0691 67.7812C26.3165 68.276 26.3848 68.875 26.2741 69.5781L25.3659 74.8711C25.3073 75.2031 25.2618 75.5417 25.2292 75.8867C25.2032 76.2318 25.2195 76.5736 25.278 76.9121L25.2683 77H24.6726C24.6465 76.668 24.6498 76.3359 24.6823 76.0039C24.7149 75.6719 24.7605 75.3431 24.8191 75.0176ZM25.7175 71.1016L25.6687 71.6387H23.032C22.5762 71.6452 22.0945 71.694 21.5866 71.7852C21.0788 71.8698 20.5905 72.0163 20.1218 72.2246C19.653 72.4264 19.2494 72.7031 18.9109 73.0547C18.5788 73.3997 18.3607 73.8359 18.2566 74.3633C18.1719 74.832 18.224 75.2389 18.4128 75.584C18.6016 75.929 18.8783 76.196 19.2429 76.3848C19.6075 76.5736 20.0079 76.6712 20.4441 76.6777C21.1407 76.6842 21.7852 76.5638 22.3777 76.3164C22.9766 76.0625 23.5137 75.7142 23.989 75.2715C24.4642 74.8223 24.8679 74.3014 25.1999 73.709L25.3659 74.2168C25.1316 74.6725 24.8418 75.0859 24.4968 75.457C24.1517 75.8281 23.7644 76.1439 23.3347 76.4043C22.905 76.6582 22.446 76.8535 21.9577 76.9902C21.476 77.127 20.9747 77.1953 20.4538 77.1953C19.8939 77.1888 19.3926 77.0716 18.9499 76.8438C18.5072 76.6094 18.1719 76.2773 17.9441 75.8477C17.7162 75.418 17.6478 74.9102 17.739 74.3242C17.8366 73.7188 18.0645 73.2109 18.4226 72.8008C18.7807 72.3906 19.2136 72.0618 19.7214 71.8145C20.2357 71.5671 20.7793 71.388 21.3523 71.2773C21.9252 71.1667 22.4721 71.1081 22.9929 71.1016H25.7175ZM29.9785 68.6895L28.543 77H28.0156L29.832 66.4336H30.3594L29.9785 68.6895ZM29.5293 70.8086L29.334 70.2422C29.4902 69.7279 29.7116 69.2331 29.998 68.7578C30.291 68.2826 30.6361 67.8561 31.0332 67.4785C31.4368 67.1009 31.8861 66.8014 32.3809 66.5801C32.8757 66.3587 33.4095 66.2448 33.9824 66.2383C34.5814 66.2383 35.0697 66.3424 35.4473 66.5508C35.8314 66.7591 36.1211 67.0488 36.3164 67.4199C36.5182 67.7845 36.6387 68.2044 36.6777 68.6797C36.7168 69.1484 36.6973 69.6432 36.6191 70.1641L35.4375 77H34.9102L36.0918 70.1641C36.1895 69.5716 36.2025 69.015 36.1309 68.4941C36.0592 67.9733 35.8542 67.5534 35.5156 67.2344C35.1771 66.9089 34.6595 66.7493 33.9629 66.7559C33.4095 66.7624 32.8952 66.8828 32.4199 67.1172C31.9447 67.3516 31.515 67.6641 31.1309 68.0547C30.7467 68.4388 30.418 68.8717 30.1445 69.3535C29.8711 69.8288 29.666 70.3138 29.5293 70.8086ZM41.9446 76.668C42.5566 76.668 43.1165 76.5508 43.6243 76.3164C44.1386 76.082 44.5748 75.75 44.9329 75.3203C45.291 74.8906 45.5514 74.3861 45.7141 73.8066H46.2415C46.0852 74.4837 45.802 75.0762 45.3919 75.584C44.9817 76.0918 44.4804 76.4889 43.888 76.7754C43.2955 77.0553 42.651 77.1953 41.9544 77.1953C41.2187 77.1953 40.6067 77.0391 40.1184 76.7266C39.6367 76.4141 39.2656 76.0007 39.0052 75.4863C38.7447 74.972 38.5787 74.4056 38.5071 73.7871C38.4355 73.1621 38.4453 72.5404 38.5364 71.9219L38.595 71.5117C38.6992 70.8607 38.8782 70.2227 39.1321 69.5977C39.3925 68.9727 39.7278 68.4095 40.138 67.9082C40.5481 67.4004 41.0364 66.9967 41.6028 66.6973C42.1757 66.3913 42.8268 66.2383 43.5559 66.2383C44.2786 66.2383 44.8938 66.401 45.4016 66.7266C45.916 67.0456 46.3001 67.4818 46.554 68.0352C46.8079 68.5885 46.9088 69.2168 46.8567 69.9199H46.3294C46.3815 69.321 46.3033 68.7839 46.095 68.3086C45.8932 67.8333 45.5742 67.459 45.138 67.1855C44.7083 66.9056 44.1842 66.7656 43.5657 66.7656C42.9016 66.7656 42.3157 66.9023 41.8079 67.1758C41.3001 67.4492 40.8639 67.8138 40.4993 68.2695C40.1412 68.7253 39.8483 69.2363 39.6204 69.8027C39.3925 70.3626 39.2298 70.9323 39.1321 71.5117L39.0637 71.9219C38.9791 72.4688 38.9563 73.0221 38.9954 73.582C39.041 74.1354 39.1679 74.6465 39.3762 75.1152C39.5846 75.5775 39.8971 75.9518 40.3137 76.2383C40.7369 76.5182 41.2805 76.6615 41.9446 76.668ZM48.0318 71.9219L48.0904 71.5117C48.2011 70.8411 48.3996 70.1934 48.6861 69.5684C48.9726 68.9368 49.3404 68.3704 49.7896 67.8691C50.2388 67.3678 50.7629 66.9707 51.3619 66.6777C51.9608 66.3848 52.6282 66.2383 53.3638 66.2383C54.0995 66.2383 54.7245 66.3913 55.2388 66.6973C55.7532 66.9967 56.1601 67.4004 56.4595 67.9082C56.7655 68.416 56.9673 68.9824 57.065 69.6074C57.1692 70.2324 57.1757 70.8672 57.0845 71.5117L57.0259 71.9219C56.9153 72.5924 56.7167 73.2435 56.4302 73.875C56.1438 74.5 55.7759 75.0632 55.3267 75.5645C54.884 76.0658 54.3632 76.4629 53.7642 76.7559C53.1653 77.0488 52.4979 77.1953 51.7623 77.1953C51.0266 77.1953 50.4016 77.0456 49.8873 76.7461C49.3729 76.4401 48.9628 76.0332 48.6568 75.5254C48.3573 75.0176 48.1555 74.4512 48.0513 73.8262C47.9472 73.2012 47.9407 72.5664 48.0318 71.9219ZM48.6275 71.5117L48.5591 71.9219C48.4745 72.4818 48.4713 73.0417 48.5494 73.6016C48.6275 74.1615 48.7935 74.6725 49.0474 75.1348C49.3078 75.597 49.6594 75.9681 50.1021 76.248C50.5513 76.528 51.1015 76.668 51.7525 76.668C52.4035 76.668 52.996 76.5345 53.5298 76.2676C54.0702 75.9941 54.5422 75.6328 54.9459 75.1836C55.3495 74.7279 55.6815 74.2168 55.942 73.6504C56.2024 73.084 56.3847 72.5078 56.4888 71.9219L56.5572 71.5117C56.6418 70.9583 56.6418 70.4017 56.5572 69.8418C56.4791 69.2819 56.313 68.7708 56.0591 68.3086C55.8052 67.8464 55.4537 67.4753 55.0045 67.1953C54.5617 66.9089 54.0181 66.7656 53.3736 66.7656C52.7226 66.7656 52.1301 66.9023 51.5963 67.1758C51.0624 67.4427 50.5904 67.804 50.1802 68.2598C49.7766 68.7155 49.4413 69.2266 49.1744 69.793C48.914 70.3529 48.7317 70.9258 48.6275 71.5117Z" fill="black"/>
<rect x="1" y="92" width="283" height="48" rx="9" stroke="black" stroke-width="2"/>
<path d="M19.5297 153.781L17.0883 168H16.5805L9.9789 154.66L7.66445 168H7.12734L9.56875 153.781H10.0863L16.6977 167.092L19.0023 153.781H19.5297ZM27.5993 165.559L28.9958 157.434H29.5329L27.7165 168H27.1794L27.5993 165.559ZM27.9802 163.869L28.4294 163.859C28.3122 164.478 28.1234 165.051 27.863 165.578C27.6026 166.105 27.2705 166.564 26.8669 166.955C26.4697 167.346 26.001 167.652 25.4606 167.873C24.9268 168.088 24.3278 168.195 23.6637 168.195C23.0583 168.195 22.557 168.088 22.1598 167.873C21.7692 167.652 21.4697 167.352 21.2614 166.975C21.0531 166.59 20.9261 166.158 20.8805 165.676C20.835 165.188 20.8545 164.676 20.9391 164.143L22.0915 157.434H22.6188L21.4567 164.162C21.3851 164.605 21.3623 165.035 21.3884 165.451C21.4144 165.868 21.5055 166.242 21.6618 166.574C21.818 166.906 22.0557 167.173 22.3747 167.375C22.7002 167.57 23.1234 167.668 23.6442 167.668C24.432 167.668 25.1221 167.505 25.7145 167.18C26.307 166.854 26.792 166.408 27.1696 165.842C27.5537 165.269 27.8239 164.611 27.9802 163.869ZM25.9391 155.578L28.1169 153.01L28.7809 153.02L26.5446 155.588L25.9391 155.578ZM32.5244 159.699L31.0888 168H30.5615L32.3681 157.434H32.9052L32.5244 159.699ZM32.0947 161.809L31.8994 161.242C32.0556 160.728 32.277 160.233 32.5634 159.758C32.8499 159.283 33.1917 158.856 33.5888 158.479C33.986 158.101 34.4287 157.801 34.917 157.58C35.4117 157.359 35.9456 157.245 36.5185 157.238C37.0979 157.238 37.5797 157.333 37.9638 157.521C38.3479 157.71 38.6442 157.977 38.8525 158.322C39.0673 158.661 39.2008 159.058 39.2529 159.514C39.3115 159.963 39.2985 160.448 39.2138 160.969L38.0029 168H37.4853L38.6962 160.969C38.7939 160.376 38.7939 159.836 38.6962 159.348C38.6051 158.859 38.3837 158.472 38.0322 158.186C37.6806 157.893 37.1696 157.749 36.499 157.756C35.9456 157.762 35.4313 157.883 34.956 158.117C34.4873 158.352 34.0608 158.664 33.6767 159.055C33.2991 159.445 32.9768 159.878 32.7099 160.354C32.443 160.829 32.2379 161.314 32.0947 161.809ZM39.2236 160.969L38.9013 160.627C39.0706 160.145 39.305 159.699 39.6045 159.289C39.9039 158.872 40.2522 158.514 40.6494 158.215C41.053 157.909 41.4925 157.671 41.9677 157.502C42.4495 157.333 42.9508 157.245 43.4716 157.238C44.0706 157.238 44.5621 157.342 44.9462 157.551C45.3304 157.759 45.6233 158.046 45.8252 158.41C46.027 158.775 46.1507 159.195 46.1962 159.67C46.2418 160.145 46.2223 160.643 46.1377 161.164L44.956 168H44.4384L45.6103 161.164C45.708 160.572 45.7177 160.015 45.6396 159.494C45.568 158.967 45.3597 158.544 45.0146 158.225C44.6761 157.899 44.1552 157.743 43.4521 157.756C42.9768 157.769 42.5179 157.857 42.0752 158.02C41.6324 158.182 41.2223 158.41 40.8447 158.703C40.4671 158.99 40.1383 159.328 39.8584 159.719C39.5784 160.103 39.3668 160.52 39.2236 160.969ZM51.5803 168.195C50.8707 168.195 50.2587 168.042 49.7444 167.736C49.2366 167.424 48.8264 167.014 48.5139 166.506C48.2079 165.992 47.9996 165.425 47.8889 164.807C47.7847 164.188 47.775 163.566 47.8596 162.941L47.928 162.512C48.0256 161.88 48.2144 161.255 48.4944 160.637C48.7743 160.012 49.1324 159.445 49.5686 158.938C50.0048 158.423 50.5126 158.013 51.092 157.707C51.6715 157.395 52.3127 157.238 53.0159 157.238C53.6474 157.238 54.1845 157.368 54.6272 157.629C55.0699 157.883 55.4247 158.228 55.6916 158.664C55.9586 159.094 56.1376 159.576 56.2287 160.109C56.3264 160.643 56.3362 161.19 56.258 161.75L56.1799 162.365H48.2893L48.3577 161.838H55.6916L55.7209 161.711C55.8316 161.086 55.8056 160.471 55.6428 159.865C55.4801 159.26 55.1806 158.762 54.7444 158.371C54.3082 157.974 53.732 157.772 53.0159 157.766C52.3843 157.766 51.8082 157.906 51.2873 158.186C50.773 158.459 50.3205 158.83 49.9299 159.299C49.5458 159.761 49.2268 160.272 48.9729 160.832C48.7255 161.392 48.553 161.952 48.4553 162.512L48.387 162.941C48.3023 163.488 48.3023 164.038 48.387 164.592C48.4716 165.145 48.6441 165.656 48.9045 166.125C49.1649 166.587 49.5165 166.962 49.9592 167.248C50.4019 167.528 50.939 167.671 51.5705 167.678C52.2281 167.684 52.8271 167.561 53.3674 167.307C53.9078 167.046 54.4058 166.688 54.8616 166.232L55.2131 166.506C54.9006 166.864 54.5556 167.17 54.178 167.424C53.8004 167.678 53.3935 167.87 52.9573 168C52.5211 168.13 52.0621 168.195 51.5803 168.195ZM59.3179 159.27L57.814 168H57.2866L59.103 157.434H59.6304L59.3179 159.27ZM63.7124 157.355L63.5855 157.805C63.4813 157.792 63.3771 157.782 63.273 157.775C63.1688 157.762 63.0614 157.756 62.9507 157.756C62.3257 157.756 61.7723 157.893 61.2905 158.166C60.8088 158.433 60.3921 158.791 60.0405 159.24C59.6955 159.689 59.409 160.184 59.1812 160.725C58.9598 161.258 58.7938 161.792 58.6831 162.326L58.3218 162.355C58.439 161.75 58.6115 161.145 58.8394 160.539C59.0737 159.934 59.3765 159.38 59.7476 158.879C60.1252 158.378 60.5777 157.977 61.105 157.678C61.6389 157.378 62.2606 157.232 62.9702 157.238C63.1004 157.238 63.2274 157.248 63.3511 157.268C63.4748 157.287 63.5952 157.316 63.7124 157.355ZM63.4031 162.922L63.4617 162.512C63.5724 161.841 63.771 161.193 64.0574 160.568C64.3439 159.937 64.7117 159.37 65.1609 158.869C65.6102 158.368 66.1342 157.971 66.7332 157.678C67.3322 157.385 67.9995 157.238 68.7352 157.238C69.4708 157.238 70.0958 157.391 70.6102 157.697C71.1245 157.997 71.5314 158.4 71.8309 158.908C72.1368 159.416 72.3387 159.982 72.4363 160.607C72.5405 161.232 72.547 161.867 72.4559 162.512L72.3973 162.922C72.2866 163.592 72.088 164.243 71.8016 164.875C71.5151 165.5 71.1473 166.063 70.698 166.564C70.2553 167.066 69.7345 167.463 69.1355 167.756C68.5366 168.049 67.8693 168.195 67.1336 168.195C66.3979 168.195 65.7729 168.046 65.2586 167.746C64.7443 167.44 64.3341 167.033 64.0281 166.525C63.7286 166.018 63.5268 165.451 63.4227 164.826C63.3185 164.201 63.312 163.566 63.4031 162.922ZM63.9988 162.512L63.9305 162.922C63.8458 163.482 63.8426 164.042 63.9207 164.602C63.9988 165.161 64.1648 165.673 64.4187 166.135C64.6792 166.597 65.0307 166.968 65.4734 167.248C65.9227 167.528 66.4728 167.668 67.1238 167.668C67.7749 167.668 68.3673 167.535 68.9012 167.268C69.4415 166.994 69.9135 166.633 70.3172 166.184C70.7208 165.728 71.0529 165.217 71.3133 164.65C71.5737 164.084 71.756 163.508 71.8602 162.922L71.9285 162.512C72.0131 161.958 72.0131 161.402 71.9285 160.842C71.8504 160.282 71.6844 159.771 71.4305 159.309C71.1766 158.846 70.825 158.475 70.3758 158.195C69.9331 157.909 69.3895 157.766 68.7449 157.766C68.0939 157.766 67.5014 157.902 66.9676 158.176C66.4337 158.443 65.9617 158.804 65.5516 159.26C65.1479 159.715 64.8126 160.227 64.5457 160.793C64.2853 161.353 64.103 161.926 63.9988 162.512ZM85.3822 165.949L87.6185 153H88.1459L85.558 168H85.0306L85.3822 165.949ZM78.5853 162.814L78.6146 162.609C78.7253 161.984 78.8978 161.356 79.1322 160.725C79.3731 160.093 79.6856 159.514 80.0697 158.986C80.4538 158.459 80.9193 158.036 81.4662 157.717C82.013 157.398 82.6478 157.238 83.3705 157.238C83.8522 157.238 84.3015 157.326 84.7181 157.502C85.1413 157.678 85.5091 157.925 85.8216 158.244C86.1341 158.557 86.375 158.924 86.5443 159.348C86.7136 159.771 86.7884 160.23 86.7689 160.725L86.0365 165.031C85.9128 165.513 85.6979 165.949 85.392 166.34C85.086 166.724 84.7246 167.056 84.308 167.336C83.8978 167.609 83.4551 167.821 82.9798 167.971C82.5046 168.12 82.0293 168.195 81.5541 168.195C80.8249 168.195 80.239 168.026 79.7962 167.688C79.3601 167.342 79.0378 166.9 78.8295 166.359C78.6276 165.812 78.5137 165.227 78.4877 164.602C78.4616 163.977 78.4942 163.381 78.5853 162.814ZM79.1712 162.609L79.1322 162.814C79.0476 163.303 79.0052 163.827 79.0052 164.387C79.0052 164.947 79.0801 165.474 79.2298 165.969C79.3796 166.464 79.6367 166.87 80.0013 167.189C80.3724 167.502 80.8835 167.661 81.5345 167.668C82.127 167.668 82.7097 167.551 83.2826 167.316C83.862 167.082 84.3731 166.75 84.8158 166.32C85.2585 165.884 85.5677 165.373 85.7435 164.787L86.4076 161.076C86.4401 160.614 86.388 160.181 86.2513 159.777C86.1146 159.374 85.9063 159.022 85.6263 158.723C85.3529 158.423 85.0241 158.189 84.64 158.02C84.2559 157.85 83.8327 157.766 83.3705 157.766C82.7259 157.766 82.1628 157.915 81.681 158.215C81.1992 158.508 80.7891 158.895 80.4505 159.377C80.112 159.852 79.8386 160.373 79.6302 160.939C79.4219 161.506 79.2689 162.062 79.1712 162.609ZM92.3092 168.195C91.5996 168.195 90.9876 168.042 90.4733 167.736C89.9655 167.424 89.5553 167.014 89.2428 166.506C88.9368 165.992 88.7285 165.425 88.6178 164.807C88.5136 164.188 88.5039 163.566 88.5885 162.941L88.6569 162.512C88.7545 161.88 88.9433 161.255 89.2233 160.637C89.5032 160.012 89.8613 159.445 90.2975 158.938C90.7337 158.423 91.2415 158.013 91.8209 157.707C92.4004 157.395 93.0416 157.238 93.7448 157.238C94.3763 157.238 94.9134 157.368 95.3561 157.629C95.7988 157.883 96.1536 158.228 96.4205 158.664C96.6875 159.094 96.8665 159.576 96.9577 160.109C97.0553 160.643 97.0651 161.19 96.987 161.75L96.9088 162.365H89.0182L89.0866 161.838H96.4205L96.4498 161.711C96.5605 161.086 96.5345 160.471 96.3717 159.865C96.209 159.26 95.9095 158.762 95.4733 158.371C95.0371 157.974 94.4609 157.772 93.7448 157.766C93.1133 157.766 92.5371 157.906 92.0163 158.186C91.5019 158.459 91.0495 158.83 90.6588 159.299C90.2747 159.761 89.9557 160.272 89.7018 160.832C89.4544 161.392 89.2819 161.952 89.1842 162.512L89.1159 162.941C89.0312 163.488 89.0312 164.038 89.1159 164.592C89.2005 165.145 89.373 165.656 89.6334 166.125C89.8939 166.587 90.2454 166.962 90.6881 167.248C91.1308 167.528 91.6679 167.671 92.2995 167.678C92.957 167.684 93.556 167.561 94.0963 167.307C94.6367 167.046 95.1347 166.688 95.5905 166.232L95.942 166.506C95.6295 166.864 95.2845 167.17 94.9069 167.424C94.5293 167.678 94.1224 167.87 93.6862 168C93.25 168.13 92.791 168.195 92.3092 168.195ZM106.066 167.668C106.678 167.668 107.237 167.551 107.745 167.316C108.26 167.082 108.696 166.75 109.054 166.32C109.412 165.891 109.672 165.386 109.835 164.807H110.362C110.206 165.484 109.923 166.076 109.513 166.584C109.103 167.092 108.601 167.489 108.009 167.775C107.417 168.055 106.772 168.195 106.075 168.195C105.34 168.195 104.728 168.039 104.239 167.727C103.758 167.414 103.387 167.001 103.126 166.486C102.866 165.972 102.7 165.406 102.628 164.787C102.557 164.162 102.566 163.54 102.657 162.922L102.716 162.512C102.82 161.861 102.999 161.223 103.253 160.598C103.514 159.973 103.849 159.41 104.259 158.908C104.669 158.4 105.157 157.997 105.724 157.697C106.297 157.391 106.948 157.238 107.677 157.238C108.4 157.238 109.015 157.401 109.523 157.727C110.037 158.046 110.421 158.482 110.675 159.035C110.929 159.589 111.03 160.217 110.978 160.92H110.45C110.502 160.321 110.424 159.784 110.216 159.309C110.014 158.833 109.695 158.459 109.259 158.186C108.829 157.906 108.305 157.766 107.687 157.766C107.023 157.766 106.437 157.902 105.929 158.176C105.421 158.449 104.985 158.814 104.62 159.27C104.262 159.725 103.969 160.236 103.741 160.803C103.514 161.363 103.351 161.932 103.253 162.512L103.185 162.922C103.1 163.469 103.077 164.022 103.116 164.582C103.162 165.135 103.289 165.646 103.497 166.115C103.706 166.577 104.018 166.952 104.435 167.238C104.858 167.518 105.402 167.661 106.066 167.668ZM119.331 165.559L120.727 157.434H121.264L119.448 168H118.911L119.331 165.559ZM119.711 163.869L120.161 163.859C120.043 164.478 119.855 165.051 119.594 165.578C119.334 166.105 119.002 166.564 118.598 166.955C118.201 167.346 117.732 167.652 117.192 167.873C116.658 168.088 116.059 168.195 115.395 168.195C114.79 168.195 114.288 168.088 113.891 167.873C113.5 167.652 113.201 167.352 112.993 166.975C112.784 166.59 112.657 166.158 112.612 165.676C112.566 165.188 112.586 164.676 112.67 164.143L113.823 157.434H114.35L113.188 164.162C113.116 164.605 113.094 165.035 113.12 165.451C113.146 165.868 113.237 166.242 113.393 166.574C113.549 166.906 113.787 167.173 114.106 167.375C114.431 167.57 114.855 167.668 115.375 167.668C116.163 167.668 116.853 167.505 117.446 167.18C118.038 166.854 118.523 166.408 118.901 165.842C119.285 165.269 119.555 164.611 119.711 163.869ZM126.189 168.195C125.48 168.195 124.868 168.042 124.353 167.736C123.845 167.424 123.435 167.014 123.123 166.506C122.817 165.992 122.608 165.425 122.498 164.807C122.394 164.188 122.384 163.566 122.469 162.941L122.537 162.512C122.635 161.88 122.823 161.255 123.103 160.637C123.383 160.012 123.741 159.445 124.177 158.938C124.614 158.423 125.122 158.013 125.701 157.707C126.28 157.395 126.922 157.238 127.625 157.238C128.256 157.238 128.793 157.368 129.236 157.629C129.679 157.883 130.034 158.228 130.301 158.664C130.567 159.094 130.747 159.576 130.838 160.109C130.935 160.643 130.945 161.19 130.867 161.75L130.789 162.365H122.898L122.967 161.838H130.301L130.33 161.711C130.441 161.086 130.414 160.471 130.252 159.865C130.089 159.26 129.789 158.762 129.353 158.371C128.917 157.974 128.341 157.772 127.625 157.766C126.993 157.766 126.417 157.906 125.896 158.186C125.382 158.459 124.929 158.83 124.539 159.299C124.155 159.761 123.836 160.272 123.582 160.832C123.334 161.392 123.162 161.952 123.064 162.512L122.996 162.941C122.911 163.488 122.911 164.038 122.996 164.592C123.08 165.145 123.253 165.656 123.513 166.125C123.774 166.587 124.125 166.962 124.568 167.248C125.011 167.528 125.548 167.671 126.179 167.678C126.837 167.684 127.436 167.561 127.976 167.307C128.517 167.046 129.015 166.688 129.47 166.232L129.822 166.506C129.51 166.864 129.164 167.17 128.787 167.424C128.409 167.678 128.002 167.87 127.566 168C127.13 168.13 126.671 168.195 126.189 168.195ZM133.858 159.689L132.423 168H131.896L133.712 157.434H134.239L133.858 159.689ZM133.409 161.809L133.214 161.242C133.37 160.728 133.592 160.233 133.878 159.758C134.171 159.283 134.516 158.856 134.913 158.479C135.317 158.101 135.766 157.801 136.261 157.58C136.756 157.359 137.289 157.245 137.862 157.238C138.461 157.238 138.95 157.342 139.327 157.551C139.711 157.759 140.001 158.049 140.196 158.42C140.398 158.785 140.519 159.204 140.558 159.68C140.597 160.148 140.577 160.643 140.499 161.164L139.317 168H138.79L139.972 161.164C140.069 160.572 140.082 160.015 140.011 159.494C139.939 158.973 139.734 158.553 139.396 158.234C139.057 157.909 138.539 157.749 137.843 157.756C137.289 157.762 136.775 157.883 136.3 158.117C135.825 158.352 135.395 158.664 135.011 159.055C134.627 159.439 134.298 159.872 134.024 160.354C133.751 160.829 133.546 161.314 133.409 161.809ZM147.543 157.434L147.475 157.971H142.709L142.787 157.434H147.543ZM145.18 154.582H145.717L143.832 165.471C143.774 165.809 143.751 166.148 143.764 166.486C143.777 166.818 143.871 167.098 144.047 167.326C144.223 167.548 144.522 167.661 144.946 167.668C145.128 167.668 145.307 167.658 145.483 167.639C145.659 167.619 145.834 167.6 146.01 167.58L146.03 168.078C145.854 168.124 145.678 168.153 145.502 168.166C145.326 168.186 145.147 168.195 144.965 168.195C144.412 168.189 144.005 168.059 143.744 167.805C143.484 167.544 143.325 167.209 143.266 166.799C143.214 166.382 143.227 165.939 143.305 165.471L145.18 154.582ZM154.89 166.018L155.828 160.559C155.932 159.96 155.883 159.452 155.681 159.035C155.486 158.618 155.177 158.303 154.754 158.088C154.33 157.873 153.826 157.766 153.24 157.766C152.699 157.766 152.166 157.867 151.638 158.068C151.117 158.264 150.662 158.553 150.271 158.938C149.88 159.315 149.62 159.781 149.49 160.334L148.962 160.314C149.06 159.826 149.246 159.393 149.519 159.016C149.799 158.632 150.138 158.309 150.535 158.049C150.932 157.788 151.362 157.59 151.824 157.453C152.293 157.31 152.765 157.238 153.24 157.238C153.917 157.238 154.509 157.372 155.017 157.639C155.525 157.899 155.899 158.28 156.14 158.781C156.388 159.276 156.456 159.875 156.345 160.578L155.437 165.871C155.379 166.203 155.333 166.542 155.3 166.887C155.274 167.232 155.291 167.574 155.349 167.912L155.339 168H154.744C154.718 167.668 154.721 167.336 154.754 167.004C154.786 166.672 154.832 166.343 154.89 166.018ZM155.789 162.102L155.74 162.639H153.103C152.647 162.645 152.166 162.694 151.658 162.785C151.15 162.87 150.662 163.016 150.193 163.225C149.724 163.426 149.321 163.703 148.982 164.055C148.65 164.4 148.432 164.836 148.328 165.363C148.243 165.832 148.295 166.239 148.484 166.584C148.673 166.929 148.949 167.196 149.314 167.385C149.679 167.574 150.079 167.671 150.515 167.678C151.212 167.684 151.856 167.564 152.449 167.316C153.048 167.062 153.585 166.714 154.06 166.271C154.535 165.822 154.939 165.301 155.271 164.709L155.437 165.217C155.203 165.673 154.913 166.086 154.568 166.457C154.223 166.828 153.836 167.144 153.406 167.404C152.976 167.658 152.517 167.854 152.029 167.99C151.547 168.127 151.046 168.195 150.525 168.195C149.965 168.189 149.464 168.072 149.021 167.844C148.578 167.609 148.243 167.277 148.015 166.848C147.787 166.418 147.719 165.91 147.81 165.324C147.908 164.719 148.136 164.211 148.494 163.801C148.852 163.391 149.285 163.062 149.793 162.814C150.307 162.567 150.851 162.388 151.423 162.277C151.996 162.167 152.543 162.108 153.064 162.102H155.789Z" fill="black"/>
</svg>
