<svg width="768" height="74" viewBox="0 0 768 74" fill="none" xmlns="http://www.w3.org/2000/svg">
<path d="M17.4844 3.75L5.67188 72H0L11.8125 3.75H17.4844ZM42.8906 35.1562L42.0469 40.125H9.28125L10.125 35.1562H42.8906ZM52.875 3.75L52.0312 8.71875H14.7188L15.5625 3.75H52.875ZM91.5938 67.0781L90.75 72H56.3906L57.1875 67.0781H91.5938ZM69.8906 3.75L58.0781 72H52.4062L64.2188 3.75H69.8906ZM150.797 3.75H156.422L148.5 49.9219C147.781 54.5469 146.188 58.5938 143.719 62.0625C141.25 65.5312 138.125 68.2344 134.344 70.1719C130.562 72.0781 126.312 73 121.594 72.9375C117.062 72.9062 113.203 71.9062 110.016 69.9375C106.859 67.9688 104.562 65.2656 103.125 61.8281C101.688 58.3906 101.266 54.4375 101.859 49.9688L109.828 3.75H115.406L107.484 50.0156C107.016 53.4219 107.25 56.4688 108.188 59.1562C109.125 61.8438 110.734 63.9844 113.016 65.5781C115.297 67.1406 118.234 67.9531 121.828 68.0156C125.516 68.0469 128.828 67.3125 131.766 65.8125C134.703 64.2812 137.125 62.1562 139.031 59.4375C140.969 56.7188 142.25 53.5625 142.875 49.9688L150.797 3.75ZM193.031 51.7031L201.281 3.75H206.906L198.703 51.6562C198.078 55.6875 196.734 59.3281 194.672 62.5781C192.609 65.7969 189.953 68.3438 186.703 70.2188C183.453 72.0625 179.703 72.9844 175.453 72.9844C171.391 72.9531 168.016 72.1094 165.328 70.4531C162.641 68.7656 160.688 66.4531 159.469 63.5156C158.281 60.5469 157.891 57.0938 158.297 53.1562H163.969C163.594 56.0312 163.75 58.5781 164.438 60.7969C165.156 63.0156 166.438 64.7656 168.281 66.0469C170.125 67.3281 172.578 67.9844 175.641 68.0156C178.859 68.0469 181.672 67.3125 184.078 65.8125C186.484 64.3125 188.453 62.3281 189.984 59.8594C191.516 57.3594 192.531 54.6406 193.031 51.7031ZM266.953 34.2188L265.781 41.4844C265.125 45.4844 263.984 49.375 262.359 53.1562C260.766 56.9062 258.672 60.2812 256.078 63.2812C253.516 66.2812 250.469 68.6562 246.938 70.4062C243.438 72.125 239.453 72.9688 234.984 72.9375C230.641 72.9062 227 71.9688 224.062 70.125C221.125 68.2812 218.844 65.8438 217.219 62.8125C215.594 59.75 214.531 56.375 214.031 52.6875C213.562 49 213.609 45.2812 214.172 41.5312L215.344 34.2656C215.969 30.2656 217.094 26.3906 218.719 22.6406C220.375 18.8594 222.484 15.4688 225.047 12.4688C227.641 9.46875 230.688 7.10938 234.188 5.39062C237.719 3.64063 241.703 2.78125 246.141 2.8125C250.516 2.84375 254.156 3.78125 257.062 5.625C260 7.46875 262.281 9.90625 263.906 12.9375C265.531 15.9688 266.578 19.3438 267.047 23.0625C267.516 26.75 267.484 30.4688 266.953 34.2188ZM260.156 41.5312L261.375 34.125C261.812 31.1562 261.922 28.1562 261.703 25.125C261.516 22.0625 260.859 19.2344 259.734 16.6406C258.641 14.0469 256.969 11.9531 254.719 10.3594C252.5 8.76562 249.562 7.9375 245.906 7.875C242.281 7.84375 239.031 8.57812 236.156 10.0781C233.312 11.5469 230.859 13.5625 228.797 16.125C226.734 18.6562 225.047 21.4844 223.734 24.6094C222.453 27.7344 221.547 30.9062 221.016 34.125L219.797 41.5312C219.359 44.4688 219.234 47.4688 219.422 50.5312C219.641 53.5938 220.297 56.4219 221.391 59.0156C222.516 61.6094 224.188 63.7188 226.406 65.3438C228.656 66.9688 231.578 67.8125 235.172 67.875C238.891 67.9375 242.172 67.2188 245.016 65.7188C247.891 64.2188 250.359 62.2031 252.422 59.6719C254.484 57.1406 256.156 54.2969 257.438 51.1406C258.719 47.9844 259.625 44.7812 260.156 41.5312ZM338.344 67.1719L337.594 72H296.109L296.766 67.4531L322.172 42.2812C324.047 40.4062 326.016 38.3906 328.078 36.2344C330.172 34.0781 332 31.7656 333.562 29.2969C335.156 26.8281 336.172 24.2031 336.609 21.4219C336.984 18.7656 336.766 16.4062 335.953 14.3438C335.172 12.2812 333.859 10.6562 332.016 9.46875C330.172 8.25 327.875 7.625 325.125 7.59375C322 7.5625 319.219 8.25 316.781 9.65625C314.375 11.0625 312.391 12.9688 310.828 15.375C309.297 17.7812 308.281 20.4531 307.781 23.3906H302.344C302.875 19.4844 304.188 15.9688 306.281 12.8438C308.375 9.71875 311.047 7.26562 314.297 5.48438C317.578 3.67187 321.234 2.78125 325.266 2.8125C328.891 2.84375 332.047 3.59375 334.734 5.0625C337.453 6.53125 339.484 8.625 340.828 11.3438C342.172 14.0625 342.625 17.2656 342.188 20.9531C341.906 23.4219 341.203 25.7969 340.078 28.0781C338.953 30.3281 337.578 32.5 335.953 34.5938C334.359 36.6562 332.656 38.625 330.844 40.5C329.031 42.3438 327.281 44.0938 325.594 45.75L303.797 67.1719H338.344ZM347.344 68.5781C347.375 67.5156 347.781 66.5938 348.562 65.8125C349.344 65.0312 350.281 64.625 351.375 64.5938C352.5 64.5938 353.422 64.9688 354.141 65.7188C354.859 66.4688 355.188 67.4062 355.125 68.5312C355.062 69.625 354.641 70.5469 353.859 71.2969C353.078 72.0469 352.141 72.4219 351.047 72.4219C349.922 72.4531 349 72.1094 348.281 71.3906C347.562 70.6406 347.25 69.7031 347.344 68.5781ZM354.984 25.3125C355.016 24.25 355.422 23.3281 356.203 22.5469C356.984 21.7656 357.922 21.3594 359.016 21.3281C360.141 21.3281 361.062 21.7031 361.781 22.4531C362.5 23.2031 362.828 24.1406 362.766 25.2656C362.703 26.3594 362.281 27.2812 361.5 28.0312C360.719 28.7812 359.781 29.1562 358.688 29.1562C357.562 29.1875 356.641 28.8438 355.922 28.125C355.203 27.375 354.891 26.4375 354.984 25.3125ZM432.984 55.0312C433.391 52.6562 433.203 50.6406 432.422 48.9844C431.641 47.3281 430.469 45.9375 428.906 44.8125C427.344 43.6875 425.594 42.75 423.656 42C421.75 41.2188 419.859 40.5312 417.984 39.9375C415.641 39.1562 413.297 38.2656 410.953 37.2656C408.609 36.2344 406.5 34.9844 404.625 33.5156C402.75 32.0469 401.297 30.2656 400.266 28.1719C399.266 26.0469 398.953 23.5312 399.328 20.625C399.672 17.5937 400.625 14.9531 402.188 12.7031C403.781 10.4531 405.75 8.59375 408.094 7.125C410.469 5.65625 413.047 4.5625 415.828 3.84375C418.609 3.125 421.375 2.78125 424.125 2.8125C428.125 2.84375 431.688 3.70312 434.812 5.39062C437.938 7.07812 440.312 9.45313 441.938 12.5156C443.594 15.5469 444.234 19.1094 443.859 23.2031H438.234C438.609 20.0469 438.234 17.3281 437.109 15.0469C436.016 12.7344 434.328 10.9531 432.047 9.70312C429.766 8.45312 427.078 7.8125 423.984 7.78125C421.234 7.75 418.5 8.1875 415.781 9.09375C413.062 9.96875 410.703 11.3594 408.703 13.2656C406.734 15.1406 405.5 17.5625 405 20.5312C404.625 22.75 404.844 24.6562 405.656 26.25C406.5 27.8125 407.703 29.1406 409.266 30.2344C410.828 31.2969 412.547 32.1875 414.422 32.9062C416.328 33.625 418.141 34.25 419.859 34.7812C422.328 35.5625 424.75 36.5 427.125 37.5938C429.531 38.6562 431.672 39.9688 433.547 41.5312C435.422 43.0625 436.844 44.9375 437.812 47.1562C438.781 49.3438 439.078 51.9375 438.703 54.9375C438.328 58.0625 437.328 60.7656 435.703 63.0469C434.109 65.3281 432.094 67.2031 429.656 68.6719C427.25 70.1094 424.625 71.1875 421.781 71.9062C418.969 72.625 416.141 72.9688 413.297 72.9375C410.203 72.9375 407.281 72.5 404.531 71.625C401.781 70.7188 399.375 69.4062 397.312 67.6875C395.25 65.9375 393.703 63.7969 392.672 61.2656C391.641 58.7344 391.281 55.7969 391.594 52.4531L397.219 52.5C396.906 55.0938 397.109 57.3594 397.828 59.2969C398.578 61.2344 399.719 62.8438 401.25 64.125C402.781 65.4062 404.594 66.375 406.688 67.0312C408.781 67.6562 411.031 67.9844 413.438 68.0156C416.281 68.0469 419.094 67.6094 421.875 66.7031C424.688 65.7969 427.109 64.3906 429.141 62.4844C431.172 60.5781 432.453 58.0938 432.984 55.0312ZM480.188 60.0469L486.844 21.2812H492.375L483.609 72H478.312L480.188 60.0469ZM482.672 50.9062L485.484 50.8125C485.016 53.875 484.203 56.7656 483.047 59.4844C481.922 62.1719 480.438 64.5312 478.594 66.5625C476.75 68.5938 474.531 70.1875 471.938 71.3438C469.344 72.4688 466.359 73 462.984 72.9375C460.141 72.9062 457.781 72.375 455.906 71.3438C454.031 70.3125 452.578 68.9062 451.547 67.125C450.516 65.3125 449.859 63.2656 449.578 60.9844C449.297 58.6719 449.312 56.25 449.625 53.7188L455.156 21.2812H460.641L455.109 53.8594C454.859 55.6094 454.781 57.3281 454.875 59.0156C455 60.6719 455.359 62.1719 455.953 63.5156C456.578 64.8594 457.516 65.9375 458.766 66.75C460.047 67.5625 461.719 67.9844 463.781 68.0156C467.375 68.0781 470.469 67.375 473.062 65.9062C475.656 64.4062 477.75 62.3594 479.344 59.7656C480.969 57.1719 482.078 54.2188 482.672 50.9062ZM510.141 0H515.672L504.844 62.3906L502.828 72H497.672L510.141 0ZM541.875 46.0312L541.734 47.0156C541.266 50.0156 540.469 53.0469 539.344 56.1094C538.25 59.1719 536.781 61.9844 534.938 64.5469C533.094 67.1094 530.844 69.1719 528.188 70.7344C525.562 72.2656 522.484 73 518.953 72.9375C516.266 72.9375 513.859 72.4062 511.734 71.3438C509.609 70.25 507.812 68.7969 506.344 66.9844C504.906 65.1406 503.828 63.0469 503.109 60.7031C502.422 58.3594 502.156 55.8906 502.312 53.2969L504.328 40.7812C504.953 38.0938 505.922 35.5156 507.234 33.0469C508.547 30.5781 510.188 28.3906 512.156 26.4844C514.125 24.5469 516.344 23.0312 518.812 21.9375C521.312 20.8125 524.016 20.2813 526.922 20.3438C530.422 20.375 533.25 21.1875 535.406 22.7812C537.562 24.375 539.156 26.4531 540.188 29.0156C541.25 31.5781 541.891 34.3594 542.109 37.3594C542.328 40.3281 542.25 43.2188 541.875 46.0312ZM536.156 47.0156L536.344 45.9844C536.656 43.8594 536.781 41.6094 536.719 39.2344C536.688 36.8281 536.328 34.5781 535.641 32.4844C534.984 30.3594 533.859 28.625 532.266 27.2812C530.703 25.9375 528.516 25.25 525.703 25.2188C523.547 25.1875 521.484 25.5625 519.516 26.3438C517.578 27.0938 515.797 28.1406 514.172 29.4844C512.578 30.8281 511.203 32.3906 510.047 34.1719C508.891 35.9531 508.031 37.8594 507.469 39.8906L504.984 54.5156C504.859 57.0781 505.375 59.375 506.531 61.4062C507.719 63.4375 509.328 65.0469 511.359 66.2344C513.422 67.3906 515.672 67.9844 518.109 68.0156C520.984 68.0781 523.469 67.4844 525.562 66.2344C527.656 64.9531 529.422 63.2656 530.859 61.1719C532.297 59.0781 533.438 56.7969 534.281 54.3281C535.156 51.8281 535.781 49.3906 536.156 47.0156ZM581.016 62.9062L585.375 36.7031C585.719 34.2969 585.5 32.2344 584.719 30.5156C583.969 28.7656 582.75 27.4375 581.062 26.5312C579.406 25.5938 577.359 25.1094 574.922 25.0781C572.766 25.0469 570.641 25.4219 568.547 26.2031C566.453 26.9844 564.625 28.125 563.062 29.625C561.531 31.125 560.516 33 560.016 35.25L554.531 35.2031C554.875 32.7969 555.719 30.6719 557.062 28.8281C558.406 26.9531 560.062 25.3906 562.031 24.1406C564.031 22.8594 566.188 21.9062 568.5 21.2812C570.812 20.625 573.094 20.3125 575.344 20.3438C578.688 20.3438 581.594 21.0156 584.062 22.3594C586.531 23.6719 588.375 25.5625 589.594 28.0312C590.844 30.4688 591.25 33.4062 590.812 36.8438L586.688 61.3594C586.406 63.0156 586.219 64.7031 586.125 66.4219C586.031 68.1094 586.156 69.7656 586.5 71.3906L586.453 72H580.734C580.516 70.5 580.438 68.9844 580.5 67.4531C580.594 65.9219 580.766 64.4062 581.016 62.9062ZM585.75 42.4688L585.141 46.7812H574.781C572.844 46.7812 570.797 46.9531 568.641 47.2969C566.484 47.6406 564.422 48.2344 562.453 49.0781C560.484 49.9219 558.812 51.0938 557.438 52.5938C556.062 54.0625 555.188 55.9375 554.812 58.2188C554.5 60.1875 554.719 61.9062 555.469 63.375C556.25 64.8125 557.391 65.9375 558.891 66.75C560.391 67.5312 562.078 67.9375 563.953 67.9688C566.703 68 569.312 67.5 571.781 66.4688C574.25 65.4062 576.453 63.9375 578.391 62.0625C580.328 60.1875 581.844 58 582.938 55.5L584.859 58.7812C584.016 60.9062 582.828 62.8594 581.297 64.6406C579.797 66.3906 578.078 67.8906 576.141 69.1406C574.203 70.3594 572.125 71.3125 569.906 72C567.688 72.6562 565.438 72.9844 563.156 72.9844C560.375 72.9219 557.875 72.3125 555.656 71.1562C553.469 70 551.766 68.3594 550.547 66.2344C549.328 64.1094 548.875 61.6094 549.188 58.7344C549.531 55.6719 550.5 53.1094 552.094 51.0469C553.719 48.9531 555.734 47.2812 558.141 46.0312C560.547 44.7812 563.141 43.875 565.922 43.3125C568.703 42.75 571.406 42.4688 574.031 42.4688H585.75ZM631.406 58.9219C631.781 56.6719 631.391 54.8594 630.234 53.4844C629.078 52.0781 627.562 51 625.688 50.25C623.812 49.4688 621.984 48.8594 620.203 48.4219C618.328 47.9531 616.438 47.3906 614.531 46.7344C612.656 46.0469 610.953 45.1875 609.422 44.1562C607.891 43.0938 606.703 41.7656 605.859 40.1719C605.016 38.5781 604.703 36.625 604.922 34.3125C605.141 31.9688 605.844 29.9219 607.031 28.1719C608.25 26.4219 609.766 24.9688 611.578 23.8125C613.422 22.625 615.406 21.75 617.531 21.1875C619.688 20.625 621.828 20.3438 623.953 20.3438C627.047 20.375 629.859 20.9687 632.391 22.125C634.953 23.2813 636.953 24.9844 638.391 27.2344C639.859 29.4531 640.484 32.2188 640.266 35.5312L634.828 35.4844C635.016 33.2656 634.609 31.4062 633.609 29.9062C632.641 28.375 631.281 27.2188 629.531 26.4375C627.812 25.625 625.906 25.2031 623.812 25.1719C621.875 25.1719 619.938 25.4844 618 26.1094C616.094 26.7344 614.438 27.7031 613.031 29.0156C611.625 30.3281 610.75 32.0312 610.406 34.125C610.125 35.7812 610.297 37.1719 610.922 38.2969C611.578 39.3906 612.5 40.2812 613.688 40.9688C614.906 41.6562 616.219 42.2188 617.625 42.6562C619.031 43.0938 620.359 43.4844 621.609 43.8281C624.172 44.5156 626.688 45.4062 629.156 46.5C631.625 47.5938 633.594 49.1094 635.062 51.0469C636.562 52.9531 637.156 55.4688 636.844 58.5938C636.625 61.0938 635.891 63.25 634.641 65.0625C633.391 66.875 631.812 68.375 629.906 69.5625C628 70.7188 625.922 71.5625 623.672 72.0938C621.422 72.6562 619.188 72.9375 616.969 72.9375C613.906 72.9062 611 72.3281 608.25 71.2031C605.531 70.0781 603.344 68.3906 601.688 66.1406C600.031 63.8906 599.312 61.0781 599.531 57.7031L605.016 57.75C604.953 60.125 605.469 62.0781 606.562 63.6094C607.656 65.1406 609.125 66.2656 610.969 66.9844C612.844 67.7031 614.875 68.0781 617.062 68.1094C619.031 68.1094 621.047 67.7969 623.109 67.1719C625.172 66.5469 626.969 65.5625 628.5 64.2188C630.062 62.875 631.031 61.1094 631.406 58.9219ZM673.969 21.2812L673.219 25.875H648.469L649.266 21.2812H673.969ZM660.562 8.25H666.047L657.234 59.7188C657.047 61.0625 657 62.3594 657.094 63.6094C657.219 64.8594 657.641 65.8906 658.359 66.7031C659.078 67.4844 660.25 67.8906 661.875 67.9219C662.656 67.9219 663.422 67.875 664.172 67.7812C664.953 67.6562 665.719 67.5469 666.469 67.4531L666.234 72.2344C665.297 72.4844 664.359 72.6562 663.422 72.75C662.484 72.875 661.531 72.9219 660.562 72.8906C657.938 72.8594 655.953 72.2188 654.609 70.9688C653.266 69.7188 652.391 68.0938 651.984 66.0938C651.578 64.0625 651.531 61.9062 651.844 59.625L660.562 8.25ZM708.141 62.9062L712.5 36.7031C712.844 34.2969 712.625 32.2344 711.844 30.5156C711.094 28.7656 709.875 27.4375 708.188 26.5312C706.531 25.5938 704.484 25.1094 702.047 25.0781C699.891 25.0469 697.766 25.4219 695.672 26.2031C693.578 26.9844 691.75 28.125 690.188 29.625C688.656 31.125 687.641 33 687.141 35.25L681.656 35.2031C682 32.7969 682.844 30.6719 684.188 28.8281C685.531 26.9531 687.188 25.3906 689.156 24.1406C691.156 22.8594 693.312 21.9062 695.625 21.2812C697.938 20.625 700.219 20.3125 702.469 20.3438C705.812 20.3438 708.719 21.0156 711.188 22.3594C713.656 23.6719 715.5 25.5625 716.719 28.0312C717.969 30.4688 718.375 33.4062 717.938 36.8438L713.812 61.3594C713.531 63.0156 713.344 64.7031 713.25 66.4219C713.156 68.1094 713.281 69.7656 713.625 71.3906L713.578 72H707.859C707.641 70.5 707.562 68.9844 707.625 67.4531C707.719 65.9219 707.891 64.4062 708.141 62.9062ZM712.875 42.4688L712.266 46.7812H701.906C699.969 46.7812 697.922 46.9531 695.766 47.2969C693.609 47.6406 691.547 48.2344 689.578 49.0781C687.609 49.9219 685.938 51.0938 684.562 52.5938C683.188 54.0625 682.312 55.9375 681.938 58.2188C681.625 60.1875 681.844 61.9062 682.594 63.375C683.375 64.8125 684.516 65.9375 686.016 66.75C687.516 67.5312 689.203 67.9375 691.078 67.9688C693.828 68 696.438 67.5 698.906 66.4688C701.375 65.4062 703.578 63.9375 705.516 62.0625C707.453 60.1875 708.969 58 710.062 55.5L711.984 58.7812C711.141 60.9062 709.953 62.8594 708.422 64.6406C706.922 66.3906 705.203 67.8906 703.266 69.1406C701.328 70.3594 699.25 71.3125 697.031 72C694.812 72.6562 692.562 72.9844 690.281 72.9844C687.5 72.9219 685 72.3125 682.781 71.1562C680.594 70 678.891 68.3594 677.672 66.2344C676.453 64.1094 676 61.6094 676.312 58.7344C676.656 55.6719 677.625 53.1094 679.219 51.0469C680.844 48.9531 682.859 47.2812 685.266 46.0312C687.672 44.7812 690.266 43.875 693.047 43.3125C695.828 42.75 698.531 42.4688 701.156 42.4688H712.875ZM758.531 58.9219C758.906 56.6719 758.516 54.8594 757.359 53.4844C756.203 52.0781 754.688 51 752.812 50.25C750.938 49.4688 749.109 48.8594 747.328 48.4219C745.453 47.9531 743.562 47.3906 741.656 46.7344C739.781 46.0469 738.078 45.1875 736.547 44.1562C735.016 43.0938 733.828 41.7656 732.984 40.1719C732.141 38.5781 731.828 36.625 732.047 34.3125C732.266 31.9688 732.969 29.9219 734.156 28.1719C735.375 26.4219 736.891 24.9688 738.703 23.8125C740.547 22.625 742.531 21.75 744.656 21.1875C746.812 20.625 748.953 20.3438 751.078 20.3438C754.172 20.375 756.984 20.9687 759.516 22.125C762.078 23.2813 764.078 24.9844 765.516 27.2344C766.984 29.4531 767.609 32.2188 767.391 35.5312L761.953 35.4844C762.141 33.2656 761.734 31.4062 760.734 29.9062C759.766 28.375 758.406 27.2188 756.656 26.4375C754.938 25.625 753.031 25.2031 750.938 25.1719C749 25.1719 747.062 25.4844 745.125 26.1094C743.219 26.7344 741.562 27.7031 740.156 29.0156C738.75 30.3281 737.875 32.0312 737.531 34.125C737.25 35.7812 737.422 37.1719 738.047 38.2969C738.703 39.3906 739.625 40.2812 740.812 40.9688C742.031 41.6562 743.344 42.2188 744.75 42.6562C746.156 43.0938 747.484 43.4844 748.734 43.8281C751.297 44.5156 753.812 45.4062 756.281 46.5C758.75 47.5938 760.719 49.1094 762.188 51.0469C763.688 52.9531 764.281 55.4688 763.969 58.5938C763.75 61.0938 763.016 63.25 761.766 65.0625C760.516 66.875 758.938 68.375 757.031 69.5625C755.125 70.7188 753.047 71.5625 750.797 72.0938C748.547 72.6562 746.312 72.9375 744.094 72.9375C741.031 72.9062 738.125 72.3281 735.375 71.2031C732.656 70.0781 730.469 68.3906 728.812 66.1406C727.156 63.8906 726.438 61.0781 726.656 57.7031L732.141 57.75C732.078 60.125 732.594 62.0781 733.688 63.6094C734.781 65.1406 736.25 66.2656 738.094 66.9844C739.969 67.7031 742 68.0781 744.188 68.1094C746.156 68.1094 748.172 67.7969 750.234 67.1719C752.297 66.5469 754.094 65.5625 755.625 64.2188C757.188 62.875 758.156 61.1094 758.531 58.9219Z" fill="black"/>
</svg>
