<svg width="943" height="73" viewBox="0 0 943 73" fill="none" xmlns="http://www.w3.org/2000/svg">
<path d="M17.4844 3.60938L5.67188 71.8594H0L11.8125 3.60938H17.4844ZM42.8906 35.0156L42.0469 39.9844H9.28125L10.125 35.0156H42.8906ZM52.875 3.60938L52.0312 8.57812H14.7188L15.5625 3.60938H52.875ZM91.5938 66.9375L90.75 71.8594H56.3906L57.1875 66.9375H91.5938ZM69.8906 3.60938L58.0781 71.8594H52.4062L64.2188 3.60938H69.8906ZM150.797 3.60938H156.422L148.5 49.7812C147.781 54.4062 146.188 58.4531 143.719 61.9219C141.25 65.3906 138.125 68.0938 134.344 70.0312C130.562 71.9375 126.312 72.8594 121.594 72.7969C117.062 72.7656 113.203 71.7656 110.016 69.7969C106.859 67.8281 104.562 65.125 103.125 61.6875C101.688 58.25 101.266 54.2969 101.859 49.8281L109.828 3.60938H115.406L107.484 49.875C107.016 53.2812 107.25 56.3281 108.188 59.0156C109.125 61.7031 110.734 63.8438 113.016 65.4375C115.297 67 118.234 67.8125 121.828 67.875C125.516 67.9062 128.828 67.1719 131.766 65.6719C134.703 64.1406 137.125 62.0156 139.031 59.2969C140.969 56.5781 142.25 53.4219 142.875 49.8281L150.797 3.60938ZM193.031 51.5625L201.281 3.60938H206.906L198.703 51.5156C198.078 55.5469 196.734 59.1875 194.672 62.4375C192.609 65.6562 189.953 68.2031 186.703 70.0781C183.453 71.9219 179.703 72.8438 175.453 72.8438C171.391 72.8125 168.016 71.9688 165.328 70.3125C162.641 68.625 160.688 66.3125 159.469 63.375C158.281 60.4062 157.891 56.9531 158.297 53.0156H163.969C163.594 55.8906 163.75 58.4375 164.438 60.6562C165.156 62.875 166.438 64.625 168.281 65.9062C170.125 67.1875 172.578 67.8438 175.641 67.875C178.859 67.9062 181.672 67.1719 184.078 65.6719C186.484 64.1719 188.453 62.1875 189.984 59.7188C191.516 57.2188 192.531 54.5 193.031 51.5625ZM266.953 34.0781L265.781 41.3438C265.125 45.3438 263.984 49.2344 262.359 53.0156C260.766 56.7656 258.672 60.1406 256.078 63.1406C253.516 66.1406 250.469 68.5156 246.938 70.2656C243.438 71.9844 239.453 72.8281 234.984 72.7969C230.641 72.7656 227 71.8281 224.062 69.9844C221.125 68.1406 218.844 65.7031 217.219 62.6719C215.594 59.6094 214.531 56.2344 214.031 52.5469C213.562 48.8594 213.609 45.1406 214.172 41.3906L215.344 34.125C215.969 30.125 217.094 26.25 218.719 22.5C220.375 18.7187 222.484 15.3281 225.047 12.3281C227.641 9.32812 230.688 6.96875 234.188 5.25C237.719 3.5 241.703 2.64062 246.141 2.67188C250.516 2.70313 254.156 3.64063 257.062 5.48438C260 7.32812 262.281 9.76562 263.906 12.7969C265.531 15.8281 266.578 19.2031 267.047 22.9219C267.516 26.6094 267.484 30.3281 266.953 34.0781ZM260.156 41.3906L261.375 33.9844C261.812 31.0156 261.922 28.0156 261.703 24.9844C261.516 21.9219 260.859 19.0937 259.734 16.5C258.641 13.9063 256.969 11.8125 254.719 10.2188C252.5 8.625 249.562 7.79687 245.906 7.73438C242.281 7.70312 239.031 8.4375 236.156 9.9375C233.312 11.4062 230.859 13.4219 228.797 15.9844C226.734 18.5156 225.047 21.3437 223.734 24.4688C222.453 27.5938 221.547 30.7656 221.016 33.9844L219.797 41.3906C219.359 44.3281 219.234 47.3281 219.422 50.3906C219.641 53.4531 220.297 56.2812 221.391 58.875C222.516 61.4688 224.188 63.5781 226.406 65.2031C228.656 66.8281 231.578 67.6719 235.172 67.7344C238.891 67.7969 242.172 67.0781 245.016 65.5781C247.891 64.0781 250.359 62.0625 252.422 59.5312C254.484 57 256.156 54.1562 257.438 51C258.719 47.8438 259.625 44.6406 260.156 41.3906ZM332.625 3.32812L320.953 71.8594H315.469L326.109 10.5938L306.938 17.3438L307.875 11.9062L331.594 3.32812H332.625ZM347.344 68.4375C347.375 67.375 347.781 66.4531 348.562 65.6719C349.344 64.8906 350.281 64.4844 351.375 64.4531C352.5 64.4531 353.422 64.8281 354.141 65.5781C354.859 66.3281 355.188 67.2656 355.125 68.3906C355.062 69.4844 354.641 70.4062 353.859 71.1562C353.078 71.9062 352.141 72.2812 351.047 72.2812C349.922 72.3125 349 71.9688 348.281 71.25C347.562 70.5 347.25 69.5625 347.344 68.4375ZM354.984 25.1719C355.016 24.1094 355.422 23.1875 356.203 22.4062C356.984 21.625 357.922 21.2188 359.016 21.1875C360.141 21.1875 361.062 21.5625 361.781 22.3125C362.5 23.0625 362.828 24 362.766 25.125C362.703 26.2188 362.281 27.1406 361.5 27.8906C360.719 28.6406 359.781 29.0156 358.688 29.0156C357.562 29.0469 356.641 28.7031 355.922 27.9844C355.203 27.2344 354.891 26.2969 354.984 25.1719ZM425.484 7.96875L391.641 71.8594H385.547L422.344 3.65625H426.609L425.484 7.96875ZM435.328 71.8594L423.375 7.45312L423.75 3.60938H427.734L441 71.8594H435.328ZM435.328 47.7656L434.484 52.7344H399.281L400.078 47.7656H435.328ZM482.719 59.9062L489.375 21.1406H494.906L486.141 71.8594H480.844L482.719 59.9062ZM485.203 50.7656L488.016 50.6719C487.547 53.7344 486.734 56.625 485.578 59.3438C484.453 62.0312 482.969 64.3906 481.125 66.4219C479.281 68.4531 477.062 70.0469 474.469 71.2031C471.875 72.3281 468.891 72.8594 465.516 72.7969C462.672 72.7656 460.312 72.2344 458.438 71.2031C456.562 70.1719 455.109 68.7656 454.078 66.9844C453.047 65.1719 452.391 63.125 452.109 60.8438C451.828 58.5312 451.844 56.1094 452.156 53.5781L457.688 21.1406H463.172L457.641 53.7188C457.391 55.4688 457.312 57.1875 457.406 58.875C457.531 60.5312 457.891 62.0312 458.484 63.375C459.109 64.7188 460.047 65.7969 461.297 66.6094C462.578 67.4219 464.25 67.8438 466.312 67.875C469.906 67.9375 473 67.2344 475.594 65.7656C478.188 64.2656 480.281 62.2188 481.875 59.625C483.5 57.0312 484.609 54.0781 485.203 50.7656ZM527.719 21.1406L526.969 25.7344H502.219L503.016 21.1406H527.719ZM514.312 8.10938H519.797L510.984 59.5781C510.797 60.9219 510.75 62.2188 510.844 63.4688C510.969 64.7188 511.391 65.75 512.109 66.5625C512.828 67.3438 514 67.75 515.625 67.7812C516.406 67.7812 517.172 67.7344 517.922 67.6406C518.703 67.5156 519.469 67.4062 520.219 67.3125L519.984 72.0938C519.047 72.3438 518.109 72.5156 517.172 72.6094C516.234 72.7344 515.281 72.7812 514.312 72.75C511.688 72.7188 509.703 72.0781 508.359 70.8281C507.016 69.5781 506.141 67.9531 505.734 65.9531C505.328 63.9219 505.281 61.7656 505.594 59.4844L514.312 8.10938ZM550.125 72.7969C546.688 72.7656 543.719 72.0469 541.219 70.6406C538.719 69.2344 536.688 67.3594 535.125 65.0156C533.594 62.6406 532.516 59.9844 531.891 57.0469C531.297 54.1094 531.172 51.0938 531.516 48L531.797 45.9375C532.203 42.8125 533.062 39.7188 534.375 36.6562C535.688 33.5938 537.391 30.8281 539.484 28.3594C541.609 25.8594 544.094 23.875 546.938 22.4062C549.781 20.9062 552.938 20.1719 556.406 20.2031C559.688 20.2344 562.438 20.9219 564.656 22.2656C566.906 23.5781 568.688 25.3438 570 27.5625C571.312 29.7812 572.172 32.2656 572.578 35.0156C573.016 37.7656 573.062 40.5781 572.719 43.4531L572.25 46.875H534.938L535.641 42.0938H567.328L567.469 41.4375C567.875 38.7812 567.734 36.2031 567.047 33.7031C566.391 31.2031 565.172 29.1406 563.391 27.5156C561.609 25.8906 559.219 25.0625 556.219 25.0312C553.406 24.9688 550.906 25.5625 548.719 26.8125C546.531 28.0312 544.641 29.6875 543.047 31.7812C541.484 33.8438 540.219 36.125 539.25 38.625C538.281 41.0938 537.609 43.5312 537.234 45.9375L537 47.9531C536.688 50.2969 536.703 52.6406 537.047 54.9844C537.422 57.3281 538.141 59.4844 539.203 61.4531C540.297 63.3906 541.766 64.9688 543.609 66.1875C545.484 67.375 547.766 67.9844 550.453 68.0156C553.453 68.0781 556.156 67.4844 558.562 66.2344C561 64.9531 563.234 63.2656 565.266 61.1719L568.547 63.8906C567.047 65.8281 565.328 67.4688 563.391 68.8125C561.484 70.1562 559.406 71.1562 557.156 71.8125C554.906 72.4688 552.562 72.7969 550.125 72.7969ZM590.812 32.2031L583.969 71.8594H578.484L587.25 21.1406H592.5L590.812 32.2031ZM587.766 43.3594L585.562 41.9531C586.188 39.2031 587.141 36.5312 588.422 33.9375C589.703 31.3125 591.297 28.9688 593.203 26.9062C595.141 24.8125 597.359 23.1719 599.859 21.9844C602.391 20.7656 605.203 20.1719 608.297 20.2031C611.078 20.2344 613.375 20.75 615.188 21.75C617.031 22.7188 618.453 24.0781 619.453 25.8281C620.453 27.5469 621.078 29.5312 621.328 31.7812C621.609 34 621.578 36.3594 621.234 38.8594L615.656 71.8594H610.125L615.797 38.7656C616.141 36.3281 616.125 34.0781 615.75 32.0156C615.406 29.9219 614.531 28.25 613.125 27C611.719 25.7188 609.609 25.0781 606.797 25.0781C604.297 25.0469 602 25.5625 599.906 26.625C597.812 27.6562 595.938 29.0625 594.281 30.8438C592.656 32.5938 591.281 34.5625 590.156 36.75C589.062 38.9062 588.266 41.1094 587.766 43.3594ZM657.094 21.1406L656.344 25.7344H631.594L632.391 21.1406H657.094ZM643.688 8.10938H649.172L640.359 59.5781C640.172 60.9219 640.125 62.2188 640.219 63.4688C640.344 64.7188 640.766 65.75 641.484 66.5625C642.203 67.3438 643.375 67.75 645 67.7812C645.781 67.7812 646.547 67.7344 647.297 67.6406C648.078 67.5156 648.844 67.4062 649.594 67.3125L649.359 72.0938C648.422 72.3438 647.484 72.5156 646.547 72.6094C645.609 72.7344 644.656 72.7812 643.688 72.75C641.062 72.7188 639.078 72.0781 637.734 70.8281C636.391 69.5781 635.516 67.9531 635.109 65.9531C634.703 63.9219 634.656 61.7656 634.969 59.4844L643.688 8.10938ZM674.578 21.1406L665.812 71.8594H660.328L669.094 21.1406H674.578ZM670.688 6.51562C670.719 5.45312 671.109 4.54688 671.859 3.79688C672.609 3.04688 673.516 2.67188 674.578 2.67188C675.672 2.64062 676.562 3 677.25 3.75C677.969 4.5 678.281 5.40625 678.188 6.46875C678.156 7.5 677.75 8.39062 676.969 9.14062C676.188 9.85937 675.281 10.2188 674.25 10.2188C673.188 10.25 672.312 9.90625 671.625 9.1875C670.938 8.46875 670.625 7.57813 670.688 6.51562ZM699.703 68.0156C702.203 68.0156 704.516 67.5312 706.641 66.5625C708.766 65.5938 710.562 64.2188 712.031 62.4375C713.531 60.6562 714.609 58.5781 715.266 56.2031H720.562C719.938 59.5156 718.594 62.4219 716.531 64.9219C714.469 67.4219 711.953 69.375 708.984 70.7812C706.047 72.1562 702.906 72.8281 699.562 72.7969C696 72.7656 693.016 72.0156 690.609 70.5469C688.203 69.0781 686.312 67.1406 684.938 64.7344C683.562 62.2969 682.641 59.5938 682.172 56.625C681.734 53.625 681.719 50.5938 682.125 47.5312L682.359 45.5625C682.797 42.3125 683.641 39.1719 684.891 36.1406C686.141 33.0781 687.781 30.3438 689.812 27.9375C691.875 25.5312 694.328 23.6406 697.172 22.2656C700.016 20.8594 703.219 20.1719 706.781 20.2031C710.312 20.2344 713.344 21.0469 715.875 22.6406C718.406 24.2031 720.328 26.3438 721.641 29.0625C722.984 31.75 723.594 34.8125 723.469 38.25L718.266 38.2031C718.359 35.7656 717.969 33.5625 717.094 31.5938C716.25 29.5938 714.938 28.0156 713.156 26.8594C711.375 25.6719 709.203 25.0469 706.641 24.9844C703.734 24.9531 701.188 25.5312 699 26.7188C696.844 27.875 695 29.4531 693.469 31.4531C691.938 33.4531 690.703 35.6719 689.766 38.1094C688.828 40.5469 688.172 43.0312 687.797 45.5625L687.516 47.5312C687.234 49.8438 687.172 52.2031 687.328 54.6094C687.516 56.9844 688.031 59.1875 688.875 61.2188C689.75 63.2188 691.062 64.8438 692.812 66.0938C694.562 67.3125 696.859 67.9531 699.703 68.0156ZM760.172 62.7656L764.531 36.5625C764.875 34.1562 764.656 32.0938 763.875 30.375C763.125 28.625 761.906 27.2969 760.219 26.3906C758.562 25.4531 756.516 24.9688 754.078 24.9375C751.922 24.9062 749.797 25.2812 747.703 26.0625C745.609 26.8438 743.781 27.9844 742.219 29.4844C740.688 30.9844 739.672 32.8594 739.172 35.1094L733.688 35.0625C734.031 32.6562 734.875 30.5312 736.219 28.6875C737.562 26.8125 739.219 25.25 741.188 24C743.188 22.7188 745.344 21.7656 747.656 21.1406C749.969 20.4844 752.25 20.1719 754.5 20.2031C757.844 20.2031 760.75 20.875 763.219 22.2188C765.688 23.5312 767.531 25.4219 768.75 27.8906C770 30.3281 770.406 33.2656 769.969 36.7031L765.844 61.2188C765.562 62.875 765.375 64.5625 765.281 66.2812C765.188 67.9688 765.312 69.625 765.656 71.25L765.609 71.8594H759.891C759.672 70.3594 759.594 68.8438 759.656 67.3125C759.75 65.7812 759.922 64.2656 760.172 62.7656ZM764.906 42.3281L764.297 46.6406H753.938C752 46.6406 749.953 46.8125 747.797 47.1562C745.641 47.5 743.578 48.0938 741.609 48.9375C739.641 49.7812 737.969 50.9531 736.594 52.4531C735.219 53.9219 734.344 55.7969 733.969 58.0781C733.656 60.0469 733.875 61.7656 734.625 63.2344C735.406 64.6719 736.547 65.7969 738.047 66.6094C739.547 67.3906 741.234 67.7969 743.109 67.8281C745.859 67.8594 748.469 67.3594 750.938 66.3281C753.406 65.2656 755.609 63.7969 757.547 61.9219C759.484 60.0469 761 57.8594 762.094 55.3594L764.016 58.6406C763.172 60.7656 761.984 62.7188 760.453 64.5C758.953 66.25 757.234 67.75 755.297 69C753.359 70.2188 751.281 71.1719 749.062 71.8594C746.844 72.5156 744.594 72.8438 742.312 72.8438C739.531 72.7812 737.031 72.1719 734.812 71.0156C732.625 69.8594 730.922 68.2188 729.703 66.0938C728.484 63.9688 728.031 61.4688 728.344 58.5938C728.688 55.5312 729.656 52.9688 731.25 50.9062C732.875 48.8125 734.891 47.1406 737.297 45.8906C739.703 44.6406 742.297 43.7344 745.078 43.1719C747.859 42.6094 750.562 42.3281 753.188 42.3281H764.906ZM797.672 68.0156C800.172 68.0156 802.484 67.5312 804.609 66.5625C806.734 65.5938 808.531 64.2188 810 62.4375C811.5 60.6562 812.578 58.5781 813.234 56.2031H818.531C817.906 59.5156 816.562 62.4219 814.5 64.9219C812.438 67.4219 809.922 69.375 806.953 70.7812C804.016 72.1562 800.875 72.8281 797.531 72.7969C793.969 72.7656 790.984 72.0156 788.578 70.5469C786.172 69.0781 784.281 67.1406 782.906 64.7344C781.531 62.2969 780.609 59.5938 780.141 56.625C779.703 53.625 779.688 50.5938 780.094 47.5312L780.328 45.5625C780.766 42.3125 781.609 39.1719 782.859 36.1406C784.109 33.0781 785.75 30.3438 787.781 27.9375C789.844 25.5312 792.297 23.6406 795.141 22.2656C797.984 20.8594 801.188 20.1719 804.75 20.2031C808.281 20.2344 811.312 21.0469 813.844 22.6406C816.375 24.2031 818.297 26.3438 819.609 29.0625C820.953 31.75 821.562 34.8125 821.438 38.25L816.234 38.2031C816.328 35.7656 815.938 33.5625 815.062 31.5938C814.219 29.5938 812.906 28.0156 811.125 26.8594C809.344 25.6719 807.172 25.0469 804.609 24.9844C801.703 24.9531 799.156 25.5312 796.969 26.7188C794.812 27.875 792.969 29.4531 791.438 31.4531C789.906 33.4531 788.672 35.6719 787.734 38.1094C786.797 40.5469 786.141 43.0312 785.766 45.5625L785.484 47.5312C785.203 49.8438 785.141 52.2031 785.297 54.6094C785.484 56.9844 786 59.1875 786.844 61.2188C787.719 63.2188 789.031 64.8438 790.781 66.0938C792.531 67.3125 794.828 67.9531 797.672 68.0156ZM841.453 21.1406L832.688 71.8594H827.203L835.969 21.1406H841.453ZM837.562 6.51562C837.594 5.45312 837.984 4.54688 838.734 3.79688C839.484 3.04688 840.391 2.67188 841.453 2.67188C842.547 2.64062 843.438 3 844.125 3.75C844.844 4.5 845.156 5.40625 845.062 6.46875C845.031 7.5 844.625 8.39062 843.844 9.14062C843.062 9.85937 842.156 10.2188 841.125 10.2188C840.062 10.25 839.188 9.90625 838.5 9.1875C837.812 8.46875 837.5 7.57813 837.562 6.51562ZM848.766 47.4375L849 45.8906C849.469 42.5781 850.375 39.375 851.719 36.2812C853.062 33.1875 854.812 30.4375 856.969 28.0312C859.156 25.5938 861.719 23.6719 864.656 22.2656C867.594 20.8594 870.859 20.1719 874.453 20.2031C878.016 20.2344 881.047 20.9844 883.547 22.4531C886.047 23.8906 888.047 25.8281 889.547 28.2656C891.078 30.7031 892.125 33.4375 892.688 36.4688C893.25 39.4688 893.344 42.5469 892.969 45.7031L892.781 47.25C892.312 50.5625 891.391 53.75 890.016 56.8125C888.672 59.875 886.906 62.625 884.719 65.0625C882.562 67.4688 880.016 69.375 877.078 70.7812C874.141 72.1562 870.875 72.8281 867.281 72.7969C863.75 72.7656 860.719 72.0312 858.188 70.5938C855.688 69.125 853.688 67.1875 852.188 64.7812C850.688 62.3438 849.656 59.625 849.094 56.625C848.531 53.625 848.422 50.5625 848.766 47.4375ZM854.484 45.8906L854.297 47.4375C853.984 49.7812 853.969 52.1562 854.25 54.5625C854.531 56.9688 855.172 59.1875 856.172 61.2188C857.203 63.2188 858.641 64.8438 860.484 66.0938C862.328 67.3438 864.641 67.9844 867.422 68.0156C870.266 68.0469 872.828 67.4688 875.109 66.2812C877.391 65.0938 879.359 63.5 881.016 61.5C882.703 59.4688 884.062 57.2188 885.094 54.75C886.125 52.25 886.844 49.75 887.25 47.25L887.438 45.7031C887.75 43.3906 887.75 41.0312 887.438 38.625C887.156 36.1875 886.516 33.9531 885.516 31.9219C884.516 29.8906 883.094 28.25 881.25 27C879.406 25.7188 877.094 25.0625 874.312 25.0312C871.469 24.9688 868.906 25.5469 866.625 26.7656C864.344 27.9531 862.375 29.5625 860.719 31.5938C859.062 33.625 857.703 35.8906 856.641 38.3906C855.609 40.8594 854.891 43.3594 854.484 45.8906ZM872.625 13.0312L883.359 0H890.297L877.781 13.0312H872.625ZM912 32.2031L905.156 71.8594H899.672L908.438 21.1406H913.688L912 32.2031ZM908.953 43.3594L906.75 41.9531C907.375 39.2031 908.328 36.5312 909.609 33.9375C910.891 31.3125 912.484 28.9688 914.391 26.9062C916.328 24.8125 918.547 23.1719 921.047 21.9844C923.578 20.7656 926.391 20.1719 929.484 20.2031C932.266 20.2344 934.562 20.75 936.375 21.75C938.219 22.7188 939.641 24.0781 940.641 25.8281C941.641 27.5469 942.266 29.5312 942.516 31.7812C942.797 34 942.766 36.3594 942.422 38.8594L936.844 71.8594H931.312L936.984 38.7656C937.328 36.3281 937.312 34.0781 936.938 32.0156C936.594 29.9219 935.719 28.25 934.312 27C932.906 25.7188 930.797 25.0781 927.984 25.0781C925.484 25.0469 923.188 25.5625 921.094 26.625C919 27.6562 917.125 29.0625 915.469 30.8438C913.844 32.5938 912.469 34.5625 911.344 36.75C910.25 38.9062 909.453 41.1094 908.953 43.3594Z" fill="black"/>
</svg>
