<svg width="1029" height="74" viewBox="0 0 1029 74" fill="none" xmlns="http://www.w3.org/2000/svg">
<path d="M17.4844 3.75L5.67188 72H0L11.8125 3.75H17.4844ZM42.8906 35.1562L42.0469 40.125H9.28125L10.125 35.1562H42.8906ZM52.875 3.75L52.0312 8.71875H14.7188L15.5625 3.75H52.875ZM91.5938 67.0781L90.75 72H56.3906L57.1875 67.0781H91.5938ZM69.8906 3.75L58.0781 72H52.4062L64.2188 3.75H69.8906ZM150.797 3.75H156.422L148.5 49.9219C147.781 54.5469 146.188 58.5938 143.719 62.0625C141.25 65.5312 138.125 68.2344 134.344 70.1719C130.562 72.0781 126.312 73 121.594 72.9375C117.062 72.9062 113.203 71.9062 110.016 69.9375C106.859 67.9688 104.562 65.2656 103.125 61.8281C101.688 58.3906 101.266 54.4375 101.859 49.9688L109.828 3.75H115.406L107.484 50.0156C107.016 53.4219 107.25 56.4688 108.188 59.1562C109.125 61.8438 110.734 63.9844 113.016 65.5781C115.297 67.1406 118.234 67.9531 121.828 68.0156C125.516 68.0469 128.828 67.3125 131.766 65.8125C134.703 64.2812 137.125 62.1562 139.031 59.4375C140.969 56.7188 142.25 53.5625 142.875 49.9688L150.797 3.75ZM193.031 51.7031L201.281 3.75H206.906L198.703 51.6562C198.078 55.6875 196.734 59.3281 194.672 62.5781C192.609 65.7969 189.953 68.3438 186.703 70.2188C183.453 72.0625 179.703 72.9844 175.453 72.9844C171.391 72.9531 168.016 72.1094 165.328 70.4531C162.641 68.7656 160.688 66.4531 159.469 63.5156C158.281 60.5469 157.891 57.0938 158.297 53.1562H163.969C163.594 56.0312 163.75 58.5781 164.438 60.7969C165.156 63.0156 166.438 64.7656 168.281 66.0469C170.125 67.3281 172.578 67.9844 175.641 68.0156C178.859 68.0469 181.672 67.3125 184.078 65.8125C186.484 64.3125 188.453 62.3281 189.984 59.8594C191.516 57.3594 192.531 54.6406 193.031 51.7031ZM266.953 34.2188L265.781 41.4844C265.125 45.4844 263.984 49.375 262.359 53.1562C260.766 56.9062 258.672 60.2812 256.078 63.2812C253.516 66.2812 250.469 68.6562 246.938 70.4062C243.438 72.125 239.453 72.9688 234.984 72.9375C230.641 72.9062 227 71.9688 224.062 70.125C221.125 68.2812 218.844 65.8438 217.219 62.8125C215.594 59.75 214.531 56.375 214.031 52.6875C213.562 49 213.609 45.2812 214.172 41.5312L215.344 34.2656C215.969 30.2656 217.094 26.3906 218.719 22.6406C220.375 18.8594 222.484 15.4688 225.047 12.4688C227.641 9.46875 230.688 7.10938 234.188 5.39062C237.719 3.64063 241.703 2.78125 246.141 2.8125C250.516 2.84375 254.156 3.78125 257.062 5.625C260 7.46875 262.281 9.90625 263.906 12.9375C265.531 15.9688 266.578 19.3438 267.047 23.0625C267.516 26.75 267.484 30.4688 266.953 34.2188ZM260.156 41.5312L261.375 34.125C261.812 31.1562 261.922 28.1562 261.703 25.125C261.516 22.0625 260.859 19.2344 259.734 16.6406C258.641 14.0469 256.969 11.9531 254.719 10.3594C252.5 8.76562 249.562 7.9375 245.906 7.875C242.281 7.84375 239.031 8.57812 236.156 10.0781C233.312 11.5469 230.859 13.5625 228.797 16.125C226.734 18.6562 225.047 21.4844 223.734 24.6094C222.453 27.7344 221.547 30.9062 221.016 34.125L219.797 41.5312C219.359 44.4688 219.234 47.4688 219.422 50.5312C219.641 53.5938 220.297 56.4219 221.391 59.0156C222.516 61.6094 224.188 63.7188 226.406 65.3438C228.656 66.9688 231.578 67.8125 235.172 67.875C238.891 67.9375 242.172 67.2188 245.016 65.7188C247.891 64.2188 250.359 62.2031 252.422 59.6719C254.484 57.1406 256.156 54.2969 257.438 51.1406C258.719 47.9844 259.625 44.7812 260.156 41.5312ZM314.016 34.7812L319.312 34.8281C322.094 34.7656 324.75 34.2344 327.281 33.2344C329.844 32.2344 332 30.75 333.75 28.7812C335.531 26.8125 336.625 24.3438 337.031 21.375C337.438 18.6562 337.234 16.2812 336.422 14.25C335.609 12.1875 334.281 10.5781 332.438 9.42188C330.594 8.23438 328.281 7.625 325.5 7.59375C322.625 7.5625 320.016 8.14063 317.672 9.32812C315.328 10.5156 313.375 12.1719 311.812 14.2969C310.281 16.3906 309.25 18.8281 308.719 21.6094H303.281C303.812 17.8906 305.125 14.6094 307.219 11.7656C309.344 8.92187 312.016 6.71875 315.234 5.15625C318.453 3.5625 321.938 2.78125 325.688 2.8125C329.375 2.8125 332.562 3.60938 335.25 5.20312C337.938 6.76562 339.938 8.95312 341.25 11.7656C342.562 14.5781 343 17.8438 342.562 21.5625C342.25 24.3438 341.375 26.7969 339.938 28.9219C338.531 31.0156 336.75 32.7812 334.594 34.2188C332.469 35.625 330.141 36.7031 327.609 37.4531C325.078 38.1719 322.531 38.5469 319.969 38.5781L313.453 38.5312L314.016 34.7812ZM313.266 39.6094L313.828 35.9062H319.688C322.406 35.9688 324.969 36.3438 327.375 37.0312C329.812 37.7188 331.938 38.7656 333.75 40.1719C335.594 41.5469 336.969 43.3281 337.875 45.5156C338.812 47.6719 339.109 50.2656 338.766 53.2969C338.422 56.2969 337.594 59.0156 336.281 61.4531C335 63.8594 333.328 65.9219 331.266 67.6406C329.203 69.3594 326.859 70.6875 324.234 71.625C321.609 72.5312 318.812 72.9688 315.844 72.9375C312.969 72.9062 310.344 72.4219 307.969 71.4844C305.594 70.5469 303.547 69.2344 301.828 67.5469C300.141 65.8281 298.875 63.7812 298.031 61.4062C297.219 59 296.938 56.3438 297.188 53.4375L302.625 53.4844C302.344 56.3594 302.719 58.8906 303.75 61.0781C304.812 63.2656 306.391 64.9844 308.484 66.2344C310.609 67.4531 313.109 68.0781 315.984 68.1094C319.047 68.1406 321.797 67.5625 324.234 66.375C326.703 65.1875 328.719 63.5 330.281 61.3125C331.875 59.0938 332.875 56.4688 333.281 53.4375C333.719 50.25 333.344 47.6562 332.156 45.6562C330.969 43.625 329.219 42.125 326.906 41.1562C324.625 40.1875 322.031 39.6875 319.125 39.6562L313.266 39.6094ZM347.344 68.5781C347.375 67.5156 347.781 66.5938 348.562 65.8125C349.344 65.0312 350.281 64.625 351.375 64.5938C352.5 64.5938 353.422 64.9688 354.141 65.7188C354.859 66.4688 355.188 67.4062 355.125 68.5312C355.062 69.625 354.641 70.5469 353.859 71.2969C353.078 72.0469 352.141 72.4219 351.047 72.4219C349.922 72.4531 349 72.1094 348.281 71.3906C347.562 70.6406 347.25 69.7031 347.344 68.5781ZM354.984 25.3125C355.016 24.25 355.422 23.3281 356.203 22.5469C356.984 21.7656 357.922 21.3594 359.016 21.3281C360.141 21.3281 361.062 21.7031 361.781 22.4531C362.5 23.2031 362.828 24.1406 362.766 25.2656C362.703 26.3594 362.281 27.2812 361.5 28.0312C360.719 28.7812 359.781 29.1562 358.688 29.1562C357.562 29.1875 356.641 28.8438 355.922 28.125C355.203 27.375 354.891 26.4375 354.984 25.3125ZM406.266 3.70312H411.703L425.766 63.75L460.641 3.79688H466.547L426.797 72H422.484L406.266 3.70312ZM404.438 3.75H409.453L403.406 42.3281L398.25 72H392.625L404.438 3.75ZM463.219 3.75H468.234L456.422 72H450.797L456 41.9531L463.219 3.75ZM486.797 21.2812L478.031 72H472.547L481.312 21.2812H486.797ZM482.906 6.65625C482.938 5.59375 483.328 4.6875 484.078 3.9375C484.828 3.1875 485.734 2.8125 486.797 2.8125C487.891 2.78125 488.781 3.14062 489.469 3.89062C490.188 4.64062 490.5 5.54687 490.406 6.60938C490.375 7.64062 489.969 8.53125 489.188 9.28125C488.406 10 487.5 10.3594 486.469 10.3594C485.406 10.3906 484.531 10.0469 483.844 9.32812C483.156 8.60938 482.844 7.71875 482.906 6.65625ZM524.812 58.9219C525.188 56.6719 524.797 54.8594 523.641 53.4844C522.484 52.0781 520.969 51 519.094 50.25C517.219 49.4688 515.391 48.8594 513.609 48.4219C511.734 47.9531 509.844 47.3906 507.938 46.7344C506.062 46.0469 504.359 45.1875 502.828 44.1562C501.297 43.0938 500.109 41.7656 499.266 40.1719C498.422 38.5781 498.109 36.625 498.328 34.3125C498.547 31.9688 499.25 29.9219 500.438 28.1719C501.656 26.4219 503.172 24.9688 504.984 23.8125C506.828 22.625 508.812 21.75 510.938 21.1875C513.094 20.625 515.234 20.3438 517.359 20.3438C520.453 20.375 523.266 20.9687 525.797 22.125C528.359 23.2813 530.359 24.9844 531.797 27.2344C533.266 29.4531 533.891 32.2188 533.672 35.5312L528.234 35.4844C528.422 33.2656 528.016 31.4062 527.016 29.9062C526.047 28.375 524.688 27.2188 522.938 26.4375C521.219 25.625 519.312 25.2031 517.219 25.1719C515.281 25.1719 513.344 25.4844 511.406 26.1094C509.5 26.7344 507.844 27.7031 506.438 29.0156C505.031 30.3281 504.156 32.0312 503.812 34.125C503.531 35.7812 503.703 37.1719 504.328 38.2969C504.984 39.3906 505.906 40.2812 507.094 40.9688C508.312 41.6562 509.625 42.2188 511.031 42.6562C512.438 43.0938 513.766 43.4844 515.016 43.8281C517.578 44.5156 520.094 45.4062 522.562 46.5C525.031 47.5938 527 49.1094 528.469 51.0469C529.969 52.9531 530.562 55.4688 530.25 58.5938C530.031 61.0938 529.297 63.25 528.047 65.0625C526.797 66.875 525.219 68.375 523.312 69.5625C521.406 70.7188 519.328 71.5625 517.078 72.0938C514.828 72.6562 512.594 72.9375 510.375 72.9375C507.312 72.9062 504.406 72.3281 501.656 71.2031C498.938 70.0781 496.75 68.3906 495.094 66.1406C493.438 63.8906 492.719 61.0781 492.938 57.7031L498.422 57.75C498.359 60.125 498.875 62.0781 499.969 63.6094C501.062 65.1406 502.531 66.2656 504.375 66.9844C506.25 67.7031 508.281 68.0781 510.469 68.1094C512.438 68.1094 514.453 67.7969 516.516 67.1719C518.578 66.5469 520.375 65.5625 521.906 64.2188C523.469 62.875 524.438 61.1094 524.812 58.9219ZM597.234 8.10938L563.391 72H557.297L594.094 3.79688H598.359L597.234 8.10938ZM607.078 72L595.125 7.59375L595.5 3.75H599.484L612.75 72H607.078ZM607.078 47.9062L606.234 52.875H571.031L571.828 47.9062H607.078ZM640.453 68.1562C642.953 68.1562 645.266 67.6719 647.391 66.7031C649.516 65.7344 651.312 64.3594 652.781 62.5781C654.281 60.7969 655.359 58.7188 656.016 56.3438H661.312C660.688 59.6562 659.344 62.5625 657.281 65.0625C655.219 67.5625 652.703 69.5156 649.734 70.9219C646.797 72.2969 643.656 72.9688 640.312 72.9375C636.75 72.9062 633.766 72.1562 631.359 70.6875C628.953 69.2188 627.062 67.2812 625.688 64.875C624.312 62.4375 623.391 59.7344 622.922 56.7656C622.484 53.7656 622.469 50.7344 622.875 47.6719L623.109 45.7031C623.547 42.4531 624.391 39.3125 625.641 36.2812C626.891 33.2188 628.531 30.4844 630.562 28.0781C632.625 25.6719 635.078 23.7812 637.922 22.4062C640.766 21 643.969 20.3125 647.531 20.3438C651.062 20.375 654.094 21.1875 656.625 22.7812C659.156 24.3438 661.078 26.4844 662.391 29.2031C663.734 31.8906 664.344 34.9531 664.219 38.3906L659.016 38.3438C659.109 35.9062 658.719 33.7031 657.844 31.7344C657 29.7344 655.688 28.1562 653.906 27C652.125 25.8125 649.953 25.1875 647.391 25.125C644.484 25.0938 641.938 25.6719 639.75 26.8594C637.594 28.0156 635.75 29.5938 634.219 31.5938C632.688 33.5938 631.453 35.8125 630.516 38.25C629.578 40.6875 628.922 43.1719 628.547 45.7031L628.266 47.6719C627.984 49.9844 627.922 52.3438 628.078 54.75C628.266 57.125 628.781 59.3281 629.625 61.3594C630.5 63.3594 631.812 64.9844 633.562 66.2344C635.312 67.4531 637.609 68.0938 640.453 68.1562ZM696.75 21.2812L696 25.875H671.25L672.047 21.2812H696.75ZM683.344 8.25H688.828L680.016 59.7188C679.828 61.0625 679.781 62.3594 679.875 63.6094C680 64.8594 680.422 65.8906 681.141 66.7031C681.859 67.4844 683.031 67.8906 684.656 67.9219C685.438 67.9219 686.203 67.875 686.953 67.7812C687.734 67.6562 688.5 67.5469 689.25 67.4531L689.016 72.2344C688.078 72.4844 687.141 72.6562 686.203 72.75C685.266 72.875 684.312 72.9219 683.344 72.8906C680.719 72.8594 678.734 72.2188 677.391 70.9688C676.047 69.7188 675.172 68.0938 674.766 66.0938C674.359 64.0625 674.312 61.9062 674.625 59.625L683.344 8.25ZM714.234 21.2812L705.469 72H699.984L708.75 21.2812H714.234ZM710.344 6.65625C710.375 5.59375 710.766 4.6875 711.516 3.9375C712.266 3.1875 713.172 2.8125 714.234 2.8125C715.328 2.78125 716.219 3.14062 716.906 3.89062C717.625 4.64062 717.938 5.54687 717.844 6.60938C717.812 7.64062 717.406 8.53125 716.625 9.28125C715.844 10 714.938 10.3594 713.906 10.3594C712.844 10.3906 711.969 10.0469 711.281 9.32812C710.594 8.60938 710.281 7.71875 710.344 6.65625ZM736.031 66.375L758.812 21.3281H764.625L738.328 72H734.156L736.031 66.375ZM728.766 21.2344L737.766 66.9375V72H733.922L723.281 21.2344H728.766ZM779.953 21.2812L771.188 72H765.703L774.469 21.2812H779.953ZM776.062 6.65625C776.094 5.59375 776.484 4.6875 777.234 3.9375C777.984 3.1875 778.891 2.8125 779.953 2.8125C781.047 2.78125 781.938 3.14062 782.625 3.89062C783.344 4.64062 783.656 5.54687 783.562 6.60938C783.531 7.64062 783.125 8.53125 782.344 9.28125C781.562 10 780.656 10.3594 779.625 10.3594C778.562 10.3906 777.688 10.0469 777 9.32812C776.312 8.60938 776 7.71875 776.062 6.65625ZM819.656 61.9219L830.391 0H835.875L823.406 72H818.297L819.656 61.9219ZM788.062 47.3438L788.203 46.3594C788.672 43.2969 789.469 40.2344 790.594 37.1719C791.719 34.0781 793.219 31.25 795.094 28.6875C796.969 26.125 799.234 24.0781 801.891 22.5469C804.578 21.0156 807.688 20.2813 811.219 20.3438C814 20.375 816.438 20.9687 818.531 22.125C820.625 23.25 822.359 24.7812 823.734 26.7188C825.141 28.6562 826.156 30.8438 826.781 33.2812C827.438 35.6875 827.688 38.1875 827.531 40.7812L825.516 53.2969C824.953 55.9844 824 58.5156 822.656 60.8906C821.312 63.2656 819.656 65.375 817.688 67.2188C815.75 69.0312 813.531 70.4531 811.031 71.4844C808.562 72.5156 805.906 73 803.062 72.9375C799.656 72.9062 796.875 72.0781 794.719 70.4531C792.594 68.8281 790.984 66.7344 789.891 64.1719C788.797 61.6094 788.125 58.8438 787.875 55.875C787.656 52.9062 787.719 50.0625 788.062 47.3438ZM793.828 46.3125L793.688 47.2969C793.375 49.4219 793.234 51.6719 793.266 54.0469C793.297 56.4219 793.641 58.6719 794.297 60.7969C794.984 62.8906 796.125 64.6094 797.719 65.9531C799.312 67.2969 801.484 68 804.234 68.0625C806.953 68.0938 809.547 67.5312 812.016 66.375C814.484 65.1875 816.641 63.5625 818.484 61.5C820.359 59.4375 821.672 57.1094 822.422 54.5156L824.953 39.8906C825.078 37.9219 824.844 36.0625 824.25 34.3125C823.688 32.5625 822.828 31.0156 821.672 29.6719C820.516 28.3281 819.109 27.2656 817.453 26.4844C815.828 25.6719 814.016 25.2656 812.016 25.2656C809.172 25.2031 806.688 25.8125 804.562 27.0938C802.469 28.3438 800.688 30.0156 799.219 32.1094C797.75 34.1719 796.578 36.4531 795.703 38.9531C794.828 41.4219 794.203 43.875 793.828 46.3125ZM869.297 62.9062L873.656 36.7031C874 34.2969 873.781 32.2344 873 30.5156C872.25 28.7656 871.031 27.4375 869.344 26.5312C867.688 25.5938 865.641 25.1094 863.203 25.0781C861.047 25.0469 858.922 25.4219 856.828 26.2031C854.734 26.9844 852.906 28.125 851.344 29.625C849.812 31.125 848.797 33 848.297 35.25L842.812 35.2031C843.156 32.7969 844 30.6719 845.344 28.8281C846.688 26.9531 848.344 25.3906 850.312 24.1406C852.312 22.8594 854.469 21.9062 856.781 21.2812C859.094 20.625 861.375 20.3125 863.625 20.3438C866.969 20.3438 869.875 21.0156 872.344 22.3594C874.812 23.6719 876.656 25.5625 877.875 28.0312C879.125 30.4688 879.531 33.4062 879.094 36.8438L874.969 61.3594C874.688 63.0156 874.5 64.7031 874.406 66.4219C874.312 68.1094 874.438 69.7656 874.781 71.3906L874.734 72H869.016C868.797 70.5 868.719 68.9844 868.781 67.4531C868.875 65.9219 869.047 64.4062 869.297 62.9062ZM874.031 42.4688L873.422 46.7812H863.062C861.125 46.7812 859.078 46.9531 856.922 47.2969C854.766 47.6406 852.703 48.2344 850.734 49.0781C848.766 49.9219 847.094 51.0938 845.719 52.5938C844.344 54.0625 843.469 55.9375 843.094 58.2188C842.781 60.1875 843 61.9062 843.75 63.375C844.531 64.8125 845.672 65.9375 847.172 66.75C848.672 67.5312 850.359 67.9375 852.234 67.9688C854.984 68 857.594 67.5 860.062 66.4688C862.531 65.4062 864.734 63.9375 866.672 62.0625C868.609 60.1875 870.125 58 871.219 55.5L873.141 58.7812C872.297 60.9062 871.109 62.8594 869.578 64.6406C868.078 66.3906 866.359 67.8906 864.422 69.1406C862.484 70.3594 860.406 71.3125 858.188 72C855.969 72.6562 853.719 72.9844 851.438 72.9844C848.656 72.9219 846.156 72.3125 843.938 71.1562C841.75 70 840.047 68.3594 838.828 66.2344C837.609 64.1094 837.156 61.6094 837.469 58.7344C837.812 55.6719 838.781 53.1094 840.375 51.0469C842 48.9531 844.016 47.2812 846.422 46.0312C848.828 44.7812 851.422 43.875 854.203 43.3125C856.984 42.75 859.688 42.4688 862.312 42.4688H874.031ZM921.375 61.9219L932.109 0H937.594L925.125 72H920.016L921.375 61.9219ZM889.781 47.3438L889.922 46.3594C890.391 43.2969 891.188 40.2344 892.312 37.1719C893.438 34.0781 894.938 31.25 896.812 28.6875C898.688 26.125 900.953 24.0781 903.609 22.5469C906.297 21.0156 909.406 20.2813 912.938 20.3438C915.719 20.375 918.156 20.9687 920.25 22.125C922.344 23.25 924.078 24.7812 925.453 26.7188C926.859 28.6562 927.875 30.8438 928.5 33.2812C929.156 35.6875 929.406 38.1875 929.25 40.7812L927.234 53.2969C926.672 55.9844 925.719 58.5156 924.375 60.8906C923.031 63.2656 921.375 65.375 919.406 67.2188C917.469 69.0312 915.25 70.4531 912.75 71.4844C910.281 72.5156 907.625 73 904.781 72.9375C901.375 72.9062 898.594 72.0781 896.438 70.4531C894.312 68.8281 892.703 66.7344 891.609 64.1719C890.516 61.6094 889.844 58.8438 889.594 55.875C889.375 52.9062 889.438 50.0625 889.781 47.3438ZM895.547 46.3125L895.406 47.2969C895.094 49.4219 894.953 51.6719 894.984 54.0469C895.016 56.4219 895.359 58.6719 896.016 60.7969C896.703 62.8906 897.844 64.6094 899.438 65.9531C901.031 67.2969 903.203 68 905.953 68.0625C908.672 68.0938 911.266 67.5312 913.734 66.375C916.203 65.1875 918.359 63.5625 920.203 61.5C922.078 59.4375 923.391 57.1094 924.141 54.5156L926.672 39.8906C926.797 37.9219 926.562 36.0625 925.969 34.3125C925.406 32.5625 924.547 31.0156 923.391 29.6719C922.234 28.3281 920.828 27.2656 919.172 26.4844C917.547 25.6719 915.734 25.2656 913.734 25.2656C910.891 25.2031 908.406 25.8125 906.281 27.0938C904.188 28.3438 902.406 30.0156 900.938 32.1094C899.469 34.1719 898.297 36.4531 897.422 38.9531C896.547 41.4219 895.922 43.875 895.547 46.3125ZM959.25 72.9375C955.812 72.9062 952.844 72.1875 950.344 70.7812C947.844 69.375 945.812 67.5 944.25 65.1562C942.719 62.7812 941.641 60.125 941.016 57.1875C940.422 54.25 940.297 51.2344 940.641 48.1406L940.922 46.0781C941.328 42.9531 942.188 39.8594 943.5 36.7969C944.812 33.7344 946.516 30.9688 948.609 28.5C950.734 26 953.219 24.0156 956.062 22.5469C958.906 21.0469 962.062 20.3125 965.531 20.3438C968.812 20.375 971.562 21.0625 973.781 22.4062C976.031 23.7188 977.812 25.4844 979.125 27.7031C980.438 29.9219 981.297 32.4062 981.703 35.1562C982.141 37.9062 982.188 40.7188 981.844 43.5938L981.375 47.0156H944.062L944.766 42.2344H976.453L976.594 41.5781C977 38.9219 976.859 36.3438 976.172 33.8438C975.516 31.3438 974.297 29.2812 972.516 27.6562C970.734 26.0312 968.344 25.2031 965.344 25.1719C962.531 25.1094 960.031 25.7031 957.844 26.9531C955.656 28.1719 953.766 29.8281 952.172 31.9219C950.609 33.9844 949.344 36.2656 948.375 38.7656C947.406 41.2344 946.734 43.6719 946.359 46.0781L946.125 48.0938C945.812 50.4375 945.828 52.7812 946.172 55.125C946.547 57.4688 947.266 59.625 948.328 61.5938C949.422 63.5312 950.891 65.1094 952.734 66.3281C954.609 67.5156 956.891 68.125 959.578 68.1562C962.578 68.2188 965.281 67.625 967.688 66.375C970.125 65.0938 972.359 63.4062 974.391 61.3125L977.672 64.0312C976.172 65.9688 974.453 67.6094 972.516 68.9531C970.609 70.2969 968.531 71.2969 966.281 71.9531C964.031 72.6094 961.688 72.9375 959.25 72.9375ZM1019.62 58.9219C1020 56.6719 1019.61 54.8594 1018.45 53.4844C1017.3 52.0781 1015.78 51 1013.91 50.25C1012.03 49.4688 1010.2 48.8594 1008.42 48.4219C1006.55 47.9531 1004.66 47.3906 1002.75 46.7344C1000.88 46.0469 999.172 45.1875 997.641 44.1562C996.109 43.0938 994.922 41.7656 994.078 40.1719C993.234 38.5781 992.922 36.625 993.141 34.3125C993.359 31.9688 994.062 29.9219 995.25 28.1719C996.469 26.4219 997.984 24.9688 999.797 23.8125C1001.64 22.625 1003.62 21.75 1005.75 21.1875C1007.91 20.625 1010.05 20.3438 1012.17 20.3438C1015.27 20.375 1018.08 20.9687 1020.61 22.125C1023.17 23.2813 1025.17 24.9844 1026.61 27.2344C1028.08 29.4531 1028.7 32.2188 1028.48 35.5312L1023.05 35.4844C1023.23 33.2656 1022.83 31.4062 1021.83 29.9062C1020.86 28.375 1019.5 27.2188 1017.75 26.4375C1016.03 25.625 1014.12 25.2031 1012.03 25.1719C1010.09 25.1719 1008.16 25.4844 1006.22 26.1094C1004.31 26.7344 1002.66 27.7031 1001.25 29.0156C999.844 30.3281 998.969 32.0312 998.625 34.125C998.344 35.7812 998.516 37.1719 999.141 38.2969C999.797 39.3906 1000.72 40.2812 1001.91 40.9688C1003.12 41.6562 1004.44 42.2188 1005.84 42.6562C1007.25 43.0938 1008.58 43.4844 1009.83 43.8281C1012.39 44.5156 1014.91 45.4062 1017.38 46.5C1019.84 47.5938 1021.81 49.1094 1023.28 51.0469C1024.78 52.9531 1025.38 55.4688 1025.06 58.5938C1024.84 61.0938 1024.11 63.25 1022.86 65.0625C1021.61 66.875 1020.03 68.375 1018.12 69.5625C1016.22 70.7188 1014.14 71.5625 1011.89 72.0938C1009.64 72.6562 1007.41 72.9375 1005.19 72.9375C1002.12 72.9062 999.219 72.3281 996.469 71.2031C993.75 70.0781 991.562 68.3906 989.906 66.1406C988.25 63.8906 987.531 61.0781 987.75 57.7031L993.234 57.75C993.172 60.125 993.688 62.0781 994.781 63.6094C995.875 65.1406 997.344 66.2656 999.188 66.9844C1001.06 67.7031 1003.09 68.0781 1005.28 68.1094C1007.25 68.1094 1009.27 67.7969 1011.33 67.1719C1013.39 66.5469 1015.19 65.5625 1016.72 64.2188C1018.28 62.875 1019.25 61.1094 1019.62 58.9219Z" fill="black"/>
</svg>
