<svg width="920" height="74" viewBox="0 0 920 74" fill="none" xmlns="http://www.w3.org/2000/svg">
<path d="M17.4844 3.75L5.67188 72H0L11.8125 3.75H17.4844ZM42.8906 35.1562L42.0469 40.125H9.28125L10.125 35.1562H42.8906ZM52.875 3.75L52.0312 8.71875H14.7188L15.5625 3.75H52.875ZM91.5938 67.0781L90.75 72H56.3906L57.1875 67.0781H91.5938ZM69.8906 3.75L58.0781 72H52.4062L64.2188 3.75H69.8906ZM150.797 3.75H156.422L148.5 49.9219C147.781 54.5469 146.188 58.5938 143.719 62.0625C141.25 65.5312 138.125 68.2344 134.344 70.1719C130.562 72.0781 126.312 73 121.594 72.9375C117.062 72.9062 113.203 71.9062 110.016 69.9375C106.859 67.9688 104.562 65.2656 103.125 61.8281C101.688 58.3906 101.266 54.4375 101.859 49.9688L109.828 3.75H115.406L107.484 50.0156C107.016 53.4219 107.25 56.4688 108.188 59.1562C109.125 61.8438 110.734 63.9844 113.016 65.5781C115.297 67.1406 118.234 67.9531 121.828 68.0156C125.516 68.0469 128.828 67.3125 131.766 65.8125C134.703 64.2812 137.125 62.1562 139.031 59.4375C140.969 56.7188 142.25 53.5625 142.875 49.9688L150.797 3.75ZM193.031 51.7031L201.281 3.75H206.906L198.703 51.6562C198.078 55.6875 196.734 59.3281 194.672 62.5781C192.609 65.7969 189.953 68.3438 186.703 70.2188C183.453 72.0625 179.703 72.9844 175.453 72.9844C171.391 72.9531 168.016 72.1094 165.328 70.4531C162.641 68.7656 160.688 66.4531 159.469 63.5156C158.281 60.5469 157.891 57.0938 158.297 53.1562H163.969C163.594 56.0312 163.75 58.5781 164.438 60.7969C165.156 63.0156 166.438 64.7656 168.281 66.0469C170.125 67.3281 172.578 67.9844 175.641 68.0156C178.859 68.0469 181.672 67.3125 184.078 65.8125C186.484 64.3125 188.453 62.3281 189.984 59.8594C191.516 57.3594 192.531 54.6406 193.031 51.7031ZM266.953 34.2188L265.781 41.4844C265.125 45.4844 263.984 49.375 262.359 53.1562C260.766 56.9062 258.672 60.2812 256.078 63.2812C253.516 66.2812 250.469 68.6562 246.938 70.4062C243.438 72.125 239.453 72.9688 234.984 72.9375C230.641 72.9062 227 71.9688 224.062 70.125C221.125 68.2812 218.844 65.8438 217.219 62.8125C215.594 59.75 214.531 56.375 214.031 52.6875C213.562 49 213.609 45.2812 214.172 41.5312L215.344 34.2656C215.969 30.2656 217.094 26.3906 218.719 22.6406C220.375 18.8594 222.484 15.4688 225.047 12.4688C227.641 9.46875 230.688 7.10938 234.188 5.39062C237.719 3.64063 241.703 2.78125 246.141 2.8125C250.516 2.84375 254.156 3.78125 257.062 5.625C260 7.46875 262.281 9.90625 263.906 12.9375C265.531 15.9688 266.578 19.3438 267.047 23.0625C267.516 26.75 267.484 30.4688 266.953 34.2188ZM260.156 41.5312L261.375 34.125C261.812 31.1562 261.922 28.1562 261.703 25.125C261.516 22.0625 260.859 19.2344 259.734 16.6406C258.641 14.0469 256.969 11.9531 254.719 10.3594C252.5 8.76562 249.562 7.9375 245.906 7.875C242.281 7.84375 239.031 8.57812 236.156 10.0781C233.312 11.5469 230.859 13.5625 228.797 16.125C226.734 18.6562 225.047 21.4844 223.734 24.6094C222.453 27.7344 221.547 30.9062 221.016 34.125L219.797 41.5312C219.359 44.4688 219.234 47.4688 219.422 50.5312C219.641 53.5938 220.297 56.4219 221.391 59.0156C222.516 61.6094 224.188 63.7188 226.406 65.3438C228.656 66.9688 231.578 67.8125 235.172 67.875C238.891 67.9375 242.172 67.2188 245.016 65.7188C247.891 64.2188 250.359 62.2031 252.422 59.6719C254.484 57.1406 256.156 54.2969 257.438 51.1406C258.719 47.9844 259.625 44.7812 260.156 41.5312ZM343.172 49.9688L342.422 54.75H295.406L296.016 51.2812L334.688 3.79688H339.609L331.031 15.5625L303.188 49.9688H343.172ZM340.828 3.75L329.062 72H323.578L335.391 3.75H340.828ZM347.344 68.5781C347.375 67.5156 347.781 66.5938 348.562 65.8125C349.344 65.0312 350.281 64.625 351.375 64.5938C352.5 64.5938 353.422 64.9688 354.141 65.7188C354.859 66.4688 355.188 67.4062 355.125 68.5312C355.062 69.625 354.641 70.5469 353.859 71.2969C353.078 72.0469 352.141 72.4219 351.047 72.4219C349.922 72.4531 349 72.1094 348.281 71.3906C347.562 70.6406 347.25 69.7031 347.344 68.5781ZM354.984 25.3125C355.016 24.25 355.422 23.3281 356.203 22.5469C356.984 21.7656 357.922 21.3594 359.016 21.3281C360.141 21.3281 361.062 21.7031 361.781 22.4531C362.5 23.2031 362.828 24.1406 362.766 25.2656C362.703 26.3594 362.281 27.2812 361.5 28.0312C360.719 28.7812 359.781 29.1562 358.688 29.1562C357.562 29.1875 356.641 28.8438 355.922 28.125C355.203 27.375 354.891 26.4375 354.984 25.3125ZM406.266 3.70312H411.703L425.766 63.75L460.641 3.79688H466.547L426.797 72H422.484L406.266 3.70312ZM404.438 3.75H409.453L403.406 42.3281L398.25 72H392.625L404.438 3.75ZM463.219 3.75H468.234L456.422 72H450.797L456 41.9531L463.219 3.75ZM486.797 21.2812L478.031 72H472.547L481.312 21.2812H486.797ZM482.906 6.65625C482.938 5.59375 483.328 4.6875 484.078 3.9375C484.828 3.1875 485.734 2.8125 486.797 2.8125C487.891 2.78125 488.781 3.14062 489.469 3.89062C490.188 4.64062 490.5 5.54687 490.406 6.60938C490.375 7.64062 489.969 8.53125 489.188 9.28125C488.406 10 487.5 10.3594 486.469 10.3594C485.406 10.3906 484.531 10.0469 483.844 9.32812C483.156 8.60938 482.844 7.71875 482.906 6.65625ZM524.812 58.9219C525.188 56.6719 524.797 54.8594 523.641 53.4844C522.484 52.0781 520.969 51 519.094 50.25C517.219 49.4688 515.391 48.8594 513.609 48.4219C511.734 47.9531 509.844 47.3906 507.938 46.7344C506.062 46.0469 504.359 45.1875 502.828 44.1562C501.297 43.0938 500.109 41.7656 499.266 40.1719C498.422 38.5781 498.109 36.625 498.328 34.3125C498.547 31.9688 499.25 29.9219 500.438 28.1719C501.656 26.4219 503.172 24.9688 504.984 23.8125C506.828 22.625 508.812 21.75 510.938 21.1875C513.094 20.625 515.234 20.3438 517.359 20.3438C520.453 20.375 523.266 20.9687 525.797 22.125C528.359 23.2813 530.359 24.9844 531.797 27.2344C533.266 29.4531 533.891 32.2188 533.672 35.5312L528.234 35.4844C528.422 33.2656 528.016 31.4062 527.016 29.9062C526.047 28.375 524.688 27.2188 522.938 26.4375C521.219 25.625 519.312 25.2031 517.219 25.1719C515.281 25.1719 513.344 25.4844 511.406 26.1094C509.5 26.7344 507.844 27.7031 506.438 29.0156C505.031 30.3281 504.156 32.0312 503.812 34.125C503.531 35.7812 503.703 37.1719 504.328 38.2969C504.984 39.3906 505.906 40.2812 507.094 40.9688C508.312 41.6562 509.625 42.2188 511.031 42.6562C512.438 43.0938 513.766 43.4844 515.016 43.8281C517.578 44.5156 520.094 45.4062 522.562 46.5C525.031 47.5938 527 49.1094 528.469 51.0469C529.969 52.9531 530.562 55.4688 530.25 58.5938C530.031 61.0938 529.297 63.25 528.047 65.0625C526.797 66.875 525.219 68.375 523.312 69.5625C521.406 70.7188 519.328 71.5625 517.078 72.0938C514.828 72.6562 512.594 72.9375 510.375 72.9375C507.312 72.9062 504.406 72.3281 501.656 71.2031C498.938 70.0781 496.75 68.3906 495.094 66.1406C493.438 63.8906 492.719 61.0781 492.938 57.7031L498.422 57.75C498.359 60.125 498.875 62.0781 499.969 63.6094C501.062 65.1406 502.531 66.2656 504.375 66.9844C506.25 67.7031 508.281 68.0781 510.469 68.1094C512.438 68.1094 514.453 67.7969 516.516 67.1719C518.578 66.5469 520.375 65.5625 521.906 64.2188C523.469 62.875 524.438 61.1094 524.812 58.9219ZM597.234 8.10938L563.391 72H557.297L594.094 3.79688H598.359L597.234 8.10938ZM607.078 72L595.125 7.59375L595.5 3.75H599.484L612.75 72H607.078ZM607.078 47.9062L606.234 52.875H571.031L571.828 47.9062H607.078ZM634.078 29.8594L626.812 72H621.328L630.094 21.2812H635.438L634.078 29.8594ZM652.875 20.9062L652.172 26.0156C651.609 25.9219 651.031 25.8438 650.438 25.7812C649.844 25.7188 649.25 25.6875 648.656 25.6875C646.125 25.6562 643.875 26.125 641.906 27.0938C639.969 28.0625 638.266 29.375 636.797 31.0312C635.359 32.6875 634.156 34.5625 633.188 36.6562C632.219 38.7188 631.469 40.8438 630.938 43.0312L628.734 43.8281C629.203 41.1094 629.906 38.3594 630.844 35.5781C631.812 32.7969 633.094 30.25 634.688 27.9375C636.312 25.5938 638.297 23.7188 640.641 22.3125C643.016 20.9062 645.828 20.2344 649.078 20.2969C649.734 20.2969 650.375 20.3594 651 20.4844C651.625 20.5781 652.25 20.7188 652.875 20.9062ZM682.406 21.2812L681.656 25.875H656.906L657.703 21.2812H682.406ZM669 8.25H674.484L665.672 59.7188C665.484 61.0625 665.438 62.3594 665.531 63.6094C665.656 64.8594 666.078 65.8906 666.797 66.7031C667.516 67.4844 668.688 67.8906 670.312 67.9219C671.094 67.9219 671.859 67.875 672.609 67.7812C673.391 67.6562 674.156 67.5469 674.906 67.4531L674.672 72.2344C673.734 72.4844 672.797 72.6562 671.859 72.75C670.922 72.875 669.969 72.9219 669 72.8906C666.375 72.8594 664.391 72.2188 663.047 70.9688C661.703 69.7188 660.828 68.0938 660.422 66.0938C660.016 64.0625 659.969 61.9062 660.281 59.625L669 8.25ZM699.891 21.2812L691.125 72H685.641L694.406 21.2812H699.891ZM696 6.65625C696.031 5.59375 696.422 4.6875 697.172 3.9375C697.922 3.1875 698.828 2.8125 699.891 2.8125C700.984 2.78125 701.875 3.14062 702.562 3.89062C703.281 4.64062 703.594 5.54687 703.5 6.60938C703.469 7.64062 703.062 8.53125 702.281 9.28125C701.5 10 700.594 10.3594 699.562 10.3594C698.5 10.3906 697.625 10.0469 696.938 9.32812C696.25 8.60938 695.938 7.71875 696 6.65625ZM725.016 68.1562C727.516 68.1562 729.828 67.6719 731.953 66.7031C734.078 65.7344 735.875 64.3594 737.344 62.5781C738.844 60.7969 739.922 58.7188 740.578 56.3438H745.875C745.25 59.6562 743.906 62.5625 741.844 65.0625C739.781 67.5625 737.266 69.5156 734.297 70.9219C731.359 72.2969 728.219 72.9688 724.875 72.9375C721.312 72.9062 718.328 72.1562 715.922 70.6875C713.516 69.2188 711.625 67.2812 710.25 64.875C708.875 62.4375 707.953 59.7344 707.484 56.7656C707.047 53.7656 707.031 50.7344 707.438 47.6719L707.672 45.7031C708.109 42.4531 708.953 39.3125 710.203 36.2812C711.453 33.2188 713.094 30.4844 715.125 28.0781C717.188 25.6719 719.641 23.7812 722.484 22.4062C725.328 21 728.531 20.3125 732.094 20.3438C735.625 20.375 738.656 21.1875 741.188 22.7812C743.719 24.3438 745.641 26.4844 746.953 29.2031C748.297 31.8906 748.906 34.9531 748.781 38.3906L743.578 38.3438C743.672 35.9062 743.281 33.7031 742.406 31.7344C741.562 29.7344 740.25 28.1562 738.469 27C736.688 25.8125 734.516 25.1875 731.953 25.125C729.047 25.0938 726.5 25.6719 724.312 26.8594C722.156 28.0156 720.312 29.5938 718.781 31.5938C717.25 33.5938 716.016 35.8125 715.078 38.25C714.141 40.6875 713.484 43.1719 713.109 45.7031L712.828 47.6719C712.547 49.9844 712.484 52.3438 712.641 54.75C712.828 57.125 713.344 59.3281 714.188 61.3594C715.062 63.3594 716.375 64.9844 718.125 66.2344C719.875 67.4531 722.172 68.0938 725.016 68.1562ZM787.5 60.0469L794.156 21.2812H799.688L790.922 72H785.625L787.5 60.0469ZM789.984 50.9062L792.797 50.8125C792.328 53.875 791.516 56.7656 790.359 59.4844C789.234 62.1719 787.75 64.5312 785.906 66.5625C784.062 68.5938 781.844 70.1875 779.25 71.3438C776.656 72.4688 773.672 73 770.297 72.9375C767.453 72.9062 765.094 72.375 763.219 71.3438C761.344 70.3125 759.891 68.9062 758.859 67.125C757.828 65.3125 757.172 63.2656 756.891 60.9844C756.609 58.6719 756.625 56.25 756.938 53.7188L762.469 21.2812H767.953L762.422 53.8594C762.172 55.6094 762.094 57.3281 762.188 59.0156C762.312 60.6719 762.672 62.1719 763.266 63.5156C763.891 64.8594 764.828 65.9375 766.078 66.75C767.359 67.5625 769.031 67.9844 771.094 68.0156C774.688 68.0781 777.781 67.375 780.375 65.9062C782.969 64.4062 785.062 62.3594 786.656 59.7656C788.281 57.1719 789.391 54.2188 789.984 50.9062ZM823.641 0L811.219 72H805.734L818.156 0H823.641ZM827.297 47.5781L827.531 46.0312C828 42.7188 828.906 39.5156 830.25 36.4219C831.594 33.3281 833.344 30.5781 835.5 28.1719C837.688 25.7344 840.25 23.8125 843.188 22.4062C846.125 21 849.391 20.3125 852.984 20.3438C856.547 20.375 859.578 21.125 862.078 22.5938C864.578 24.0312 866.578 25.9688 868.078 28.4062C869.609 30.8438 870.656 33.5781 871.219 36.6094C871.781 39.6094 871.875 42.6875 871.5 45.8438L871.312 47.3906C870.844 50.7031 869.922 53.8906 868.547 56.9531C867.203 60.0156 865.438 62.7656 863.25 65.2031C861.094 67.6094 858.547 69.5156 855.609 70.9219C852.672 72.2969 849.406 72.9688 845.812 72.9375C842.281 72.9062 839.25 72.1719 836.719 70.7344C834.219 69.2656 832.219 67.3281 830.719 64.9219C829.219 62.4844 828.188 59.7656 827.625 56.7656C827.062 53.7656 826.953 50.7031 827.297 47.5781ZM833.016 46.0312L832.828 47.5781C832.516 49.9219 832.5 52.2969 832.781 54.7031C833.062 57.1094 833.703 59.3281 834.703 61.3594C835.734 63.3594 837.172 64.9844 839.016 66.2344C840.859 67.4844 843.172 68.125 845.953 68.1562C848.797 68.1875 851.359 67.6094 853.641 66.4219C855.922 65.2344 857.891 63.6406 859.547 61.6406C861.234 59.6094 862.594 57.3594 863.625 54.8906C864.656 52.3906 865.375 49.8906 865.781 47.3906L865.969 45.8438C866.281 43.5312 866.281 41.1719 865.969 38.7656C865.688 36.3281 865.047 34.0938 864.047 32.0625C863.047 30.0312 861.625 28.3906 859.781 27.1406C857.938 25.8594 855.625 25.2031 852.844 25.1719C850 25.1094 847.438 25.6875 845.156 26.9062C842.875 28.0938 840.906 29.7031 839.25 31.7344C837.594 33.7656 836.234 36.0312 835.172 38.5312C834.141 41 833.422 43.5 833.016 46.0312ZM910.219 58.9219C910.594 56.6719 910.203 54.8594 909.047 53.4844C907.891 52.0781 906.375 51 904.5 50.25C902.625 49.4688 900.797 48.8594 899.016 48.4219C897.141 47.9531 895.25 47.3906 893.344 46.7344C891.469 46.0469 889.766 45.1875 888.234 44.1562C886.703 43.0938 885.516 41.7656 884.672 40.1719C883.828 38.5781 883.516 36.625 883.734 34.3125C883.953 31.9688 884.656 29.9219 885.844 28.1719C887.062 26.4219 888.578 24.9688 890.391 23.8125C892.234 22.625 894.219 21.75 896.344 21.1875C898.5 20.625 900.641 20.3438 902.766 20.3438C905.859 20.375 908.672 20.9687 911.203 22.125C913.766 23.2813 915.766 24.9844 917.203 27.2344C918.672 29.4531 919.297 32.2188 919.078 35.5312L913.641 35.4844C913.828 33.2656 913.422 31.4062 912.422 29.9062C911.453 28.375 910.094 27.2188 908.344 26.4375C906.625 25.625 904.719 25.2031 902.625 25.1719C900.688 25.1719 898.75 25.4844 896.812 26.1094C894.906 26.7344 893.25 27.7031 891.844 29.0156C890.438 30.3281 889.562 32.0312 889.219 34.125C888.938 35.7812 889.109 37.1719 889.734 38.2969C890.391 39.3906 891.312 40.2812 892.5 40.9688C893.719 41.6562 895.031 42.2188 896.438 42.6562C897.844 43.0938 899.172 43.4844 900.422 43.8281C902.984 44.5156 905.5 45.4062 907.969 46.5C910.438 47.5938 912.406 49.1094 913.875 51.0469C915.375 52.9531 915.969 55.4688 915.656 58.5938C915.438 61.0938 914.703 63.25 913.453 65.0625C912.203 66.875 910.625 68.375 908.719 69.5625C906.812 70.7188 904.734 71.5625 902.484 72.0938C900.234 72.6562 898 72.9375 895.781 72.9375C892.719 72.9062 889.812 72.3281 887.062 71.2031C884.344 70.0781 882.156 68.3906 880.5 66.1406C878.844 63.8906 878.125 61.0781 878.344 57.7031L883.828 57.75C883.766 60.125 884.281 62.0781 885.375 63.6094C886.469 65.1406 887.938 66.2656 889.781 66.9844C891.656 67.7031 893.688 68.0781 895.875 68.1094C897.844 68.1094 899.859 67.7969 901.922 67.1719C903.984 66.5469 905.781 65.5625 907.312 64.2188C908.875 62.875 909.844 61.1094 910.219 58.9219Z" fill="black"/>
</svg>
