<svg width="166" height="325" viewBox="0 0 166 325" fill="none" xmlns="http://www.w3.org/2000/svg">
<ellipse cx="5.3334" cy="319.635" rx="3.11465" ry="3.13861" fill="black"/>
<path d="M0.000162601 319.635C0.000162601 322.58 2.38798 324.968 5.3335 324.968C8.27901 324.968 10.6668 322.58 10.6668 319.635C10.6668 316.689 8.27901 314.302 5.3335 314.302C2.38798 314.302 0.000162601 316.689 0.000162601 319.635ZM165.219 5.7735L155.219 -4.29153e-06V11.547L165.219 5.7735ZM5.3335 319.635V320.635H91.7507V319.635V318.635H5.3335V319.635ZM111.751 299.635H112.751V25.7735H111.751H110.751V299.635H111.751ZM131.751 5.7735V6.7735H156.219V5.7735V4.7735H131.751V5.7735ZM111.751 25.7735H112.751C112.751 15.2801 121.257 6.7735 131.751 6.7735V5.7735V4.7735C120.153 4.7735 110.751 14.1755 110.751 25.7735H111.751ZM91.7507 319.635V320.635C103.349 320.635 112.751 311.233 112.751 299.635H111.751H110.751C110.751 310.128 102.244 318.635 91.7507 318.635V319.635Z" fill="black"/>
</svg>
