<svg width="167" height="255" viewBox="0 0 167 255" fill="none" xmlns="http://www.w3.org/2000/svg">
<path d="M0.000162601 248.773C0.000162601 251.719 2.38798 254.107 5.3335 254.107C8.27901 254.107 10.6668 251.719 10.6668 248.773C10.6668 245.828 8.27901 243.44 5.3335 243.44C2.38798 243.44 0.000162601 245.828 0.000162601 248.773ZM166.833 5.7735L156.833 -4.29153e-06V11.547L166.833 5.7735ZM5.3335 248.773V249.773H74.3335V248.773V247.773H5.3335V248.773ZM94.3335 228.773H95.3335V25.7735H94.3335H93.3335V228.773H94.3335ZM114.333 5.7735V6.7735H157.833V5.7735V4.7735H114.333V5.7735ZM94.3335 25.7735H95.3335C95.3335 15.2801 103.84 6.7735 114.333 6.7735V5.7735V4.7735C102.736 4.7735 93.3335 14.1755 93.3335 25.7735H94.3335ZM74.3335 248.773V249.773C85.9315 249.773 95.3335 240.371 95.3335 228.773H94.3335H93.3335C93.3335 239.267 84.8269 247.773 74.3335 247.773V248.773Z" fill="black"/>
</svg>
