<svg width="166" height="369" viewBox="0 0 166 369" fill="none" xmlns="http://www.w3.org/2000/svg">
<path d="M0.000162601 362.773C0.000162601 365.719 2.38798 368.107 5.3335 368.107C8.27901 368.107 10.6668 365.719 10.6668 362.773C10.6668 359.828 8.27901 357.44 5.3335 357.44C2.38798 357.44 0.000162601 359.828 0.000162601 362.773ZM165.833 5.7735L155.833 -4.29153e-06V11.547L165.833 5.7735ZM5.3335 362.773V363.773H73.5889V362.773V361.773H5.3335V362.773ZM93.589 342.773H94.589V25.7735H93.589H92.589V342.773H93.589ZM113.589 5.7735V6.7735H156.833V5.7735V4.7735H113.589V5.7735ZM93.589 25.7735H94.589C94.589 15.2801 103.096 6.7735 113.589 6.7735V5.7735V4.7735C101.991 4.7735 92.589 14.1755 92.589 25.7735H93.589ZM73.5889 362.773V363.773C85.1869 363.773 94.589 354.371 94.589 342.773H93.589H92.589C92.589 353.267 84.0824 361.773 73.5889 361.773V362.773Z" fill="black"/>
</svg>
