<svg width="1706" height="566" viewBox="0 0 1706 566" fill="none" xmlns="http://www.w3.org/2000/svg">
<path d="M1700 48.5C1697.05 48.5 1694.67 50.8878 1694.67 53.8333C1694.67 56.7788 1697.05 59.1666 1700 59.1666C1702.95 59.1666 1705.33 56.7788 1705.33 53.8333C1705.33 50.8878 1702.95 48.5 1700 48.5ZM1700 182.833H1699H1700ZM279 485.333L284.774 475.333H273.226L279 485.333ZM279 344.833V343.833H278V344.833H279ZM1700 53.8333L1699 53.8333V182.833H1700H1701V53.8333L1700 53.8333ZM1700 182.833H1699V324.833H1700H1701V182.833H1700ZM1680 344.833V343.833H279V344.833V345.833H1680V344.833ZM279 344.833H278V476.333H279H280V344.833H279ZM1700 324.833H1699C1699 335.327 1690.49 343.833 1680 343.833V344.833V345.833C1691.6 345.833 1701 336.431 1701 324.833H1700Z" fill="black"/>
<path d="M615.5 -2.0504e-05C612.554 -2.0504e-05 610.167 2.38779 610.167 5.33331C610.167 8.27883 612.554 10.6666 615.5 10.6666C618.446 10.6666 620.833 8.27883 620.833 5.33331C620.833 2.38779 618.446 -2.0504e-05 615.5 -2.0504e-05ZM87 559.833L77 554.06V565.607L87 559.833ZM542 5.33331V4.33331H541V5.33331H542ZM1 559.833H0V560.833H1V559.833ZM522 186.833V185.833H21V186.833V187.833H522V186.833ZM615.5 5.33331V4.33331H542V5.33331V6.33331H615.5V5.33331ZM542 5.33331H541V166.833H542H543V5.33331H542ZM1 206.833H0V559.833H1H2V206.833H1ZM1 559.833V560.833H78V559.833V558.833H1V559.833ZM21 186.833V185.833C9.40204 185.833 0 195.235 0 206.833H1H2C2 196.34 10.5066 187.833 21 187.833V186.833ZM522 186.833V187.833C533.598 187.833 543 178.431 543 166.833H542H541C541 177.327 532.493 185.833 522 185.833V186.833Z" fill="black"/>
</svg>
