<svg width="285" height="50" viewBox="0 0 285 50" fill="none" xmlns="http://www.w3.org/2000/svg">
<rect x="1" y="1" width="283" height="48" rx="9" stroke="black" stroke-width="2"/>
<path d="M260 16C265.523 16 270 20.4772 270 26C270 31.5228 265.523 36 260 36C254.477 36 250 31.5228 250 26C250 20.4772 254.477 16 260 16ZM260 18C255.582 18 252 21.5817 252 26C252 30.4183 255.582 34 260 34C264.418 34 268 30.4183 268 26C268 21.5817 264.418 18 260 18ZM265.467 25L260.053 30.4141L260.026 30.3877L260 30.4141L254.585 25L256 23.5859L260.026 27.6123L264.053 23.5859L265.467 25Z" fill="black"/>
<path d="M27.7132 16.7812V31H25.8284V16.7812H27.7132ZM33.6702 23.1777V24.7207H27.303V23.1777H33.6702ZM34.637 16.7812V18.3242H27.303V16.7812H34.637ZM35.6363 25.834V25.6094C35.6363 24.8477 35.747 24.1413 35.9684 23.4902C36.1897 22.8327 36.5087 22.263 36.9254 21.7812C37.3421 21.293 37.8466 20.9154 38.4391 20.6484C39.0315 20.375 39.6956 20.2383 40.4313 20.2383C41.1734 20.2383 41.8408 20.375 42.4332 20.6484C43.0322 20.9154 43.54 21.293 43.9566 21.7812C44.3798 22.263 44.7021 22.8327 44.9234 23.4902C45.1448 24.1413 45.2555 24.8477 45.2555 25.6094V25.834C45.2555 26.5957 45.1448 27.3021 44.9234 27.9531C44.7021 28.6042 44.3798 29.1738 43.9566 29.6621C43.54 30.1439 43.0354 30.5215 42.443 30.7949C41.857 31.0618 41.193 31.1953 40.4508 31.1953C39.7086 31.1953 39.0413 31.0618 38.4488 30.7949C37.8564 30.5215 37.3486 30.1439 36.9254 29.6621C36.5087 29.1738 36.1897 28.6042 35.9684 27.9531C35.747 27.3021 35.6363 26.5957 35.6363 25.834ZM37.443 25.6094V25.834C37.443 26.3613 37.5048 26.8594 37.6285 27.3281C37.7522 27.7904 37.9378 28.2005 38.1852 28.5586C38.4391 28.9167 38.7548 29.1999 39.1324 29.4082C39.51 29.61 39.9495 29.7109 40.4508 29.7109C40.9456 29.7109 41.3785 29.61 41.7496 29.4082C42.1272 29.1999 42.4397 28.9167 42.6871 28.5586C42.9345 28.2005 43.1201 27.7904 43.2438 27.3281C43.374 26.8594 43.4391 26.3613 43.4391 25.834V25.6094C43.4391 25.0885 43.374 24.597 43.2438 24.1348C43.1201 23.666 42.9313 23.2526 42.6773 22.8945C42.4299 22.5299 42.1174 22.2435 41.7398 22.0352C41.3688 21.8268 40.9326 21.7227 40.4313 21.7227C39.9365 21.7227 39.5003 21.8268 39.1227 22.0352C38.7516 22.2435 38.4391 22.5299 38.1852 22.8945C37.9378 23.2526 37.7522 23.666 37.6285 24.1348C37.5048 24.597 37.443 25.0885 37.443 25.6094ZM49.0477 22.0938V31H47.2411V20.4336H48.9989L49.0477 22.0938ZM52.3485 20.375L52.3388 22.0547C52.189 22.0221 52.0458 22.0026 51.9091 21.9961C51.7789 21.9831 51.6291 21.9766 51.4598 21.9766C51.0432 21.9766 50.6753 22.0417 50.3563 22.1719C50.0373 22.3021 49.7671 22.4844 49.5458 22.7188C49.3244 22.9531 49.1486 23.2331 49.0184 23.5586C48.8947 23.8776 48.8134 24.2292 48.7743 24.6133L48.2665 24.9062C48.2665 24.2682 48.3283 23.6693 48.452 23.1094C48.5822 22.5495 48.7808 22.0547 49.0477 21.625C49.3147 21.1888 49.6532 20.8503 50.0634 20.6094C50.48 20.362 50.9748 20.2383 51.5477 20.2383C51.6779 20.2383 51.8277 20.2546 51.997 20.2871C52.1662 20.3132 52.2834 20.3424 52.3485 20.375ZM55.5353 22.5332V31H53.7189V20.4336H55.4377L55.5353 22.5332ZM55.1642 25.3164L54.3244 25.2871C54.3309 24.5645 54.4253 23.8971 54.6076 23.2852C54.7899 22.6667 55.0601 22.1296 55.4181 21.6738C55.7762 21.2181 56.2222 20.8665 56.756 20.6191C57.2899 20.3652 57.9084 20.2383 58.6115 20.2383C59.1063 20.2383 59.562 20.3099 59.9787 20.4531C60.3953 20.5898 60.7567 20.8079 61.0627 21.1074C61.3686 21.4069 61.6063 21.791 61.7755 22.2598C61.9448 22.7285 62.0295 23.2949 62.0295 23.959V31H60.2228V24.0469C60.2228 23.4935 60.1284 23.0508 59.9396 22.7188C59.7573 22.3867 59.4969 22.1458 59.1584 21.9961C58.8198 21.8398 58.4227 21.7617 57.967 21.7617C57.4331 21.7617 56.9871 21.8561 56.6291 22.0449C56.271 22.2337 55.9845 22.4941 55.7697 22.8262C55.5548 23.1582 55.3986 23.5391 55.3009 23.9688C55.2098 24.3919 55.1642 24.8411 55.1642 25.3164ZM62.0099 24.3203L60.799 24.6914C60.8055 24.112 60.8999 23.5553 61.0822 23.0215C61.271 22.4876 61.5412 22.0124 61.8927 21.5957C62.2508 21.179 62.6903 20.8503 63.2111 20.6094C63.7319 20.362 64.3276 20.2383 64.9982 20.2383C65.5646 20.2383 66.0659 20.3132 66.5021 20.4629C66.9448 20.6126 67.3159 20.8438 67.6154 21.1562C67.9214 21.4622 68.1525 21.8561 68.3088 22.3379C68.465 22.8197 68.5431 23.3926 68.5431 24.0566V31H66.7267V24.0371C66.7267 23.4447 66.6323 22.9857 66.4435 22.6602C66.2612 22.3281 66.0008 22.097 65.6623 21.9668C65.3302 21.8301 64.9331 21.7617 64.4709 21.7617C64.0737 21.7617 63.7222 21.8301 63.4162 21.9668C63.1102 22.1035 62.853 22.2923 62.6447 22.5332C62.4364 22.7676 62.2768 23.0378 62.1662 23.3438C62.062 23.6497 62.0099 23.9753 62.0099 24.3203ZM77.228 29.1934V23.7539C77.228 23.3372 77.1433 22.9759 76.9741 22.6699C76.8113 22.3574 76.5639 22.1165 76.2319 21.9473C75.8998 21.778 75.4897 21.6934 75.0014 21.6934C74.5457 21.6934 74.1453 21.7715 73.8002 21.9277C73.4617 22.084 73.1948 22.2891 72.9995 22.543C72.8107 22.7969 72.7163 23.0703 72.7163 23.3633H70.9096C70.9096 22.9857 71.0073 22.6113 71.2026 22.2402C71.3979 21.8691 71.6778 21.5339 72.0424 21.2344C72.4135 20.9284 72.8562 20.6875 73.3705 20.5117C73.8914 20.3294 74.4708 20.2383 75.1088 20.2383C75.8771 20.2383 76.5541 20.3685 77.1401 20.6289C77.7325 20.8893 78.1948 21.2832 78.5268 21.8105C78.8653 22.3314 79.0346 22.9857 79.0346 23.7734V28.6953C79.0346 29.0469 79.0639 29.4212 79.1225 29.8184C79.1876 30.2155 79.282 30.5573 79.4057 30.8438V31H77.5209C77.4298 30.7917 77.3582 30.515 77.3061 30.1699C77.254 29.8184 77.228 29.4928 77.228 29.1934ZM77.5405 24.5938L77.56 25.8633H75.7338C75.2195 25.8633 74.7605 25.9056 74.3569 25.9902C73.9532 26.0684 73.6147 26.1888 73.3413 26.3516C73.0678 26.5143 72.8595 26.7194 72.7163 26.9668C72.573 27.2077 72.5014 27.4909 72.5014 27.8164C72.5014 28.1484 72.5763 28.4512 72.726 28.7246C72.8758 28.998 73.1004 29.2161 73.3998 29.3789C73.7058 29.5352 74.0802 29.6133 74.5229 29.6133C75.0763 29.6133 75.5646 29.4961 75.9877 29.2617C76.4109 29.0273 76.7462 28.7409 76.9936 28.4023C77.2475 28.0638 77.3842 27.735 77.4038 27.416L78.1752 28.2852C78.1297 28.5586 78.006 28.8613 77.8041 29.1934C77.6023 29.5254 77.3321 29.8444 76.9936 30.1504C76.6616 30.4499 76.2644 30.7005 75.8022 30.9023C75.3465 31.0977 74.8321 31.1953 74.2592 31.1953C73.5431 31.1953 72.9148 31.0553 72.3745 30.7754C71.8406 30.4954 71.4239 30.1211 71.1245 29.6523C70.8315 29.1771 70.685 28.6465 70.685 28.0605C70.685 27.4941 70.7957 26.9961 71.017 26.5664C71.2384 26.1302 71.5574 25.7689 71.9741 25.4824C72.3907 25.1895 72.892 24.9681 73.478 24.8184C74.0639 24.6686 74.7182 24.5938 75.4409 24.5938H77.5405ZM92.9375 28.9492V16H94.7539V31H93.0938L92.9375 28.9492ZM85.8281 25.834V25.6289C85.8281 24.8216 85.9258 24.0892 86.1211 23.4316C86.3229 22.7676 86.6061 22.1979 86.9707 21.7227C87.3418 21.2474 87.7812 20.8828 88.2891 20.6289C88.8034 20.3685 89.3763 20.2383 90.0078 20.2383C90.6719 20.2383 91.2513 20.3555 91.7461 20.5898C92.2474 20.8177 92.6706 21.153 93.0156 21.5957C93.3672 22.0319 93.6439 22.5592 93.8457 23.1777C94.0475 23.7962 94.1875 24.4961 94.2656 25.2773V26.1758C94.194 26.9505 94.054 27.6471 93.8457 28.2656C93.6439 28.8841 93.3672 29.4115 93.0156 29.8477C92.6706 30.2839 92.2474 30.6191 91.7461 30.8535C91.2448 31.0814 90.6589 31.1953 89.9883 31.1953C89.3698 31.1953 88.8034 31.0618 88.2891 30.7949C87.7812 30.528 87.3418 30.1536 86.9707 29.6719C86.6061 29.1901 86.3229 28.6237 86.1211 27.9727C85.9258 27.3151 85.8281 26.6022 85.8281 25.834ZM87.6445 25.6289V25.834C87.6445 26.3613 87.6966 26.8561 87.8008 27.3184C87.9115 27.7806 88.0807 28.1875 88.3086 28.5391C88.5365 28.8906 88.8262 29.1673 89.1777 29.3691C89.5293 29.5645 89.9492 29.6621 90.4375 29.6621C91.0365 29.6621 91.528 29.5352 91.9121 29.2812C92.3027 29.0273 92.6152 28.6921 92.8496 28.2754C93.084 27.8587 93.2663 27.4062 93.3965 26.918V24.5645C93.3184 24.2064 93.2044 23.8613 93.0547 23.5293C92.9115 23.1908 92.7227 22.8913 92.4883 22.6309C92.2604 22.3639 91.9772 22.1523 91.6387 21.9961C91.3066 21.8398 90.9128 21.7617 90.457 21.7617C89.9622 21.7617 89.5358 21.8659 89.1777 22.0742C88.8262 22.276 88.5365 22.556 88.3086 22.9141C88.0807 23.2656 87.9115 23.6758 87.8008 24.1445C87.6966 24.6068 87.6445 25.1016 87.6445 25.6289ZM101.671 31.1953C100.935 31.1953 100.268 31.0716 99.6692 30.8242C99.0768 30.5703 98.5657 30.2155 98.136 29.7598C97.7128 29.304 97.3873 28.7637 97.1595 28.1387C96.9316 27.5137 96.8177 26.8301 96.8177 26.0879V25.6777C96.8177 24.8184 96.9446 24.0534 97.1985 23.3828C97.4524 22.7057 97.7975 22.1328 98.2337 21.6641C98.6699 21.1953 99.1647 20.8405 99.718 20.5996C100.271 20.3587 100.844 20.2383 101.437 20.2383C102.192 20.2383 102.843 20.3685 103.39 20.6289C103.943 20.8893 104.396 21.2539 104.747 21.7227C105.099 22.1849 105.359 22.7318 105.529 23.3633C105.698 23.9883 105.783 24.6719 105.783 25.4141V26.2246H97.8919V24.75H103.976V24.6133C103.95 24.1445 103.852 23.6888 103.683 23.2461C103.52 22.8034 103.26 22.4388 102.902 22.1523C102.544 21.8659 102.055 21.7227 101.437 21.7227C101.027 21.7227 100.649 21.8105 100.304 21.9863C99.9589 22.1556 99.6627 22.4095 99.4153 22.748C99.1679 23.0866 98.9759 23.5 98.8391 23.9883C98.7024 24.4766 98.6341 25.0397 98.6341 25.6777V26.0879C98.6341 26.5892 98.7024 27.0612 98.8391 27.5039C98.9824 27.9401 99.1874 28.3242 99.4544 28.6562C99.7278 28.9883 100.057 29.2487 100.441 29.4375C100.831 29.6263 101.274 29.7207 101.769 29.7207C102.407 29.7207 102.947 29.5905 103.39 29.3301C103.833 29.0697 104.22 28.7214 104.552 28.2852L105.646 29.1543C105.418 29.4993 105.128 29.8281 104.777 30.1406C104.425 30.4531 103.992 30.707 103.478 30.9023C102.97 31.0977 102.368 31.1953 101.671 31.1953ZM114.099 22.4648V35.0625H112.283V20.4336H113.943L114.099 22.4648ZM121.219 25.6289V25.834C121.219 26.6022 121.127 27.3151 120.945 27.9727C120.763 28.6237 120.496 29.1901 120.144 29.6719C119.799 30.1536 119.373 30.528 118.865 30.7949C118.357 31.0618 117.775 31.1953 117.117 31.1953C116.446 31.1953 115.854 31.0846 115.34 30.8633C114.825 30.6419 114.389 30.3197 114.031 29.8965C113.673 29.4733 113.387 28.9655 113.172 28.373C112.963 27.7806 112.82 27.1133 112.742 26.3711V25.2773C112.82 24.4961 112.967 23.7962 113.181 23.1777C113.396 22.5592 113.68 22.0319 114.031 21.5957C114.389 21.153 114.822 20.8177 115.33 20.5898C115.838 20.3555 116.424 20.2383 117.088 20.2383C117.752 20.2383 118.341 20.3685 118.855 20.6289C119.37 20.8828 119.803 21.2474 120.154 21.7227C120.506 22.1979 120.769 22.7676 120.945 23.4316C121.127 24.0892 121.219 24.8216 121.219 25.6289ZM119.402 25.834V25.6289C119.402 25.1016 119.347 24.6068 119.236 24.1445C119.125 23.6758 118.953 23.2656 118.719 22.9141C118.491 22.556 118.198 22.276 117.84 22.0742C117.482 21.8659 117.055 21.7617 116.56 21.7617C116.105 21.7617 115.708 21.8398 115.369 21.9961C115.037 22.1523 114.754 22.3639 114.519 22.6309C114.285 22.8913 114.093 23.1908 113.943 23.5293C113.8 23.8613 113.693 24.2064 113.621 24.5645V27.0938C113.751 27.5495 113.933 27.9792 114.168 28.3828C114.402 28.7799 114.715 29.1022 115.105 29.3496C115.496 29.5905 115.987 29.7109 116.58 29.7109C117.068 29.7109 117.488 29.61 117.84 29.4082C118.198 29.1999 118.491 28.9167 118.719 28.5586C118.953 28.2005 119.125 27.7904 119.236 27.3281C119.347 26.8594 119.402 26.3613 119.402 25.834ZM129.474 29.1934V23.7539C129.474 23.3372 129.389 22.9759 129.22 22.6699C129.057 22.3574 128.81 22.1165 128.478 21.9473C128.146 21.778 127.735 21.6934 127.247 21.6934C126.791 21.6934 126.391 21.7715 126.046 21.9277C125.707 22.084 125.441 22.2891 125.245 22.543C125.056 22.7969 124.962 23.0703 124.962 23.3633H123.155C123.155 22.9857 123.253 22.6113 123.448 22.2402C123.644 21.8691 123.924 21.5339 124.288 21.2344C124.659 20.9284 125.102 20.6875 125.616 20.5117C126.137 20.3294 126.717 20.2383 127.355 20.2383C128.123 20.2383 128.8 20.3685 129.386 20.6289C129.978 20.8893 130.441 21.2832 130.773 21.8105C131.111 22.3314 131.28 22.9857 131.28 23.7734V28.6953C131.28 29.0469 131.31 29.4212 131.368 29.8184C131.433 30.2155 131.528 30.5573 131.651 30.8438V31H129.767C129.676 30.7917 129.604 30.515 129.552 30.1699C129.5 29.8184 129.474 29.4928 129.474 29.1934ZM129.786 24.5938L129.806 25.8633H127.98C127.465 25.8633 127.006 25.9056 126.603 25.9902C126.199 26.0684 125.86 26.1888 125.587 26.3516C125.314 26.5143 125.105 26.7194 124.962 26.9668C124.819 27.2077 124.747 27.4909 124.747 27.8164C124.747 28.1484 124.822 28.4512 124.972 28.7246C125.122 28.998 125.346 29.2161 125.646 29.3789C125.952 29.5352 126.326 29.6133 126.769 29.6133C127.322 29.6133 127.81 29.4961 128.234 29.2617C128.657 29.0273 128.992 28.7409 129.239 28.4023C129.493 28.0638 129.63 27.735 129.65 27.416L130.421 28.2852C130.375 28.5586 130.252 28.8613 130.05 29.1934C129.848 29.5254 129.578 29.8444 129.239 30.1504C128.907 30.4499 128.51 30.7005 128.048 30.9023C127.592 31.0977 127.078 31.1953 126.505 31.1953C125.789 31.1953 125.161 31.0553 124.62 30.7754C124.086 30.4954 123.67 30.1211 123.37 29.6523C123.077 29.1771 122.931 28.6465 122.931 28.0605C122.931 27.4941 123.041 26.9961 123.263 26.5664C123.484 26.1302 123.803 25.7689 124.22 25.4824C124.637 25.1895 125.138 24.9681 125.724 24.8184C126.31 24.6686 126.964 24.5938 127.687 24.5938H129.786ZM140.688 20.4336H142.329V30.7754C142.329 31.7064 142.14 32.5007 141.762 33.1582C141.385 33.8158 140.857 34.3138 140.18 34.6523C139.51 34.9974 138.735 35.1699 137.856 35.1699C137.491 35.1699 137.062 35.1113 136.567 34.9941C136.079 34.8835 135.597 34.6914 135.121 34.418C134.653 34.151 134.259 33.7897 133.94 33.334L134.887 32.2598C135.33 32.7936 135.792 33.1647 136.274 33.373C136.762 33.5814 137.244 33.6855 137.719 33.6855C138.292 33.6855 138.787 33.5781 139.204 33.3633C139.62 33.1484 139.942 32.8294 140.17 32.4062C140.405 31.9896 140.522 31.4753 140.522 30.8633V22.7578L140.688 20.4336ZM133.412 25.834V25.6289C133.412 24.8216 133.507 24.0892 133.696 23.4316C133.891 22.7676 134.168 22.1979 134.526 21.7227C134.89 21.2474 135.33 20.8828 135.844 20.6289C136.358 20.3685 136.938 20.2383 137.582 20.2383C138.246 20.2383 138.826 20.3555 139.321 20.5898C139.822 20.8177 140.245 21.153 140.59 21.5957C140.942 22.0319 141.218 22.5592 141.42 23.1777C141.622 23.7962 141.762 24.4961 141.84 25.2773V26.1758C141.769 26.9505 141.629 27.6471 141.42 28.2656C141.218 28.8841 140.942 29.4115 140.59 29.8477C140.245 30.2839 139.822 30.6191 139.321 30.8535C138.819 31.0814 138.233 31.1953 137.563 31.1953C136.931 31.1953 136.358 31.0618 135.844 30.7949C135.336 30.528 134.9 30.1536 134.536 29.6719C134.171 29.1901 133.891 28.6237 133.696 27.9727C133.507 27.3151 133.412 26.6022 133.412 25.834ZM135.219 25.6289V25.834C135.219 26.3613 135.271 26.8561 135.375 27.3184C135.486 27.7806 135.652 28.1875 135.873 28.5391C136.101 28.8906 136.391 29.1673 136.743 29.3691C137.094 29.5645 137.514 29.6621 138.002 29.6621C138.601 29.6621 139.096 29.5352 139.487 29.2812C139.877 29.0273 140.187 28.6921 140.414 28.2754C140.649 27.8587 140.831 27.4062 140.961 26.918V24.5645C140.89 24.2064 140.779 23.8613 140.629 23.5293C140.486 23.1908 140.297 22.8913 140.063 22.6309C139.835 22.3639 139.552 22.1523 139.213 21.9961C138.875 21.8398 138.478 21.7617 138.022 21.7617C137.527 21.7617 137.101 21.8659 136.743 22.0742C136.391 22.276 136.101 22.556 135.873 22.9141C135.652 23.2656 135.486 23.6758 135.375 24.1445C135.271 24.6068 135.219 25.1016 135.219 25.6289ZM144.314 25.834V25.6094C144.314 24.8477 144.425 24.1413 144.646 23.4902C144.868 22.8327 145.187 22.263 145.603 21.7812C146.02 21.293 146.524 20.9154 147.117 20.6484C147.709 20.375 148.373 20.2383 149.109 20.2383C149.851 20.2383 150.519 20.375 151.111 20.6484C151.71 20.9154 152.218 21.293 152.634 21.7812C153.058 22.263 153.38 22.8327 153.601 23.4902C153.823 24.1413 153.933 24.8477 153.933 25.6094V25.834C153.933 26.5957 153.823 27.3021 153.601 27.9531C153.38 28.6042 153.058 29.1738 152.634 29.6621C152.218 30.1439 151.713 30.5215 151.121 30.7949C150.535 31.0618 149.871 31.1953 149.129 31.1953C148.386 31.1953 147.719 31.0618 147.127 30.7949C146.534 30.5215 146.026 30.1439 145.603 29.6621C145.187 29.1738 144.868 28.6042 144.646 27.9531C144.425 27.3021 144.314 26.5957 144.314 25.834ZM146.121 25.6094V25.834C146.121 26.3613 146.183 26.8594 146.306 27.3281C146.43 27.7904 146.616 28.2005 146.863 28.5586C147.117 28.9167 147.433 29.1999 147.81 29.4082C148.188 29.61 148.627 29.7109 149.129 29.7109C149.623 29.7109 150.056 29.61 150.427 29.4082C150.805 29.1999 151.118 28.9167 151.365 28.5586C151.612 28.2005 151.798 27.7904 151.922 27.3281C152.052 26.8594 152.117 26.3613 152.117 25.834V25.6094C152.117 25.0885 152.052 24.597 151.922 24.1348C151.798 23.666 151.609 23.2526 151.355 22.8945C151.108 22.5299 150.795 22.2435 150.418 22.0352C150.047 21.8268 149.61 21.7227 149.109 21.7227C148.614 21.7227 148.178 21.8268 147.8 22.0352C147.429 22.2435 147.117 22.5299 146.863 22.8945C146.616 23.2526 146.43 23.666 146.306 24.1348C146.183 24.597 146.121 25.0885 146.121 25.6094Z" fill="black"/>
</svg>
