<svg width="62" height="12" viewBox="0 0 62 12" fill="none" xmlns="http://www.w3.org/2000/svg">
<path d="M10.1953 0.0078125L8.22656 11.3828H7.3125L2.64062 1.625L0.945312 11.3828H0L1.96094 0.0078125H2.875L7.5625 9.76562L9.25781 0.0078125H10.1953ZM16.6484 0.734375L11.0078 11.3828H9.99219L16.125 0.015625H16.8359L16.6484 0.734375ZM18.2891 11.3828L16.2969 0.648438L16.3594 0.0078125H17.0234L19.2344 11.3828H18.2891ZM18.2891 7.36719L18.1484 8.19531H12.2812L12.4141 7.36719H18.2891ZM23.9375 9.92969L28.9531 0.015625H30.0078L24.1328 11.3828H23.3438L23.9375 9.92969ZM21.8906 0L23.8125 10.0156L23.9688 11.3828H23.2266L20.8984 0H21.8906ZM38.4375 5.91406H35.2656L35.3828 5.10156H38.0078C38.487 5.10156 38.9375 5.02604 39.3594 4.875C39.7865 4.72396 40.1458 4.48958 40.4375 4.17188C40.7344 3.84896 40.9219 3.43229 41 2.92188C41.0833 2.41146 41.0286 2.00521 40.8359 1.70312C40.6484 1.40104 40.3698 1.1849 40 1.05469C39.6354 0.919271 39.2266 0.846354 38.7734 0.835938H36.3984L34.5703 11.3828H33.625L35.5938 0.0078125H38.7891C39.2526 0.0182292 39.6901 0.0807292 40.1016 0.195312C40.513 0.304688 40.8672 0.476562 41.1641 0.710938C41.4609 0.945312 41.6823 1.2474 41.8281 1.61719C41.974 1.98177 42.0156 2.42448 41.9531 2.94531C41.8906 3.47656 41.724 3.92448 41.4531 4.28906C41.1823 4.64844 40.8385 4.9375 40.4219 5.15625C40.0104 5.36979 39.5625 5.52344 39.0781 5.61719L38.4375 5.91406ZM37.4219 11.3828H33.9922L34.6094 10.5625H37.4375C37.9479 10.5573 38.4193 10.4635 38.8516 10.2812C39.2839 10.099 39.6458 9.83073 39.9375 9.47656C40.2344 9.11719 40.4245 8.67969 40.5078 8.16406C40.5807 7.6901 40.5365 7.28906 40.375 6.96094C40.2135 6.6276 39.9635 6.375 39.625 6.20312C39.2865 6.02604 38.8906 5.92969 38.4375 5.91406H36.4453L36.5938 5.10156H39.2812L39.3984 5.39844C39.8568 5.47135 40.2474 5.63802 40.5703 5.89844C40.8984 6.15885 41.138 6.48438 41.2891 6.875C41.4401 7.26042 41.4896 7.6849 41.4375 8.14844C41.3594 8.85156 41.1276 9.44271 40.7422 9.92188C40.362 10.401 39.8802 10.7656 39.2969 11.0156C38.7188 11.2604 38.0938 11.3828 37.4219 11.3828ZM48.6172 0.734375L42.9766 11.3828H41.9609L48.0938 0.015625H48.8047L48.6172 0.734375ZM50.2578 11.3828L48.2656 0.648438L48.3281 0.0078125H48.9922L51.2031 11.3828H50.2578ZM50.2578 7.36719L50.1172 8.19531H44.25L44.3828 7.36719H50.2578ZM54.7969 0.0078125H58.3203C58.9922 0.0234375 59.5859 0.158854 60.1016 0.414062C60.6224 0.669271 61.0156 1.03906 61.2812 1.52344C61.5521 2.00781 61.6432 2.60677 61.5547 3.32031C61.4818 3.89844 61.3021 4.39844 61.0156 4.82031C60.7292 5.23698 60.3672 5.58594 59.9297 5.86719C59.4974 6.14323 59.0182 6.35938 58.4922 6.51562L58.1484 6.64062H54.25L54.375 5.82031L57.5234 5.82812C58.0286 5.82292 58.5 5.71875 58.9375 5.51562C59.375 5.3125 59.7422 5.02604 60.0391 4.65625C60.3359 4.28125 60.526 3.83594 60.6094 3.32031C60.6927 2.78906 60.6432 2.34115 60.4609 1.97656C60.2839 1.61198 60.0052 1.33333 59.625 1.14062C59.25 0.947917 58.8099 0.846354 58.3047 0.835938H55.5938L53.7656 11.3828H52.8281L54.7969 0.0078125ZM59.6641 11.3828L57.6797 6.29688L58.6328 6.28125L60.6641 11.2734L60.6562 11.3828H59.6641Z" fill="black"/>
</svg>
