<svg width="139" height="27" viewBox="0 0 139 27" fill="none" xmlns="http://www.w3.org/2000/svg">
<path d="M7.3418 13.1934H2.02344V11.0469H7.3418C8.37174 11.0469 9.20573 10.8828 9.84375 10.5547C10.4818 10.2266 10.9466 9.77083 11.2383 9.1875C11.5391 8.60417 11.6895 7.9388 11.6895 7.19141C11.6895 6.50781 11.5391 5.86523 11.2383 5.26367C10.9466 4.66211 10.4818 4.17904 9.84375 3.81445C9.20573 3.44076 8.37174 3.25391 7.3418 3.25391H2.63867V21H0V1.09375H7.3418C8.8457 1.09375 10.1172 1.35352 11.1562 1.87305C12.1953 2.39258 12.9837 3.11263 13.5215 4.0332C14.0592 4.94466 14.3281 5.98828 14.3281 7.16406C14.3281 8.4401 14.0592 9.5293 13.5215 10.4316C12.9837 11.334 12.1953 12.0221 11.1562 12.4961C10.1172 12.9609 8.8457 13.1934 7.3418 13.1934ZM23.2559 21.2734C22.2259 21.2734 21.2917 21.1003 20.4531 20.7539C19.6237 20.3984 18.9082 19.9017 18.3066 19.2637C17.7142 18.6257 17.2585 17.8691 16.9395 16.9941C16.6204 16.1191 16.4609 15.1621 16.4609 14.123V13.5488C16.4609 12.3457 16.6387 11.2747 16.9941 10.3359C17.3496 9.38802 17.8327 8.58594 18.4434 7.92969C19.054 7.27344 19.7467 6.77669 20.5215 6.43945C21.2962 6.10221 22.0983 5.93359 22.9277 5.93359C23.985 5.93359 24.8965 6.11589 25.6621 6.48047C26.4368 6.84505 27.0703 7.35547 27.5625 8.01172C28.0547 8.65885 28.4193 9.42448 28.6562 10.3086C28.8932 11.1836 29.0117 12.1406 29.0117 13.1797V14.3145H17.9648V12.25H26.4824V12.0586C26.446 11.4023 26.3092 10.7643 26.0723 10.1445C25.8444 9.52474 25.4798 9.01432 24.9785 8.61328C24.4772 8.21224 23.7936 8.01172 22.9277 8.01172C22.3535 8.01172 21.8249 8.13477 21.3418 8.38086C20.8587 8.61784 20.444 8.97331 20.0977 9.44727C19.7513 9.92122 19.4824 10.5 19.291 11.1836C19.0996 11.8672 19.0039 12.6556 19.0039 13.5488V14.123C19.0039 14.8249 19.0996 15.4857 19.291 16.1055C19.4915 16.7161 19.7786 17.2539 20.1523 17.7188C20.5352 18.1836 20.9954 18.5482 21.5332 18.8125C22.0801 19.0768 22.6999 19.209 23.3926 19.209C24.2858 19.209 25.0423 19.0267 25.6621 18.6621C26.2819 18.2975 26.8242 17.8099 27.2891 17.1992L28.8203 18.416C28.5013 18.8991 28.0957 19.3594 27.6035 19.7969C27.1113 20.2344 26.5052 20.5898 25.7852 20.8633C25.0742 21.1367 24.2311 21.2734 23.2559 21.2734ZM34.4941 8.53125V21H31.9648V6.20703H34.4258L34.4941 8.53125ZM39.1152 6.125L39.1016 8.47656C38.8919 8.43099 38.6914 8.40365 38.5 8.39453C38.3177 8.3763 38.1081 8.36719 37.8711 8.36719C37.2878 8.36719 36.7728 8.45833 36.3262 8.64062C35.8796 8.82292 35.5013 9.07812 35.1914 9.40625C34.8815 9.73438 34.6354 10.1263 34.4531 10.582C34.2799 11.0286 34.166 11.5208 34.1113 12.0586L33.4004 12.4688C33.4004 11.5755 33.487 10.737 33.6602 9.95312C33.8424 9.16927 34.1204 8.47656 34.4941 7.875C34.8678 7.26432 35.3418 6.79036 35.916 6.45312C36.4993 6.10677 37.1921 5.93359 37.9941 5.93359C38.1764 5.93359 38.3861 5.95638 38.623 6.00195C38.86 6.03841 39.0241 6.07943 39.1152 6.125ZM50.5312 18.1289V0H53.0742V21H50.75L50.5312 18.1289ZM40.5781 13.7676V13.4805C40.5781 12.3503 40.7148 11.3249 40.9883 10.4043C41.2708 9.47461 41.6673 8.67708 42.1777 8.01172C42.6973 7.34635 43.3125 6.83594 44.0234 6.48047C44.7435 6.11589 45.5456 5.93359 46.4297 5.93359C47.3594 5.93359 48.1706 6.09766 48.8633 6.42578C49.5651 6.74479 50.1576 7.21419 50.6406 7.83398C51.1328 8.44466 51.5202 9.18294 51.8027 10.0488C52.0853 10.9147 52.2812 11.8945 52.3906 12.9883V14.2461C52.2904 15.3307 52.0944 16.306 51.8027 17.1719C51.5202 18.0378 51.1328 18.776 50.6406 19.3867C50.1576 19.9974 49.5651 20.4668 48.8633 20.7949C48.1615 21.1139 47.3411 21.2734 46.4023 21.2734C45.5365 21.2734 44.7435 21.0866 44.0234 20.7129C43.3125 20.3392 42.6973 19.8151 42.1777 19.1406C41.6673 18.4661 41.2708 17.6732 40.9883 16.7617C40.7148 15.8411 40.5781 14.8431 40.5781 13.7676ZM43.1211 13.4805V13.7676C43.1211 14.5059 43.194 15.1986 43.3398 15.8457C43.4948 16.4928 43.7318 17.0625 44.0508 17.5547C44.3698 18.0469 44.7754 18.4342 45.2676 18.7168C45.7598 18.9902 46.3477 19.127 47.0312 19.127C47.8698 19.127 48.5579 18.9492 49.0957 18.5938C49.6426 18.2383 50.0801 17.7689 50.4082 17.1855C50.7363 16.6022 50.9915 15.9688 51.1738 15.2852V11.9902C51.0645 11.4889 50.9049 11.0059 50.6953 10.541C50.4948 10.0671 50.2305 9.64779 49.9023 9.2832C49.5833 8.90951 49.1868 8.61328 48.7129 8.39453C48.248 8.17578 47.6966 8.06641 47.0586 8.06641C46.3659 8.06641 45.7689 8.21224 45.2676 8.50391C44.7754 8.78646 44.3698 9.17839 44.0508 9.67969C43.7318 10.1719 43.4948 10.7461 43.3398 11.4023C43.194 12.0495 43.1211 12.7422 43.1211 13.4805ZM59.7598 6.20703V21H57.2168V6.20703H59.7598ZM57.0254 2.2832C57.0254 1.87305 57.1484 1.52669 57.3945 1.24414C57.6497 0.961589 58.0234 0.820312 58.5156 0.820312C58.9987 0.820312 59.3678 0.961589 59.623 1.24414C59.8874 1.52669 60.0195 1.87305 60.0195 2.2832C60.0195 2.67513 59.8874 3.01237 59.623 3.29492C59.3678 3.56836 58.9987 3.70508 58.5156 3.70508C58.0234 3.70508 57.6497 3.56836 57.3945 3.29492C57.1484 3.01237 57.0254 2.67513 57.0254 2.2832ZM63.1504 13.7676V13.4531C63.1504 12.3867 63.3053 11.3978 63.6152 10.4863C63.9251 9.56576 64.3717 8.76823 64.9551 8.09375C65.5384 7.41016 66.2448 6.88151 67.0742 6.50781C67.9036 6.125 68.8333 5.93359 69.8633 5.93359C70.9023 5.93359 71.8366 6.125 72.666 6.50781C73.5046 6.88151 74.2155 7.41016 74.7988 8.09375C75.3913 8.76823 75.8424 9.56576 76.1523 10.4863C76.4622 11.3978 76.6172 12.3867 76.6172 13.4531V13.7676C76.6172 14.834 76.4622 15.8229 76.1523 16.7344C75.8424 17.6458 75.3913 18.4434 74.7988 19.127C74.2155 19.8014 73.5091 20.3301 72.6797 20.7129C71.8594 21.0866 70.9297 21.2734 69.8906 21.2734C68.8516 21.2734 67.9173 21.0866 67.0879 20.7129C66.2585 20.3301 65.5475 19.8014 64.9551 19.127C64.3717 18.4434 63.9251 17.6458 63.6152 16.7344C63.3053 15.8229 63.1504 14.834 63.1504 13.7676ZM65.6797 13.4531V13.7676C65.6797 14.5059 65.7663 15.2031 65.9395 15.8594C66.1126 16.5065 66.3724 17.0807 66.7188 17.582C67.0742 18.0833 67.5163 18.4798 68.0449 18.7715C68.5736 19.054 69.1888 19.1953 69.8906 19.1953C70.5833 19.1953 71.1895 19.054 71.709 18.7715C72.2376 18.4798 72.6751 18.0833 73.0215 17.582C73.3678 17.0807 73.6276 16.5065 73.8008 15.8594C73.9831 15.2031 74.0742 14.5059 74.0742 13.7676V13.4531C74.0742 12.724 73.9831 12.0358 73.8008 11.3887C73.6276 10.7324 73.3633 10.1536 73.0078 9.65234C72.6615 9.14193 72.224 8.74089 71.6953 8.44922C71.1758 8.15755 70.5651 8.01172 69.8633 8.01172C69.1706 8.01172 68.5599 8.15755 68.0312 8.44922C67.5117 8.74089 67.0742 9.14193 66.7188 9.65234C66.3724 10.1536 66.1126 10.7324 65.9395 11.3887C65.7663 12.0358 65.6797 12.724 65.6797 13.4531ZM94.459 13.1934H89.1406V11.0469H94.459C95.4889 11.0469 96.3229 10.8828 96.9609 10.5547C97.599 10.2266 98.0638 9.77083 98.3555 9.1875C98.6562 8.60417 98.8066 7.9388 98.8066 7.19141C98.8066 6.50781 98.6562 5.86523 98.3555 5.26367C98.0638 4.66211 97.599 4.17904 96.9609 3.81445C96.3229 3.44076 95.4889 3.25391 94.459 3.25391H89.7559V21H87.1172V1.09375H94.459C95.9629 1.09375 97.2344 1.35352 98.2734 1.87305C99.3125 2.39258 100.101 3.11263 100.639 4.0332C101.176 4.94466 101.445 5.98828 101.445 7.16406C101.445 8.4401 101.176 9.5293 100.639 10.4316C100.101 11.334 99.3125 12.0221 98.2734 12.4961C97.2344 12.9609 95.9629 13.1934 94.459 13.1934ZM113.449 17.582V6.20703H115.992V21H113.572L113.449 17.582ZM113.928 14.4648L114.98 14.4375C114.98 15.4219 114.876 16.3333 114.666 17.1719C114.465 18.0013 114.137 18.7214 113.682 19.332C113.226 19.9427 112.629 20.4212 111.891 20.7676C111.152 21.1048 110.255 21.2734 109.197 21.2734C108.477 21.2734 107.816 21.1686 107.215 20.959C106.622 20.7493 106.112 20.4258 105.684 19.9883C105.255 19.5508 104.923 18.9811 104.686 18.2793C104.458 17.5775 104.344 16.7344 104.344 15.75V6.20703H106.873V15.7773C106.873 16.4427 106.946 16.9941 107.092 17.4316C107.247 17.86 107.452 18.2018 107.707 18.457C107.971 18.7031 108.263 18.8763 108.582 18.9766C108.91 19.0768 109.247 19.127 109.594 19.127C110.669 19.127 111.521 18.9219 112.15 18.5117C112.779 18.0924 113.23 17.5319 113.504 16.8301C113.786 16.1191 113.928 15.3307 113.928 14.4648ZM119.916 6.20703H122.459V22.7637C122.459 23.666 122.313 24.4316 122.021 25.0605C121.739 25.6895 121.311 26.1634 120.736 26.4824C120.171 26.8105 119.456 26.9746 118.59 26.9746C118.362 26.9746 118.098 26.9518 117.797 26.9062C117.487 26.8607 117.227 26.806 117.018 26.7422L117.031 24.7051C117.204 24.7415 117.4 24.7689 117.619 24.7871C117.838 24.8145 118.029 24.8281 118.193 24.8281C118.567 24.8281 118.882 24.7598 119.137 24.623C119.392 24.4863 119.583 24.2676 119.711 23.9668C119.848 23.666 119.916 23.265 119.916 22.7637V6.20703ZM119.656 2.2832C119.656 1.87305 119.784 1.52669 120.039 1.24414C120.294 0.961589 120.663 0.820312 121.146 0.820312C121.639 0.820312 122.012 0.961589 122.268 1.24414C122.523 1.52669 122.65 1.87305 122.65 2.2832C122.65 2.67513 122.523 3.01237 122.268 3.29492C122.012 3.56836 121.639 3.70508 121.146 3.70508C120.663 3.70508 120.294 3.56836 120.039 3.29492C119.784 3.01237 119.656 2.67513 119.656 2.2832ZM135.27 18.4707V10.8555C135.27 10.2721 135.151 9.76628 134.914 9.33789C134.686 8.90039 134.34 8.56315 133.875 8.32617C133.41 8.08919 132.836 7.9707 132.152 7.9707C131.514 7.9707 130.954 8.08008 130.471 8.29883C129.997 8.51758 129.623 8.80469 129.35 9.16016C129.085 9.51562 128.953 9.89844 128.953 10.3086H126.424C126.424 9.77995 126.561 9.25586 126.834 8.73633C127.107 8.2168 127.499 7.7474 128.01 7.32812C128.529 6.89974 129.149 6.5625 129.869 6.31641C130.598 6.0612 131.41 5.93359 132.303 5.93359C133.378 5.93359 134.326 6.11589 135.146 6.48047C135.976 6.84505 136.623 7.39648 137.088 8.13477C137.562 8.86393 137.799 9.77995 137.799 10.8828V17.7734C137.799 18.2656 137.84 18.7897 137.922 19.3457C138.013 19.9017 138.145 20.3802 138.318 20.7812V21H135.68C135.552 20.7083 135.452 20.321 135.379 19.8379C135.306 19.3457 135.27 18.89 135.27 18.4707ZM135.707 12.0312L135.734 13.8086H133.178C132.458 13.8086 131.815 13.8678 131.25 13.9863C130.685 14.0957 130.211 14.2643 129.828 14.4922C129.445 14.7201 129.154 15.0072 128.953 15.3535C128.753 15.6908 128.652 16.0872 128.652 16.543C128.652 17.0078 128.757 17.4316 128.967 17.8145C129.176 18.1973 129.491 18.5026 129.91 18.7305C130.339 18.9492 130.863 19.0586 131.482 19.0586C132.257 19.0586 132.941 18.8945 133.533 18.5664C134.126 18.2383 134.595 17.8372 134.941 17.3633C135.297 16.8893 135.488 16.429 135.516 15.9824L136.596 17.1992C136.532 17.582 136.359 18.0059 136.076 18.4707C135.794 18.9355 135.415 19.3822 134.941 19.8105C134.477 20.2298 133.921 20.5807 133.273 20.8633C132.635 21.1367 131.915 21.2734 131.113 21.2734C130.111 21.2734 129.231 21.0775 128.475 20.6855C127.727 20.2936 127.144 19.7695 126.725 19.1133C126.314 18.4479 126.109 17.7051 126.109 16.8848C126.109 16.0918 126.264 15.3945 126.574 14.793C126.884 14.1823 127.331 13.6764 127.914 13.2754C128.497 12.8652 129.199 12.5553 130.02 12.3457C130.84 12.1361 131.756 12.0312 132.768 12.0312H135.707Z" fill="black"/>
</svg>
