<svg width="375" height="812" viewBox="0 0 375 812" fill="none" xmlns="http://www.w3.org/2000/svg">
<rect x="1" y="1" width="373" height="810" rx="49" fill="#ECF0F3"/>
<rect x="1" y="1" width="373" height="810" rx="49" stroke="black" stroke-width="2"/>
<rect x="41" y="262" width="293" height="148" rx="9" stroke="black" stroke-width="2"/>
<rect x="71" y="282" width="225" height="3" fill="#9CABC2"/>
<rect x="71" y="297" width="175" height="3" fill="#9CABC2"/>
<rect x="71" y="312" width="225" height="3" fill="#9CABC2"/>
<rect x="71" y="327" width="175" height="3" fill="#9CABC2"/>
<rect x="71" y="342" width="225" height="3" fill="#9CABC2"/>
<rect x="71" y="357" width="175" height="3" fill="#9CABC2"/>
<rect x="71" y="372" width="225" height="3" fill="#9CABC2"/>
<rect x="71" y="387" width="175" height="3" fill="#9CABC2"/>
<circle cx="317.5" cy="192.5" r="12" fill="black" stroke="black"/>
<rect x="281" y="181" width="48" height="23" rx="11.5" stroke="black" stroke-width="2"/>
<rect opacity="0.5" x="45" y="180" width="135" height="5" fill="black"/>
<rect opacity="0.5" x="45" y="195" width="105" height="5" fill="black"/>
<rect opacity="0.5" x="45" y="80" width="195" height="5" fill="black"/>
<rect opacity="0.5" x="45" y="95" width="152" height="5" fill="black"/>
<circle cx="307.5" cy="92.5" r="21.5" fill="black" stroke="black" stroke-width="2"/>
<rect x="50" y="623" width="253" height="58" rx="29" stroke="black" stroke-width="2"/>
</svg>
