<svg width="375" height="812" viewBox="0 0 375 812" fill="none" xmlns="http://www.w3.org/2000/svg">
<rect x="1" y="1" width="373" height="810" rx="49" fill="#ECF0F3"/>
<rect x="1" y="1" width="373" height="810" rx="49" stroke="black" stroke-width="2"/>
<path d="M247.5 590C259.926 590 270 600.074 270 612.5C270 624.926 259.926 635 247.5 635C235.074 635 225 624.926 225 612.5C225 600.074 235.074 590 247.5 590ZM247.5 592C236.178 592 227 601.178 227 612.5C227 623.822 236.178 633 247.5 633C258.822 633 268 623.822 268 612.5C268 601.178 258.822 592 247.5 592ZM253.778 607.394C254.169 607.003 254.802 607.003 255.192 607.394C255.583 607.784 255.583 608.417 255.192 608.808L246.926 617.073C246.966 617.372 246.872 617.686 246.643 617.915C246.252 618.305 245.619 618.305 245.229 617.915L240.897 613.584C240.507 613.194 240.507 612.56 240.897 612.17C241.288 611.779 241.921 611.779 242.312 612.17L245.656 615.515L253.778 607.394Z" fill="black"/>
<path d="M127.5 590C139.926 590 150 600.074 150 612.5C150 624.926 139.926 635 127.5 635C115.074 635 105 624.926 105 612.5C105 600.074 115.074 590 127.5 590ZM127.5 592C116.178 592 107 601.178 107 612.5C107 623.822 116.178 633 127.5 633C138.822 633 148 623.822 148 612.5C148 601.178 138.822 592 127.5 592ZM131.485 607.687C131.876 607.296 132.509 607.296 132.899 607.687C133.29 608.077 133.29 608.71 132.899 609.101L128.914 613.086L132.707 616.879C133.097 617.269 133.098 617.902 132.707 618.293C132.317 618.683 131.683 618.683 131.293 618.293L127.5 614.5L123.707 618.293C123.317 618.683 122.683 618.683 122.293 618.293C121.902 617.902 121.903 617.269 122.293 616.879L126.086 613.086L122.101 609.101C121.71 608.71 121.71 608.077 122.101 607.687C122.491 607.296 123.124 607.296 123.515 607.687L127.5 611.672L131.485 607.687Z" fill="black"/>
</svg>
