<svg width="70" height="17" viewBox="0 0 70 17" fill="none" xmlns="http://www.w3.org/2000/svg">
<path d="M5.77344 11.0938L6.52344 6.72656C6.60677 6.2474 6.56771 5.84115 6.40625 5.50781C6.25 5.17448 6.0026 4.92188 5.66406 4.75C5.32552 4.57812 4.92188 4.49219 4.45312 4.49219C4.02083 4.49219 3.59375 4.57292 3.17188 4.73438C2.75521 4.89062 2.39062 5.1224 2.07812 5.42969C1.76562 5.73177 1.55729 6.10417 1.45312 6.54688L1.03125 6.53125C1.10938 6.14062 1.25781 5.79427 1.47656 5.49219C1.70052 5.1849 1.97135 4.92708 2.28906 4.71875C2.60677 4.51042 2.95052 4.35156 3.32031 4.24219C3.69531 4.1276 4.07292 4.07031 4.45312 4.07031C4.99479 4.07031 5.46875 4.17708 5.875 4.39062C6.28125 4.59896 6.58073 4.90365 6.77344 5.30469C6.97135 5.70052 7.02604 6.17969 6.9375 6.74219L6.21094 10.9766C6.16406 11.2422 6.1276 11.513 6.10156 11.7891C6.08073 12.0651 6.09375 12.3385 6.14062 12.6094L6.13281 12.6797H5.65625C5.63542 12.4141 5.63802 12.1484 5.66406 11.8828C5.6901 11.6172 5.72656 11.3542 5.77344 11.0938ZM6.49219 7.96094L6.45312 8.39062H4.34375C3.97917 8.39583 3.59375 8.4349 3.1875 8.50781C2.78125 8.57552 2.39062 8.69271 2.01562 8.85938C1.64062 9.02083 1.31771 9.24219 1.04688 9.52344C0.78125 9.79948 0.606771 10.1484 0.523438 10.5703C0.455729 10.9453 0.497396 11.2708 0.648438 11.5469C0.799479 11.8229 1.02083 12.0365 1.3125 12.1875C1.60417 12.3385 1.92448 12.4167 2.27344 12.4219C2.83073 12.4271 3.34635 12.3307 3.82031 12.1328C4.29948 11.9297 4.72917 11.651 5.10938 11.2969C5.48958 10.9375 5.8125 10.5208 6.07812 10.0469L6.21094 10.4531C6.02344 10.8177 5.79167 11.1484 5.51562 11.4453C5.23958 11.7422 4.92969 11.9948 4.58594 12.2031C4.24219 12.4062 3.875 12.5625 3.48438 12.6719C3.09896 12.7812 2.69792 12.8359 2.28125 12.8359C1.83333 12.8307 1.43229 12.737 1.07812 12.5547C0.723958 12.3672 0.455729 12.1016 0.273438 11.7578C0.0911458 11.4141 0.0364583 11.0078 0.109375 10.5391C0.1875 10.0547 0.369792 9.64844 0.65625 9.32031C0.942708 8.99219 1.28906 8.72917 1.69531 8.53125C2.10677 8.33333 2.54167 8.1901 3 8.10156C3.45833 8.01302 3.89583 7.96615 4.3125 7.96094H6.49219ZM15.2044 4.22656H15.6341L14.2044 12.5625C14.0898 13.1927 13.8736 13.776 13.5559 14.3125C13.2382 14.849 12.8242 15.2786 12.3137 15.6016C11.8033 15.9245 11.207 16.0859 10.5247 16.0859C10.1653 16.0859 9.83198 16.0286 9.52469 15.9141C9.2174 15.7995 8.93875 15.6354 8.68875 15.4219C8.43875 15.2083 8.2226 14.9505 8.04031 14.6484L8.36062 14.3828C8.60542 14.7786 8.90229 15.0911 9.25125 15.3203C9.60021 15.5547 10.0169 15.6719 10.5012 15.6719C11.1106 15.6719 11.6393 15.5286 12.0872 15.2422C12.5403 14.9609 12.9075 14.5833 13.1887 14.1094C13.47 13.6406 13.6627 13.125 13.7669 12.5625L14.8919 6.08594L15.2044 4.22656ZM8.60281 8.53125L8.62625 8.36719C8.71479 7.86719 8.85281 7.36458 9.04031 6.85938C9.23302 6.35417 9.48302 5.89062 9.79031 5.46875C10.0976 5.04688 10.47 4.70833 10.9075 4.45312C11.345 4.19792 11.8528 4.07031 12.4309 4.07031C12.8164 4.07031 13.1757 4.14062 13.5091 4.28125C13.8476 4.42188 14.1419 4.61979 14.3919 4.875C14.6419 5.125 14.8346 5.41927 14.97 5.75781C15.1054 6.09635 15.1653 6.46354 15.1497 6.85938L14.5637 10.3047C14.4648 10.6901 14.2929 11.0391 14.0481 11.3516C13.8033 11.6589 13.5143 11.9245 13.1809 12.1484C12.8528 12.3672 12.4986 12.5365 12.1184 12.6562C11.7382 12.776 11.358 12.8359 10.9778 12.8359C10.3945 12.8359 9.92573 12.7005 9.57156 12.4297C9.2226 12.1536 8.96479 11.7995 8.79812 11.3672C8.63667 10.9297 8.54552 10.4609 8.52469 9.96094C8.50385 9.46094 8.5299 8.98438 8.60281 8.53125ZM9.06375 8.36719L9.0325 8.53125C8.96479 8.92188 8.93094 9.34115 8.93094 9.78906C8.93094 10.237 8.99083 10.6589 9.11062 11.0547C9.23562 11.4505 9.44396 11.776 9.73562 12.0312C10.0325 12.2812 10.4414 12.4089 10.9622 12.4141C11.4361 12.4141 11.9023 12.3203 12.3606 12.1328C12.819 11.9453 13.22 11.6797 13.5637 11.3359C13.9127 10.987 14.1575 10.5781 14.2981 10.1094L14.8294 7.14062C14.8554 6.77083 14.8137 6.42708 14.7044 6.10938C14.6002 5.78646 14.4387 5.50521 14.22 5.26562C14.0065 5.02083 13.746 4.83073 13.4387 4.69531C13.1367 4.5599 12.8007 4.49219 12.4309 4.49219C11.9153 4.49219 11.4622 4.60938 11.0716 4.84375C10.6861 5.07812 10.358 5.38802 10.0872 5.77344C9.82156 6.15885 9.60281 6.57812 9.43094 7.03125C9.26427 7.48438 9.14187 7.92969 9.06375 8.36719ZM18.1353 5.69531L16.9322 12.6797H16.5103L17.9634 4.22656H18.3853L18.1353 5.69531ZM21.6509 4.16406L21.5494 4.52344C21.466 4.51302 21.3827 4.50521 21.2994 4.5C21.216 4.48958 21.1301 4.48438 21.0416 4.48438C20.5416 4.48438 20.0989 4.59375 19.7134 4.8125C19.328 5.02604 18.9947 5.3125 18.7134 5.67188C18.4374 6.03125 18.2082 6.42708 18.0259 6.85938C17.8489 7.28646 17.716 7.71354 17.6275 8.14062L17.3384 8.16406C17.4322 7.67969 17.5702 7.19531 17.7525 6.71094C17.94 6.22656 18.1822 5.78385 18.4791 5.38281C18.7811 4.98177 19.1431 4.66146 19.565 4.42188C19.9921 4.18229 20.4895 4.0651 21.0572 4.07031C21.1614 4.07031 21.2629 4.07812 21.3619 4.09375C21.4608 4.10938 21.5572 4.13281 21.6509 4.16406ZM24.3006 12.8359C23.7329 12.8359 23.2433 12.7135 22.8319 12.4688C22.4256 12.2188 22.0975 11.8906 21.8475 11.4844C21.6027 11.0729 21.436 10.6198 21.3475 10.125C21.2642 9.63021 21.2564 9.13281 21.3241 8.63281L21.3787 8.28906C21.4569 7.78385 21.6079 7.28385 21.8319 6.78906C22.0558 6.28906 22.3423 5.83594 22.6912 5.42969C23.0402 5.01823 23.4465 4.6901 23.91 4.44531C24.3735 4.19531 24.8866 4.07031 25.4491 4.07031C25.9543 4.07031 26.384 4.17448 26.7381 4.38281C27.0923 4.58594 27.3761 4.86198 27.5897 5.21094C27.8032 5.55469 27.9465 5.9401 28.0194 6.36719C28.0975 6.79427 28.1053 7.23177 28.0428 7.67969L27.9803 8.17188H21.6678L21.7225 7.75H27.5897L27.6131 7.64844C27.7017 7.14844 27.6808 6.65625 27.5506 6.17188C27.4204 5.6875 27.1808 5.28906 26.8319 4.97656C26.4829 4.65885 26.022 4.4974 25.4491 4.49219C24.9439 4.49219 24.4829 4.60417 24.0662 4.82812C23.6548 5.04688 23.2928 5.34375 22.9803 5.71875C22.673 6.08854 22.4178 6.4974 22.2147 6.94531C22.0168 7.39323 21.8787 7.84115 21.8006 8.28906L21.7459 8.63281C21.6782 9.07031 21.6782 9.51042 21.7459 9.95312C21.8136 10.3958 21.9517 10.8047 22.16 11.1797C22.3683 11.5495 22.6496 11.849 23.0037 12.0781C23.3579 12.3021 23.7876 12.4167 24.2928 12.4219C24.8189 12.4271 25.298 12.3281 25.7303 12.125C26.1626 11.9167 26.561 11.6302 26.9256 11.2656L27.2069 11.4844C26.9569 11.7708 26.6808 12.0156 26.3787 12.2188C26.0767 12.4219 25.7511 12.5755 25.4022 12.6797C25.0532 12.7839 24.686 12.8359 24.3006 12.8359ZM35.7394 4.22656H36.1691L34.7394 12.5625C34.6248 13.1927 34.4086 13.776 34.0909 14.3125C33.7732 14.849 33.3592 15.2786 32.8487 15.6016C32.3383 15.9245 31.742 16.0859 31.0597 16.0859C30.7003 16.0859 30.367 16.0286 30.0597 15.9141C29.7524 15.7995 29.4737 15.6354 29.2237 15.4219C28.9737 15.2083 28.7576 14.9505 28.5753 14.6484L28.8956 14.3828C29.1404 14.7786 29.4373 15.0911 29.7862 15.3203C30.1352 15.5547 30.5519 15.6719 31.0362 15.6719C31.6456 15.6719 32.1743 15.5286 32.6222 15.2422C33.0753 14.9609 33.4425 14.5833 33.7237 14.1094C34.005 13.6406 34.1977 13.125 34.3019 12.5625L35.4269 6.08594L35.7394 4.22656ZM29.1378 8.53125L29.1612 8.36719C29.2498 7.86719 29.3878 7.36458 29.5753 6.85938C29.768 6.35417 30.018 5.89062 30.3253 5.46875C30.6326 5.04688 31.005 4.70833 31.4425 4.45312C31.88 4.19792 32.3878 4.07031 32.9659 4.07031C33.3514 4.07031 33.7107 4.14062 34.0441 4.28125C34.3826 4.42188 34.6769 4.61979 34.9269 4.875C35.1769 5.125 35.3696 5.41927 35.505 5.75781C35.6404 6.09635 35.7003 6.46354 35.6847 6.85938L35.0987 10.3047C34.9998 10.6901 34.8279 11.0391 34.5831 11.3516C34.3383 11.6589 34.0493 11.9245 33.7159 12.1484C33.3878 12.3672 33.0336 12.5365 32.6534 12.6562C32.2732 12.776 31.893 12.8359 31.5128 12.8359C30.9295 12.8359 30.4607 12.7005 30.1066 12.4297C29.7576 12.1536 29.4998 11.7995 29.3331 11.3672C29.1717 10.9297 29.0805 10.4609 29.0597 9.96094C29.0389 9.46094 29.0649 8.98438 29.1378 8.53125ZM29.5987 8.36719L29.5675 8.53125C29.4998 8.92188 29.4659 9.34115 29.4659 9.78906C29.4659 10.237 29.5258 10.6589 29.6456 11.0547C29.7706 11.4505 29.979 11.776 30.2706 12.0312C30.5675 12.2812 30.9764 12.4089 31.4972 12.4141C31.9711 12.4141 32.4373 12.3203 32.8956 12.1328C33.354 11.9453 33.755 11.6797 34.0987 11.3359C34.4477 10.987 34.6925 10.5781 34.8331 10.1094L35.3644 7.14062C35.3904 6.77083 35.3487 6.42708 35.2394 6.10938C35.1352 5.78646 34.9737 5.50521 34.755 5.26562C34.5415 5.02083 34.281 4.83073 33.9737 4.69531C33.6717 4.5599 33.3357 4.49219 32.9659 4.49219C32.4503 4.49219 31.9972 4.60938 31.6066 4.84375C31.2211 5.07812 30.893 5.38802 30.6222 5.77344C30.3566 6.15885 30.1378 6.57812 29.9659 7.03125C29.7993 7.48438 29.6769 7.92969 29.5987 8.36719ZM42.4672 11.0938L43.2172 6.72656C43.3005 6.2474 43.2615 5.84115 43.1 5.50781C42.9437 5.17448 42.6964 4.92188 42.3578 4.75C42.0193 4.57812 41.6156 4.49219 41.1469 4.49219C40.7146 4.49219 40.2875 4.57292 39.8656 4.73438C39.449 4.89062 39.0844 5.1224 38.7719 5.42969C38.4594 5.73177 38.251 6.10417 38.1469 6.54688L37.725 6.53125C37.8031 6.14062 37.9516 5.79427 38.1703 5.49219C38.3943 5.1849 38.6651 4.92708 38.9828 4.71875C39.3005 4.51042 39.6443 4.35156 40.0141 4.24219C40.3891 4.1276 40.7667 4.07031 41.1469 4.07031C41.6885 4.07031 42.1625 4.17708 42.5687 4.39062C42.975 4.59896 43.2745 4.90365 43.4672 5.30469C43.6651 5.70052 43.7198 6.17969 43.6312 6.74219L42.9047 10.9766C42.8578 11.2422 42.8214 11.513 42.7953 11.7891C42.7745 12.0651 42.7875 12.3385 42.8344 12.6094L42.8266 12.6797H42.35C42.3292 12.4141 42.3318 12.1484 42.3578 11.8828C42.3839 11.6172 42.4203 11.3542 42.4672 11.0938ZM43.1859 7.96094L43.1469 8.39062H41.0375C40.6729 8.39583 40.2875 8.4349 39.8812 8.50781C39.475 8.57552 39.0844 8.69271 38.7094 8.85938C38.3344 9.02083 38.0115 9.24219 37.7406 9.52344C37.475 9.79948 37.3005 10.1484 37.2172 10.5703C37.1495 10.9453 37.1911 11.2708 37.3422 11.5469C37.4932 11.8229 37.7146 12.0365 38.0062 12.1875C38.2979 12.3385 38.6182 12.4167 38.9672 12.4219C39.5245 12.4271 40.0401 12.3307 40.5141 12.1328C40.9932 11.9297 41.4229 11.651 41.8031 11.2969C42.1833 10.9375 42.5062 10.5208 42.7719 10.0469L42.9047 10.4531C42.7172 10.8177 42.4854 11.1484 42.2094 11.4453C41.9333 11.7422 41.6234 11.9948 41.2797 12.2031C40.9359 12.4062 40.5687 12.5625 40.1781 12.6719C39.7927 12.7812 39.3917 12.8359 38.975 12.8359C38.5271 12.8307 38.126 12.737 37.7719 12.5547C37.4177 12.3672 37.1495 12.1016 36.9672 11.7578C36.7849 11.4141 36.7302 11.0078 36.8031 10.5391C36.8812 10.0547 37.0635 9.64844 37.35 9.32031C37.6365 8.99219 37.9828 8.72917 38.3891 8.53125C38.8005 8.33333 39.2354 8.1901 39.6937 8.10156C40.1521 8.01302 40.5896 7.96615 41.0062 7.96094H43.1859ZM46.5934 5.69531L45.3903 12.6797H44.9684L46.4216 4.22656H46.8434L46.5934 5.69531ZM50.1091 4.16406L50.0075 4.52344C49.9242 4.51302 49.8408 4.50521 49.7575 4.5C49.6742 4.48958 49.5882 4.48438 49.4997 4.48438C48.9997 4.48438 48.557 4.59375 48.1716 4.8125C47.7861 5.02604 47.4528 5.3125 47.1716 5.67188C46.8955 6.03125 46.6664 6.42708 46.4841 6.85938C46.307 7.28646 46.1742 7.71354 46.0856 8.14062L45.7966 8.16406C45.8903 7.67969 46.0283 7.19531 46.2106 6.71094C46.3981 6.22656 46.6403 5.78385 46.9372 5.38281C47.2393 4.98177 47.6012 4.66146 48.0231 4.42188C48.4502 4.18229 48.9476 4.0651 49.5153 4.07031C49.6195 4.07031 49.721 4.07812 49.82 4.09375C49.919 4.10938 50.0153 4.13281 50.1091 4.16406ZM53.9787 8.25781L54.0022 8.10156C54.1116 7.39323 54.2782 6.64844 54.5022 5.86719C54.7314 5.08594 55.023 4.32031 55.3772 3.57031C55.7366 2.82031 56.1662 2.13542 56.6662 1.51562C57.1662 0.890625 57.7444 0.385417 58.4006 0L58.5022 0.351562C57.9032 0.742188 57.3746 1.23698 56.9162 1.83594C56.4579 2.42969 56.0621 3.08333 55.7287 3.79688C55.4006 4.50521 55.1298 5.22917 54.9162 5.96875C54.7027 6.70312 54.5412 7.40365 54.4319 8.07031L54.3928 8.27344C54.3095 8.84635 54.2522 9.49479 54.2209 10.2188C54.1949 10.9375 54.2287 11.6667 54.3225 12.4062C54.4162 13.1458 54.5985 13.8333 54.8694 14.4688C55.1454 15.1042 55.5439 15.6224 56.0647 16.0234L55.8772 16.3438C55.3043 15.9167 54.8642 15.375 54.5569 14.7188C54.2496 14.0625 54.0386 13.3568 53.9241 12.6016C53.8147 11.8411 53.7704 11.0859 53.7912 10.3359C53.8173 9.58073 53.8798 8.88802 53.9787 8.25781ZM65.4878 7.19531L65.4253 7.60938H57.855L57.9097 7.19531H65.4878ZM62.5269 3.25781L61.0972 11.5391H60.6753L62.0972 3.25781H62.5269ZM69.1531 8.10156L69.1297 8.25781C69.0151 8.97135 68.8458 9.72135 68.6219 10.5078C68.3979 11.2891 68.1089 12.0521 67.7547 12.7969C67.4005 13.5417 66.9734 14.2214 66.4734 14.8359C65.9786 15.4557 65.3979 15.9609 64.7312 16.3516L64.6297 16C65.2234 15.6094 65.7495 15.1146 66.2078 14.5156C66.6661 13.9167 67.062 13.263 67.3953 12.5547C67.7286 11.8464 68.0021 11.125 68.2156 10.3906C68.4292 9.65104 68.5906 8.94531 68.7 8.27344L68.7391 8.07031C68.8224 7.4974 68.8771 6.85156 68.9031 6.13281C68.9344 5.40885 68.9031 4.67708 68.8094 3.9375C68.7156 3.19792 68.5307 2.51042 68.2547 1.875C67.9839 1.23958 67.588 0.723958 67.0672 0.328125L67.2547 0.0078125C67.8172 0.429688 68.2495 0.971354 68.5516 1.63281C68.8589 2.28906 69.0698 3 69.1844 3.76562C69.299 4.52604 69.3458 5.28385 69.325 6.03906C69.3042 6.79427 69.2469 7.48177 69.1531 8.10156Z" fill="black"/>
</svg>
