<svg width="2214" height="189" viewBox="0 0 2214 189" fill="none" xmlns="http://www.w3.org/2000/svg">
<path d="M2212.86 187.5V188.5H2213.86V187.5H2212.86ZM8.07088 11.165C7.68035 10.7744 7.04719 10.7744 6.65666 11.165L0.292702 17.5289C-0.0978227 17.9194 -0.0978227 18.5526 0.292702 18.9431C0.683226 19.3337 1.31639 19.3337 1.70692 18.9431L7.36377 13.2863L13.0206 18.9431C13.4111 19.3337 14.0443 19.3337 14.4348 18.9431C14.8254 18.5526 14.8254 17.9194 14.4348 17.5289L8.07088 11.165ZM7.36377 187.5H6.36377V188.5H7.36377V187.5ZM2212.86 187.5H2213.86V0H2212.86H2211.86V187.5H2212.86ZM7.36377 11.8721H6.36377V187.5H7.36377H8.36377V11.8721H7.36377ZM7.36377 187.5V188.5H2212.86V187.5V186.5H7.36377V187.5Z" fill="black"/>
</svg>
