<svg width="2619" height="2718" viewBox="0 0 2619 2718" fill="none" xmlns="http://www.w3.org/2000/svg">
<path d="M0.000162601 2531.2C0.000162601 2534.15 2.38798 2536.53 5.3335 2536.53C8.27901 2536.53 10.6668 2534.15 10.6668 2531.2C10.6668 2528.25 8.27901 2525.87 5.3335 2525.87C2.38798 2525.87 0.000162601 2528.25 0.000162601 2531.2ZM5.3335 2716.5H4.3335V2717.5H5.3335V2716.5ZM2617.83 2716.5V2717.5H2618.83V2716.5H2617.83ZM1584.33 199.5H1583.33V200.5H1584.33V199.5ZM1584.33 0L1578.56 10H1590.11L1584.33 0ZM2617.83 199.5H2618.83V198.5H2617.83V199.5ZM5.3335 2531.2H4.3335V2716.5H5.3335H6.3335V2531.2H5.3335ZM5.3335 2716.5V2717.5H2617.83V2716.5V2715.5H5.3335V2716.5ZM1584.33 199.5H1585.33V9H1584.33H1583.33V199.5H1584.33ZM2617.83 2716.5H2618.83V199.5H2617.83H2616.83V2716.5H2617.83ZM2617.83 199.5V198.5H1584.33V199.5V200.5H2617.83V199.5Z" fill="black"/>
</svg>
