<svg width="1712" height="148" viewBox="0 0 1712 148" fill="none" xmlns="http://www.w3.org/2000/svg">
<path d="M1710.33 147V148H1711.33V147H1710.33ZM0.000162601 9.07752C0.000162601 12.023 2.38798 14.4109 5.3335 14.4109C8.27901 14.4109 10.6668 12.023 10.6668 9.07752C10.6668 6.132 8.27901 3.74419 5.3335 3.74419C2.38798 3.74419 0.000162601 6.132 0.000162601 9.07752ZM5.3335 147H4.3335V148H5.3335V147ZM1710.33 147H1711.33V0H1710.33H1709.33V147H1710.33ZM5.3335 9.07752H4.3335V147H5.3335H6.3335V9.07752H5.3335ZM5.3335 147V148H1710.33V147V146H5.3335V147Z" fill="black"/>
</svg>
