<svg width="1144" height="113" viewBox="0 0 1144 113" fill="none" xmlns="http://www.w3.org/2000/svg">
<path d="M1137.33 111.333V112.333H1138.33V111.333H1137.33ZM1137.33 5.33325L1131.56 15.3333H1143.11L1137.33 5.33325ZM0.000162601 5.33325C0.000162601 8.27877 2.38798 10.6666 5.3335 10.6666C8.27901 10.6666 10.6668 8.27877 10.6668 5.33325C10.6668 2.38773 8.27901 -8.15392e-05 5.3335 -8.15392e-05C2.38798 -8.15392e-05 0.000162601 2.38773 0.000162601 5.33325ZM5.3335 111.333H4.3335V112.333H5.3335V111.333ZM1137.33 111.333H1138.33V14.3333H1137.33H1136.33V111.333H1137.33ZM5.3335 5.33325H4.3335V111.333H5.3335H6.3335V5.33325H5.3335ZM5.3335 111.333V112.333H1137.33V111.333V110.333H5.3335V111.333Z" fill="black"/>
</svg>
