<svg width="1018" height="139" viewBox="0 0 1018 139" fill="none" xmlns="http://www.w3.org/2000/svg">
<path d="M5.77358 137.619L4.77359 137.619L4.77359 138.619L5.77357 138.619L5.77358 137.619ZM5.77339 5.33327L-8.69635e-05 15.3333L11.5469 15.3333L5.77339 5.33327ZM1017.09 5.38277C1017.11 2.43737 1014.75 0.0275074 1011.8 0.000171961C1008.86 -0.0271635 1006.45 2.33838 1006.42 5.28378C1006.39 8.22917 1008.76 10.639 1011.7 10.6664C1014.65 10.6937 1017.06 8.32817 1017.09 5.38277ZM1011.75 137.618L1011.75 138.618L1012.75 138.618L1012.75 137.618L1011.75 137.618ZM5.77358 137.619L6.77356 137.619L6.7734 14.3333L5.77342 14.3333L4.77338 14.3333L4.77359 137.619L5.77358 137.619ZM1011.75 5.33327L1010.75 5.33327L1010.75 137.618L1011.75 137.618L1012.75 137.618L1012.75 5.33327L1011.75 5.33327ZM1011.75 137.618L1011.75 136.618L5.77358 136.619L5.77358 137.619L5.77357 138.619L1011.75 138.618L1011.75 137.618Z" fill="black"/>
</svg>
