<svg width="285" height="82" viewBox="0 0 285 82" fill="none" xmlns="http://www.w3.org/2000/svg">
<rect x="1" y="1" width="283" height="48" rx="9" stroke="black" stroke-width="2"/>
<path d="M18.2525 62.7812H18.7798L17.1197 72.4199C16.9569 73.3574 16.6249 74.1842 16.1236 74.9004C15.6223 75.6165 14.9875 76.1797 14.2193 76.5898C13.4576 76.9935 12.5917 77.1953 11.6216 77.1953C10.6776 77.1953 9.88336 76.9902 9.23883 76.5801C8.60081 76.1634 8.14508 75.597 7.87164 74.8809C7.59821 74.1582 7.5331 73.3379 7.67633 72.4199L9.34625 62.7812H9.86383L8.20367 72.4199C8.07347 73.2207 8.12229 73.9434 8.35016 74.5879C8.58453 75.2259 8.97841 75.7337 9.5318 76.1113C10.0852 76.4824 10.7818 76.668 11.6216 76.668C12.468 76.668 13.2362 76.4857 13.9263 76.1211C14.6229 75.75 15.2024 75.2454 15.6646 74.6074C16.1269 73.9694 16.4361 73.2402 16.5923 72.4199L18.2525 62.7812ZM14.0435 61.4629L16.2213 58.8945L16.8853 58.9043L14.649 61.4727L14.0435 61.4629ZM22.6502 62L20.0721 77H19.5448L22.1229 62H22.6502ZM28.4445 66.4336L28.3761 66.9707H23.6105L23.6886 66.4336H28.4445ZM26.0812 63.582H26.6183L24.7335 74.4707C24.6749 74.8092 24.6521 75.1478 24.6652 75.4863C24.6782 75.8184 24.7726 76.0983 24.9484 76.3262C25.1241 76.5475 25.4236 76.6615 25.8468 76.668C26.0291 76.668 26.2081 76.6582 26.3839 76.6387C26.5597 76.6191 26.7355 76.5996 26.9113 76.5801L26.9308 77.0781C26.755 77.1237 26.5792 77.153 26.4034 77.166C26.2277 77.1855 26.0486 77.1953 25.8663 77.1953C25.3129 77.1888 24.906 77.0586 24.6456 76.8047C24.3852 76.5443 24.2257 76.209 24.1671 75.7988C24.115 75.3822 24.128 74.9395 24.2062 74.4707L26.0812 63.582ZM31.4848 66.4336L29.6684 77H29.141L30.9574 66.4336H31.4848ZM31.2699 63.1133C31.2895 62.9831 31.3578 62.8626 31.475 62.752C31.5987 62.6413 31.7289 62.5859 31.8656 62.5859C32.0154 62.5859 32.1358 62.6445 32.227 62.7617C32.3246 62.8789 32.3604 63.0091 32.3344 63.1523C32.3148 63.2826 32.2432 63.403 32.1195 63.5137C31.9958 63.6178 31.8656 63.6699 31.7289 63.6699C31.5857 63.6699 31.4652 63.6146 31.3676 63.5039C31.2764 63.3867 31.2439 63.2565 31.2699 63.1133ZM34.6032 68.6992L33.1677 77H32.6403L34.447 66.4336H34.9841L34.6032 68.6992ZM34.1735 70.8086L33.9782 70.2422C34.1345 69.7279 34.3558 69.2331 34.6423 68.7578C34.9287 68.2826 35.2705 67.8561 35.6677 67.4785C36.0648 67.1009 36.5075 66.8014 36.9958 66.5801C37.4906 66.3587 38.0244 66.2448 38.5973 66.2383C39.1768 66.2383 39.6585 66.3327 40.0427 66.5215C40.4268 66.7103 40.723 66.9772 40.9313 67.3223C41.1462 67.6608 41.2796 68.0579 41.3317 68.5137C41.3903 68.9629 41.3773 69.4479 41.2927 69.9688L40.0817 77H39.5641L40.7751 69.9688C40.8727 69.3763 40.8727 68.8359 40.7751 68.3477C40.6839 67.8594 40.4626 67.472 40.111 67.1855C39.7595 66.8926 39.2484 66.7493 38.5778 66.7559C38.0244 66.7624 37.5101 66.8828 37.0348 67.1172C36.5661 67.3516 36.1397 67.6641 35.7555 68.0547C35.3779 68.4453 35.0557 68.8783 34.7888 69.3535C34.5218 69.8288 34.3167 70.3138 34.1735 70.8086ZM41.3024 69.9688L40.9802 69.627C41.1494 69.1452 41.3838 68.6992 41.6833 68.2891C41.9828 67.8724 42.3311 67.5143 42.7282 67.2148C43.1319 66.9089 43.5713 66.6712 44.0466 66.502C44.5283 66.3327 45.0296 66.2448 45.5505 66.2383C46.1494 66.2383 46.641 66.3424 47.0251 66.5508C47.4092 66.7591 47.7022 67.0456 47.904 67.4102C48.1058 67.7747 48.2295 68.1947 48.2751 68.6699C48.3207 69.1452 48.3011 69.6432 48.2165 70.1641L47.0348 77H46.5173L47.6891 70.1641C47.7868 69.5716 47.7966 69.015 47.7184 68.4941C47.6468 67.9668 47.4385 67.5436 47.0934 67.2246C46.7549 66.8991 46.2341 66.7428 45.5309 66.7559C45.0557 66.7689 44.5967 66.8568 44.154 67.0195C43.7113 67.1823 43.3011 67.4102 42.9235 67.7031C42.5459 67.9896 42.2171 68.3281 41.9372 68.7188C41.6572 69.1029 41.4457 69.5195 41.3024 69.9688ZM49.9677 71.9219L50.0263 71.5117C50.137 70.8411 50.3356 70.1934 50.622 69.5684C50.9085 68.9368 51.2763 68.3704 51.7255 67.8691C52.1748 67.3678 52.6989 66.9707 53.2978 66.6777C53.8968 66.3848 54.5641 66.2383 55.2998 66.2383C56.0354 66.2383 56.6604 66.3913 57.1748 66.6973C57.6891 66.9967 58.096 67.4004 58.3955 67.9082C58.7015 68.416 58.9033 68.9824 59.0009 69.6074C59.1051 70.2324 59.1116 70.8672 59.0205 71.5117L58.9619 71.9219C58.8512 72.5924 58.6526 73.2435 58.3662 73.875C58.0797 74.5 57.7119 75.0632 57.2627 75.5645C56.8199 76.0658 56.2991 76.4629 55.7002 76.7559C55.1012 77.0488 54.4339 77.1953 53.6982 77.1953C52.9625 77.1953 52.3375 77.0456 51.8232 76.7461C51.3089 76.4401 50.8987 76.0332 50.5927 75.5254C50.2933 75.0176 50.0914 74.4512 49.9873 73.8262C49.8831 73.2012 49.8766 72.5664 49.9677 71.9219ZM50.5634 71.5117L50.4951 71.9219C50.4104 72.4818 50.4072 73.0417 50.4853 73.6016C50.5634 74.1615 50.7295 74.6725 50.9834 75.1348C51.2438 75.597 51.5953 75.9681 52.038 76.248C52.4873 76.528 53.0374 76.668 53.6884 76.668C54.3395 76.668 54.9319 76.5345 55.4658 76.2676C56.0061 75.9941 56.4782 75.6328 56.8818 75.1836C57.2854 74.7279 57.6175 74.2168 57.8779 73.6504C58.1383 73.084 58.3206 72.5078 58.4248 71.9219L58.4931 71.5117C58.5778 70.9583 58.5778 70.4017 58.4931 69.8418C58.415 69.2819 58.249 68.7708 57.9951 68.3086C57.7412 67.8464 57.3896 67.4753 56.9404 67.1953C56.4977 66.9089 55.9541 66.7656 55.3095 66.7656C54.6585 66.7656 54.066 66.9023 53.5322 67.1758C52.9983 67.4427 52.5263 67.804 52.1162 68.2598C51.7125 68.7155 51.3772 69.2266 51.1103 69.793C50.8499 70.3529 50.6676 70.9258 50.5634 71.5117ZM67.0803 74.4121C67.1845 73.8783 67.0966 73.4388 66.8166 73.0938C66.5367 72.7422 66.1689 72.4655 65.7131 72.2637C65.2639 72.0618 64.8277 71.9089 64.4045 71.8047C64.0204 71.707 63.633 71.5931 63.2424 71.4629C62.8518 71.3262 62.5002 71.1536 62.1877 70.9453C61.8752 70.7305 61.6376 70.4603 61.4748 70.1348C61.3186 69.8027 61.2763 69.3926 61.3479 68.9043C61.413 68.4486 61.5692 68.0547 61.8166 67.7227C62.064 67.3906 62.3668 67.1172 62.7248 66.9023C63.0894 66.681 63.4833 66.515 63.9065 66.4043C64.3297 66.2936 64.7463 66.2383 65.1565 66.2383C65.7815 66.2383 66.3511 66.349 66.8655 66.5703C67.3863 66.7917 67.79 67.127 68.0764 67.5762C68.3694 68.0189 68.4801 68.5788 68.4084 69.2559H67.8811C67.9397 68.7025 67.8453 68.2435 67.5979 67.8789C67.3505 67.5078 67.0087 67.2311 66.5725 67.0488C66.1363 66.86 65.6676 66.7656 65.1663 66.7656C64.7105 66.7656 64.2483 66.8405 63.7795 66.9902C63.3108 67.1335 62.9006 67.3613 62.5491 67.6738C62.1975 67.9863 61.9729 68.39 61.8752 68.8848C61.7971 69.2949 61.8297 69.64 61.9729 69.9199C62.1161 70.1999 62.3277 70.431 62.6077 70.6133C62.8941 70.7891 63.2099 70.9355 63.5549 71.0527C63.9 71.1634 64.232 71.2611 64.551 71.3457C65.0849 71.4824 65.6025 71.668 66.1038 71.9023C66.6116 72.1302 67.012 72.446 67.3049 72.8496C67.6044 73.2467 67.7053 73.7708 67.6077 74.4219C67.536 74.9036 67.37 75.3203 67.1096 75.6719C66.8557 76.0169 66.5367 76.3034 66.1526 76.5312C65.775 76.7526 65.3648 76.9186 64.9221 77.0293C64.4859 77.14 64.0497 77.1953 63.6135 77.1953C63.0211 77.1953 62.4482 77.0977 61.8948 76.9023C61.3479 76.7005 60.9052 76.388 60.5666 75.9648C60.2346 75.5352 60.1011 74.985 60.1663 74.3145H60.6838C60.6578 74.8874 60.7815 75.3496 61.0549 75.7012C61.3349 76.0462 61.7027 76.2936 62.1584 76.4434C62.6142 76.5931 63.0959 76.668 63.6038 76.668C64.0725 76.6615 64.5543 76.5801 65.0491 76.4238C65.5504 76.2611 65.9898 76.0169 66.3674 75.6914C66.745 75.3594 66.9827 74.9329 67.0803 74.4121ZM77.6824 76.668C78.2944 76.668 78.8543 76.5508 79.3621 76.3164C79.8764 76.082 80.3126 75.75 80.6707 75.3203C81.0288 74.8906 81.2892 74.3861 81.452 73.8066H81.9793C81.8231 74.4837 81.5398 75.0762 81.1297 75.584C80.7195 76.0918 80.2182 76.4889 79.6258 76.7754C79.0333 77.0553 78.3888 77.1953 77.6922 77.1953C76.9565 77.1953 76.3445 77.0391 75.8563 76.7266C75.3745 76.4141 75.0034 76.0007 74.743 75.4863C74.4826 74.972 74.3165 74.4056 74.2449 73.7871C74.1733 73.1621 74.1831 72.5404 74.2742 71.9219L74.3328 71.5117C74.437 70.8607 74.616 70.2227 74.8699 69.5977C75.1303 68.9727 75.4656 68.4095 75.8758 67.9082C76.2859 67.4004 76.7742 66.9967 77.3406 66.6973C77.9135 66.3913 78.5646 66.2383 79.2938 66.2383C80.0164 66.2383 80.6316 66.401 81.1395 66.7266C81.6538 67.0456 82.0379 67.4818 82.2918 68.0352C82.5457 68.5885 82.6466 69.2168 82.5945 69.9199H82.0672C82.1193 69.321 82.0412 68.7839 81.8328 68.3086C81.631 67.8333 81.312 67.459 80.8758 67.1855C80.4461 66.9056 79.922 66.7656 79.3035 66.7656C78.6395 66.7656 78.0535 66.9023 77.5457 67.1758C77.0379 67.4492 76.6017 67.8138 76.2371 68.2695C75.879 68.7253 75.5861 69.2363 75.3582 69.8027C75.1303 70.3626 74.9676 70.9323 74.8699 71.5117L74.8016 71.9219C74.7169 72.4688 74.6941 73.0221 74.7332 73.582C74.7788 74.1354 74.9057 74.6465 75.1141 75.1152C75.3224 75.5775 75.6349 75.9518 76.0516 76.2383C76.4747 76.5182 77.0184 76.6615 77.6824 76.668ZM90.9473 74.5586L92.3438 66.4336H92.8809L91.0645 77H90.5274L90.9473 74.5586ZM91.3282 72.8691L91.7774 72.8594C91.6602 73.4779 91.4714 74.0508 91.211 74.5781C90.9506 75.1055 90.6186 75.5645 90.2149 75.9551C89.8178 76.3457 89.349 76.6517 88.8087 76.873C88.2748 77.0879 87.6759 77.1953 87.0118 77.1953C86.4063 77.1953 85.905 77.0879 85.5079 76.873C85.1173 76.6517 84.8178 76.3522 84.6095 75.9746C84.4011 75.5905 84.2742 75.1576 84.2286 74.6758C84.183 74.1875 84.2026 73.6764 84.2872 73.1426L85.4395 66.4336H85.9669L84.8048 73.1621C84.7332 73.6048 84.7104 74.0345 84.7364 74.4512C84.7625 74.8678 84.8536 75.2422 85.0098 75.5742C85.1661 75.9062 85.4037 76.1732 85.7227 76.375C86.0483 76.5703 86.4714 76.668 86.9923 76.668C87.78 76.668 88.4701 76.5052 89.0626 76.1797C89.655 75.8542 90.1401 75.4082 90.5177 74.8418C90.9018 74.2689 91.172 73.6113 91.3282 72.8691ZM100.785 75.0176L101.722 69.5586C101.826 68.9596 101.777 68.4518 101.576 68.0352C101.38 67.6185 101.071 67.3027 100.648 67.0879C100.225 66.873 99.7201 66.7656 99.1341 66.7656C98.5938 66.7656 98.0599 66.8665 97.5326 67.0684C97.0117 67.2637 96.556 67.5534 96.1654 67.9375C95.7748 68.3151 95.5143 68.7806 95.3841 69.334L94.8568 69.3145C94.9545 68.8262 95.14 68.3932 95.4134 68.0156C95.6934 67.6315 96.0319 67.3092 96.4291 67.0488C96.8262 66.7884 97.2559 66.5898 97.7181 66.4531C98.1869 66.3099 98.6589 66.2383 99.1341 66.2383C99.8112 66.2383 100.404 66.3717 100.911 66.6387C101.419 66.8991 101.794 67.2799 102.035 67.7812C102.282 68.276 102.35 68.875 102.24 69.5781L101.331 74.8711C101.273 75.2031 101.227 75.5417 101.195 75.8867C101.169 76.2318 101.185 76.5736 101.244 76.9121L101.234 77H100.638C100.612 76.668 100.615 76.3359 100.648 76.0039C100.68 75.6719 100.726 75.3431 100.785 75.0176ZM101.683 71.1016L101.634 71.6387H98.9974C98.5417 71.6452 98.0599 71.694 97.5521 71.7852C97.0443 71.8698 96.556 72.0163 96.0873 72.2246C95.6185 72.4264 95.2149 72.7031 94.8763 73.0547C94.5443 73.3997 94.3262 73.8359 94.222 74.3633C94.1374 74.832 94.1895 75.2389 94.3783 75.584C94.5671 75.929 94.8438 76.196 95.2084 76.3848C95.5729 76.5736 95.9733 76.6712 96.4095 76.6777C97.1061 76.6842 97.7507 76.5638 98.3431 76.3164C98.9421 76.0625 99.4792 75.7142 99.9545 75.2715C100.43 74.8223 100.833 74.3014 101.165 73.709L101.331 74.2168C101.097 74.6725 100.807 75.0859 100.462 75.457C100.117 75.8281 99.7298 76.1439 99.3002 76.4043C98.8705 76.6582 98.4115 76.8535 97.9232 76.9902C97.4414 77.127 96.9401 77.1953 96.4193 77.1953C95.8594 77.1888 95.3581 77.0716 94.9154 76.8438C94.4727 76.6094 94.1374 76.2773 93.9095 75.8477C93.6817 75.418 93.6133 74.9102 93.7045 74.3242C93.8021 73.7188 94.03 73.2109 94.388 72.8008C94.7461 72.3906 95.1791 72.0618 95.6869 71.8145C96.2012 71.5671 96.7448 71.388 97.3177 71.2773C97.8907 71.1667 98.4375 71.1081 98.9584 71.1016H101.683ZM109.284 66.4336L109.215 66.9707H104.45L104.528 66.4336H109.284ZM106.921 63.582H107.458L105.573 74.4707C105.514 74.8092 105.492 75.1478 105.505 75.4863C105.518 75.8184 105.612 76.0983 105.788 76.3262C105.964 76.5475 106.263 76.6615 106.686 76.668C106.868 76.668 107.048 76.6582 107.223 76.6387C107.399 76.6191 107.575 76.5996 107.751 76.5801L107.77 77.0781C107.594 77.1237 107.419 77.153 107.243 77.166C107.067 77.1855 106.888 77.1953 106.706 77.1953C106.152 77.1888 105.745 77.0586 105.485 76.8047C105.225 76.5443 105.065 76.209 105.006 75.7988C104.954 75.3822 104.967 74.9395 105.046 74.4707L106.921 63.582ZM111.885 68.2695L110.381 77H109.853L111.67 66.4336H112.197L111.885 68.2695ZM116.279 66.3555L116.152 66.8047C116.048 66.7917 115.944 66.7819 115.84 66.7754C115.736 66.7624 115.628 66.7559 115.518 66.7559C114.893 66.7559 114.339 66.8926 113.857 67.166C113.376 67.4329 112.959 67.791 112.607 68.2402C112.262 68.6895 111.976 69.1842 111.748 69.7246C111.527 70.2585 111.361 70.7923 111.25 71.3262L110.889 71.3555C111.006 70.75 111.178 70.1445 111.406 69.5391C111.641 68.9336 111.943 68.3802 112.314 67.8789C112.692 67.3776 113.144 66.9772 113.672 66.6777C114.206 66.3783 114.827 66.2318 115.537 66.2383C115.667 66.2383 115.794 66.248 115.918 66.2676C116.042 66.2871 116.162 66.3164 116.279 66.3555ZM115.97 71.9219L116.029 71.5117C116.139 70.8411 116.338 70.1934 116.624 69.5684C116.911 68.9368 117.279 68.3704 117.728 67.8691C118.177 67.3678 118.701 66.9707 119.3 66.6777C119.899 66.3848 120.566 66.2383 121.302 66.2383C122.038 66.2383 122.663 66.3913 123.177 66.6973C123.691 66.9967 124.098 67.4004 124.398 67.9082C124.704 68.416 124.905 68.9824 125.003 69.6074C125.107 70.2324 125.114 70.8672 125.023 71.5117L124.964 71.9219C124.853 72.5924 124.655 73.2435 124.368 73.875C124.082 74.5 123.714 75.0632 123.265 75.5645C122.822 76.0658 122.301 76.4629 121.702 76.7559C121.103 77.0488 120.436 77.1953 119.7 77.1953C118.965 77.1953 118.34 77.0456 117.825 76.7461C117.311 76.4401 116.901 76.0332 116.595 75.5254C116.295 75.0176 116.094 74.4512 115.989 73.8262C115.885 73.2012 115.879 72.5664 115.97 71.9219ZM116.566 71.5117L116.497 71.9219C116.413 72.4818 116.409 73.0417 116.488 73.6016C116.566 74.1615 116.732 74.6725 116.986 75.1348C117.246 75.597 117.598 75.9681 118.04 76.248C118.489 76.528 119.04 76.668 119.691 76.668C120.342 76.668 120.934 76.5345 121.468 76.2676C122.008 75.9941 122.48 75.6328 122.884 75.1836C123.288 74.7279 123.62 74.2168 123.88 73.6504C124.14 73.084 124.323 72.5078 124.427 71.9219L124.495 71.5117C124.58 70.9583 124.58 70.4017 124.495 69.8418C124.417 69.2819 124.251 68.7708 123.997 68.3086C123.743 67.8464 123.392 67.4753 122.943 67.1953C122.5 66.9089 121.956 66.7656 121.312 66.7656C120.661 66.7656 120.068 66.9023 119.534 67.1758C119.001 67.4427 118.529 67.804 118.118 68.2598C117.715 68.7155 117.379 69.2266 117.113 69.793C116.852 70.3529 116.67 70.9258 116.566 71.5117ZM137.949 74.9492L140.185 62H140.713L138.125 77H137.597L137.949 74.9492ZM131.152 71.8145L131.181 71.6094C131.292 70.9844 131.465 70.3561 131.699 69.7246C131.94 69.0931 132.252 68.5137 132.636 67.9863C133.021 67.459 133.486 67.0358 134.033 66.7168C134.58 66.3978 135.215 66.2383 135.937 66.2383C136.419 66.2383 136.868 66.3262 137.285 66.502C137.708 66.6777 138.076 66.9251 138.388 67.2441C138.701 67.5566 138.942 67.9245 139.111 68.3477C139.28 68.7708 139.355 69.2298 139.336 69.7246L138.603 74.0312C138.48 74.513 138.265 74.9492 137.959 75.3398C137.653 75.724 137.291 76.056 136.875 76.3359C136.465 76.6094 136.022 76.821 135.547 76.9707C135.071 77.1204 134.596 77.1953 134.121 77.1953C133.392 77.1953 132.806 77.026 132.363 76.6875C131.927 76.3424 131.605 75.8997 131.396 75.3594C131.194 74.8125 131.081 74.2266 131.054 73.6016C131.028 72.9766 131.061 72.3809 131.152 71.8145ZM131.738 71.6094L131.699 71.8145C131.614 72.3027 131.572 72.8268 131.572 73.3867C131.572 73.9466 131.647 74.474 131.797 74.9688C131.946 75.4635 132.204 75.8704 132.568 76.1895C132.939 76.502 133.45 76.6615 134.101 76.668C134.694 76.668 135.276 76.5508 135.849 76.3164C136.429 76.082 136.94 75.75 137.383 75.3203C137.825 74.8841 138.135 74.373 138.31 73.7871L138.974 70.0762C139.007 69.6139 138.955 69.181 138.818 68.7773C138.681 68.3737 138.473 68.0221 138.193 67.7227C137.92 67.4232 137.591 67.1888 137.207 67.0195C136.823 66.8503 136.4 66.7656 135.937 66.7656C135.293 66.7656 134.73 66.9154 134.248 67.2148C133.766 67.5078 133.356 67.8952 133.017 68.377C132.679 68.8522 132.405 69.373 132.197 69.9395C131.989 70.5059 131.836 71.0625 131.738 71.6094ZM143.509 66.4336L141.692 77H141.165L142.981 66.4336H143.509ZM143.148 64.8125L145.325 62.2441L145.989 62.2539L143.753 64.8223L143.148 64.8125ZM153.307 66.4336H153.844L152.057 76.8535C151.914 77.6413 151.644 78.3704 151.246 79.041C150.849 79.7116 150.332 80.2487 149.694 80.6523C149.056 81.056 148.31 81.2578 147.457 81.2578C147.008 81.2578 146.591 81.1862 146.207 81.043C145.823 80.8997 145.475 80.6947 145.162 80.4277C144.85 80.1608 144.58 79.8385 144.352 79.4609L144.752 79.1289C145.058 79.6237 145.429 80.0143 145.866 80.3008C146.302 80.5938 146.823 80.7402 147.428 80.7402C148.19 80.7402 148.851 80.5612 149.41 80.2031C149.977 79.8516 150.436 79.3796 150.787 78.7871C151.139 78.2012 151.38 77.5566 151.51 76.8535L152.916 68.7578L153.307 66.4336ZM145.055 71.8145L145.084 71.6094C145.195 70.9844 145.368 70.3561 145.602 69.7246C145.843 69.0931 146.155 68.5137 146.539 67.9863C146.923 67.459 147.389 67.0358 147.936 66.7168C148.483 66.3978 149.118 66.2383 149.84 66.2383C150.322 66.2383 150.771 66.3262 151.188 66.502C151.611 66.6777 151.979 66.9251 152.291 67.2441C152.604 67.5566 152.845 67.9245 153.014 68.3477C153.183 68.7708 153.258 69.2298 153.239 69.7246L152.506 74.0312C152.382 74.513 152.168 74.9492 151.862 75.3398C151.556 75.724 151.194 76.056 150.778 76.3359C150.368 76.6094 149.925 76.821 149.45 76.9707C148.974 77.1204 148.499 77.1953 148.024 77.1953C147.295 77.1953 146.709 77.026 146.266 76.6875C145.83 76.3424 145.507 75.8997 145.299 75.3594C145.097 74.8125 144.983 74.2266 144.957 73.6016C144.931 72.9766 144.964 72.3809 145.055 71.8145ZM145.631 71.6094L145.592 71.8145C145.507 72.3027 145.465 72.8268 145.465 73.3867C145.465 73.9466 145.54 74.474 145.69 74.9688C145.846 75.4635 146.106 75.8704 146.471 76.1895C146.842 76.502 147.353 76.6615 148.004 76.668C148.597 76.668 149.179 76.5508 149.752 76.3164C150.325 76.082 150.826 75.75 151.256 75.3203C151.692 74.8841 151.998 74.373 152.174 73.7871L152.838 70.0762C152.871 69.6139 152.819 69.1842 152.682 68.7871C152.552 68.3835 152.35 68.0319 152.076 67.7324C151.81 67.4264 151.484 67.1888 151.1 67.0195C150.722 66.8503 150.302 66.7656 149.84 66.7656C149.196 66.7656 148.629 66.9121 148.141 67.2051C147.659 67.498 147.249 67.8854 146.91 68.3672C146.578 68.849 146.305 69.373 146.09 69.9395C145.882 70.5059 145.729 71.0625 145.631 71.6094ZM157.48 66.4336L155.664 77H155.136L156.953 66.4336H157.48ZM157.265 63.1133C157.285 62.9831 157.353 62.8626 157.47 62.752C157.594 62.6413 157.724 62.5859 157.861 62.5859C158.011 62.5859 158.131 62.6445 158.222 62.7617C158.32 62.8789 158.356 63.0091 158.33 63.1523C158.31 63.2826 158.239 63.403 158.115 63.5137C157.991 63.6178 157.861 63.6699 157.724 63.6699C157.581 63.6699 157.461 63.6146 157.363 63.5039C157.272 63.3867 157.239 63.2565 157.265 63.1133ZM164.036 66.4336L163.968 66.9707H159.202L159.28 66.4336H164.036ZM161.673 63.582H162.21L160.325 74.4707C160.266 74.8092 160.244 75.1478 160.257 75.4863C160.27 75.8184 160.364 76.0983 160.54 76.3262C160.716 76.5475 161.015 76.6615 161.438 76.668C161.621 76.668 161.8 76.6582 161.975 76.6387C162.151 76.6191 162.327 76.5996 162.503 76.5801L162.522 77.0781C162.347 77.1237 162.171 77.153 161.995 77.166C161.819 77.1855 161.64 77.1953 161.458 77.1953C160.905 77.1888 160.498 77.0586 160.237 76.8047C159.977 76.5443 159.817 76.209 159.759 75.7988C159.707 75.3822 159.72 74.9395 159.798 74.4707L161.673 63.582ZM164.518 71.9219L164.576 71.5117C164.687 70.8411 164.886 70.1934 165.172 69.5684C165.458 68.9368 165.826 68.3704 166.276 67.8691C166.725 67.3678 167.249 66.9707 167.848 66.6777C168.447 66.3848 169.114 66.2383 169.85 66.2383C170.585 66.2383 171.21 66.3913 171.725 66.6973C172.239 66.9967 172.646 67.4004 172.945 67.9082C173.251 68.416 173.453 68.9824 173.551 69.6074C173.655 70.2324 173.662 70.8672 173.57 71.5117L173.512 71.9219C173.401 72.5924 173.203 73.2435 172.916 73.875C172.63 74.5 172.262 75.0632 171.813 75.5645C171.37 76.0658 170.849 76.4629 170.25 76.7559C169.651 77.0488 168.984 77.1953 168.248 77.1953C167.513 77.1953 166.888 77.0456 166.373 76.7461C165.859 76.4401 165.449 76.0332 165.143 75.5254C164.843 75.0176 164.641 74.4512 164.537 73.8262C164.433 73.2012 164.427 72.5664 164.518 71.9219ZM165.113 71.5117L165.045 71.9219C164.96 72.4818 164.957 73.0417 165.035 73.6016C165.113 74.1615 165.279 74.6725 165.533 75.1348C165.794 75.597 166.145 75.9681 166.588 76.248C167.037 76.528 167.587 76.668 168.238 76.668C168.889 76.668 169.482 76.5345 170.016 76.2676C170.556 75.9941 171.028 75.6328 171.432 75.1836C171.835 74.7279 172.167 74.2168 172.428 73.6504C172.688 73.084 172.871 72.5078 172.975 71.9219L173.043 71.5117C173.128 70.9583 173.128 70.4017 173.043 69.8418C172.965 69.2819 172.799 68.7708 172.545 68.3086C172.291 67.8464 171.94 67.4753 171.49 67.1953C171.048 66.9089 170.504 66.7656 169.86 66.7656C169.208 66.7656 168.616 66.9023 168.082 67.1758C167.548 67.4427 167.076 67.804 166.666 68.2598C166.263 68.7155 165.927 69.2266 165.66 69.793C165.4 70.3529 165.218 70.9258 165.113 71.5117ZM181.63 74.4121C181.734 73.8783 181.647 73.4388 181.367 73.0938C181.087 72.7422 180.719 72.4655 180.263 72.2637C179.814 72.0618 179.378 71.9089 178.955 71.8047C178.57 71.707 178.183 71.5931 177.792 71.4629C177.402 71.3262 177.05 71.1536 176.738 70.9453C176.425 70.7305 176.188 70.4603 176.025 70.1348C175.869 69.8027 175.826 69.3926 175.898 68.9043C175.963 68.4486 176.119 68.0547 176.367 67.7227C176.614 67.3906 176.917 67.1172 177.275 66.9023C177.639 66.681 178.033 66.515 178.456 66.4043C178.88 66.2936 179.296 66.2383 179.706 66.2383C180.331 66.2383 180.901 66.349 181.415 66.5703C181.936 66.7917 182.34 67.127 182.626 67.5762C182.919 68.0189 183.03 68.5788 182.958 69.2559H182.431C182.49 68.7025 182.395 68.2435 182.148 67.8789C181.9 67.5078 181.559 67.2311 181.122 67.0488C180.686 66.86 180.218 66.7656 179.716 66.7656C179.261 66.7656 178.798 66.8405 178.33 66.9902C177.861 67.1335 177.451 67.3613 177.099 67.6738C176.747 67.9863 176.523 68.39 176.425 68.8848C176.347 69.2949 176.38 69.64 176.523 69.9199C176.666 70.1999 176.878 70.431 177.158 70.6133C177.444 70.7891 177.76 70.9355 178.105 71.0527C178.45 71.1634 178.782 71.2611 179.101 71.3457C179.635 71.4824 180.152 71.668 180.654 71.9023C181.162 72.1302 181.562 72.446 181.855 72.8496C182.154 73.2467 182.255 73.7708 182.158 74.4219C182.086 74.9036 181.92 75.3203 181.66 75.6719C181.406 76.0169 181.087 76.3034 180.703 76.5312C180.325 76.7526 179.915 76.9186 179.472 77.0293C179.036 77.14 178.6 77.1953 178.164 77.1953C177.571 77.1953 176.998 77.0977 176.445 76.9023C175.898 76.7005 175.455 76.388 175.117 75.9648C174.785 75.5352 174.651 74.985 174.716 74.3145H175.234C175.208 74.8874 175.331 75.3496 175.605 75.7012C175.885 76.0462 176.253 76.2936 176.708 76.4434C177.164 76.5931 177.646 76.668 178.154 76.668C178.622 76.6615 179.104 76.5801 179.599 76.4238C180.1 76.2611 180.54 76.0169 180.917 75.6914C181.295 75.3594 181.533 74.9329 181.63 74.4121Z" fill="black"/>
</svg>
