<svg width="285" height="82" viewBox="0 0 285 82" fill="none" xmlns="http://www.w3.org/2000/svg">
<rect x="1" y="1" width="283" height="48" rx="9" stroke="black" stroke-width="2"/>
<path d="M13.9177 62.7715H14.4939L17.8337 76.209L25.8513 62.791H26.447L17.9509 77H17.5408L13.9177 62.7715ZM13.7615 62.7812H14.2888L13.0193 70.1348L11.8377 77H11.3103L13.7615 62.7812ZM26.0955 62.7812H26.6228L24.1716 77H23.6443L24.8259 70.1348L26.0955 62.7812ZM27.5147 71.9219L27.5733 71.5117C27.684 70.8411 27.8825 70.1934 28.169 69.5684C28.4554 68.9368 28.8233 68.3704 29.2725 67.8691C29.7217 67.3678 30.2458 66.9707 30.8448 66.6777C31.4437 66.3848 32.111 66.2383 32.8467 66.2383C33.5824 66.2383 34.2074 66.3913 34.7217 66.6973C35.236 66.9967 35.6429 67.4004 35.9424 67.9082C36.2484 68.416 36.4502 68.9824 36.5479 69.6074C36.6521 70.2324 36.6586 70.8672 36.5674 71.5117L36.5088 71.9219C36.3981 72.5924 36.1996 73.2435 35.9131 73.875C35.6267 74.5 35.2588 75.0632 34.8096 75.5645C34.3669 76.0658 33.8461 76.4629 33.2471 76.7559C32.6481 77.0488 31.9808 77.1953 31.2452 77.1953C30.5095 77.1953 29.8845 77.0456 29.3702 76.7461C28.8558 76.4401 28.4457 76.0332 28.1397 75.5254C27.8402 75.0176 27.6384 74.4512 27.5342 73.8262C27.43 73.2012 27.4235 72.5664 27.5147 71.9219ZM28.1104 71.5117L28.042 71.9219C27.9574 72.4818 27.9541 73.0417 28.0323 73.6016C28.1104 74.1615 28.2764 74.6725 28.5303 75.1348C28.7907 75.597 29.1423 75.9681 29.585 76.248C30.0342 76.528 30.5843 76.668 31.2354 76.668C31.8864 76.668 32.4789 76.5345 33.0127 76.2676C33.5531 75.9941 34.0251 75.6328 34.4287 75.1836C34.8324 74.7279 35.1644 74.2168 35.4248 73.6504C35.6853 73.084 35.8675 72.5078 35.9717 71.9219L36.0401 71.5117C36.1247 70.9583 36.1247 70.4017 36.0401 69.8418C35.962 69.2819 35.7959 68.7708 35.542 68.3086C35.2881 67.8464 34.9366 67.4753 34.4873 67.1953C34.0446 66.9089 33.501 66.7656 32.8565 66.7656C32.2054 66.7656 31.613 66.9023 31.0791 67.1758C30.5453 67.4427 30.0733 67.804 29.6631 68.2598C29.2595 68.7155 28.9242 69.2266 28.6573 69.793C28.3968 70.3529 28.2146 70.9258 28.1104 71.5117ZM39.7737 68.6895L38.3382 77H37.8109L39.6273 66.4336H40.1546L39.7737 68.6895ZM39.3245 70.8086L39.1292 70.2422C39.2855 69.7279 39.5068 69.2331 39.7933 68.7578C40.0862 68.2826 40.4313 67.8561 40.8284 67.4785C41.2321 67.1009 41.6813 66.8014 42.1761 66.5801C42.6709 66.3587 43.2047 66.2448 43.7777 66.2383C44.3766 66.2383 44.8649 66.3424 45.2425 66.5508C45.6266 66.7591 45.9163 67.0488 46.1116 67.4199C46.3135 67.7845 46.4339 68.2044 46.473 68.6797C46.512 69.1484 46.4925 69.6432 46.4144 70.1641L45.2327 77H44.7054L45.887 70.1641C45.9847 69.5716 45.9977 69.015 45.9261 68.4941C45.8545 67.9733 45.6494 67.5534 45.3109 67.2344C44.9723 66.9089 44.4547 66.7493 43.7581 66.7559C43.2047 66.7624 42.6904 66.8828 42.2152 67.1172C41.7399 67.3516 41.3102 67.6641 40.9261 68.0547C40.542 68.4388 40.2132 68.8717 39.9398 69.3535C39.6663 69.8288 39.4612 70.3138 39.3245 70.8086ZM53.4586 66.4336L53.3902 66.9707H48.6246L48.7027 66.4336H53.4586ZM51.0953 63.582H51.6324L49.7477 74.4707C49.6891 74.8092 49.6663 75.1478 49.6793 75.4863C49.6923 75.8184 49.7867 76.0983 49.9625 76.3262C50.1383 76.5475 50.4378 76.6615 50.8609 76.668C51.0432 76.668 51.2223 76.6582 51.398 76.6387C51.5738 76.6191 51.7496 76.5996 51.9254 76.5801L51.9449 77.0781C51.7691 77.1237 51.5934 77.153 51.4176 77.166C51.2418 77.1855 51.0628 77.1953 50.8805 77.1953C50.3271 77.1888 49.9202 77.0586 49.6598 76.8047C49.3993 76.5443 49.2398 76.209 49.1812 75.7988C49.1292 75.3822 49.1422 74.9395 49.2203 74.4707L51.0953 63.582ZM53.9403 71.9219L53.9989 71.5117C54.1096 70.8411 54.3081 70.1934 54.5946 69.5684C54.8811 68.9368 55.2489 68.3704 55.6981 67.8691C56.1473 67.3678 56.6714 66.9707 57.2704 66.6777C57.8693 66.3848 58.5367 66.2383 59.2723 66.2383C60.008 66.2383 60.633 66.3913 61.1473 66.6973C61.6617 66.9967 62.0686 67.4004 62.368 67.9082C62.674 68.416 62.8759 68.9824 62.9735 69.6074C63.0777 70.2324 63.0842 70.8672 62.993 71.5117L62.9345 71.9219C62.8238 72.5924 62.6252 73.2435 62.3387 73.875C62.0523 74.5 61.6845 75.0632 61.2352 75.5645C60.7925 76.0658 60.2717 76.4629 59.6727 76.7559C59.0738 77.0488 58.4065 77.1953 57.6708 77.1953C56.9351 77.1953 56.3101 77.0456 55.7958 76.7461C55.2815 76.4401 54.8713 76.0332 54.5653 75.5254C54.2658 75.0176 54.064 74.4512 53.9598 73.8262C53.8557 73.2012 53.8492 72.5664 53.9403 71.9219ZM54.536 71.5117L54.4677 71.9219C54.383 72.4818 54.3798 73.0417 54.4579 73.6016C54.536 74.1615 54.702 74.6725 54.9559 75.1348C55.2164 75.597 55.5679 75.9681 56.0106 76.248C56.4598 76.528 57.01 76.668 57.661 76.668C58.3121 76.668 58.9045 76.5345 59.4384 76.2676C59.9787 75.9941 60.4507 75.6328 60.8544 75.1836C61.258 74.7279 61.5901 74.2168 61.8505 73.6504C62.1109 73.084 62.2932 72.5078 62.3973 71.9219L62.4657 71.5117C62.5503 70.9583 62.5503 70.4017 62.4657 69.8418C62.3876 69.2819 62.2216 68.7708 61.9677 68.3086C61.7137 67.8464 61.3622 67.4753 60.913 67.1953C60.4703 66.9089 59.9266 66.7656 59.2821 66.7656C58.6311 66.7656 58.0386 66.9023 57.5048 67.1758C56.9709 67.4427 56.4989 67.804 56.0887 68.2598C55.6851 68.7155 55.3498 69.2266 55.0829 69.793C54.8225 70.3529 54.6402 70.9258 54.536 71.5117ZM75.9194 74.9492L78.1557 62H78.683L76.0952 77H75.5678L75.9194 74.9492ZM69.1225 71.8145L69.1518 71.6094C69.2625 70.9844 69.435 70.3561 69.6694 69.7246C69.9103 69.0931 70.2228 68.5137 70.6069 67.9863C70.991 67.459 71.4565 67.0358 72.0034 66.7168C72.5502 66.3978 73.185 66.2383 73.9077 66.2383C74.3894 66.2383 74.8386 66.3262 75.2553 66.502C75.6785 66.6777 76.0463 66.9251 76.3588 67.2441C76.6713 67.5566 76.9122 67.9245 77.0815 68.3477C77.2508 68.7708 77.3256 69.2298 77.3061 69.7246L76.5737 74.0312C76.45 74.513 76.2351 74.9492 75.9291 75.3398C75.6231 75.724 75.2618 76.056 74.8452 76.3359C74.435 76.6094 73.9923 76.821 73.517 76.9707C73.0418 77.1204 72.5665 77.1953 72.0912 77.1953C71.3621 77.1953 70.7761 77.026 70.3334 76.6875C69.8972 76.3424 69.575 75.8997 69.3666 75.3594C69.1648 74.8125 69.0509 74.2266 69.0248 73.6016C68.9988 72.9766 69.0314 72.3809 69.1225 71.8145ZM69.7084 71.6094L69.6694 71.8145C69.5847 72.3027 69.5424 72.8268 69.5424 73.3867C69.5424 73.9466 69.6173 74.474 69.767 74.9688C69.9168 75.4635 70.1739 75.8704 70.5385 76.1895C70.9096 76.502 71.4207 76.6615 72.0717 76.668C72.6642 76.668 73.2468 76.5508 73.8198 76.3164C74.3992 76.082 74.9103 75.75 75.353 75.3203C75.7957 74.8841 76.1049 74.373 76.2807 73.7871L76.9448 70.0762C76.9773 69.6139 76.9252 69.181 76.7885 68.7773C76.6518 68.3737 76.4435 68.0221 76.1635 67.7227C75.8901 67.4232 75.5613 67.1888 75.1772 67.0195C74.7931 66.8503 74.3699 66.7656 73.9077 66.7656C73.2631 66.7656 72.7 66.9154 72.2182 67.2148C71.7364 67.5078 71.3263 67.8952 70.9877 68.377C70.6492 68.8522 70.3758 69.373 70.1674 69.9395C69.9591 70.5059 69.8061 71.0625 69.7084 71.6094ZM82.8464 77.1953C82.1368 77.1953 81.5248 77.0423 81.0105 76.7363C80.5027 76.4238 80.0925 76.0137 79.78 75.5059C79.474 74.9915 79.2657 74.4251 79.155 73.8066C79.0508 73.1882 79.0411 72.5664 79.1257 71.9414L79.1941 71.5117C79.2917 70.8802 79.4805 70.2552 79.7605 69.6367C80.0404 69.0117 80.3985 68.4453 80.8347 67.9375C81.2709 67.4232 81.7787 67.013 82.3581 66.707C82.9376 66.3945 83.5788 66.2383 84.282 66.2383C84.9135 66.2383 85.4506 66.3685 85.8933 66.6289C86.336 66.8828 86.6908 67.2279 86.9577 67.6641C87.2247 68.0938 87.4037 68.5755 87.4948 69.1094C87.5925 69.6432 87.6023 70.1901 87.5241 70.75L87.446 71.3652H79.5554L79.6237 70.8379H86.9577L86.987 70.7109C87.0977 70.0859 87.0717 69.4707 86.9089 68.8652C86.7461 68.2598 86.4467 67.7617 86.0105 67.3711C85.5743 66.974 84.9981 66.7721 84.282 66.7656C83.6504 66.7656 83.0743 66.9056 82.5534 67.1855C82.0391 67.459 81.5866 67.8301 81.196 68.2988C80.8119 68.7611 80.4929 69.2721 80.239 69.832C79.9916 70.3919 79.8191 70.9518 79.7214 71.5117L79.653 71.9414C79.5684 72.4883 79.5684 73.0384 79.653 73.5918C79.7377 74.1452 79.9102 74.6562 80.1706 75.125C80.431 75.5872 80.7826 75.9616 81.2253 76.248C81.668 76.528 82.2051 76.6712 82.8366 76.6777C83.4942 76.6842 84.0931 76.5605 84.6335 76.3066C85.1739 76.0462 85.6719 75.6882 86.1277 75.2324L86.4792 75.5059C86.1667 75.8639 85.8217 76.1699 85.4441 76.4238C85.0665 76.6777 84.6596 76.8698 84.2234 77C83.7872 77.1302 83.3282 77.1953 82.8464 77.1953ZM101.681 66.4336H102.218L100.431 76.8535C100.288 77.6413 100.018 78.3704 99.6204 79.041C99.2233 79.7116 98.7057 80.2487 98.0677 80.6523C97.4296 81.056 96.6842 81.2578 95.8313 81.2578C95.3821 81.2578 94.9654 81.1862 94.5813 81.043C94.1972 80.8997 93.8489 80.6947 93.5364 80.4277C93.2239 80.1608 92.9537 79.8385 92.7259 79.4609L93.1263 79.1289C93.4322 79.6237 93.8033 80.0143 94.2395 80.3008C94.6757 80.5938 95.1966 80.7402 95.802 80.7402C96.5638 80.7402 97.2246 80.5612 97.7845 80.2031C98.3509 79.8516 98.8098 79.3796 99.1614 78.7871C99.513 78.2012 99.7539 77.5566 99.8841 76.8535L101.29 68.7578L101.681 66.4336ZM93.429 71.8145L93.4583 71.6094C93.569 70.9844 93.7415 70.3561 93.9759 69.7246C94.2167 69.0931 94.5292 68.5137 94.9134 67.9863C95.2975 67.459 95.763 67.0358 96.3098 66.7168C96.8567 66.3978 97.4915 66.2383 98.2141 66.2383C98.6959 66.2383 99.1451 66.3262 99.5618 66.502C99.985 66.6777 100.353 66.9251 100.665 67.2441C100.978 67.5566 101.219 67.9245 101.388 68.3477C101.557 68.7708 101.632 69.2298 101.613 69.7246L100.88 74.0312C100.756 74.513 100.542 74.9492 100.236 75.3398C99.9296 75.724 99.5683 76.056 99.1516 76.3359C98.7415 76.6094 98.2988 76.821 97.8235 76.9707C97.3483 77.1204 96.873 77.1953 96.3977 77.1953C95.6686 77.1953 95.0826 77.026 94.6399 76.6875C94.2037 76.3424 93.8815 75.8997 93.6731 75.3594C93.4713 74.8125 93.3574 74.2266 93.3313 73.6016C93.3053 72.9766 93.3378 72.3809 93.429 71.8145ZM94.0052 71.6094L93.9661 71.8145C93.8815 72.3027 93.8391 72.8268 93.8391 73.3867C93.8391 73.9466 93.914 74.474 94.0638 74.9688C94.22 75.4635 94.4804 75.8704 94.845 76.1895C95.2161 76.502 95.7272 76.6615 96.3782 76.668C96.9707 76.668 97.5533 76.5508 98.1263 76.3164C98.6992 76.082 99.2005 75.75 99.6302 75.3203C100.066 74.8841 100.372 74.373 100.548 73.7871L101.212 70.0762C101.245 69.6139 101.193 69.1842 101.056 68.7871C100.926 68.3835 100.724 68.0319 100.45 67.7324C100.184 67.4264 99.858 67.1888 99.4739 67.0195C99.0963 66.8503 98.6764 66.7656 98.2141 66.7656C97.5696 66.7656 97.0032 66.9121 96.5149 67.2051C96.0332 67.498 95.623 67.8854 95.2845 68.3672C94.9524 68.849 94.679 69.373 94.4641 69.9395C94.2558 70.5059 94.1028 71.0625 94.0052 71.6094ZM110.161 75.0176L111.098 69.5586C111.202 68.9596 111.154 68.4518 110.952 68.0352C110.756 67.6185 110.447 67.3027 110.024 67.0879C109.601 66.873 109.096 66.7656 108.51 66.7656C107.97 66.7656 107.436 66.8665 106.909 67.0684C106.388 67.2637 105.932 67.5534 105.542 67.9375C105.151 68.3151 104.891 68.7806 104.76 69.334L104.233 69.3145C104.331 68.8262 104.516 68.3932 104.79 68.0156C105.07 67.6315 105.408 67.3092 105.805 67.0488C106.202 66.7884 106.632 66.5898 107.094 66.4531C107.563 66.3099 108.035 66.2383 108.51 66.2383C109.187 66.2383 109.78 66.3717 110.288 66.6387C110.795 66.8991 111.17 67.2799 111.411 67.7812C111.658 68.276 111.726 68.875 111.616 69.5781L110.708 74.8711C110.649 75.2031 110.603 75.5417 110.571 75.8867C110.545 76.2318 110.561 76.5736 110.62 76.9121L110.61 77H110.014C109.988 76.668 109.991 76.3359 110.024 76.0039C110.057 75.6719 110.102 75.3431 110.161 75.0176ZM111.059 71.1016L111.01 71.6387H108.374C107.918 71.6452 107.436 71.694 106.928 71.7852C106.42 71.8698 105.932 72.0163 105.463 72.2246C104.995 72.4264 104.591 72.7031 104.252 73.0547C103.92 73.3997 103.702 73.8359 103.598 74.3633C103.514 74.832 103.566 75.2389 103.754 75.584C103.943 75.929 104.22 76.196 104.585 76.3848C104.949 76.5736 105.35 76.6712 105.786 76.6777C106.482 76.6842 107.127 76.5638 107.719 76.3164C108.318 76.0625 108.855 75.7142 109.331 75.2715C109.806 74.8223 110.21 74.3014 110.542 73.709L110.708 74.2168C110.473 74.6725 110.183 75.0859 109.838 75.457C109.493 75.8281 109.106 76.1439 108.676 76.4043C108.247 76.6582 107.788 76.8535 107.299 76.9902C106.818 77.127 106.316 77.1953 105.795 77.1953C105.236 77.1888 104.734 77.0716 104.292 76.8438C103.849 76.6094 103.514 76.2773 103.286 75.8477C103.058 75.418 102.989 74.9102 103.081 74.3242C103.178 73.7188 103.406 73.2109 103.764 72.8008C104.122 72.3906 104.555 72.0618 105.063 71.8145C105.577 71.5671 106.121 71.388 106.694 71.2773C107.267 71.1667 107.814 71.1081 108.335 71.1016H111.059ZM115.389 68.2695L113.885 77H113.357L115.174 66.4336H115.701L115.389 68.2695ZM119.783 66.3555L119.656 66.8047C119.552 66.7917 119.448 66.7819 119.344 66.7754C119.239 66.7624 119.132 66.7559 119.021 66.7559C118.396 66.7559 117.843 66.8926 117.361 67.166C116.879 67.4329 116.463 67.791 116.111 68.2402C115.766 68.6895 115.48 69.1842 115.252 69.7246C115.03 70.2585 114.864 70.7923 114.754 71.3262L114.392 71.3555C114.51 70.75 114.682 70.1445 114.91 69.5391C115.144 68.9336 115.447 68.3802 115.818 67.8789C116.196 67.3776 116.648 66.9772 117.176 66.6777C117.709 66.3783 118.331 66.2318 119.041 66.2383C119.171 66.2383 119.298 66.248 119.422 66.2676C119.545 66.2871 119.666 66.3164 119.783 66.3555ZM125.948 75.0176L126.886 69.5586C126.99 68.9596 126.941 68.4518 126.739 68.0352C126.544 67.6185 126.235 67.3027 125.812 67.0879C125.388 66.873 124.884 66.7656 124.298 66.7656C123.758 66.7656 123.224 66.8665 122.696 67.0684C122.176 67.2637 121.72 67.5534 121.329 67.9375C120.939 68.3151 120.678 68.7806 120.548 69.334L120.021 69.3145C120.118 68.8262 120.304 68.3932 120.577 68.0156C120.857 67.6315 121.196 67.3092 121.593 67.0488C121.99 66.7884 122.42 66.5898 122.882 66.4531C123.351 66.3099 123.823 66.2383 124.298 66.2383C124.975 66.2383 125.567 66.3717 126.075 66.6387C126.583 66.8991 126.957 67.2799 127.198 67.7812C127.446 68.276 127.514 68.875 127.403 69.5781L126.495 74.8711C126.437 75.2031 126.391 75.5417 126.359 75.8867C126.332 76.2318 126.349 76.5736 126.407 76.9121L126.398 77H125.802C125.776 76.668 125.779 76.3359 125.812 76.0039C125.844 75.6719 125.89 75.3431 125.948 75.0176ZM126.847 71.1016L126.798 71.6387H124.161C123.706 71.6452 123.224 71.694 122.716 71.7852C122.208 71.8698 121.72 72.0163 121.251 72.2246C120.782 72.4264 120.379 72.7031 120.04 73.0547C119.708 73.3997 119.49 73.8359 119.386 74.3633C119.301 74.832 119.353 75.2389 119.542 75.584C119.731 75.929 120.008 76.196 120.372 76.3848C120.737 76.5736 121.137 76.6712 121.573 76.6777C122.27 76.6842 122.915 76.5638 123.507 76.3164C124.106 76.0625 124.643 75.7142 125.118 75.2715C125.594 74.8223 125.997 74.3014 126.329 73.709L126.495 74.2168C126.261 74.6725 125.971 75.0859 125.626 75.457C125.281 75.8281 124.894 76.1439 124.464 76.4043C124.034 76.6582 123.575 76.8535 123.087 76.9902C122.605 77.127 122.104 77.1953 121.583 77.1953C121.023 77.1888 120.522 77.0716 120.079 76.8438C119.637 76.6094 119.301 76.2773 119.073 75.8477C118.845 75.418 118.777 74.9102 118.868 74.3242C118.966 73.7188 119.194 73.2109 119.552 72.8008C119.91 72.3906 120.343 72.0618 120.851 71.8145C121.365 71.5671 121.909 71.388 122.482 71.2773C123.054 71.1667 123.601 71.1081 124.122 71.1016H126.847ZM131.108 68.6895L129.672 77H129.145L130.961 66.4336H131.489L131.108 68.6895ZM130.659 70.8086L130.463 70.2422C130.62 69.7279 130.841 69.2331 131.127 68.7578C131.42 68.2826 131.765 67.8561 132.162 67.4785C132.566 67.1009 133.015 66.8014 133.51 66.5801C134.005 66.3587 134.539 66.2448 135.112 66.2383C135.711 66.2383 136.199 66.3424 136.577 66.5508C136.961 66.7591 137.25 67.0488 137.446 67.4199C137.648 67.7845 137.768 68.2044 137.807 68.6797C137.846 69.1484 137.827 69.6432 137.748 70.1641L136.567 77H136.039L137.221 70.1641C137.319 69.5716 137.332 69.015 137.26 68.4941C137.189 67.9733 136.983 67.5534 136.645 67.2344C136.306 66.9089 135.789 66.7493 135.092 66.7559C134.539 66.7624 134.024 66.8828 133.549 67.1172C133.074 67.3516 132.644 67.6641 132.26 68.0547C131.876 68.4388 131.547 68.8717 131.274 69.3535C131 69.8288 130.795 70.3138 130.659 70.8086ZM144.793 66.4336L144.724 66.9707H139.959L140.037 66.4336H144.793ZM142.429 63.582H142.966L141.082 74.4707C141.023 74.8092 141 75.1478 141.013 75.4863C141.026 75.8184 141.121 76.0983 141.297 76.3262C141.472 76.5475 141.772 76.6615 142.195 76.668C142.377 76.668 142.556 76.6582 142.732 76.6387C142.908 76.6191 143.084 76.5996 143.259 76.5801L143.279 77.0781C143.103 77.1237 142.927 77.153 142.752 77.166C142.576 77.1855 142.397 77.1953 142.215 77.1953C141.661 77.1888 141.254 77.0586 140.994 76.8047C140.733 76.5443 140.574 76.209 140.515 75.7988C140.463 75.3822 140.476 74.9395 140.554 74.4707L142.429 63.582ZM147.794 66.4336L145.978 77H145.45L147.267 66.4336H147.794ZM147.433 64.8125L149.61 62.2441L150.274 62.2539L148.038 64.8223L147.433 64.8125ZM155.707 75.0176L156.645 69.5586C156.749 68.9596 156.7 68.4518 156.498 68.0352C156.303 67.6185 155.994 67.3027 155.571 67.0879C155.147 66.873 154.643 66.7656 154.057 66.7656C153.517 66.7656 152.983 66.8665 152.455 67.0684C151.934 67.2637 151.479 67.5534 151.088 67.9375C150.698 68.3151 150.437 68.7806 150.307 69.334L149.78 69.3145C149.877 68.8262 150.063 68.3932 150.336 68.0156C150.616 67.6315 150.955 67.3092 151.352 67.0488C151.749 66.7884 152.179 66.5898 152.641 66.4531C153.11 66.3099 153.582 66.2383 154.057 66.2383C154.734 66.2383 155.326 66.3717 155.834 66.6387C156.342 66.8991 156.716 67.2799 156.957 67.7812C157.205 68.276 157.273 68.875 157.162 69.5781L156.254 74.8711C156.196 75.2031 156.15 75.5417 156.117 75.8867C156.091 76.2318 156.108 76.5736 156.166 76.9121L156.156 77H155.561C155.535 76.668 155.538 76.3359 155.571 76.0039C155.603 75.6719 155.649 75.3431 155.707 75.0176ZM156.606 71.1016L156.557 71.6387H153.92C153.464 71.6452 152.983 71.694 152.475 71.7852C151.967 71.8698 151.479 72.0163 151.01 72.2246C150.541 72.4264 150.138 72.7031 149.799 73.0547C149.467 73.3997 149.249 73.8359 149.145 74.3633C149.06 74.832 149.112 75.2389 149.301 75.584C149.49 75.929 149.767 76.196 150.131 76.3848C150.496 76.5736 150.896 76.6712 151.332 76.6777C152.029 76.6842 152.673 76.5638 153.266 76.3164C153.865 76.0625 154.402 75.7142 154.877 75.2715C155.352 74.8223 155.756 74.3014 156.088 73.709L156.254 74.2168C156.02 74.6725 155.73 75.0859 155.385 75.457C155.04 75.8281 154.653 76.1439 154.223 76.4043C153.793 76.6582 153.334 76.8535 152.846 76.9902C152.364 77.127 151.863 77.1953 151.342 77.1953C150.782 77.1888 150.281 77.0716 149.838 76.8438C149.395 76.6094 149.06 76.2773 148.832 75.8477C148.604 75.418 148.536 74.9102 148.627 74.3242C148.725 73.7188 148.953 73.2109 149.311 72.8008C149.669 72.3906 150.102 72.0618 150.61 71.8145C151.124 71.5671 151.668 71.388 152.24 71.2773C152.813 71.1667 153.36 71.1081 153.881 71.1016H156.606Z" fill="black"/>
</svg>
