<svg width="45" height="16" viewBox="0 0 45 16" fill="none" xmlns="http://www.w3.org/2000/svg">
<path d="M8.48627 14.4727L8.40814 15H0.185488L0.253847 14.4727H8.48627ZM2.97846 0.78125L0.527285 15H-5.91278e-05L2.45111 0.78125H2.97846ZM8.74018 7.42188L8.67182 7.94922H1.40619L1.48432 7.42188H8.74018ZM10.8593 0.78125L10.7812 1.30859H2.55853L2.62689 0.78125H10.8593ZM12.3762 6.69922L10.9406 15H10.4133L12.2199 4.43359H12.7571L12.3762 6.69922ZM11.9465 8.80859L11.7512 8.24219C11.9074 7.72786 12.1288 7.23307 12.4153 6.75781C12.7017 6.28255 13.0435 5.85612 13.4406 5.47852C13.8378 5.10091 14.2805 4.80143 14.7688 4.58008C15.2636 4.35872 15.7974 4.24479 16.3703 4.23828C16.9498 4.23828 17.4315 4.33268 17.8156 4.52148C18.1998 4.71029 18.496 4.97721 18.7043 5.32227C18.9192 5.66081 19.0526 6.05794 19.1047 6.51367C19.1633 6.96289 19.1503 7.44792 19.0656 7.96875L17.8547 15H17.3371L18.5481 7.96875C18.6457 7.3763 18.6457 6.83594 18.5481 6.34766C18.4569 5.85938 18.2356 5.47201 17.884 5.18555C17.5324 4.89258 17.0214 4.74935 16.3508 4.75586C15.7974 4.76237 15.2831 4.88281 14.8078 5.11719C14.3391 5.35156 13.9126 5.66406 13.5285 6.05469C13.1509 6.44531 12.8287 6.87826 12.5617 7.35352C12.2948 7.82878 12.0897 8.3138 11.9465 8.80859ZM19.0754 7.96875L18.7531 7.62695C18.9224 7.14518 19.1568 6.69922 19.4563 6.28906C19.7557 5.8724 20.1041 5.51432 20.5012 5.21484C20.9048 4.90885 21.3443 4.67122 21.8196 4.50195C22.3013 4.33268 22.8026 4.24479 23.3235 4.23828C23.9224 4.23828 24.414 4.34245 24.7981 4.55078C25.1822 4.75911 25.4751 5.04557 25.677 5.41016C25.8788 5.77474 26.0025 6.19466 26.0481 6.66992C26.0936 7.14518 26.0741 7.64323 25.9895 8.16406L24.8078 15H24.2903L25.4621 8.16406C25.5598 7.57161 25.5696 7.01497 25.4914 6.49414C25.4198 5.9668 25.2115 5.54362 24.8664 5.22461C24.5279 4.89909 24.0071 4.74284 23.3039 4.75586C22.8287 4.76888 22.3697 4.85677 21.927 5.01953C21.4843 5.18229 21.0741 5.41016 20.6965 5.70312C20.3189 5.98958 19.9901 6.32812 19.7102 6.71875C19.4302 7.10286 19.2186 7.51953 19.0754 7.96875ZM34.4106 13.0176L35.3481 7.55859C35.4523 6.95964 35.4035 6.45182 35.2017 6.03516C35.0063 5.61849 34.6971 5.30273 34.2739 5.08789C33.8507 4.87305 33.3462 4.76562 32.7603 4.76562C32.2199 4.76562 31.686 4.86654 31.1587 5.06836C30.6379 5.26367 30.1821 5.55339 29.7915 5.9375C29.4009 6.3151 29.1405 6.7806 29.0103 7.33398L28.4829 7.31445C28.5806 6.82617 28.7661 6.39323 29.0396 6.01562C29.3195 5.63151 29.658 5.30924 30.0552 5.04883C30.4523 4.78841 30.882 4.58984 31.3442 4.45312C31.813 4.3099 32.285 4.23828 32.7603 4.23828C33.4373 4.23828 34.0298 4.37174 34.5376 4.63867C35.0454 4.89909 35.4198 5.27995 35.6606 5.78125C35.908 6.27604 35.9764 6.875 35.8657 7.57812L34.9575 12.8711C34.8989 13.2031 34.8534 13.5417 34.8208 13.8867C34.7948 14.2318 34.811 14.5736 34.8696 14.9121L34.8599 15H34.2642C34.2381 14.668 34.2414 14.3359 34.2739 14.0039C34.3065 13.6719 34.3521 13.3431 34.4106 13.0176ZM35.3091 9.10156L35.2603 9.63867H32.6235C32.1678 9.64518 31.686 9.69401 31.1782 9.78516C30.6704 9.86979 30.1821 10.0163 29.7134 10.2246C29.2446 10.4264 28.841 10.7031 28.5024 11.0547C28.1704 11.3997 27.9523 11.8359 27.8481 12.3633C27.7635 12.832 27.8156 13.2389 28.0044 13.584C28.1932 13.929 28.4699 14.196 28.8345 14.3848C29.1991 14.5736 29.5994 14.6712 30.0356 14.6777C30.7323 14.6842 31.3768 14.5638 31.9692 14.3164C32.5682 14.0625 33.1053 13.7142 33.5806 13.2715C34.0558 12.8223 34.4595 12.3014 34.7915 11.709L34.9575 12.2168C34.7231 12.6725 34.4334 13.0859 34.0884 13.457C33.7433 13.8281 33.356 14.1439 32.9263 14.4043C32.4966 14.6582 32.0376 14.8535 31.5493 14.9902C31.0675 15.127 30.5662 15.1953 30.0454 15.1953C29.4855 15.1888 28.9842 15.0716 28.5415 14.8438C28.0988 14.6094 27.7635 14.2773 27.5356 13.8477C27.3078 13.418 27.2394 12.9102 27.3306 12.3242C27.4282 11.7188 27.6561 11.2109 28.0142 10.8008C28.3722 10.3906 28.8052 10.0618 29.313 9.81445C29.8273 9.56706 30.3709 9.38802 30.9438 9.27734C31.5168 9.16667 32.0636 9.10807 32.5845 9.10156H35.3091ZM40.0779 4.43359L38.2615 15H37.7342L39.5506 4.43359H40.0779ZM39.8631 1.11328C39.8826 0.983073 39.951 0.86263 40.0681 0.751953C40.1918 0.641276 40.3221 0.585938 40.4588 0.585938C40.6085 0.585938 40.729 0.644531 40.8201 0.761719C40.9178 0.878906 40.9536 1.00911 40.9275 1.15234C40.908 1.28255 40.8364 1.40299 40.7127 1.51367C40.589 1.61784 40.4588 1.66992 40.3221 1.66992C40.1788 1.66992 40.0584 1.61458 39.9607 1.50391C39.8696 1.38672 39.837 1.25651 39.8631 1.11328ZM44.5635 0L41.9854 15H41.4581L44.0362 0H44.5635Z" fill="black"/>
</svg>
