<svg width="597" height="75" viewBox="0 0 597 75" fill="none" xmlns="http://www.w3.org/2000/svg">
<path d="M17.4844 4.78125L5.67188 73.0312H0L11.8125 4.78125H17.4844ZM42.8906 36.1875L42.0469 41.1562H9.28125L10.125 36.1875H42.8906ZM52.875 4.78125L52.0312 9.75H14.7188L15.5625 4.78125H52.875ZM91.5938 68.1094L90.75 73.0312H56.3906L57.1875 68.1094H91.5938ZM69.8906 4.78125L58.0781 73.0312H52.4062L64.2188 4.78125H69.8906ZM150.797 4.78125H156.422L148.5 50.9531C147.781 55.5781 146.188 59.625 143.719 63.0938C141.25 66.5625 138.125 69.2656 134.344 71.2031C130.562 73.1094 126.312 74.0312 121.594 73.9688C117.062 73.9375 113.203 72.9375 110.016 70.9688C106.859 69 104.562 66.2969 103.125 62.8594C101.688 59.4219 101.266 55.4688 101.859 51L109.828 4.78125H115.406L107.484 51.0469C107.016 54.4531 107.25 57.5 108.188 60.1875C109.125 62.875 110.734 65.0156 113.016 66.6094C115.297 68.1719 118.234 68.9844 121.828 69.0469C125.516 69.0781 128.828 68.3438 131.766 66.8438C134.703 65.3125 137.125 63.1875 139.031 60.4688C140.969 57.75 142.25 54.5938 142.875 51L150.797 4.78125ZM193.031 52.7344L201.281 4.78125H206.906L198.703 52.6875C198.078 56.7188 196.734 60.3594 194.672 63.6094C192.609 66.8281 189.953 69.375 186.703 71.25C183.453 73.0938 179.703 74.0156 175.453 74.0156C171.391 73.9844 168.016 73.1406 165.328 71.4844C162.641 69.7969 160.688 67.4844 159.469 64.5469C158.281 61.5781 157.891 58.125 158.297 54.1875H163.969C163.594 57.0625 163.75 59.6094 164.438 61.8281C165.156 64.0469 166.438 65.7969 168.281 67.0781C170.125 68.3594 172.578 69.0156 175.641 69.0469C178.859 69.0781 181.672 68.3438 184.078 66.8438C186.484 65.3438 188.453 63.3594 189.984 60.8906C191.516 58.3906 192.531 55.6719 193.031 52.7344ZM266.953 35.25L265.781 42.5156C265.125 46.5156 263.984 50.4062 262.359 54.1875C260.766 57.9375 258.672 61.3125 256.078 64.3125C253.516 67.3125 250.469 69.6875 246.938 71.4375C243.438 73.1562 239.453 74 234.984 73.9688C230.641 73.9375 227 73 224.062 71.1562C221.125 69.3125 218.844 66.875 217.219 63.8438C215.594 60.7812 214.531 57.4062 214.031 53.7188C213.562 50.0312 213.609 46.3125 214.172 42.5625L215.344 35.2969C215.969 31.2969 217.094 27.4219 218.719 23.6719C220.375 19.8906 222.484 16.5 225.047 13.5C227.641 10.5 230.688 8.14063 234.188 6.42188C237.719 4.67188 241.703 3.8125 246.141 3.84375C250.516 3.875 254.156 4.8125 257.062 6.65625C260 8.5 262.281 10.9375 263.906 13.9688C265.531 17 266.578 20.375 267.047 24.0938C267.516 27.7812 267.484 31.5 266.953 35.25ZM260.156 42.5625L261.375 35.1562C261.812 32.1875 261.922 29.1875 261.703 26.1562C261.516 23.0938 260.859 20.2656 259.734 17.6719C258.641 15.0781 256.969 12.9844 254.719 11.3906C252.5 9.79688 249.562 8.96875 245.906 8.90625C242.281 8.875 239.031 9.60938 236.156 11.1094C233.312 12.5781 230.859 14.5937 228.797 17.1562C226.734 19.6875 225.047 22.5156 223.734 25.6406C222.453 28.7656 221.547 31.9375 221.016 35.1562L219.797 42.5625C219.359 45.5 219.234 48.5 219.422 51.5625C219.641 54.625 220.297 57.4531 221.391 60.0469C222.516 62.6406 224.188 64.75 226.406 66.375C228.656 68 231.578 68.8438 235.172 68.9062C238.891 68.9688 242.172 68.25 245.016 66.75C247.891 65.25 250.359 63.2344 252.422 60.7031C254.484 58.1719 256.156 55.3281 257.438 52.1719C258.719 49.0156 259.625 45.8125 260.156 42.5625ZM309.656 39.2344L305.25 37.9219L313.641 4.78125H346.781L346.031 10.0312H317.625L311.391 33.0469C313.266 31.7969 315.312 30.8594 317.531 30.2344C319.75 29.5781 321.984 29.2656 324.234 29.2969C327.328 29.2969 330 29.9062 332.25 31.125C334.5 32.3125 336.312 33.9375 337.688 36C339.094 38.0312 340.047 40.3594 340.547 42.9844C341.078 45.5781 341.188 48.2969 340.875 51.1406C340.5 54.2656 339.734 57.2188 338.578 60C337.422 62.7812 335.875 65.2344 333.938 67.3594C332 69.4531 329.688 71.0938 327 72.2812C324.344 73.4688 321.328 74.0312 317.953 73.9688C315.109 73.9688 312.578 73.5 310.359 72.5625C308.172 71.625 306.328 70.3125 304.828 68.625C303.328 66.9062 302.188 64.9062 301.406 62.625C300.625 60.3125 300.234 57.7969 300.234 55.0781H305.484C305.484 57.7969 305.938 60.2188 306.844 62.3438C307.75 64.4375 309.125 66.0938 310.969 67.3125C312.844 68.5312 315.234 69.1562 318.141 69.1875C320.766 69.1875 323.062 68.7031 325.031 67.7344C327.031 66.7656 328.734 65.4375 330.141 63.75C331.578 62.0625 332.719 60.1406 333.562 57.9844C334.406 55.8281 335 53.5625 335.344 51.1875C335.625 49.0312 335.594 46.9688 335.25 45C334.906 43 334.234 41.2188 333.234 39.6562C332.234 38.0625 330.891 36.8125 329.203 35.9062C327.516 34.9688 325.484 34.4688 323.109 34.4062C320.516 34.375 318.125 34.7812 315.938 35.625C313.781 36.4688 311.688 37.6719 309.656 39.2344ZM347.344 69.6094C347.375 68.5469 347.781 67.625 348.562 66.8438C349.344 66.0625 350.281 65.6562 351.375 65.625C352.5 65.625 353.422 66 354.141 66.75C354.859 67.5 355.188 68.4375 355.125 69.5625C355.062 70.6562 354.641 71.5781 353.859 72.3281C353.078 73.0781 352.141 73.4531 351.047 73.4531C349.922 73.4844 349 73.1406 348.281 72.4219C347.562 71.6719 347.25 70.7344 347.344 69.6094ZM354.984 26.3438C355.016 25.2812 355.422 24.3594 356.203 23.5781C356.984 22.7969 357.922 22.3906 359.016 22.3594C360.141 22.3594 361.062 22.7344 361.781 23.4844C362.5 24.2344 362.828 25.1719 362.766 26.2969C362.703 27.3906 362.281 28.3125 361.5 29.0625C360.719 29.8125 359.781 30.1875 358.688 30.1875C357.562 30.2188 356.641 29.875 355.922 29.1562C355.203 28.4062 354.891 27.4688 354.984 26.3438ZM420.375 45.2344H401.109L401.906 40.3125H420.516C423.766 40.2812 426.781 39.7031 429.562 38.5781C432.344 37.4219 434.656 35.7344 436.5 33.5156C438.375 31.2656 439.578 28.4375 440.109 25.0312C440.609 21.875 440.344 19.1719 439.312 16.9219C438.312 14.6719 436.703 12.9375 434.484 11.7188C432.266 10.5 429.609 9.84375 426.516 9.75H409.266L398.297 73.0312H392.625L404.438 4.78125H426.609C430.672 4.875 434.234 5.71875 437.297 7.3125C440.391 8.875 442.703 11.1562 444.234 14.1562C445.797 17.125 446.312 20.7188 445.781 24.9375C445.219 29.4688 443.75 33.2344 441.375 36.2344C439 39.2344 435.984 41.4844 432.328 42.9844C428.703 44.4531 424.719 45.2031 420.375 45.2344ZM468 73.9688C464.562 73.9375 461.594 73.2188 459.094 71.8125C456.594 70.4062 454.562 68.5312 453 66.1875C451.469 63.8125 450.391 61.1562 449.766 58.2188C449.172 55.2812 449.047 52.2656 449.391 49.1719L449.672 47.1094C450.078 43.9844 450.938 40.8906 452.25 37.8281C453.562 34.7656 455.266 32 457.359 29.5312C459.484 27.0312 461.969 25.0469 464.812 23.5781C467.656 22.0781 470.812 21.3437 474.281 21.375C477.562 21.4063 480.312 22.0937 482.531 23.4375C484.781 24.75 486.562 26.5156 487.875 28.7344C489.188 30.9531 490.047 33.4375 490.453 36.1875C490.891 38.9375 490.938 41.75 490.594 44.625L490.125 48.0469H452.812L453.516 43.2656H485.203L485.344 42.6094C485.75 39.9531 485.609 37.375 484.922 34.875C484.266 32.375 483.047 30.3125 481.266 28.6875C479.484 27.0625 477.094 26.2344 474.094 26.2031C471.281 26.1406 468.781 26.7344 466.594 27.9844C464.406 29.2031 462.516 30.8594 460.922 32.9531C459.359 35.0156 458.094 37.2969 457.125 39.7969C456.156 42.2656 455.484 44.7031 455.109 47.1094L454.875 49.125C454.562 51.4688 454.578 53.8125 454.922 56.1562C455.297 58.5 456.016 60.6562 457.078 62.625C458.172 64.5625 459.641 66.1406 461.484 67.3594C463.359 68.5469 465.641 69.1562 468.328 69.1875C471.328 69.25 474.031 68.6562 476.438 67.4062C478.875 66.125 481.109 64.4375 483.141 62.3438L486.422 65.0625C484.922 67 483.203 68.6406 481.266 69.9844C479.359 71.3281 477.281 72.3281 475.031 72.9844C472.781 73.6406 470.438 73.9688 468 73.9688ZM509.109 30.8906L501.844 73.0312H496.359L505.125 22.3125H510.469L509.109 30.8906ZM527.906 21.9375L527.203 27.0469C526.641 26.9531 526.062 26.875 525.469 26.8125C524.875 26.75 524.281 26.7188 523.688 26.7188C521.156 26.6875 518.906 27.1562 516.938 28.125C515 29.0938 513.297 30.4062 511.828 32.0625C510.391 33.7188 509.188 35.5938 508.219 37.6875C507.25 39.75 506.5 41.875 505.969 44.0625L503.766 44.8594C504.234 42.1406 504.938 39.3906 505.875 36.6094C506.844 33.8281 508.125 31.2812 509.719 28.9688C511.344 26.625 513.328 24.75 515.672 23.3438C518.047 21.9375 520.859 21.2656 524.109 21.3281C524.766 21.3281 525.406 21.3906 526.031 21.5156C526.656 21.6094 527.281 21.75 527.906 21.9375ZM536.438 73.0312H530.953L540.562 16.9688C541.094 13.5938 542.172 10.6406 543.797 8.10938C545.422 5.54687 547.547 3.5625 550.172 2.15625C552.828 0.71875 555.906 0 559.406 0C561.562 0.03125 563.672 0.3125 565.734 0.84375C567.828 1.34375 569.875 1.98437 571.875 2.76562L570.516 7.64062C568.766 6.82813 566.984 6.20312 565.172 5.76562C563.391 5.32813 561.531 5.10938 559.594 5.10938C555.875 5.10938 552.844 6.1875 550.5 8.34375C548.188 10.5 546.703 13.375 546.047 16.9688L536.438 73.0312ZM556.734 22.3125L555.938 26.9062H530.766L531.562 22.3125H556.734ZM571.594 22.3125L562.828 73.0312H557.344L566.109 22.3125H571.594ZM596.297 1.03125L583.875 73.0312H578.391L590.812 1.03125H596.297Z" fill="black"/>
</svg>
