<svg width="125" height="27" viewBox="0 0 125 27" fill="none" xmlns="http://www.w3.org/2000/svg">
<path d="M15.3535 10.2676V17.5547C15.1074 17.9193 14.7155 18.3294 14.1777 18.7852C13.64 19.2318 12.8971 19.6237 11.9492 19.9609C11.0104 20.2891 9.79818 20.4531 8.3125 20.4531C7.10026 20.4531 5.98372 20.2435 4.96289 19.8242C3.95117 19.3958 3.07161 18.776 2.32422 17.9648C1.58594 17.1445 1.01172 16.151 0.601562 14.9844C0.200521 13.8086 0 12.4779 0 10.9922V9.44727C0 7.96159 0.173177 6.63542 0.519531 5.46875C0.875 4.30208 1.39453 3.31315 2.07812 2.50195C2.76172 1.68164 3.60026 1.06185 4.59375 0.642578C5.58724 0.214193 6.72656 0 8.01172 0C9.53385 0 10.8053 0.264323 11.8262 0.792969C12.8561 1.3125 13.6582 2.03255 14.2324 2.95312C14.8158 3.8737 15.1895 4.92188 15.3535 6.09766H12.7148C12.5964 5.3776 12.3594 4.72135 12.0039 4.12891C11.6576 3.53646 11.1608 3.0625 10.5137 2.70703C9.86654 2.34245 9.03255 2.16016 8.01172 2.16016C7.09115 2.16016 6.29362 2.32878 5.61914 2.66602C4.94466 3.00326 4.38867 3.48633 3.95117 4.11523C3.51367 4.74414 3.18555 5.50521 2.9668 6.39844C2.75716 7.29167 2.65234 8.29883 2.65234 9.41992V10.9922C2.65234 12.1406 2.78451 13.166 3.04883 14.0684C3.32227 14.9707 3.70964 15.7409 4.21094 16.3789C4.71224 17.0078 5.30924 17.4863 6.00195 17.8145C6.70378 18.1426 7.47852 18.3066 8.32617 18.3066C9.26497 18.3066 10.026 18.2292 10.6094 18.0742C11.1927 17.9102 11.6484 17.7188 11.9766 17.5C12.3047 17.2721 12.5553 17.0579 12.7285 16.8574V12.4004H8.12109V10.2676H15.3535ZM28.0684 17.6504V10.0352C28.0684 9.45182 27.9499 8.94596 27.7129 8.51758C27.485 8.08008 27.1387 7.74284 26.6738 7.50586C26.209 7.26888 25.6348 7.15039 24.9512 7.15039C24.3132 7.15039 23.7526 7.25977 23.2695 7.47852C22.7956 7.69727 22.4219 7.98438 22.1484 8.33984C21.8841 8.69531 21.752 9.07812 21.752 9.48828H19.2227C19.2227 8.95964 19.3594 8.43555 19.6328 7.91602C19.9062 7.39648 20.2982 6.92708 20.8086 6.50781C21.3281 6.07943 21.9479 5.74219 22.668 5.49609C23.3971 5.24089 24.2083 5.11328 25.1016 5.11328C26.1771 5.11328 27.125 5.29557 27.9453 5.66016C28.7747 6.02474 29.4219 6.57617 29.8867 7.31445C30.3607 8.04362 30.5977 8.95964 30.5977 10.0625V16.9531C30.5977 17.4453 30.6387 17.9694 30.7207 18.5254C30.8118 19.0814 30.944 19.5599 31.1172 19.9609V20.1797H28.4785C28.3509 19.888 28.2507 19.5007 28.1777 19.0176C28.1048 18.5254 28.0684 18.0697 28.0684 17.6504ZM28.5059 11.2109L28.5332 12.9883H25.9766C25.2565 12.9883 24.6139 13.0475 24.0488 13.166C23.4837 13.2754 23.0098 13.444 22.627 13.6719C22.2441 13.8997 21.9525 14.1868 21.752 14.5332C21.5514 14.8704 21.4512 15.2669 21.4512 15.7227C21.4512 16.1875 21.556 16.6113 21.7656 16.9941C21.9753 17.377 22.2897 17.6823 22.709 17.9102C23.1374 18.1289 23.6615 18.2383 24.2812 18.2383C25.056 18.2383 25.7396 18.0742 26.332 17.7461C26.9245 17.418 27.3939 17.0169 27.7402 16.543C28.0957 16.069 28.2871 15.6087 28.3145 15.1621L29.3945 16.3789C29.3307 16.7617 29.1576 17.1855 28.875 17.6504C28.5924 18.1152 28.2142 18.5618 27.7402 18.9902C27.2754 19.4095 26.7194 19.7604 26.0723 20.043C25.4342 20.3164 24.7142 20.4531 23.9121 20.4531C22.9095 20.4531 22.0299 20.2572 21.2734 19.8652C20.526 19.4733 19.9427 18.9492 19.5234 18.293C19.1133 17.6276 18.9082 16.8848 18.9082 16.0645C18.9082 15.2715 19.0632 14.5742 19.373 13.9727C19.6829 13.362 20.1296 12.8561 20.7129 12.4551C21.2962 12.0449 21.998 11.735 22.8184 11.5254C23.6387 11.3158 24.5547 11.2109 25.5664 11.2109H28.5059ZM37.1055 8.54492V20.1797H34.5762V5.38672H36.9688L37.1055 8.54492ZM36.5039 12.2227L35.4512 12.1816C35.4603 11.1699 35.6107 10.2357 35.9023 9.37891C36.194 8.51302 36.6042 7.76107 37.1328 7.12305C37.6615 6.48503 38.2904 5.99284 39.0195 5.64648C39.7578 5.29102 40.5736 5.11328 41.4668 5.11328C42.196 5.11328 42.8522 5.21354 43.4355 5.41406C44.0189 5.60547 44.5156 5.91536 44.9258 6.34375C45.3451 6.77214 45.6641 7.32812 45.8828 8.01172C46.1016 8.6862 46.2109 9.51107 46.2109 10.4863V20.1797H43.668V10.459C43.668 9.68424 43.554 9.06445 43.3262 8.59961C43.0983 8.12565 42.7656 7.78385 42.3281 7.57422C41.8906 7.35547 41.3529 7.24609 40.7148 7.24609C40.0859 7.24609 39.5117 7.37826 38.9922 7.64258C38.4818 7.9069 38.0397 8.27148 37.666 8.73633C37.3014 9.20117 37.0143 9.73438 36.8047 10.3359C36.6042 10.9284 36.5039 11.5573 36.5039 12.2227ZM49.3828 12.9473V12.6328C49.3828 11.5664 49.5378 10.5775 49.8477 9.66602C50.1576 8.74544 50.6042 7.94792 51.1875 7.27344C51.7708 6.58984 52.4772 6.0612 53.3066 5.6875C54.1361 5.30469 55.0658 5.11328 56.0957 5.11328C57.1348 5.11328 58.069 5.30469 58.8984 5.6875C59.737 6.0612 60.4479 6.58984 61.0312 7.27344C61.6237 7.94792 62.0749 8.74544 62.3848 9.66602C62.6947 10.5775 62.8496 11.5664 62.8496 12.6328V12.9473C62.8496 14.0137 62.6947 15.0026 62.3848 15.9141C62.0749 16.8255 61.6237 17.623 61.0312 18.3066C60.4479 18.9811 59.7415 19.5098 58.9121 19.8926C58.0918 20.2663 57.1621 20.4531 56.123 20.4531C55.084 20.4531 54.1497 20.2663 53.3203 19.8926C52.4909 19.5098 51.7799 18.9811 51.1875 18.3066C50.6042 17.623 50.1576 16.8255 49.8477 15.9141C49.5378 15.0026 49.3828 14.0137 49.3828 12.9473ZM51.9121 12.6328V12.9473C51.9121 13.6855 51.9987 14.3828 52.1719 15.0391C52.3451 15.6862 52.6048 16.2604 52.9512 16.7617C53.3066 17.263 53.7487 17.6595 54.2773 17.9512C54.806 18.2337 55.4212 18.375 56.123 18.375C56.8158 18.375 57.4219 18.2337 57.9414 17.9512C58.4701 17.6595 58.9076 17.263 59.2539 16.7617C59.6003 16.2604 59.86 15.6862 60.0332 15.0391C60.2155 14.3828 60.3066 13.6855 60.3066 12.9473V12.6328C60.3066 11.9036 60.2155 11.2155 60.0332 10.5684C59.86 9.91211 59.5957 9.33333 59.2402 8.83203C58.8939 8.32161 58.4564 7.92057 57.9277 7.62891C57.4082 7.33724 56.7975 7.19141 56.0957 7.19141C55.403 7.19141 54.7923 7.33724 54.2637 7.62891C53.7441 7.92057 53.3066 8.32161 52.9512 8.83203C52.6048 9.33333 52.3451 9.91211 52.1719 10.5684C51.9987 11.2155 51.9121 11.9036 51.9121 12.6328ZM80.6914 12.373H75.373V10.2266H80.6914C81.7214 10.2266 82.5553 10.0625 83.1934 9.73438C83.8314 9.40625 84.2962 8.95052 84.5879 8.36719C84.8887 7.78385 85.0391 7.11849 85.0391 6.37109C85.0391 5.6875 84.8887 5.04492 84.5879 4.44336C84.2962 3.8418 83.8314 3.35872 83.1934 2.99414C82.5553 2.62044 81.7214 2.43359 80.6914 2.43359H75.9883V20.1797H73.3496V0.273438H80.6914C82.1953 0.273438 83.4668 0.533203 84.5059 1.05273C85.5449 1.57227 86.3333 2.29232 86.8711 3.21289C87.4089 4.12435 87.6777 5.16797 87.6777 6.34375C87.6777 7.61979 87.4089 8.70898 86.8711 9.61133C86.3333 10.5137 85.5449 11.2018 84.5059 11.6758C83.4668 12.1406 82.1953 12.373 80.6914 12.373ZM99.6816 16.7617V5.38672H102.225V20.1797H99.8047L99.6816 16.7617ZM100.16 13.6445L101.213 13.6172C101.213 14.6016 101.108 15.513 100.898 16.3516C100.698 17.181 100.37 17.901 99.9141 18.5117C99.4583 19.1224 98.8613 19.6009 98.123 19.9473C97.3848 20.2845 96.487 20.4531 95.4297 20.4531C94.7096 20.4531 94.0488 20.3483 93.4473 20.1387C92.8548 19.929 92.3444 19.6055 91.916 19.168C91.4876 18.7305 91.1549 18.1608 90.918 17.459C90.6901 16.7572 90.5762 15.9141 90.5762 14.9297V5.38672H93.1055V14.957C93.1055 15.6224 93.1784 16.1738 93.3242 16.6113C93.4792 17.0397 93.6842 17.3815 93.9395 17.6367C94.2038 17.8828 94.4954 18.056 94.8145 18.1562C95.1426 18.2565 95.4798 18.3066 95.8262 18.3066C96.9017 18.3066 97.7539 18.1016 98.3828 17.6914C99.0117 17.2721 99.4629 16.7116 99.7363 16.0098C100.019 15.2988 100.16 14.5104 100.16 13.6445ZM106.148 5.38672H108.691V21.9434C108.691 22.8457 108.546 23.6113 108.254 24.2402C107.971 24.8691 107.543 25.3431 106.969 25.6621C106.404 25.9902 105.688 26.1543 104.822 26.1543C104.594 26.1543 104.33 26.1315 104.029 26.0859C103.719 26.0404 103.46 25.9857 103.25 25.9219L103.264 23.8848C103.437 23.9212 103.633 23.9486 103.852 23.9668C104.07 23.9941 104.262 24.0078 104.426 24.0078C104.799 24.0078 105.114 23.9395 105.369 23.8027C105.624 23.666 105.816 23.4473 105.943 23.1465C106.08 22.8457 106.148 22.4447 106.148 21.9434V5.38672ZM105.889 1.46289C105.889 1.05273 106.016 0.70638 106.271 0.423828C106.527 0.141276 106.896 0 107.379 0C107.871 0 108.245 0.141276 108.5 0.423828C108.755 0.70638 108.883 1.05273 108.883 1.46289C108.883 1.85482 108.755 2.19206 108.5 2.47461C108.245 2.74805 107.871 2.88477 107.379 2.88477C106.896 2.88477 106.527 2.74805 106.271 2.47461C106.016 2.19206 105.889 1.85482 105.889 1.46289ZM121.502 17.6504V10.0352C121.502 9.45182 121.383 8.94596 121.146 8.51758C120.919 8.08008 120.572 7.74284 120.107 7.50586C119.643 7.26888 119.068 7.15039 118.385 7.15039C117.747 7.15039 117.186 7.25977 116.703 7.47852C116.229 7.69727 115.855 7.98438 115.582 8.33984C115.318 8.69531 115.186 9.07812 115.186 9.48828H112.656C112.656 8.95964 112.793 8.43555 113.066 7.91602C113.34 7.39648 113.732 6.92708 114.242 6.50781C114.762 6.07943 115.382 5.74219 116.102 5.49609C116.831 5.24089 117.642 5.11328 118.535 5.11328C119.611 5.11328 120.559 5.29557 121.379 5.66016C122.208 6.02474 122.855 6.57617 123.32 7.31445C123.794 8.04362 124.031 8.95964 124.031 10.0625V16.9531C124.031 17.4453 124.072 17.9694 124.154 18.5254C124.245 19.0814 124.378 19.5599 124.551 19.9609V20.1797H121.912C121.785 19.888 121.684 19.5007 121.611 19.0176C121.538 18.5254 121.502 18.0697 121.502 17.6504ZM121.939 11.2109L121.967 12.9883H119.41C118.69 12.9883 118.048 13.0475 117.482 13.166C116.917 13.2754 116.443 13.444 116.061 13.6719C115.678 13.8997 115.386 14.1868 115.186 14.5332C114.985 14.8704 114.885 15.2669 114.885 15.7227C114.885 16.1875 114.99 16.6113 115.199 16.9941C115.409 17.377 115.723 17.6823 116.143 17.9102C116.571 18.1289 117.095 18.2383 117.715 18.2383C118.49 18.2383 119.173 18.0742 119.766 17.7461C120.358 17.418 120.827 17.0169 121.174 16.543C121.529 16.069 121.721 15.6087 121.748 15.1621L122.828 16.3789C122.764 16.7617 122.591 17.1855 122.309 17.6504C122.026 18.1152 121.648 18.5618 121.174 18.9902C120.709 19.4095 120.153 19.7604 119.506 20.043C118.868 20.3164 118.148 20.4531 117.346 20.4531C116.343 20.4531 115.464 20.2572 114.707 19.8652C113.96 19.4733 113.376 18.9492 112.957 18.293C112.547 17.6276 112.342 16.8848 112.342 16.0645C112.342 15.2715 112.497 14.5742 112.807 13.9727C113.117 13.362 113.563 12.8561 114.146 12.4551C114.73 12.0449 115.432 11.735 116.252 11.5254C117.072 11.3158 117.988 11.2109 119 11.2109H121.939Z" fill="black"/>
</svg>
