<svg width="387" height="175" viewBox="0 0 387 175" fill="none" xmlns="http://www.w3.org/2000/svg">
<ellipse cx="7.3949" cy="169.14" rx="7.3949" ry="1.63366" fill="black"/>
<path d="M2.06169 169.14C2.06169 172.085 4.4495 174.473 7.39502 174.473C10.3405 174.473 12.7284 172.085 12.7284 169.14C12.7284 166.194 10.3405 163.806 7.39502 163.806C4.4495 163.806 2.06169 166.194 2.06169 169.14ZM387 5.77344L377 -6.53267e-05V11.5469L387 5.77344ZM7.39502 169.14V170.14H240.054V169.14V168.14H7.39502V169.14ZM260.054 149.14H261.054V25.7735H260.054H259.054V149.14H260.054ZM280.054 5.77344V6.77344H378V5.77344V4.77344H280.054V5.77344ZM260.054 25.7735H261.054C261.054 15.28 269.561 6.77344 280.054 6.77344V5.77344V4.77344C268.456 4.77344 259.054 14.1755 259.054 25.7735H260.054ZM240.054 169.14V170.14C251.652 170.14 261.054 160.738 261.054 149.14H260.054H259.054C259.054 159.633 250.548 168.14 240.054 168.14V169.14Z" fill="black"/>
</svg>
