<svg width="349" height="175" viewBox="0 0 349 175" fill="none" xmlns="http://www.w3.org/2000/svg">
<ellipse cx="6.66879" cy="1.63366" rx="6.66879" ry="1.63366" transform="matrix(-1 0 0 1 349 167.506)" fill="black"/>
<path d="M347.664 169.14C347.664 172.085 345.277 174.473 342.331 174.473C339.386 174.473 336.998 172.085 336.998 169.14C336.998 166.194 339.386 163.806 342.331 163.806C345.277 163.806 347.664 166.194 347.664 169.14ZM-0.00012207 5.77344L9.99988 -6.53267e-05V11.5469L-0.00012207 5.77344ZM342.331 169.14V170.14H134.481V169.14V168.14H342.331V169.14ZM114.481 149.14H113.481V25.7735H114.481H115.481V149.14H114.481ZM94.4808 5.77344V6.77344H8.99988V5.77344V4.77344H94.4808V5.77344ZM114.481 25.7735H113.481C113.481 15.28 104.974 6.77344 94.4808 6.77344V5.77344V4.77344C106.079 4.77344 115.481 14.1755 115.481 25.7735H114.481ZM134.481 169.14V170.14C122.883 170.14 113.481 160.738 113.481 149.14H114.481H115.481C115.481 159.633 123.987 168.14 134.481 168.14V169.14Z" fill="black"/>
</svg>
