<svg width="285" height="145" viewBox="0 0 285 145" fill="none" xmlns="http://www.w3.org/2000/svg">
<rect x="1" y="1" width="283" height="143" rx="29" stroke="black" stroke-width="2"/>
<path d="M34.626 35.4785H36.501C36.4034 36.377 36.1462 37.181 35.7295 37.8906C35.3129 38.6003 34.7237 39.1634 33.962 39.5801C33.2002 39.9902 32.2497 40.1953 31.1104 40.1953C30.2771 40.1953 29.5186 40.0391 28.835 39.7266C28.1579 39.4141 27.5752 38.9714 27.087 38.3984C26.5987 37.819 26.2211 37.1257 25.9541 36.3184C25.6937 35.5046 25.5635 34.5996 25.5635 33.6035V32.1875C25.5635 31.1914 25.6937 30.2897 25.9541 29.4824C26.2211 28.6686 26.6019 27.972 27.0967 27.3926C27.598 26.8132 28.2002 26.3672 28.9034 26.0547C29.6065 25.7422 30.3975 25.5859 31.2764 25.5859C32.3506 25.5859 33.2588 25.7878 34.001 26.1914C34.7432 26.5951 35.3194 27.1549 35.7295 27.8711C36.1462 28.5807 36.4034 29.4043 36.501 30.3418H34.626C34.5349 29.6777 34.3656 29.1081 34.1182 28.6328C33.8708 28.151 33.5192 27.7799 33.0635 27.5195C32.6078 27.2591 32.0121 27.1289 31.2764 27.1289C30.6449 27.1289 30.0883 27.2493 29.6065 27.4902C29.1312 27.7311 28.7308 28.0729 28.4053 28.5156C28.0863 28.9583 27.8454 29.4889 27.6827 30.1074C27.5199 30.7259 27.4385 31.4128 27.4385 32.168V33.6035C27.4385 34.3001 27.5101 34.9544 27.6534 35.5664C27.8031 36.1784 28.0277 36.7155 28.3272 37.1777C28.6267 37.64 29.0075 38.0046 29.4698 38.2715C29.932 38.5319 30.4789 38.6621 31.1104 38.6621C31.9112 38.6621 32.5492 38.5352 33.0245 38.2812C33.4997 38.0273 33.8578 37.6628 34.0987 37.1875C34.3461 36.7122 34.5218 36.1426 34.626 35.4785ZM44.9808 37.5586V29.4336H46.7972V40H45.0687L44.9808 37.5586ZM45.3226 35.332L46.0745 35.3125C46.0745 36.0156 45.9997 36.6667 45.8499 37.2656C45.7067 37.8581 45.4723 38.3724 45.1468 38.8086C44.8213 39.2448 44.3948 39.5866 43.8675 39.834C43.3402 40.0749 42.6989 40.1953 41.9437 40.1953C41.4293 40.1953 40.9573 40.1204 40.5277 39.9707C40.1045 39.821 39.7399 39.5898 39.4339 39.2773C39.1279 38.9648 38.8903 38.5579 38.721 38.0566C38.5583 37.5553 38.4769 36.9531 38.4769 36.25V29.4336H40.2835V36.2695C40.2835 36.7448 40.3356 37.1387 40.4398 37.4512C40.5504 37.7572 40.6969 38.0013 40.8792 38.1836C41.068 38.3594 41.2764 38.4831 41.5042 38.5547C41.7386 38.6263 41.9795 38.6621 42.2269 38.6621C42.9951 38.6621 43.6038 38.5156 44.053 38.2227C44.5023 37.9232 44.8245 37.5228 45.0198 37.0215C45.2217 36.5137 45.3226 35.9505 45.3226 35.332ZM53.6559 40.1953C52.9202 40.1953 52.2529 40.0716 51.6539 39.8242C51.0615 39.5703 50.5504 39.2155 50.1207 38.7598C49.6975 38.304 49.372 37.7637 49.1441 37.1387C48.9163 36.5137 48.8023 35.8301 48.8023 35.0879V34.6777C48.8023 33.8184 48.9293 33.0534 49.1832 32.3828C49.4371 31.7057 49.7822 31.1328 50.2184 30.6641C50.6546 30.1953 51.1493 29.8405 51.7027 29.5996C52.2561 29.3587 52.829 29.2383 53.4215 29.2383C54.1767 29.2383 54.8277 29.3685 55.3746 29.6289C55.928 29.8893 56.3805 30.2539 56.732 30.7227C57.0836 31.1849 57.344 31.7318 57.5133 32.3633C57.6826 32.9883 57.7672 33.6719 57.7672 34.4141V35.2246H49.8766V33.75H55.9605V33.6133C55.9345 33.1445 55.8368 32.6888 55.6676 32.2461C55.5048 31.8034 55.2444 31.4388 54.8863 31.1523C54.5283 30.8659 54.04 30.7227 53.4215 30.7227C53.0113 30.7227 52.6337 30.8105 52.2887 30.9863C51.9436 31.1556 51.6474 31.4095 51.4 31.748C51.1526 32.0866 50.9605 32.5 50.8238 32.9883C50.6871 33.4766 50.6187 34.0397 50.6187 34.6777V35.0879C50.6187 35.5892 50.6871 36.0612 50.8238 36.5039C50.9671 36.9401 51.1721 37.3242 51.4391 37.6562C51.7125 37.9883 52.0413 38.2487 52.4254 38.4375C52.816 38.6263 53.2587 38.7207 53.7535 38.7207C54.3915 38.7207 54.9319 38.5905 55.3746 38.3301C55.8173 38.0697 56.2047 37.7214 56.5367 37.2852L57.6305 38.1543C57.4026 38.4993 57.1129 38.8281 56.7613 39.1406C56.4098 39.4531 55.9768 39.707 55.4625 39.9023C54.9547 40.0977 54.3525 40.1953 53.6559 40.1953ZM61.4032 31.6895V40H59.5966V29.4336H61.3055L61.4032 31.6895ZM60.9735 34.3164L60.2216 34.2871C60.2281 33.5645 60.3355 32.8971 60.5438 32.2852C60.7522 31.6667 61.0451 31.1296 61.4227 30.6738C61.8003 30.2181 62.2496 29.8665 62.7704 29.6191C63.2977 29.3652 63.8804 29.2383 64.5184 29.2383C65.0393 29.2383 65.508 29.3099 65.9247 29.4531C66.3414 29.5898 66.6962 29.8112 66.9891 30.1172C67.2886 30.4232 67.5165 30.8203 67.6727 31.3086C67.829 31.7904 67.9071 32.3796 67.9071 33.0762V40H66.0907V33.0566C66.0907 32.5033 66.0093 32.0605 65.8466 31.7285C65.6838 31.39 65.4462 31.1458 65.1337 30.9961C64.8212 30.8398 64.4371 30.7617 63.9813 30.7617C63.5321 30.7617 63.122 30.8561 62.7509 31.0449C62.3863 31.2337 62.0705 31.4941 61.8036 31.8262C61.5432 32.1582 61.3381 32.5391 61.1884 32.9688C61.0451 33.3919 60.9735 33.8411 60.9735 34.3164ZM74.7951 29.4336V30.8203H69.0822V29.4336H74.7951ZM71.0158 26.8652H72.8224V37.3828C72.8224 37.7409 72.8778 38.0111 72.9884 38.1934C73.0991 38.3757 73.2423 38.4961 73.4181 38.5547C73.5939 38.6133 73.7827 38.6426 73.9845 38.6426C74.1343 38.6426 74.2905 38.6296 74.4533 38.6035C74.6226 38.571 74.7495 38.5449 74.8341 38.5254L74.8439 40C74.7007 40.0456 74.5119 40.0879 74.2775 40.127C74.0496 40.1725 73.7729 40.1953 73.4474 40.1953C73.0047 40.1953 72.5978 40.1074 72.2267 39.9316C71.8556 39.7559 71.5594 39.4629 71.338 39.0527C71.1232 38.6361 71.0158 38.0762 71.0158 37.373V26.8652ZM82.8647 38.1934V32.7539C82.8647 32.3372 82.78 31.9759 82.6108 31.6699C82.448 31.3574 82.2006 31.1165 81.8686 30.9473C81.5366 30.778 81.1264 30.6934 80.6381 30.6934C80.1824 30.6934 79.782 30.7715 79.437 30.9277C79.0984 31.084 78.8315 31.2891 78.6362 31.543C78.4474 31.7969 78.353 32.0703 78.353 32.3633H76.5463C76.5463 31.9857 76.644 31.6113 76.8393 31.2402C77.0346 30.8691 77.3146 30.5339 77.6791 30.2344C78.0502 29.9284 78.4929 29.6875 79.0073 29.5117C79.5281 29.3294 80.1075 29.2383 80.7455 29.2383C81.5138 29.2383 82.1909 29.3685 82.7768 29.6289C83.3692 29.8893 83.8315 30.2832 84.1635 30.8105C84.5021 31.3314 84.6713 31.9857 84.6713 32.7734V37.6953C84.6713 38.0469 84.7006 38.4212 84.7592 38.8184C84.8243 39.2155 84.9187 39.5573 85.0424 39.8438V40H83.1577C83.0665 39.7917 82.9949 39.515 82.9428 39.1699C82.8907 38.8184 82.8647 38.4928 82.8647 38.1934ZM83.1772 33.5938L83.1967 34.8633H81.3705C80.8562 34.8633 80.3972 34.9056 79.9936 34.9902C79.5899 35.0684 79.2514 35.1888 78.978 35.3516C78.7045 35.5143 78.4962 35.7194 78.353 35.9668C78.2097 36.2077 78.1381 36.4909 78.1381 36.8164C78.1381 37.1484 78.213 37.4512 78.3627 37.7246C78.5125 37.998 78.7371 38.2161 79.0366 38.3789C79.3425 38.5352 79.7169 38.6133 80.1596 38.6133C80.713 38.6133 81.2013 38.4961 81.6245 38.2617C82.0476 38.0273 82.3829 37.7409 82.6303 37.4023C82.8842 37.0638 83.0209 36.735 83.0405 36.416L83.812 37.2852C83.7664 37.5586 83.6427 37.8613 83.4409 38.1934C83.239 38.5254 82.9689 38.8444 82.6303 39.1504C82.2983 39.4499 81.9011 39.7005 81.4389 39.9023C80.9832 40.0977 80.4689 40.1953 79.8959 40.1953C79.1798 40.1953 78.5515 40.0553 78.0112 39.7754C77.4773 39.4954 77.0606 39.1211 76.7612 38.6523C76.4682 38.1771 76.3217 37.6465 76.3217 37.0605C76.3217 36.4941 76.4324 35.9961 76.6537 35.5664C76.8751 35.1302 77.1941 34.7689 77.6108 34.4824C78.0274 34.1895 78.5287 33.9681 79.1147 33.8184C79.7006 33.6686 80.3549 33.5938 81.0776 33.5938H83.1772ZM91.9043 25H93.7207V37.9492L93.5645 40H91.9043V25ZM100.859 34.6289V34.834C100.859 35.6022 100.768 36.3151 100.586 36.9727C100.404 37.6237 100.137 38.1901 99.7852 38.6719C99.4336 39.1536 99.0039 39.528 98.4961 39.7949C97.9883 40.0618 97.4056 40.1953 96.748 40.1953C96.0775 40.1953 95.4883 40.0814 94.9805 39.8535C94.4792 39.6191 94.056 39.2839 93.7109 38.8477C93.3659 38.4115 93.0892 37.8841 92.8809 37.2656C92.679 36.6471 92.5391 35.9505 92.4609 35.1758V34.2773C92.5391 33.4961 92.679 32.7962 92.8809 32.1777C93.0892 31.5592 93.3659 31.0319 93.7109 30.5957C94.056 30.153 94.4792 29.8177 94.9805 29.5898C95.4818 29.3555 96.0645 29.2383 96.7285 29.2383C97.3926 29.2383 97.9818 29.3685 98.4961 29.6289C99.0104 29.8828 99.4401 30.2474 99.7852 30.7227C100.137 31.1979 100.404 31.7676 100.586 32.4316C100.768 33.0892 100.859 33.8216 100.859 34.6289ZM99.043 34.834V34.6289C99.043 34.1016 98.9941 33.6068 98.8965 33.1445C98.7988 32.6758 98.6426 32.2656 98.4277 31.9141C98.2129 31.556 97.9297 31.276 97.5781 31.0742C97.2266 30.8659 96.7936 30.7617 96.2793 30.7617C95.8236 30.7617 95.4264 30.8398 95.0879 30.9961C94.7559 31.1523 94.4727 31.3639 94.2383 31.6309C94.0039 31.8913 93.8118 32.1908 93.6621 32.5293C93.5189 32.8613 93.4115 33.2064 93.3398 33.5645V35.918C93.444 36.3737 93.6133 36.8132 93.8477 37.2363C94.0885 37.653 94.4076 37.9948 94.8047 38.2617C95.2083 38.5286 95.7064 38.6621 96.2988 38.6621C96.7871 38.6621 97.2038 38.5645 97.5488 38.3691C97.9004 38.1673 98.1836 37.8906 98.3984 37.5391C98.6198 37.1875 98.7826 36.7806 98.8867 36.3184C98.9909 35.8561 99.043 35.3613 99.043 34.834ZM109.095 38.1934V32.7539C109.095 32.3372 109.01 31.9759 108.841 31.6699C108.678 31.3574 108.431 31.1165 108.099 30.9473C107.767 30.778 107.357 30.6934 106.868 30.6934C106.413 30.6934 106.012 30.7715 105.667 30.9277C105.329 31.084 105.062 31.2891 104.866 31.543C104.678 31.7969 104.583 32.0703 104.583 32.3633H102.777C102.777 31.9857 102.874 31.6113 103.07 31.2402C103.265 30.8691 103.545 30.5339 103.909 30.2344C104.281 29.9284 104.723 29.6875 105.238 29.5117C105.758 29.3294 106.338 29.2383 106.976 29.2383C107.744 29.2383 108.421 29.3685 109.007 29.6289C109.6 29.8893 110.062 30.2832 110.394 30.8105C110.732 31.3314 110.902 31.9857 110.902 32.7734V37.6953C110.902 38.0469 110.931 38.4212 110.99 38.8184C111.055 39.2155 111.149 39.5573 111.273 39.8438V40H109.388C109.297 39.7917 109.225 39.515 109.173 39.1699C109.121 38.8184 109.095 38.4928 109.095 38.1934ZM109.408 33.5938L109.427 34.8633H107.601C107.087 34.8633 106.628 34.9056 106.224 34.9902C105.82 35.0684 105.482 35.1888 105.208 35.3516C104.935 35.5143 104.727 35.7194 104.583 35.9668C104.44 36.2077 104.368 36.4909 104.368 36.8164C104.368 37.1484 104.443 37.4512 104.593 37.7246C104.743 37.998 104.967 38.2161 105.267 38.3789C105.573 38.5352 105.947 38.6133 106.39 38.6133C106.943 38.6133 107.432 38.4961 107.855 38.2617C108.278 38.0273 108.613 37.7409 108.861 37.4023C109.115 37.0638 109.251 36.735 109.271 36.416L110.042 37.2852C109.997 37.5586 109.873 37.8613 109.671 38.1934C109.469 38.5254 109.199 38.8444 108.861 39.1504C108.529 39.4499 108.131 39.7005 107.669 39.9023C107.213 40.0977 106.699 40.1953 106.126 40.1953C105.41 40.1953 104.782 40.0553 104.241 39.7754C103.708 39.4954 103.291 39.1211 102.991 38.6523C102.699 38.1771 102.552 37.6465 102.552 37.0605C102.552 36.4941 102.663 35.9961 102.884 35.5664C103.105 35.1302 103.424 34.7689 103.841 34.4824C104.258 34.1895 104.759 33.9681 105.345 33.8184C105.931 33.6686 106.585 33.5938 107.308 33.5938H109.408ZM115.27 31.6895V40H113.463V29.4336H115.172L115.27 31.6895ZM114.84 34.3164L114.088 34.2871C114.095 33.5645 114.202 32.8971 114.411 32.2852C114.619 31.6667 114.912 31.1296 115.29 30.6738C115.667 30.2181 116.116 29.8665 116.637 29.6191C117.165 29.3652 117.747 29.2383 118.385 29.2383C118.906 29.2383 119.375 29.3099 119.792 29.4531C120.208 29.5898 120.563 29.8112 120.856 30.1172C121.155 30.4232 121.383 30.8203 121.54 31.3086C121.696 31.7904 121.774 32.3796 121.774 33.0762V40H119.958V33.0566C119.958 32.5033 119.876 32.0605 119.713 31.7285C119.551 31.39 119.313 31.1458 119.001 30.9961C118.688 30.8398 118.304 30.7617 117.848 30.7617C117.399 30.7617 116.989 30.8561 116.618 31.0449C116.253 31.2337 115.937 31.4941 115.67 31.8262C115.41 32.1582 115.205 32.5391 115.055 32.9688C114.912 33.3919 114.84 33.8411 114.84 34.3164ZM128.467 38.7109C128.896 38.7109 129.293 38.623 129.658 38.4473C130.023 38.2715 130.322 38.0306 130.556 37.7246C130.791 37.4121 130.924 37.0573 130.957 36.6602H132.676C132.643 37.2852 132.431 37.8678 132.041 38.4082C131.657 38.9421 131.152 39.375 130.527 39.707C129.902 40.0326 129.215 40.1953 128.467 40.1953C127.672 40.1953 126.979 40.0553 126.387 39.7754C125.801 39.4954 125.312 39.1113 124.922 38.623C124.538 38.1348 124.248 37.5749 124.053 36.9434C123.864 36.3053 123.769 35.6315 123.769 34.9219V34.5117C123.769 33.8021 123.864 33.1315 124.053 32.5C124.248 31.862 124.538 31.2988 124.922 30.8105C125.312 30.3223 125.801 29.9382 126.387 29.6582C126.979 29.3783 127.672 29.2383 128.467 29.2383C129.293 29.2383 130.016 29.4076 130.635 29.7461C131.253 30.0781 131.738 30.5339 132.09 31.1133C132.448 31.6862 132.643 32.3372 132.676 33.0664H130.957C130.924 32.6302 130.801 32.2363 130.586 31.8848C130.377 31.5332 130.091 31.2533 129.726 31.0449C129.368 30.8301 128.948 30.7227 128.467 30.7227C127.913 30.7227 127.448 30.8333 127.07 31.0547C126.699 31.2695 126.403 31.5625 126.181 31.9336C125.967 32.2982 125.81 32.7051 125.713 33.1543C125.622 33.597 125.576 34.0495 125.576 34.5117V34.9219C125.576 35.3841 125.622 35.8398 125.713 36.2891C125.804 36.7383 125.957 37.1452 126.172 37.5098C126.393 37.8743 126.689 38.1673 127.06 38.3887C127.438 38.6035 127.907 38.7109 128.467 38.7109ZM140.657 38.1934V32.7539C140.657 32.3372 140.573 31.9759 140.403 31.6699C140.241 31.3574 139.993 31.1165 139.661 30.9473C139.329 30.778 138.919 30.6934 138.431 30.6934C137.975 30.6934 137.575 30.7715 137.23 30.9277C136.891 31.084 136.624 31.2891 136.429 31.543C136.24 31.7969 136.146 32.0703 136.146 32.3633H134.339C134.339 31.9857 134.437 31.6113 134.632 31.2402C134.827 30.8691 135.107 30.5339 135.472 30.2344C135.843 29.9284 136.286 29.6875 136.8 29.5117C137.321 29.3294 137.9 29.2383 138.538 29.2383C139.306 29.2383 139.984 29.3685 140.569 29.6289C141.162 29.8893 141.624 30.2832 141.956 30.8105C142.295 31.3314 142.464 31.9857 142.464 32.7734V37.6953C142.464 38.0469 142.493 38.4212 142.552 38.8184C142.617 39.2155 142.711 39.5573 142.835 39.8438V40H140.95C140.859 39.7917 140.788 39.515 140.735 39.1699C140.683 38.8184 140.657 38.4928 140.657 38.1934ZM140.97 33.5938L140.989 34.8633H139.163C138.649 34.8633 138.19 34.9056 137.786 34.9902C137.383 35.0684 137.044 35.1888 136.771 35.3516C136.497 35.5143 136.289 35.7194 136.146 35.9668C136.002 36.2077 135.931 36.4909 135.931 36.8164C135.931 37.1484 136.006 37.4512 136.155 37.7246C136.305 37.998 136.53 38.2161 136.829 38.3789C137.135 38.5352 137.51 38.6133 137.952 38.6133C138.506 38.6133 138.994 38.4961 139.417 38.2617C139.84 38.0273 140.176 37.7409 140.423 37.4023C140.677 37.0638 140.814 36.735 140.833 36.416L141.605 37.2852C141.559 37.5586 141.435 37.8613 141.234 38.1934C141.032 38.5254 140.762 38.8444 140.423 39.1504C140.091 39.4499 139.694 39.7005 139.232 39.9023C138.776 40.0977 138.262 40.1953 137.689 40.1953C136.972 40.1953 136.344 40.0553 135.804 39.7754C135.27 39.4954 134.853 39.1211 134.554 38.6523C134.261 38.1771 134.114 37.6465 134.114 37.0605C134.114 36.4941 134.225 35.9961 134.446 35.5664C134.668 35.1302 134.987 34.7689 135.403 34.4824C135.82 34.1895 136.321 33.9681 136.907 33.8184C137.493 33.6686 138.148 33.5938 138.87 33.5938H140.97ZM146.832 31.0938V40H145.026V29.4336H146.784L146.832 31.0938ZM150.133 29.375L150.123 31.0547C149.974 31.0221 149.83 31.0026 149.694 30.9961C149.564 30.9831 149.414 30.9766 149.245 30.9766C148.828 30.9766 148.46 31.0417 148.141 31.1719C147.822 31.3021 147.552 31.4844 147.33 31.7188C147.109 31.9531 146.933 32.2331 146.803 32.5586C146.679 32.8776 146.598 33.2292 146.559 33.6133L146.051 33.9062C146.051 33.2682 146.113 32.6693 146.237 32.1094C146.367 31.5495 146.565 31.0547 146.832 30.625C147.099 30.1888 147.438 29.8503 147.848 29.6094C148.265 29.362 148.76 29.2383 149.332 29.2383C149.463 29.2383 149.612 29.2546 149.782 29.2871C149.951 29.3132 150.068 29.3424 150.133 29.375ZM153.486 29.4336V40H151.67V29.4336H153.486ZM151.533 26.6309C151.533 26.3379 151.621 26.0905 151.797 25.8887C151.979 25.6868 152.246 25.5859 152.597 25.5859C152.942 25.5859 153.206 25.6868 153.388 25.8887C153.577 26.0905 153.672 26.3379 153.672 26.6309C153.672 26.9108 153.577 27.1517 153.388 27.3535C153.206 27.5488 152.942 27.6465 152.597 27.6465C152.246 27.6465 151.979 27.5488 151.797 27.3535C151.621 27.1517 151.533 26.9108 151.533 26.6309ZM162.337 38.1934V32.7539C162.337 32.3372 162.252 31.9759 162.083 31.6699C161.92 31.3574 161.673 31.1165 161.341 30.9473C161.009 30.778 160.599 30.6934 160.11 30.6934C159.655 30.6934 159.254 30.7715 158.909 30.9277C158.571 31.084 158.304 31.2891 158.108 31.543C157.92 31.7969 157.825 32.0703 157.825 32.3633H156.019C156.019 31.9857 156.116 31.6113 156.311 31.2402C156.507 30.8691 156.787 30.5339 157.151 30.2344C157.522 29.9284 157.965 29.6875 158.479 29.5117C159 29.3294 159.58 29.2383 160.218 29.2383C160.986 29.2383 161.663 29.3685 162.249 29.6289C162.841 29.8893 163.304 30.2832 163.636 30.8105C163.974 31.3314 164.144 31.9857 164.144 32.7734V37.6953C164.144 38.0469 164.173 38.4212 164.231 38.8184C164.297 39.2155 164.391 39.5573 164.515 39.8438V40H162.63C162.539 39.7917 162.467 39.515 162.415 39.1699C162.363 38.8184 162.337 38.4928 162.337 38.1934ZM162.649 33.5938L162.669 34.8633H160.843C160.328 34.8633 159.869 34.9056 159.466 34.9902C159.062 35.0684 158.724 35.1888 158.45 35.3516C158.177 35.5143 157.968 35.7194 157.825 35.9668C157.682 36.2077 157.61 36.4909 157.61 36.8164C157.61 37.1484 157.685 37.4512 157.835 37.7246C157.985 37.998 158.209 38.2161 158.509 38.3789C158.815 38.5352 159.189 38.6133 159.632 38.6133C160.185 38.6133 160.673 38.4961 161.097 38.2617C161.52 38.0273 161.855 37.7409 162.103 37.4023C162.356 37.0638 162.493 36.735 162.513 36.416L163.284 37.2852C163.239 37.5586 163.115 37.8613 162.913 38.1934C162.711 38.5254 162.441 38.8444 162.103 39.1504C161.77 39.4499 161.373 39.7005 160.911 39.9023C160.455 40.0977 159.941 40.1953 159.368 40.1953C158.652 40.1953 158.024 40.0553 157.483 39.7754C156.95 39.4954 156.533 39.1211 156.233 38.6523C155.94 38.1771 155.794 37.6465 155.794 37.0605C155.794 36.4941 155.905 35.9961 156.126 35.5664C156.347 35.1302 156.666 34.7689 157.083 34.4824C157.5 34.1895 158.001 33.9681 158.587 33.8184C159.173 33.6686 159.827 33.5938 160.55 33.5938H162.649Z" fill="black"/>
<path d="M30.9503 64.7812V79H29.0948V64.7812H30.9503ZM35.5206 64.7812V66.3242H24.5343V64.7812H35.5206ZM42.1937 77.1934V71.7539C42.1937 71.3372 42.1091 70.9759 41.9398 70.6699C41.7771 70.3574 41.5297 70.1165 41.1977 69.9473C40.8656 69.778 40.4555 69.6934 39.9672 69.6934C39.5115 69.6934 39.1111 69.7715 38.766 69.9277C38.4275 70.084 38.1605 70.2891 37.9652 70.543C37.7764 70.7969 37.682 71.0703 37.682 71.3633H35.8754C35.8754 70.9857 35.973 70.6113 36.1684 70.2402C36.3637 69.8691 36.6436 69.5339 37.0082 69.2344C37.3793 68.9284 37.822 68.6875 38.3363 68.5117C38.8572 68.3294 39.4366 68.2383 40.0746 68.2383C40.8428 68.2383 41.5199 68.3685 42.1059 68.6289C42.6983 68.8893 43.1605 69.2832 43.4926 69.8105C43.8311 70.3314 44.0004 70.9857 44.0004 71.7734V76.6953C44.0004 77.0469 44.0297 77.4212 44.0883 77.8184C44.1534 78.2155 44.2478 78.5573 44.3715 78.8438V79H42.4867C42.3956 78.7917 42.324 78.515 42.2719 78.1699C42.2198 77.8184 42.1937 77.4928 42.1937 77.1934ZM42.5062 72.5938L42.5258 73.8633H40.6996C40.1853 73.8633 39.7263 73.9056 39.3227 73.9902C38.919 74.0684 38.5805 74.1888 38.307 74.3516C38.0336 74.5143 37.8253 74.7194 37.682 74.9668C37.5388 75.2077 37.4672 75.4909 37.4672 75.8164C37.4672 76.1484 37.5421 76.4512 37.6918 76.7246C37.8415 76.998 38.0661 77.2161 38.3656 77.3789C38.6716 77.5352 39.046 77.6133 39.4887 77.6133C40.0421 77.6133 40.5303 77.4961 40.9535 77.2617C41.3767 77.0273 41.712 76.7409 41.9594 76.4023C42.2133 76.0638 42.35 75.735 42.3695 75.416L43.141 76.2852C43.0954 76.5586 42.9717 76.8613 42.7699 77.1934C42.5681 77.5254 42.2979 77.8444 41.9594 78.1504C41.6273 78.4499 41.2302 78.7005 40.768 78.9023C40.3122 79.0977 39.7979 79.1953 39.225 79.1953C38.5089 79.1953 37.8806 79.0553 37.3402 78.7754C36.8064 78.4954 36.3897 78.1211 36.0902 77.6523C35.7973 77.1771 35.6508 76.6465 35.6508 76.0605C35.6508 75.4941 35.7615 74.9961 35.9828 74.5664C36.2042 74.1302 36.5232 73.7689 36.9398 73.4824C37.3565 73.1895 37.8578 72.9681 38.4437 72.8184C39.0297 72.6686 39.684 72.5938 40.4066 72.5938H42.5062ZM48.3688 70.0938V79H46.5622V68.4336H48.32L48.3688 70.0938ZM51.6696 68.375L51.6598 70.0547C51.5101 70.0221 51.3669 70.0026 51.2302 69.9961C51.0999 69.9831 50.9502 69.9766 50.7809 69.9766C50.3643 69.9766 49.9964 70.0417 49.6774 70.1719C49.3584 70.3021 49.0882 70.4844 48.8669 70.7188C48.6455 70.9531 48.4697 71.2331 48.3395 71.5586C48.2158 71.8776 48.1345 72.2292 48.0954 72.6133L47.5876 72.9062C47.5876 72.2682 47.6494 71.6693 47.7731 71.1094C47.9033 70.5495 48.1019 70.0547 48.3688 69.625C48.6358 69.1888 48.9743 68.8503 49.3845 68.6094C49.8011 68.362 50.2959 68.2383 50.8688 68.2383C50.999 68.2383 51.1488 68.2546 51.318 68.2871C51.4873 68.3132 51.6045 68.3424 51.6696 68.375ZM53.1084 68.4336H54.9248V80.2598C54.9248 80.9043 54.8206 81.4512 54.6123 81.9004C54.4104 82.3496 54.1045 82.6882 53.6943 82.916C53.2906 83.1504 52.7796 83.2676 52.1611 83.2676C51.9983 83.2676 51.8095 83.2513 51.5947 83.2188C51.3733 83.1862 51.1878 83.1471 51.038 83.1016L51.0478 81.6465C51.1715 81.6725 51.3115 81.6921 51.4677 81.7051C51.624 81.7246 51.7607 81.7344 51.8779 81.7344C52.1448 81.7344 52.3694 81.6855 52.5517 81.5879C52.734 81.4902 52.8707 81.334 52.9619 81.1191C53.0595 80.9043 53.1084 80.6178 53.1084 80.2598V68.4336ZM52.9228 65.6309C52.9228 65.3379 53.014 65.0905 53.1962 64.8887C53.3785 64.6868 53.6422 64.5859 53.9873 64.5859C54.3388 64.5859 54.6058 64.6868 54.788 64.8887C54.9703 65.0905 55.0615 65.3379 55.0615 65.6309C55.0615 65.9108 54.9703 66.1517 54.788 66.3535C54.6058 66.5488 54.3388 66.6465 53.9873 66.6465C53.6422 66.6465 53.3785 66.5488 53.1962 66.3535C53.014 66.1517 52.9228 65.9108 52.9228 65.6309ZM61.9495 79.1953C61.2138 79.1953 60.5465 79.0716 59.9475 78.8242C59.3551 78.5703 58.844 78.2155 58.4143 77.7598C57.9911 77.304 57.6656 76.7637 57.4377 76.1387C57.2099 75.5137 57.0959 74.8301 57.0959 74.0879V73.6777C57.0959 72.8184 57.2229 72.0534 57.4768 71.3828C57.7307 70.7057 58.0758 70.1328 58.512 69.6641C58.9481 69.1953 59.4429 68.8405 59.9963 68.5996C60.5497 68.3587 61.1226 68.2383 61.7151 68.2383C62.4703 68.2383 63.1213 68.3685 63.6682 68.6289C64.2216 68.8893 64.6741 69.2539 65.0256 69.7227C65.3772 70.1849 65.6376 70.7318 65.8069 71.3633C65.9761 71.9883 66.0608 72.6719 66.0608 73.4141V74.2246H58.1702V72.75H64.2541V72.6133C64.2281 72.1445 64.1304 71.6888 63.9612 71.2461C63.7984 70.8034 63.538 70.4388 63.1799 70.1523C62.8218 69.8659 62.3336 69.7227 61.7151 69.7227C61.3049 69.7227 60.9273 69.8105 60.5823 69.9863C60.2372 70.1556 59.941 70.4095 59.6936 70.748C59.4462 71.0866 59.2541 71.5 59.1174 71.9883C58.9807 72.4766 58.9123 73.0397 58.9123 73.6777V74.0879C58.9123 74.5892 58.9807 75.0612 59.1174 75.5039C59.2606 75.9401 59.4657 76.3242 59.7327 76.6562C60.0061 76.9883 60.3349 77.2487 60.719 77.4375C61.1096 77.6263 61.5523 77.7207 62.0471 77.7207C62.6851 77.7207 63.2255 77.5905 63.6682 77.3301C64.1109 77.0697 64.4983 76.7214 64.8303 76.2852L65.9241 77.1543C65.6962 77.4993 65.4065 77.8281 65.0549 78.1406C64.7034 78.4531 64.2704 78.707 63.7561 78.9023C63.2483 79.0977 62.6461 79.1953 61.9495 79.1953ZM72.314 68.4336V69.8203H66.6011V68.4336H72.314ZM68.5347 65.8652H70.3413V76.3828C70.3413 76.7409 70.3967 77.0111 70.5073 77.1934C70.618 77.3757 70.7612 77.4961 70.937 77.5547C71.1128 77.6133 71.3016 77.6426 71.5034 77.6426C71.6532 77.6426 71.8094 77.6296 71.9722 77.6035C72.1415 77.571 72.2684 77.5449 72.353 77.5254L72.3628 79C72.2196 79.0456 72.0308 79.0879 71.7964 79.127C71.5685 79.1725 71.2918 79.1953 70.9663 79.1953C70.5236 79.1953 70.1167 79.1074 69.7456 78.9316C69.3745 78.7559 69.0783 78.4629 68.8569 78.0527C68.6421 77.6361 68.5347 77.0762 68.5347 76.373V65.8652ZM80.3836 77.1934V71.7539C80.3836 71.3372 80.299 70.9759 80.1297 70.6699C79.9669 70.3574 79.7195 70.1165 79.3875 69.9473C79.0555 69.778 78.6453 69.6934 78.157 69.6934C77.7013 69.6934 77.3009 69.7715 76.9559 69.9277C76.6173 70.084 76.3504 70.2891 76.1551 70.543C75.9663 70.7969 75.8719 71.0703 75.8719 71.3633H74.0652C74.0652 70.9857 74.1629 70.6113 74.3582 70.2402C74.5535 69.8691 74.8335 69.5339 75.198 69.2344C75.5691 68.9284 76.0118 68.6875 76.5262 68.5117C77.047 68.3294 77.6264 68.2383 78.2645 68.2383C79.0327 68.2383 79.7098 68.3685 80.2957 68.6289C80.8881 68.8893 81.3504 69.2832 81.6824 69.8105C82.021 70.3314 82.1902 70.9857 82.1902 71.7734V76.6953C82.1902 77.0469 82.2195 77.4212 82.2781 77.8184C82.3432 78.2155 82.4376 78.5573 82.5613 78.8438V79H80.6766C80.5854 78.7917 80.5138 78.515 80.4617 78.1699C80.4096 77.8184 80.3836 77.4928 80.3836 77.1934ZM80.6961 72.5938L80.7156 73.8633H78.8895C78.3751 73.8633 77.9161 73.9056 77.5125 73.9902C77.1089 74.0684 76.7703 74.1888 76.4969 74.3516C76.2234 74.5143 76.0151 74.7194 75.8719 74.9668C75.7286 75.2077 75.657 75.4909 75.657 75.8164C75.657 76.1484 75.7319 76.4512 75.8816 76.7246C76.0314 76.998 76.256 77.2161 76.5555 77.3789C76.8615 77.5352 77.2358 77.6133 77.6785 77.6133C78.2319 77.6133 78.7202 77.4961 79.1434 77.2617C79.5665 77.0273 79.9018 76.7409 80.1492 76.4023C80.4031 76.0638 80.5398 75.735 80.5594 75.416L81.3309 76.2852C81.2853 76.5586 81.1616 76.8613 80.9598 77.1934C80.7579 77.5254 80.4878 77.8444 80.1492 78.1504C79.8172 78.4499 79.42 78.7005 78.9578 78.9023C78.5021 79.0977 77.9878 79.1953 77.4148 79.1953C76.6987 79.1953 76.0704 79.0553 75.5301 78.7754C74.9962 78.4954 74.5796 78.1211 74.2801 77.6523C73.9871 77.1771 73.8406 76.6465 73.8406 76.0605C73.8406 75.4941 73.9513 74.9961 74.1727 74.5664C74.394 74.1302 74.713 73.7689 75.1297 73.4824C75.5464 73.1895 76.0477 72.9681 76.6336 72.8184C77.2195 72.6686 77.8738 72.5938 78.5965 72.5938H80.6961ZM96.0931 76.9492V64H97.9095V79H96.2494L96.0931 76.9492ZM88.9837 73.834V73.6289C88.9837 72.8216 89.0814 72.0892 89.2767 71.4316C89.4785 70.7676 89.7617 70.1979 90.1263 69.7227C90.4974 69.2474 90.9369 68.8828 91.4447 68.6289C91.959 68.3685 92.5319 68.2383 93.1634 68.2383C93.8275 68.2383 94.4069 68.3555 94.9017 68.5898C95.403 68.8177 95.8262 69.153 96.1712 69.5957C96.5228 70.0319 96.7995 70.5592 97.0013 71.1777C97.2032 71.7962 97.3431 72.4961 97.4212 73.2773V74.1758C97.3496 74.9505 97.2097 75.6471 97.0013 76.2656C96.7995 76.8841 96.5228 77.4115 96.1712 77.8477C95.8262 78.2839 95.403 78.6191 94.9017 78.8535C94.4004 79.0814 93.8145 79.1953 93.1439 79.1953C92.5254 79.1953 91.959 79.0618 91.4447 78.7949C90.9369 78.528 90.4974 78.1536 90.1263 77.6719C89.7617 77.1901 89.4785 76.6237 89.2767 75.9727C89.0814 75.3151 88.9837 74.6022 88.9837 73.834ZM90.8002 73.6289V73.834C90.8002 74.3613 90.8522 74.8561 90.9564 75.3184C91.0671 75.7806 91.2364 76.1875 91.4642 76.5391C91.6921 76.8906 91.9818 77.1673 92.3334 77.3691C92.6849 77.5645 93.1048 77.6621 93.5931 77.6621C94.1921 77.6621 94.6836 77.5352 95.0677 77.2812C95.4584 77.0273 95.7709 76.6921 96.0052 76.2754C96.2396 75.8587 96.4219 75.4062 96.5521 74.918V72.5645C96.474 72.2064 96.3601 71.8613 96.2103 71.5293C96.0671 71.1908 95.8783 70.8913 95.6439 70.6309C95.416 70.3639 95.1328 70.1523 94.7943 69.9961C94.4623 69.8398 94.0684 69.7617 93.6127 69.7617C93.1179 69.7617 92.6914 69.8659 92.3334 70.0742C91.9818 70.276 91.6921 70.556 91.4642 70.9141C91.2364 71.2656 91.0671 71.6758 90.9564 72.1445C90.8522 72.6068 90.8002 73.1016 90.8002 73.6289ZM104.827 79.1953C104.091 79.1953 103.424 79.0716 102.825 78.8242C102.232 78.5703 101.721 78.2155 101.292 77.7598C100.868 77.304 100.543 76.7637 100.315 76.1387C100.087 75.5137 99.9733 74.8301 99.9733 74.0879V73.6777C99.9733 72.8184 100.1 72.0534 100.354 71.3828C100.608 70.7057 100.953 70.1328 101.389 69.6641C101.825 69.1953 102.32 68.8405 102.874 68.5996C103.427 68.3587 104 68.2383 104.592 68.2383C105.348 68.2383 105.999 68.3685 106.546 68.6289C107.099 68.8893 107.551 69.2539 107.903 69.7227C108.255 70.1849 108.515 70.7318 108.684 71.3633C108.853 71.9883 108.938 72.6719 108.938 73.4141V74.2246H101.048V72.75H107.131V72.6133C107.105 72.1445 107.008 71.6888 106.839 71.2461C106.676 70.8034 106.415 70.4388 106.057 70.1523C105.699 69.8659 105.211 69.7227 104.592 69.7227C104.182 69.7227 103.805 69.8105 103.46 69.9863C103.115 70.1556 102.818 70.4095 102.571 70.748C102.324 71.0866 102.131 71.5 101.995 71.9883C101.858 72.4766 101.79 73.0397 101.79 73.6777V74.0879C101.79 74.5892 101.858 75.0612 101.995 75.5039C102.138 75.9401 102.343 76.3242 102.61 76.6562C102.883 76.9883 103.212 77.2487 103.596 77.4375C103.987 77.6263 104.43 77.7207 104.924 77.7207C105.562 77.7207 106.103 77.5905 106.546 77.3301C106.988 77.0697 107.376 76.7214 107.708 76.2852L108.801 77.1543C108.574 77.4993 108.284 77.8281 107.932 78.1406C107.581 78.4531 107.148 78.707 106.633 78.9023C106.126 79.0977 105.523 79.1953 104.827 79.1953ZM119.677 77.7109C120.107 77.7109 120.504 77.623 120.868 77.4473C121.233 77.2715 121.532 77.0306 121.767 76.7246C122.001 76.4121 122.135 76.0573 122.167 75.6602H123.886C123.853 76.2852 123.642 76.8678 123.251 77.4082C122.867 77.9421 122.362 78.375 121.737 78.707C121.112 79.0326 120.426 79.1953 119.677 79.1953C118.883 79.1953 118.189 79.0553 117.597 78.7754C117.011 78.4954 116.523 78.1113 116.132 77.623C115.748 77.1348 115.458 76.5749 115.263 75.9434C115.074 75.3053 114.98 74.6315 114.98 73.9219V73.5117C114.98 72.8021 115.074 72.1315 115.263 71.5C115.458 70.862 115.748 70.2988 116.132 69.8105C116.523 69.3223 117.011 68.9382 117.597 68.6582C118.189 68.3783 118.883 68.2383 119.677 68.2383C120.504 68.2383 121.226 68.4076 121.845 68.7461C122.463 69.0781 122.948 69.5339 123.3 70.1133C123.658 70.6862 123.853 71.3372 123.886 72.0664H122.167C122.135 71.6302 122.011 71.2363 121.796 70.8848C121.588 70.5332 121.301 70.2533 120.937 70.0449C120.579 69.8301 120.159 69.7227 119.677 69.7227C119.124 69.7227 118.658 69.8333 118.28 70.0547C117.909 70.2695 117.613 70.5625 117.392 70.9336C117.177 71.2982 117.021 71.7051 116.923 72.1543C116.832 72.597 116.786 73.0495 116.786 73.5117V73.9219C116.786 74.3841 116.832 74.8398 116.923 75.2891C117.014 75.7383 117.167 76.1452 117.382 76.5098C117.603 76.8743 117.9 77.1673 118.271 77.3887C118.648 77.6035 119.117 77.7109 119.677 77.7109ZM127.444 70.0938V79H125.637V68.4336H127.395L127.444 70.0938ZM130.745 68.375L130.735 70.0547C130.585 70.0221 130.442 70.0026 130.305 69.9961C130.175 69.9831 130.025 69.9766 129.856 69.9766C129.439 69.9766 129.071 70.0417 128.752 70.1719C128.433 70.3021 128.163 70.4844 127.942 70.7188C127.721 70.9531 127.545 71.2331 127.415 71.5586C127.291 71.8776 127.209 72.2292 127.17 72.6133L126.663 72.9062C126.663 72.2682 126.724 71.6693 126.848 71.1094C126.978 70.5495 127.177 70.0547 127.444 69.625C127.711 69.1888 128.049 68.8503 128.459 68.6094C128.876 68.362 129.371 68.2383 129.944 68.2383C130.074 68.2383 130.224 68.2546 130.393 68.2871C130.562 68.3132 130.68 68.3424 130.745 68.375ZM136.324 79.1953C135.588 79.1953 134.921 79.0716 134.322 78.8242C133.73 78.5703 133.219 78.2155 132.789 77.7598C132.366 77.304 132.04 76.7637 131.812 76.1387C131.584 75.5137 131.47 74.8301 131.47 74.0879V73.6777C131.47 72.8184 131.597 72.0534 131.851 71.3828C132.105 70.7057 132.45 70.1328 132.886 69.6641C133.323 69.1953 133.817 68.8405 134.371 68.5996C134.924 68.3587 135.497 68.2383 136.09 68.2383C136.845 68.2383 137.496 68.3685 138.043 68.6289C138.596 68.8893 139.049 69.2539 139.4 69.7227C139.752 70.1849 140.012 70.7318 140.181 71.3633C140.351 71.9883 140.435 72.6719 140.435 73.4141V74.2246H132.545V72.75H138.629V72.6133C138.603 72.1445 138.505 71.6888 138.336 71.2461C138.173 70.8034 137.913 70.4388 137.554 70.1523C137.196 69.8659 136.708 69.7227 136.09 69.7227C135.679 69.7227 135.302 69.8105 134.957 69.9863C134.612 70.1556 134.316 70.4095 134.068 70.748C133.821 71.0866 133.629 71.5 133.492 71.9883C133.355 72.4766 133.287 73.0397 133.287 73.6777V74.0879C133.287 74.5892 133.355 75.0612 133.492 75.5039C133.635 75.9401 133.84 76.3242 134.107 76.6562C134.381 76.9883 134.709 77.2487 135.094 77.4375C135.484 77.6263 135.927 77.7207 136.422 77.7207C137.06 77.7207 137.6 77.5905 138.043 77.3301C138.485 77.0697 138.873 76.7214 139.205 76.2852L140.299 77.1543C140.071 77.4993 139.781 77.8281 139.429 78.1406C139.078 78.4531 138.645 78.707 138.131 78.9023C137.623 79.0977 137.021 79.1953 136.324 79.1953ZM135.084 66.8711L136.978 64H139.156L136.539 66.8711H135.084ZM148.925 76.9492V64H150.741V79H149.081L148.925 76.9492ZM141.815 73.834V73.6289C141.815 72.8216 141.913 72.0892 142.108 71.4316C142.31 70.7676 142.593 70.1979 142.958 69.7227C143.329 69.2474 143.769 68.8828 144.276 68.6289C144.791 68.3685 145.364 68.2383 145.995 68.2383C146.659 68.2383 147.239 68.3555 147.733 68.5898C148.235 68.8177 148.658 69.153 149.003 69.5957C149.355 70.0319 149.631 70.5592 149.833 71.1777C150.035 71.7962 150.175 72.4961 150.253 73.2773V74.1758C150.181 74.9505 150.041 75.6471 149.833 76.2656C149.631 76.8841 149.355 77.4115 149.003 77.8477C148.658 78.2839 148.235 78.6191 147.733 78.8535C147.232 79.0814 146.646 79.1953 145.976 79.1953C145.357 79.1953 144.791 79.0618 144.276 78.7949C143.769 78.528 143.329 78.1536 142.958 77.6719C142.593 77.1901 142.31 76.6237 142.108 75.9727C141.913 75.3151 141.815 74.6022 141.815 73.834ZM143.632 73.6289V73.834C143.632 74.3613 143.684 74.8561 143.788 75.3184C143.899 75.7806 144.068 76.1875 144.296 76.5391C144.524 76.8906 144.814 77.1673 145.165 77.3691C145.517 77.5645 145.937 77.6621 146.425 77.6621C147.024 77.6621 147.515 77.5352 147.899 77.2812C148.29 77.0273 148.603 76.6921 148.837 76.2754C149.071 75.8587 149.254 75.4062 149.384 74.918V72.5645C149.306 72.2064 149.192 71.8613 149.042 71.5293C148.899 71.1908 148.71 70.8913 148.476 70.6309C148.248 70.3639 147.965 70.1523 147.626 69.9961C147.294 69.8398 146.9 69.7617 146.444 69.7617C145.95 69.7617 145.523 69.8659 145.165 70.0742C144.814 70.276 144.524 70.556 144.296 70.9141C144.068 71.2656 143.899 71.6758 143.788 72.1445C143.684 72.6068 143.632 73.1016 143.632 73.6289ZM155.237 68.4336V79H153.42V68.4336H155.237ZM153.284 65.6309C153.284 65.3379 153.371 65.0905 153.547 64.8887C153.729 64.6868 153.996 64.5859 154.348 64.5859C154.693 64.5859 154.957 64.6868 155.139 64.8887C155.328 65.0905 155.422 65.3379 155.422 65.6309C155.422 65.9108 155.328 66.1517 155.139 66.3535C154.957 66.5488 154.693 66.6465 154.348 66.6465C153.996 66.6465 153.729 66.5488 153.547 66.3535C153.371 66.1517 153.284 65.9108 153.284 65.6309ZM162.281 68.4336V69.8203H156.568V68.4336H162.281ZM158.502 65.8652H160.308V76.3828C160.308 76.7409 160.364 77.0111 160.474 77.1934C160.585 77.3757 160.728 77.4961 160.904 77.5547C161.08 77.6133 161.268 77.6426 161.47 77.6426C161.62 77.6426 161.776 77.6296 161.939 77.6035C162.108 77.571 162.235 77.5449 162.32 77.5254L162.33 79C162.186 79.0456 161.998 79.0879 161.763 79.127C161.535 79.1725 161.259 79.1953 160.933 79.1953C160.49 79.1953 160.084 79.1074 159.712 78.9316C159.341 78.7559 159.045 78.4629 158.824 78.0527C158.609 77.6361 158.502 77.0762 158.502 76.373V65.8652ZM163.446 73.834V73.6094C163.446 72.8477 163.557 72.1413 163.778 71.4902C164 70.8327 164.319 70.263 164.735 69.7812C165.152 69.293 165.656 68.9154 166.249 68.6484C166.841 68.375 167.505 68.2383 168.241 68.2383C168.983 68.2383 169.651 68.375 170.243 68.6484C170.842 68.9154 171.35 69.293 171.766 69.7812C172.19 70.263 172.512 70.8327 172.733 71.4902C172.955 72.1413 173.065 72.8477 173.065 73.6094V73.834C173.065 74.5957 172.955 75.3021 172.733 75.9531C172.512 76.6042 172.19 77.1738 171.766 77.6621C171.35 78.1439 170.845 78.5215 170.253 78.7949C169.667 79.0618 169.003 79.1953 168.261 79.1953C167.518 79.1953 166.851 79.0618 166.259 78.7949C165.666 78.5215 165.158 78.1439 164.735 77.6621C164.319 77.1738 164 76.6042 163.778 75.9531C163.557 75.3021 163.446 74.5957 163.446 73.834ZM165.253 73.6094V73.834C165.253 74.3613 165.315 74.8594 165.438 75.3281C165.562 75.7904 165.748 76.2005 165.995 76.5586C166.249 76.9167 166.565 77.1999 166.942 77.4082C167.32 77.61 167.759 77.7109 168.261 77.7109C168.755 77.7109 169.188 77.61 169.559 77.4082C169.937 77.1999 170.25 76.9167 170.497 76.5586C170.744 76.2005 170.93 75.7904 171.054 75.3281C171.184 74.8594 171.249 74.3613 171.249 73.834V73.6094C171.249 73.0885 171.184 72.597 171.054 72.1348C170.93 71.666 170.741 71.2526 170.487 70.8945C170.24 70.5299 169.927 70.2435 169.55 70.0352C169.179 69.8268 168.742 69.7227 168.241 69.7227C167.746 69.7227 167.31 69.8268 166.932 70.0352C166.561 70.2435 166.249 70.5299 165.995 70.8945C165.748 71.2526 165.562 71.666 165.438 72.1348C165.315 72.597 165.253 73.0885 165.253 73.6094Z" fill="black"/>
<path d="M34.7244 113.479H36.5994C36.5017 114.377 36.2446 115.181 35.8279 115.891C35.4112 116.6 34.822 117.163 34.0603 117.58C33.2986 117.99 32.3481 118.195 31.2087 118.195C30.3754 118.195 29.617 118.039 28.9334 117.727C28.2563 117.414 27.6736 116.971 27.1853 116.398C26.697 115.819 26.3194 115.126 26.0525 114.318C25.7921 113.505 25.6619 112.6 25.6619 111.604V110.188C25.6619 109.191 25.7921 108.29 26.0525 107.482C26.3194 106.669 26.7003 105.972 27.1951 105.393C27.6964 104.813 28.2986 104.367 29.0017 104.055C29.7048 103.742 30.4959 103.586 31.3748 103.586C32.449 103.586 33.3572 103.788 34.0994 104.191C34.8416 104.595 35.4177 105.155 35.8279 105.871C36.2446 106.581 36.5017 107.404 36.5994 108.342H34.7244C34.6332 107.678 34.464 107.108 34.2166 106.633C33.9692 106.151 33.6176 105.78 33.1619 105.52C32.7061 105.259 32.1104 105.129 31.3748 105.129C30.7433 105.129 30.1866 105.249 29.7048 105.49C29.2296 105.731 28.8292 106.073 28.5037 106.516C28.1847 106.958 27.9438 107.489 27.781 108.107C27.6183 108.726 27.5369 109.413 27.5369 110.168V111.604C27.5369 112.3 27.6085 112.954 27.7517 113.566C27.9015 114.178 28.1261 114.715 28.4255 115.178C28.725 115.64 29.1059 116.005 29.5681 116.271C30.0304 116.532 30.5772 116.662 31.2087 116.662C32.0095 116.662 32.6475 116.535 33.1228 116.281C33.5981 116.027 33.9561 115.663 34.197 115.188C34.4444 114.712 34.6202 114.143 34.7244 113.479ZM40.4209 103V118H38.6143V103H40.4209ZM39.9912 112.316L39.2393 112.287C39.2458 111.564 39.3532 110.897 39.5616 110.285C39.7699 109.667 40.0629 109.13 40.4405 108.674C40.8181 108.218 41.2673 107.867 41.7881 107.619C42.3155 107.365 42.8981 107.238 43.5362 107.238C44.057 107.238 44.5258 107.31 44.9424 107.453C45.3591 107.59 45.7139 107.811 46.0069 108.117C46.3064 108.423 46.5342 108.82 46.6905 109.309C46.8467 109.79 46.9248 110.38 46.9248 111.076V118H45.1084V111.057C45.1084 110.503 45.0271 110.061 44.8643 109.729C44.7015 109.39 44.4639 109.146 44.1514 108.996C43.8389 108.84 43.4548 108.762 42.9991 108.762C42.5498 108.762 42.1397 108.856 41.7686 109.045C41.404 109.234 41.0883 109.494 40.8213 109.826C40.5609 110.158 40.3558 110.539 40.2061 110.969C40.0629 111.392 39.9912 111.841 39.9912 112.316ZM53.7347 118.195C52.999 118.195 52.3317 118.072 51.7327 117.824C51.1403 117.57 50.6292 117.215 50.1995 116.76C49.7764 116.304 49.4508 115.764 49.223 115.139C48.9951 114.514 48.8812 113.83 48.8812 113.088V112.678C48.8812 111.818 49.0081 111.053 49.262 110.383C49.5159 109.706 49.861 109.133 50.2972 108.664C50.7334 108.195 51.2282 107.84 51.7816 107.6C52.3349 107.359 52.9079 107.238 53.5003 107.238C54.2555 107.238 54.9066 107.368 55.4534 107.629C56.0068 107.889 56.4593 108.254 56.8109 108.723C57.1624 109.185 57.4228 109.732 57.5921 110.363C57.7614 110.988 57.846 111.672 57.846 112.414V113.225H49.9554V111.75H56.0394V111.613C56.0133 111.145 55.9157 110.689 55.7464 110.246C55.5836 109.803 55.3232 109.439 54.9652 109.152C54.6071 108.866 54.1188 108.723 53.5003 108.723C53.0902 108.723 52.7126 108.811 52.3675 108.986C52.0224 109.156 51.7262 109.41 51.4788 109.748C51.2314 110.087 51.0394 110.5 50.9027 110.988C50.7659 111.477 50.6976 112.04 50.6976 112.678V113.088C50.6976 113.589 50.7659 114.061 50.9027 114.504C51.0459 114.94 51.251 115.324 51.5179 115.656C51.7913 115.988 52.1201 116.249 52.5042 116.438C52.8948 116.626 53.3376 116.721 53.8323 116.721C54.4704 116.721 55.0107 116.59 55.4534 116.33C55.8961 116.07 56.2835 115.721 56.6155 115.285L57.7093 116.154C57.4814 116.499 57.1917 116.828 56.8402 117.141C56.4886 117.453 56.0556 117.707 55.5413 117.902C55.0335 118.098 54.4313 118.195 53.7347 118.195ZM66.3258 122.062V109.465L66.482 107.434H68.1422V122.062H66.3258ZM59.2262 112.834V112.629C59.2262 111.822 59.3206 111.089 59.5094 110.432C59.6982 109.768 59.9749 109.198 60.3395 108.723C60.704 108.247 61.1435 107.883 61.6578 107.629C62.1786 107.368 62.7711 107.238 63.4352 107.238C64.0992 107.238 64.6819 107.355 65.1832 107.59C65.691 107.818 66.1207 108.153 66.4723 108.596C66.8303 109.032 67.1135 109.559 67.3219 110.178C67.5302 110.796 67.6734 111.496 67.7516 112.277V113.176C67.6799 113.951 67.54 114.647 67.3316 115.266C67.1233 115.884 66.8401 116.411 66.482 116.848C66.1305 117.284 65.6975 117.619 65.1832 117.854C64.6754 118.081 64.0862 118.195 63.4156 118.195C62.7646 118.195 62.1786 118.062 61.6578 117.795C61.1435 117.528 60.704 117.154 60.3395 116.672C59.9814 116.19 59.7047 115.624 59.5094 114.973C59.3206 114.315 59.2262 113.602 59.2262 112.834ZM61.0426 112.629V112.834C61.0426 113.361 61.0979 113.859 61.2086 114.328C61.3193 114.79 61.4885 115.201 61.7164 115.559C61.9508 115.917 62.2437 116.2 62.5953 116.408C62.9534 116.61 63.3766 116.711 63.8648 116.711C64.4638 116.711 64.9618 116.581 65.359 116.32C65.7626 116.06 66.0849 115.718 66.3258 115.295C66.5667 114.865 66.7522 114.406 66.8824 113.918V111.564C66.8108 111.206 66.6969 110.858 66.5406 110.52C66.3909 110.181 66.1956 109.878 65.9547 109.611C65.7138 109.338 65.4208 109.123 65.0758 108.967C64.7372 108.804 64.3401 108.723 63.8844 108.723C63.3896 108.723 62.9631 108.827 62.6051 109.035C62.247 109.243 61.9508 109.53 61.7164 109.895C61.4885 110.253 61.3193 110.666 61.2086 111.135C61.0979 111.604 61.0426 112.102 61.0426 112.629ZM77.2274 115.559V107.434H79.0438V118H77.3153L77.2274 115.559ZM77.5692 113.332L78.3212 113.312C78.3212 114.016 78.2463 114.667 78.0966 115.266C77.9533 115.858 77.719 116.372 77.3934 116.809C77.0679 117.245 76.6415 117.587 76.1141 117.834C75.5868 118.075 74.9455 118.195 74.1903 118.195C73.676 118.195 73.204 118.12 72.7743 117.971C72.3511 117.821 71.9865 117.59 71.6805 117.277C71.3746 116.965 71.1369 116.558 70.9677 116.057C70.8049 115.555 70.7235 114.953 70.7235 114.25V107.434H72.5302V114.27C72.5302 114.745 72.5822 115.139 72.6864 115.451C72.7971 115.757 72.9436 116.001 73.1259 116.184C73.3147 116.359 73.523 116.483 73.7509 116.555C73.9852 116.626 74.2261 116.662 74.4735 116.662C75.2417 116.662 75.8505 116.516 76.2997 116.223C76.7489 115.923 77.0712 115.523 77.2665 115.021C77.4683 114.514 77.5692 113.951 77.5692 113.332ZM85.9025 118.195C85.1668 118.195 84.4995 118.072 83.9005 117.824C83.3081 117.57 82.797 117.215 82.3673 116.76C81.9442 116.304 81.6186 115.764 81.3908 115.139C81.1629 114.514 81.049 113.83 81.049 113.088V112.678C81.049 111.818 81.1759 111.053 81.4298 110.383C81.6837 109.706 82.0288 109.133 82.465 108.664C82.9012 108.195 83.396 107.84 83.9494 107.6C84.5028 107.359 85.0757 107.238 85.6681 107.238C86.4233 107.238 87.0744 107.368 87.6212 107.629C88.1746 107.889 88.6271 108.254 88.9787 108.723C89.3302 109.185 89.5906 109.732 89.7599 110.363C89.9292 110.988 90.0138 111.672 90.0138 112.414V113.225H82.1232V111.75H88.2072V111.613C88.1811 111.145 88.0835 110.689 87.9142 110.246C87.7515 109.803 87.491 109.439 87.133 109.152C86.7749 108.866 86.2866 108.723 85.6681 108.723C85.258 108.723 84.8804 108.811 84.5353 108.986C84.1903 109.156 83.894 109.41 83.6466 109.748C83.3992 110.087 83.2072 110.5 83.0705 110.988C82.9337 111.477 82.8654 112.04 82.8654 112.678V113.088C82.8654 113.589 82.9337 114.061 83.0705 114.504C83.2137 114.94 83.4188 115.324 83.6857 115.656C83.9591 115.988 84.2879 116.249 84.672 116.438C85.0627 116.626 85.5054 116.721 86.0002 116.721C86.6382 116.721 87.1785 116.59 87.6212 116.33C88.064 116.07 88.4513 115.721 88.7834 115.285L89.8771 116.154C89.6492 116.499 89.3595 116.828 89.008 117.141C88.6564 117.453 88.2235 117.707 87.7091 117.902C87.2013 118.098 86.5991 118.195 85.9025 118.195ZM100.753 116.711C101.182 116.711 101.579 116.623 101.944 116.447C102.309 116.271 102.608 116.031 102.842 115.725C103.077 115.412 103.21 115.057 103.243 114.66H104.962C104.929 115.285 104.717 115.868 104.327 116.408C103.943 116.942 103.438 117.375 102.813 117.707C102.188 118.033 101.501 118.195 100.753 118.195C99.9584 118.195 99.265 118.055 98.6726 117.775C98.0866 117.495 97.5984 117.111 97.2077 116.623C96.8236 116.135 96.5339 115.575 96.3386 114.943C96.1498 114.305 96.0554 113.632 96.0554 112.922V112.512C96.0554 111.802 96.1498 111.132 96.3386 110.5C96.5339 109.862 96.8236 109.299 97.2077 108.811C97.5984 108.322 98.0866 107.938 98.6726 107.658C99.265 107.378 99.9584 107.238 100.753 107.238C101.579 107.238 102.302 107.408 102.921 107.746C103.539 108.078 104.024 108.534 104.376 109.113C104.734 109.686 104.929 110.337 104.962 111.066H103.243C103.21 110.63 103.087 110.236 102.872 109.885C102.663 109.533 102.377 109.253 102.012 109.045C101.654 108.83 101.234 108.723 100.753 108.723C100.199 108.723 99.7338 108.833 99.3562 109.055C98.9851 109.27 98.6889 109.562 98.4675 109.934C98.2527 110.298 98.0964 110.705 97.9987 111.154C97.9076 111.597 97.862 112.049 97.862 112.512V112.922C97.862 113.384 97.9076 113.84 97.9987 114.289C98.0899 114.738 98.2429 115.145 98.4577 115.51C98.6791 115.874 98.9753 116.167 99.3464 116.389C99.724 116.604 100.193 116.711 100.753 116.711ZM111.098 118.195C110.362 118.195 109.695 118.072 109.096 117.824C108.503 117.57 107.992 117.215 107.562 116.76C107.139 116.304 106.814 115.764 106.586 115.139C106.358 114.514 106.244 113.83 106.244 113.088V112.678C106.244 111.818 106.371 111.053 106.625 110.383C106.879 109.706 107.224 109.133 107.66 108.664C108.096 108.195 108.591 107.84 109.145 107.6C109.698 107.359 110.271 107.238 110.863 107.238C111.618 107.238 112.27 107.368 112.816 107.629C113.37 107.889 113.822 108.254 114.174 108.723C114.525 109.185 114.786 109.732 114.955 110.363C115.124 110.988 115.209 111.672 115.209 112.414V113.225H107.318V111.75H113.402V111.613C113.376 111.145 113.279 110.689 113.109 110.246C112.947 109.803 112.686 109.439 112.328 109.152C111.97 108.866 111.482 108.723 110.863 108.723C110.453 108.723 110.076 108.811 109.73 108.986C109.385 109.156 109.089 109.41 108.842 109.748C108.594 110.087 108.402 110.5 108.266 110.988C108.129 111.477 108.061 112.04 108.061 112.678V113.088C108.061 113.589 108.129 114.061 108.266 114.504C108.409 114.94 108.614 115.324 108.881 115.656C109.154 115.988 109.483 116.249 109.867 116.438C110.258 116.626 110.701 116.721 111.195 116.721C111.833 116.721 112.374 116.59 112.816 116.33C113.259 116.07 113.646 115.721 113.979 115.285L115.072 116.154C114.844 116.499 114.555 116.828 114.203 117.141C113.852 117.453 113.419 117.707 112.904 117.902C112.396 118.098 111.794 118.195 111.098 118.195ZM118.845 109.094V118H117.038V107.434H118.796L118.845 109.094ZM122.146 107.375L122.136 109.055C121.986 109.022 121.843 109.003 121.706 108.996C121.576 108.983 121.426 108.977 121.257 108.977C120.84 108.977 120.473 109.042 120.154 109.172C119.835 109.302 119.564 109.484 119.343 109.719C119.122 109.953 118.946 110.233 118.816 110.559C118.692 110.878 118.611 111.229 118.572 111.613L118.064 111.906C118.064 111.268 118.126 110.669 118.249 110.109C118.38 109.549 118.578 109.055 118.845 108.625C119.112 108.189 119.45 107.85 119.861 107.609C120.277 107.362 120.772 107.238 121.345 107.238C121.475 107.238 121.625 107.255 121.794 107.287C121.963 107.313 122.081 107.342 122.146 107.375ZM128.448 107.434V108.82H122.735V107.434H128.448ZM124.669 104.865H126.475V115.383C126.475 115.741 126.53 116.011 126.641 116.193C126.752 116.376 126.895 116.496 127.071 116.555C127.247 116.613 127.435 116.643 127.637 116.643C127.787 116.643 127.943 116.63 128.106 116.604C128.275 116.571 128.402 116.545 128.487 116.525L128.497 118C128.353 118.046 128.165 118.088 127.93 118.127C127.702 118.173 127.426 118.195 127.1 118.195C126.657 118.195 126.251 118.107 125.879 117.932C125.508 117.756 125.212 117.463 124.991 117.053C124.776 116.636 124.669 116.076 124.669 115.373V104.865ZM132.25 107.434V118H130.433V107.434H132.25ZM130.297 104.631C130.297 104.338 130.385 104.09 130.56 103.889C130.743 103.687 131.01 103.586 131.361 103.586C131.706 103.586 131.97 103.687 132.152 103.889C132.341 104.09 132.435 104.338 132.435 104.631C132.435 104.911 132.341 105.152 132.152 105.354C131.97 105.549 131.706 105.646 131.361 105.646C131.01 105.646 130.743 105.549 130.56 105.354C130.385 105.152 130.297 104.911 130.297 104.631ZM137.282 118H135.476V106.516C135.476 105.715 135.632 105.038 135.944 104.484C136.257 103.931 136.703 103.511 137.282 103.225C137.862 102.938 138.549 102.795 139.343 102.795C139.812 102.795 140.271 102.854 140.72 102.971C141.169 103.081 141.631 103.221 142.107 103.391L141.804 104.914C141.504 104.797 141.156 104.686 140.759 104.582C140.368 104.471 139.939 104.416 139.47 104.416C138.695 104.416 138.135 104.592 137.79 104.943C137.452 105.288 137.282 105.812 137.282 106.516V118ZM139.441 107.434V108.82H133.806V107.434H139.441ZM142.995 107.434V118H141.189V107.434H142.995ZM149.912 116.711C150.342 116.711 150.739 116.623 151.104 116.447C151.468 116.271 151.768 116.031 152.002 115.725C152.237 115.412 152.37 115.057 152.403 114.66H154.121C154.089 115.285 153.877 115.868 153.487 116.408C153.103 116.942 152.598 117.375 151.973 117.707C151.348 118.033 150.661 118.195 149.912 118.195C149.118 118.195 148.425 118.055 147.832 117.775C147.246 117.495 146.758 117.111 146.368 116.623C145.983 116.135 145.694 115.575 145.498 114.943C145.31 114.305 145.215 113.632 145.215 112.922V112.512C145.215 111.802 145.31 111.132 145.498 110.5C145.694 109.862 145.983 109.299 146.368 108.811C146.758 108.322 147.246 107.938 147.832 107.658C148.425 107.378 149.118 107.238 149.912 107.238C150.739 107.238 151.462 107.408 152.08 107.746C152.699 108.078 153.184 108.534 153.536 109.113C153.894 109.686 154.089 110.337 154.121 111.066H152.403C152.37 110.63 152.246 110.236 152.032 109.885C151.823 109.533 151.537 109.253 151.172 109.045C150.814 108.83 150.394 108.723 149.912 108.723C149.359 108.723 148.894 108.833 148.516 109.055C148.145 109.27 147.849 109.562 147.627 109.934C147.412 110.298 147.256 110.705 147.159 111.154C147.067 111.597 147.022 112.049 147.022 112.512V112.922C147.022 113.384 147.067 113.84 147.159 114.289C147.25 114.738 147.403 115.145 147.618 115.51C147.839 115.874 148.135 116.167 148.506 116.389C148.884 116.604 149.353 116.711 149.912 116.711ZM162.103 116.193V110.754C162.103 110.337 162.019 109.976 161.849 109.67C161.687 109.357 161.439 109.117 161.107 108.947C160.775 108.778 160.365 108.693 159.877 108.693C159.421 108.693 159.021 108.771 158.675 108.928C158.337 109.084 158.07 109.289 157.875 109.543C157.686 109.797 157.591 110.07 157.591 110.363H155.785C155.785 109.986 155.883 109.611 156.078 109.24C156.273 108.869 156.553 108.534 156.918 108.234C157.289 107.928 157.731 107.688 158.246 107.512C158.767 107.329 159.346 107.238 159.984 107.238C160.752 107.238 161.429 107.368 162.015 107.629C162.608 107.889 163.07 108.283 163.402 108.811C163.741 109.331 163.91 109.986 163.91 110.773V115.695C163.91 116.047 163.939 116.421 163.998 116.818C164.063 117.215 164.157 117.557 164.281 117.844V118H162.396C162.305 117.792 162.233 117.515 162.181 117.17C162.129 116.818 162.103 116.493 162.103 116.193ZM162.416 111.594L162.435 112.863H160.609C160.095 112.863 159.636 112.906 159.232 112.99C158.828 113.068 158.49 113.189 158.216 113.352C157.943 113.514 157.735 113.719 157.591 113.967C157.448 114.208 157.377 114.491 157.377 114.816C157.377 115.148 157.452 115.451 157.601 115.725C157.751 115.998 157.976 116.216 158.275 116.379C158.581 116.535 158.955 116.613 159.398 116.613C159.952 116.613 160.44 116.496 160.863 116.262C161.286 116.027 161.621 115.741 161.869 115.402C162.123 115.064 162.259 114.735 162.279 114.416L163.05 115.285C163.005 115.559 162.881 115.861 162.679 116.193C162.478 116.525 162.207 116.844 161.869 117.15C161.537 117.45 161.14 117.701 160.677 117.902C160.222 118.098 159.707 118.195 159.134 118.195C158.418 118.195 157.79 118.055 157.25 117.775C156.716 117.495 156.299 117.121 156 116.652C155.707 116.177 155.56 115.646 155.56 115.061C155.56 114.494 155.671 113.996 155.892 113.566C156.114 113.13 156.433 112.769 156.849 112.482C157.266 112.189 157.767 111.968 158.353 111.818C158.939 111.669 159.593 111.594 160.316 111.594H162.416ZM173.132 115.949V103H174.948V118H173.288L173.132 115.949ZM166.022 112.834V112.629C166.022 111.822 166.12 111.089 166.315 110.432C166.517 109.768 166.8 109.198 167.165 108.723C167.536 108.247 167.976 107.883 168.483 107.629C168.998 107.368 169.571 107.238 170.202 107.238C170.866 107.238 171.446 107.355 171.94 107.59C172.442 107.818 172.865 108.153 173.21 108.596C173.561 109.032 173.838 109.559 174.04 110.178C174.242 110.796 174.382 111.496 174.46 112.277V113.176C174.388 113.951 174.248 114.647 174.04 115.266C173.838 115.884 173.561 116.411 173.21 116.848C172.865 117.284 172.442 117.619 171.94 117.854C171.439 118.081 170.853 118.195 170.183 118.195C169.564 118.195 168.998 118.062 168.483 117.795C167.976 117.528 167.536 117.154 167.165 116.672C166.8 116.19 166.517 115.624 166.315 114.973C166.12 114.315 166.022 113.602 166.022 112.834ZM167.839 112.629V112.834C167.839 113.361 167.891 113.856 167.995 114.318C168.106 114.781 168.275 115.188 168.503 115.539C168.731 115.891 169.02 116.167 169.372 116.369C169.724 116.564 170.144 116.662 170.632 116.662C171.231 116.662 171.722 116.535 172.106 116.281C172.497 116.027 172.81 115.692 173.044 115.275C173.278 114.859 173.461 114.406 173.591 113.918V111.564C173.513 111.206 173.399 110.861 173.249 110.529C173.106 110.191 172.917 109.891 172.683 109.631C172.455 109.364 172.172 109.152 171.833 108.996C171.501 108.84 171.107 108.762 170.651 108.762C170.157 108.762 169.73 108.866 169.372 109.074C169.02 109.276 168.731 109.556 168.503 109.914C168.275 110.266 168.106 110.676 167.995 111.145C167.891 111.607 167.839 112.102 167.839 112.629ZM177.002 112.834V112.609C177.002 111.848 177.113 111.141 177.334 110.49C177.556 109.833 177.875 109.263 178.291 108.781C178.708 108.293 179.212 107.915 179.805 107.648C180.397 107.375 181.061 107.238 181.797 107.238C182.539 107.238 183.207 107.375 183.799 107.648C184.398 107.915 184.906 108.293 185.323 108.781C185.746 109.263 186.068 109.833 186.289 110.49C186.511 111.141 186.621 111.848 186.621 112.609V112.834C186.621 113.596 186.511 114.302 186.289 114.953C186.068 115.604 185.746 116.174 185.323 116.662C184.906 117.144 184.401 117.521 183.809 117.795C183.223 118.062 182.559 118.195 181.817 118.195C181.074 118.195 180.407 118.062 179.815 117.795C179.222 117.521 178.714 117.144 178.291 116.662C177.875 116.174 177.556 115.604 177.334 114.953C177.113 114.302 177.002 113.596 177.002 112.834ZM178.809 112.609V112.834C178.809 113.361 178.871 113.859 178.994 114.328C179.118 114.79 179.304 115.201 179.551 115.559C179.805 115.917 180.121 116.2 180.498 116.408C180.876 116.61 181.315 116.711 181.817 116.711C182.311 116.711 182.744 116.61 183.115 116.408C183.493 116.2 183.806 115.917 184.053 115.559C184.3 115.201 184.486 114.79 184.61 114.328C184.74 113.859 184.805 113.361 184.805 112.834V112.609C184.805 112.089 184.74 111.597 184.61 111.135C184.486 110.666 184.297 110.253 184.043 109.895C183.796 109.53 183.483 109.243 183.106 109.035C182.735 108.827 182.298 108.723 181.797 108.723C181.302 108.723 180.866 108.827 180.489 109.035C180.117 109.243 179.805 109.53 179.551 109.895C179.304 110.253 179.118 110.666 178.994 111.135C178.871 111.597 178.809 112.089 178.809 112.609Z" fill="black"/>
<line x1="24" y1="49.75" x2="260" y2="49.75" stroke="black" stroke-width="0.5"/>
<line x1="24" y1="91.75" x2="260" y2="91.75" stroke="black" stroke-width="0.5"/>
</svg>
