<svg width="52" height="16" viewBox="0 0 52 16" fill="none" xmlns="http://www.w3.org/2000/svg">
<path d="M2.16406 5.17188L0.421875 15.25H0L2.01562 3.54688H2.4375L2.16406 5.17188ZM7.60156 7.6875L7.57031 7.85156C7.48698 8.34115 7.34896 8.83854 7.15625 9.34375C6.96875 9.84896 6.72135 10.3151 6.41406 10.7422C6.10677 11.1641 5.73438 11.5052 5.29688 11.7656C4.86458 12.026 4.35938 12.1562 3.78125 12.1562C3.42708 12.1562 3.07812 12.099 2.73438 11.9844C2.39583 11.8646 2.08854 11.6953 1.8125 11.4766C1.54167 11.2526 1.32812 10.9844 1.17188 10.6719C1.02083 10.3594 0.955729 10.0078 0.976562 9.61719L1.55469 6.17969C1.66927 5.78385 1.84635 5.41927 2.08594 5.08594C2.32552 4.7474 2.60938 4.45052 2.9375 4.19531C3.27083 3.9401 3.63021 3.74219 4.01562 3.60156C4.40625 3.46094 4.80469 3.39062 5.21094 3.39062C5.79948 3.39062 6.27083 3.52604 6.625 3.79688C6.97917 4.0625 7.23698 4.41146 7.39844 4.84375C7.5651 5.27604 7.65885 5.74219 7.67969 6.24219C7.70052 6.74219 7.67448 7.22396 7.60156 7.6875ZM7.14062 7.85156L7.17188 7.6875C7.23958 7.29688 7.27083 6.8776 7.26562 6.42969C7.26562 5.98177 7.20312 5.5599 7.07812 5.16406C6.95833 4.76823 6.75 4.44531 6.45312 4.19531C6.15625 3.9401 5.74479 3.8125 5.21875 3.8125C4.83333 3.8125 4.45833 3.88021 4.09375 4.01562C3.73438 4.15104 3.40104 4.33854 3.09375 4.57812C2.79167 4.81771 2.52865 5.09896 2.30469 5.42188C2.08073 5.73958 1.91667 6.08594 1.8125 6.46094L1.28125 9.42188C1.25 9.90104 1.35417 10.3151 1.59375 10.6641C1.83333 11.0078 2.14844 11.2734 2.53906 11.4609C2.9349 11.6432 3.34896 11.7344 3.78125 11.7344C4.30208 11.7344 4.7526 11.6172 5.13281 11.3828C5.51823 11.1432 5.84375 10.8307 6.10938 10.4453C6.38021 10.0599 6.59896 9.64062 6.76562 9.1875C6.93229 8.73438 7.05729 8.28906 7.14062 7.85156ZM14.6263 10.0469L15.7434 3.54688H16.1731L14.72 12H14.2903L14.6263 10.0469ZM14.9309 8.69531L15.2903 8.6875C15.1966 9.18229 15.0455 9.64062 14.8372 10.0625C14.6289 10.4844 14.3632 10.8516 14.0403 11.1641C13.7226 11.4766 13.3476 11.7214 12.9153 11.8984C12.4882 12.0703 12.0091 12.1562 11.4778 12.1562C10.9934 12.1562 10.5924 12.0703 10.2747 11.8984C9.96219 11.7214 9.7226 11.4818 9.55594 11.1797C9.38927 10.8724 9.28771 10.526 9.25125 10.1406C9.21479 9.75 9.23042 9.34115 9.29813 8.91406L10.22 3.54688H10.6419L9.71219 8.92969C9.6549 9.28385 9.63667 9.6276 9.6575 9.96094C9.67833 10.2943 9.75125 10.5938 9.87625 10.8594C10.0013 11.125 10.1914 11.3385 10.4466 11.5C10.707 11.6562 11.0455 11.7344 11.4622 11.7344C12.0924 11.7344 12.6445 11.6042 13.1184 11.3438C13.5924 11.0833 13.9804 10.7266 14.2825 10.2734C14.5898 9.8151 14.8059 9.28906 14.9309 8.69531ZM19.0728 0H19.4947L17.7056 10.3594L17.4244 12H17.0025L19.0728 0ZM24.0416 7.6875L24.0103 7.85156C23.927 8.34115 23.789 8.83854 23.5963 9.34375C23.4088 9.84896 23.1614 10.3151 22.8541 10.7422C22.5468 11.1641 22.1744 11.5052 21.7369 11.7656C21.3046 12.026 20.7994 12.1562 20.2213 12.1562C19.8723 12.1562 19.5259 12.099 19.1822 11.9844C18.8436 11.8646 18.539 11.6953 18.2681 11.4766C17.9973 11.2526 17.7838 10.987 17.6275 10.6797C17.4765 10.3672 17.4114 10.0156 17.4322 9.625L18.0103 6.17969C18.1249 5.78385 18.2994 5.41927 18.5338 5.08594C18.7733 4.7474 19.0572 4.45312 19.3853 4.20312C19.7186 3.94792 20.078 3.75 20.4634 3.60938C20.8489 3.46354 21.2447 3.39062 21.6509 3.39062C22.2395 3.39062 22.7108 3.52604 23.065 3.79688C23.4192 4.0625 23.677 4.41146 23.8384 4.84375C24.0051 5.27604 24.0989 5.74219 24.1197 6.24219C24.1405 6.74219 24.1145 7.22396 24.0416 7.6875ZM23.5728 7.85156L23.6041 7.6875C23.6718 7.29688 23.703 6.8776 23.6978 6.42969C23.6978 5.98177 23.6353 5.5599 23.5103 5.16406C23.3905 4.76823 23.1822 4.44531 22.8853 4.19531C22.5936 3.9401 22.1848 3.8125 21.6588 3.8125C21.2681 3.8125 20.8931 3.88021 20.5338 4.01562C20.1744 4.15104 19.8436 4.33854 19.5416 4.57812C19.2395 4.81771 18.9765 5.09896 18.7525 5.42188C18.5338 5.73958 18.3697 6.08594 18.2603 6.46094L17.7369 9.42969C17.7056 9.90885 17.8072 10.3203 18.0416 10.6641C18.2811 11.0078 18.5963 11.2734 18.9869 11.4609C19.3775 11.6432 19.789 11.7344 20.2213 11.7344C20.7421 11.7344 21.1926 11.6172 21.5728 11.3828C21.9582 11.1432 22.2838 10.8307 22.5494 10.4453C22.8202 10.0599 23.039 9.64062 23.2056 9.1875C23.3723 8.73438 23.4947 8.28906 23.5728 7.85156ZM27.8241 0L25.7616 12H25.3397L27.4022 0H27.8241ZM30.1378 3.54688L28.6847 12H28.2628L29.7159 3.54688H30.1378ZM29.9659 0.890625C29.9816 0.786458 30.0362 0.690104 30.13 0.601562C30.229 0.513021 30.3331 0.46875 30.4425 0.46875C30.5623 0.46875 30.6586 0.515625 30.7316 0.609375C30.8097 0.703125 30.8383 0.807292 30.8175 0.921875C30.8019 1.02604 30.7446 1.1224 30.6456 1.21094C30.5467 1.29427 30.4425 1.33594 30.3331 1.33594C30.2185 1.33594 30.1222 1.29167 30.0441 1.20312C29.9711 1.10938 29.9451 1.00521 29.9659 0.890625ZM33.9516 11.7344C34.4411 11.7344 34.8891 11.6406 35.2953 11.4531C35.7068 11.2656 36.0557 11 36.3422 10.6562C36.6286 10.3125 36.837 9.90885 36.9672 9.44531H37.3891C37.2641 9.98698 37.0375 10.4609 36.7094 10.8672C36.3813 11.2734 35.9802 11.5911 35.5063 11.8203C35.0323 12.0443 34.5167 12.1562 33.9594 12.1562C33.3708 12.1562 32.8813 12.0312 32.4906 11.7812C32.1052 11.5312 31.8083 11.2005 31.6 10.7891C31.3917 10.3776 31.2589 9.92448 31.2016 9.42969C31.1443 8.92969 31.1521 8.43229 31.225 7.9375L31.2719 7.60938C31.3552 7.08854 31.4984 6.57812 31.7016 6.07812C31.9099 5.57812 32.1781 5.1276 32.5063 4.72656C32.8344 4.32031 33.225 3.9974 33.6781 3.75781C34.1365 3.51302 34.6573 3.39062 35.2406 3.39062C35.8188 3.39062 36.3109 3.52083 36.7172 3.78125C37.1286 4.03646 37.4359 4.38542 37.6391 4.82812C37.8422 5.27083 37.9229 5.77344 37.8813 6.33594H37.4594C37.501 5.85677 37.4385 5.42708 37.2719 5.04688C37.1104 4.66667 36.8552 4.36719 36.5063 4.14844C36.1625 3.92448 35.7432 3.8125 35.2484 3.8125C34.7172 3.8125 34.2484 3.92188 33.8422 4.14062C33.4359 4.35938 33.087 4.65104 32.7953 5.01562C32.5089 5.38021 32.2745 5.78906 32.0922 6.24219C31.9099 6.6901 31.7797 7.14583 31.7016 7.60938L31.6469 7.9375C31.5792 8.375 31.5609 8.81771 31.5922 9.26562C31.6286 9.70833 31.7302 10.1172 31.8969 10.4922C32.0635 10.862 32.3135 11.1615 32.6469 11.3906C32.9854 11.6146 33.4203 11.7292 33.9516 11.7344ZM44.1012 10.4141L44.8512 6.04688C44.9346 5.56771 44.8955 5.16146 44.7341 4.82812C44.5778 4.49479 44.3304 4.24219 43.9919 4.07031C43.6533 3.89844 43.2497 3.8125 42.7809 3.8125C42.3486 3.8125 41.9216 3.89323 41.4997 4.05469C41.083 4.21094 40.7184 4.44271 40.4059 4.75C40.0934 5.05208 39.8851 5.42448 39.7809 5.86719L39.3591 5.85156C39.4372 5.46094 39.5856 5.11458 39.8044 4.8125C40.0283 4.50521 40.2992 4.2474 40.6169 4.03906C40.9346 3.83073 41.2783 3.67188 41.6481 3.5625C42.0231 3.44792 42.4007 3.39062 42.7809 3.39062C43.3226 3.39062 43.7966 3.4974 44.2028 3.71094C44.6091 3.91927 44.9085 4.22396 45.1012 4.625C45.2992 5.02083 45.3539 5.5 45.2653 6.0625L44.5387 10.2969C44.4919 10.5625 44.4554 10.8333 44.4294 11.1094C44.4085 11.3854 44.4216 11.6589 44.4684 11.9297L44.4606 12H43.9841C43.9632 11.7344 43.9658 11.4688 43.9919 11.2031C44.0179 10.9375 44.0544 10.6745 44.1012 10.4141ZM44.82 7.28125L44.7809 7.71094H42.6716C42.307 7.71615 41.9216 7.75521 41.5153 7.82812C41.1091 7.89583 40.7184 8.01302 40.3434 8.17969C39.9684 8.34115 39.6455 8.5625 39.3747 8.84375C39.1091 9.11979 38.9346 9.46875 38.8512 9.89062C38.7835 10.2656 38.8252 10.5911 38.9762 10.8672C39.1273 11.1432 39.3486 11.3568 39.6403 11.5078C39.932 11.6589 40.2523 11.737 40.6012 11.7422C41.1585 11.7474 41.6742 11.651 42.1481 11.4531C42.6273 11.25 43.057 10.9714 43.4372 10.6172C43.8174 10.2578 44.1403 9.84115 44.4059 9.36719L44.5387 9.77344C44.3512 10.138 44.1195 10.4688 43.8434 10.7656C43.5674 11.0625 43.2575 11.3151 42.9137 11.5234C42.57 11.7266 42.2028 11.8828 41.8122 11.9922C41.4268 12.1016 41.0257 12.1562 40.6091 12.1562C40.1611 12.151 39.7601 12.0573 39.4059 11.875C39.0518 11.6875 38.7835 11.4219 38.6012 11.0781C38.419 10.7344 38.3643 10.3281 38.4372 9.85938C38.5153 9.375 38.6976 8.96875 38.9841 8.64062C39.2705 8.3125 39.6169 8.04948 40.0231 7.85156C40.4346 7.65365 40.8695 7.51042 41.3278 7.42188C41.7861 7.33333 42.2236 7.28646 42.6403 7.28125H44.82ZM48.2275 5.01562L47.0244 12H46.6025L48.0556 3.54688H48.4775L48.2275 5.01562ZM51.7431 3.48438L51.6416 3.84375C51.5582 3.83333 51.4749 3.82552 51.3916 3.82031C51.3082 3.8099 51.2223 3.80469 51.1338 3.80469C50.6338 3.80469 50.191 3.91406 49.8056 4.13281C49.4202 4.34635 49.0869 4.63281 48.8056 4.99219C48.5296 5.35156 48.3004 5.7474 48.1181 6.17969C47.941 6.60677 47.8082 7.03385 47.7197 7.46094L47.4306 7.48438C47.5244 7 47.6624 6.51562 47.8447 6.03125C48.0322 5.54688 48.2744 5.10417 48.5713 4.70312C48.8733 4.30208 49.2353 3.98177 49.6572 3.74219C50.0843 3.5026 50.5817 3.38542 51.1494 3.39062C51.2535 3.39062 51.3551 3.39844 51.4541 3.41406C51.553 3.42969 51.6494 3.45312 51.7431 3.48438Z" fill="black"/>
</svg>
