<svg width="67" height="75" viewBox="0 0 67 75" fill="none" xmlns="http://www.w3.org/2000/svg">
<g filter="url(#filter0_d_1013_282)">
<g filter="url(#filter1_i_1013_282)">
<path d="M32.9247 6.80348C33.0608 5.65009 33.1289 5.0734 33.2323 4.97036C33.3829 4.82041 33.6167 4.82041 33.7672 4.97036C33.8707 5.0734 33.9387 5.65009 34.0749 6.80348L35.8057 21.4694C35.8607 21.9349 35.8882 22.1677 35.967 22.2637C36.0814 22.4032 36.2685 22.4455 36.4263 22.3677C36.5349 22.3142 36.6489 22.1134 36.8768 21.7119L44.0567 9.06406C44.6214 8.06938 44.9037 7.57205 45.0375 7.52274C45.2323 7.45099 45.4459 7.55233 45.5262 7.75455C45.5814 7.89352 45.4234 8.44985 45.1074 9.56251L41.09 23.7106C40.9625 24.1597 40.8987 24.3842 40.934 24.5061C40.9854 24.6831 41.1401 24.8029 41.3139 24.8002C41.4336 24.7983 41.6144 24.6643 41.9758 24.3963L53.3633 15.9534C54.2589 15.2894 54.7067 14.9574 54.8477 14.9704C55.0531 14.9892 55.2095 15.1744 55.2057 15.3939C55.203 15.5448 54.8463 15.9846 54.1329 16.8641L45.0618 28.048C44.7739 28.403 44.6299 28.5805 44.6157 28.7072C44.595 28.8911 44.6906 29.0675 44.8505 29.1404C44.9605 29.1906 45.1768 29.1465 45.6093 29.0583L59.2354 26.2802C60.307 26.0618 60.8428 25.9525 60.9667 26.0255C61.1471 26.1317 61.2193 26.3687 61.132 26.5675C61.072 26.7042 60.5783 26.9514 59.5908 27.4457L47.0345 33.7317C46.6359 33.9312 46.4366 34.031 46.3753 34.1405C46.2861 34.2996 46.3061 34.5022 46.4243 34.638C46.5057 34.7316 46.7201 34.785 47.1489 34.8919L60.6575 38.259C61.7198 38.5238 62.251 38.6562 62.3364 38.7766C62.4606 38.9518 62.4362 39.1996 62.2805 39.3434C62.1735 39.4422 61.6281 39.4541 60.5372 39.4778L46.6669 39.7788C46.2266 39.7884 46.0064 39.7932 45.9086 39.8666C45.7664 39.9733 45.7073 40.1671 45.7635 40.3424C45.8021 40.4632 45.9776 40.6049 46.3285 40.8884L57.3838 49.8184C58.2532 50.5207 58.6879 50.8719 58.72 51.0188C58.7666 51.2327 58.6497 51.4485 58.4525 51.5124C58.317 51.5563 57.8143 51.3308 56.8087 50.8797L44.0225 45.1439C43.6167 44.9618 43.4137 44.8708 43.2963 44.8955C43.1257 44.9313 42.9977 45.0828 42.9821 45.2673C42.9713 45.3943 43.0775 45.5998 43.2898 46.0108L49.9803 58.9598C50.5065 59.9781 50.7696 60.4873 50.7427 60.6355C50.7037 60.8511 50.5145 60.9975 50.31 60.9705C50.1694 60.9519 49.7962 60.528 49.0498 59.6801L39.5587 48.8991C39.2574 48.5569 39.1068 48.3858 38.9901 48.3575C38.8205 48.3163 38.6458 48.3992 38.5611 48.561C38.5028 48.6723 38.5213 48.9061 38.5584 49.3736L39.7272 64.1025C39.8192 65.2608 39.8651 65.84 39.784 65.9637C39.6661 66.1437 39.4373 66.1955 39.2608 66.0822C39.1395 66.0043 38.9604 65.4553 38.6022 64.3573L34.0473 50.3953C33.9027 49.9521 33.8304 49.7305 33.7346 49.654C33.5954 49.543 33.4042 49.543 33.265 49.654C33.1692 49.7305 33.0969 49.9521 32.9523 50.3953L28.3974 64.3573C28.0391 65.4553 27.86 66.0043 27.7387 66.0822C27.5622 66.1955 27.3335 66.1437 27.2155 65.9637C27.1344 65.84 27.1804 65.2608 27.2723 64.1025L28.4411 49.3736C28.4782 48.9061 28.4968 48.6723 28.4384 48.561C28.3537 48.3992 28.179 48.3163 28.0095 48.3575C27.8927 48.3858 27.7421 48.5569 27.4408 48.8991L17.9497 59.6801C17.2033 60.528 16.8301 60.9519 16.6896 60.9705C16.4851 60.9975 16.2959 60.8511 16.2568 60.6355C16.23 60.4873 16.4931 59.9781 17.0192 58.9598L23.7097 46.0108C23.9221 45.5998 24.0283 45.3943 24.0175 45.2673C24.0018 45.0828 23.8739 44.9313 23.7033 44.8955C23.5858 44.8708 23.3829 44.9618 22.977 45.1439L10.1909 50.8797C9.1853 51.3308 8.68252 51.5563 8.54705 51.5124C8.3499 51.4485 8.23297 51.2327 8.27959 51.0188C8.31162 50.8719 8.74633 50.5207 9.61577 49.8184L20.6711 40.8884C21.022 40.6049 21.1974 40.4632 21.2361 40.3424C21.2922 40.1671 21.2331 39.9733 21.091 39.8666C20.9931 39.7932 20.773 39.7884 20.3327 39.7788L6.4623 39.4778C5.37148 39.4541 4.82607 39.4422 4.71907 39.3434C4.56337 39.1996 4.53893 38.9518 4.66316 38.7766C4.74853 38.6562 5.27971 38.5238 6.34208 38.259L19.8506 34.8919C20.2794 34.785 20.4938 34.7316 20.5752 34.638C20.6934 34.5022 20.7134 34.2996 20.6243 34.1405C20.5629 34.031 20.3636 33.9312 19.9651 33.7317L7.40877 27.4457C6.42129 26.9514 5.92755 26.7042 5.86754 26.5675C5.78021 26.3687 5.85247 26.1317 6.03284 26.0255C6.15679 25.9525 6.69259 26.0618 7.76419 26.2802L21.3902 29.0583C21.8228 29.1465 22.039 29.1906 22.1491 29.1404C22.309 29.0675 22.4046 28.8911 22.3839 28.7072C22.3696 28.5805 22.2257 28.403 21.9377 28.048L12.8666 16.8641C12.1532 15.9846 11.7965 15.5448 11.7939 15.3939C11.79 15.1744 11.9465 14.9892 12.1518 14.9704C12.2929 14.9574 12.7407 15.2894 13.6362 15.9534L25.0237 24.3963C25.3852 24.6643 25.5659 24.7983 25.6856 24.8002C25.8595 24.8029 26.0142 24.6831 26.0655 24.5061C26.1008 24.3842 26.0371 24.1597 25.9096 23.7106L21.8921 9.56251C21.5762 8.44985 21.4182 7.89352 21.4734 7.75455C21.5536 7.55233 21.7673 7.45099 21.962 7.52274C22.0959 7.57205 22.3782 8.06939 22.9429 9.06406L30.1228 21.7119C30.3507 22.1134 30.4646 22.3142 30.5733 22.3677C30.7311 22.4455 30.9181 22.4032 31.0326 22.2637C31.1114 22.1677 31.1389 21.9349 31.1938 21.4694L32.9247 6.80348Z" fill="#255957"/>
</g>
</g>
<defs>
<filter id="filter0_d_1013_282" x="-4" y="0" width="75" height="79" filterUnits="userSpaceOnUse" color-interpolation-filters="sRGB">
<feFlood flood-opacity="0" result="BackgroundImageFix"/>
<feColorMatrix in="SourceAlpha" type="matrix" values="0 0 0 0 0 0 0 0 0 0 0 0 0 0 0 0 0 0 127 0" result="hardAlpha"/>
<feOffset dy="4"/>
<feGaussianBlur stdDeviation="2"/>
<feComposite in2="hardAlpha" operator="out"/>
<feColorMatrix type="matrix" values="0 0 0 0 0 0 0 0 0 0 0 0 0 0 0 0 0 0 0.25 0"/>
<feBlend mode="normal" in2="BackgroundImageFix" result="effect1_dropShadow_1013_282"/>
<feBlend mode="normal" in="SourceGraphic" in2="effect1_dropShadow_1013_282" result="shape"/>
</filter>
<filter id="filter1_i_1013_282" x="4.58398" y="4.85789" width="57.8315" height="65.2842" filterUnits="userSpaceOnUse" color-interpolation-filters="sRGB">
<feFlood flood-opacity="0" result="BackgroundImageFix"/>
<feBlend mode="normal" in="SourceGraphic" in2="BackgroundImageFix" result="shape"/>
<feColorMatrix in="SourceAlpha" type="matrix" values="0 0 0 0 0 0 0 0 0 0 0 0 0 0 0 0 0 0 127 0" result="hardAlpha"/>
<feOffset dy="4"/>
<feGaussianBlur stdDeviation="2"/>
<feComposite in2="hardAlpha" operator="arithmetic" k2="-1" k3="1"/>
<feColorMatrix type="matrix" values="0 0 0 0 0 0 0 0 0 0 0 0 0 0 0 0 0 0 0.25 0"/>
<feBlend mode="normal" in2="shape" result="effect1_innerShadow_1013_282"/>
</filter>
</defs>
</svg>
