<svg width="275" height="263" viewBox="0 0 275 263" fill="none" xmlns="http://www.w3.org/2000/svg">
<path d="M192.99 26.9056C224.694 26.9056 250.395 51.4848 250.395 81.8048V181.195C250.395 211.515 224.694 236.094 192.99 236.094C166.845 236.094 144.782 219.378 137.85 196.511C137.805 196.362 137.662 196.258 137.5 196.258C137.338 196.258 137.195 196.362 137.15 196.511C130.218 219.378 108.155 236.094 82.0093 236.094C50.3059 236.094 24.6051 211.515 24.6051 181.195V81.8048C24.6051 51.4848 50.3059 26.9056 82.0093 26.9056C107.984 26.9056 129.929 43.4046 137.012 66.0421C137.077 66.2483 137.275 66.3911 137.5 66.3911C137.725 66.3911 137.923 66.2483 137.988 66.0421C145.07 43.4046 167.016 26.9056 192.99 26.9056Z" fill="#255957"/>
</svg>
