<svg width="147" height="121" viewBox="0 0 147 121" fill="none" xmlns="http://www.w3.org/2000/svg">
<path d="M0.000162601 114.773C0.000162601 111.828 2.38798 109.44 5.3335 109.44C8.27901 109.44 10.6668 111.828 10.6668 114.773C10.6668 117.719 8.27901 120.107 5.3335 120.107C2.38798 120.107 0.000162601 117.719 0.000162601 114.773ZM146.333 5.7735L136.333 11.547V-7.62939e-06L146.333 5.7735ZM5.3335 114.773V113.773H55.8335V114.773V115.773H5.3335V114.773ZM95.8335 5.7735V4.7735H137.333V5.7735V6.7735H95.8335V5.7735ZM75.8335 94.7735H74.8335V60.2735H75.8335H76.8335V94.7735H75.8335ZM75.8335 60.2735H74.8335V25.7735H75.8335H76.8335V60.2735H75.8335ZM95.8335 5.7735V6.7735C85.3401 6.7735 76.8335 15.2801 76.8335 25.7735H75.8335H74.8335C74.8335 14.1755 84.2355 4.7735 95.8335 4.7735V5.7735ZM55.8335 114.773V113.773C66.3269 113.773 74.8335 105.267 74.8335 94.7735H75.8335H76.8335C76.8335 106.371 67.4315 115.773 55.8335 115.773V114.773Z" fill="black"/>
</svg>
