<svg width="1899" height="416" viewBox="0 0 1899 416" fill="none" xmlns="http://www.w3.org/2000/svg">
<path d="M1893 -2.0504e-05C1890.05 -2.0504e-05 1887.67 2.38779 1887.67 5.33331C1887.67 8.27883 1890.05 10.6666 1893 10.6666C1895.95 10.6666 1898.33 8.27883 1898.33 5.33331C1898.33 2.38779 1895.95 -2.0504e-05 1893 -2.0504e-05ZM1 307.648V306.648H0V307.648H1ZM1893 5.33331H1892V196.021H1893H1894V5.33331H1893ZM1893 196.021H1892V287.648H1893H1894V196.021H1893ZM1873 307.648V306.648H1V307.648V308.648H1873V307.648ZM1 307.648H0V415.833H1H2V307.648H1ZM1893 287.648H1892C1892 298.141 1883.49 306.648 1873 306.648V307.648V308.648C1884.6 308.648 1894 299.246 1894 287.648H1893Z" fill="black"/>
</svg>
