<svg width="1080" height="304" viewBox="0 0 1080 304" fill="none" xmlns="http://www.w3.org/2000/svg">
<path d="M1074 -2.0504e-05C1071.05 -2.0504e-05 1068.67 2.38779 1068.67 5.33331C1068.67 8.27883 1071.05 10.6666 1074 10.6666C1076.95 10.6666 1079.33 8.27883 1079.33 5.33331C1079.33 2.38779 1076.95 -2.0504e-05 1074 -2.0504e-05ZM1074 5.33331H1073V214.457H1074H1075V5.33331H1074ZM1074 214.457H1073V282.333H1074H1075V214.457H1074ZM1054 302.333V301.333H0V302.333V303.333H1054V302.333ZM1074 282.333H1073C1073 292.827 1064.49 301.333 1054 301.333V302.333V303.333C1065.6 303.333 1075 293.931 1075 282.333H1074Z" fill="black"/>
</svg>
